0
SECTION
2
HEADER
9
$INSUNITS
70
4
9
$ACADVER
1
AC1014
9
$HANDSEED
5
FFFF
0
ENDSEC
0
SECTION
2
TABLES
0
TABLE
2
VPORT
5
8
100
AcDbSymbolTable
0
ENDTAB
0
TABLE
2
LTYPE
5
5
100
AcDbSymbolTable
0
LTYPE
5
14
100
AcDbSymbolTableRecord
100
AcDbLinetypeTableRecord
2
BYBLOCK
70
0
0
LTYPE
5
15
100
AcDbSymbolTableRecord
100
AcDbLinetypeTableRecord
2
BYLAYER
70
0
0
ENDTAB
0
TABLE
2
LAYER
5
2
100
AcDbSymbolTable
70
2
0
LAYER
5
50
100
AcDbSymbolTableRecord
100
AcDbLayerTableRecord
2
0
70
0
6
CONTINUOUS
0
ENDTAB
0
TABLE
2
STYLE
5
3
100
AcDbSymbolTable
70
1
0
STYLE
5
11
100
AcDbSymbolTableRecord
100
AcDbTextStyleTableRecord
2
STANDARD
70
0
0
ENDTAB
0
TABLE
2
VIEW
5
6
100
AcDbSymbolTable
70
0
0
ENDTAB
0
TABLE
2
UCS
5
7
100
AcDbSymbolTable
70
0
0
ENDTAB
0
TABLE
2
APPID
5
9
100
AcDbSymbolTable
70
2
0
APPID
5
12
100
AcDbSymbolTableRecord
100
AcDbRegAppTableRecord
2
ACAD
70
0
0
ENDTAB
0
TABLE
2
DIMSTYLE
5
A
100
AcDbSymbolTable
70
1
0
ENDTAB
0
TABLE
2
BLOCK_RECORD
5
1
100
AcDbSymbolTable
70
1
0
BLOCK_RECORD
5
1F
100
AcDbSymbolTableRecord
100
AcDbBlockTableRecord
2
*MODEL_SPACE
0
BLOCK_RECORD
5
1B
100
AcDbSymbolTableRecord
100
AcDbBlockTableRecord
2
*PAPER_SPACE
0
ENDTAB
0
ENDSEC
0
SECTION
2
BLOCKS
0
BLOCK
5
20
100
AcDbEntity
100
AcDbBlockBegin
2
*MODEL_SPACE
0
ENDBLK
5
21
100
AcDbEntity
100
AcDbBlockEnd
0
BLOCK
5
1C
100
AcDbEntity
100
AcDbBlockBegin
2
*PAPER_SPACE
0
ENDBLK
5
1D
100
AcDbEntity
100
AcDbBlockEnd
0
ENDSEC
0
SECTION
2
ENTITIES
0
CIRCLE
5
100
100
AcDbEntity
8
0
100
AcDbCircle
10
21.850000381469727
20
21.850000381469727
30
0
40
15.500000000000004
210
0
220
-0
230
1
0
CIRCLE
5
101
100
AcDbEntity
8
0
100
AcDbCircle
10
13.350000381469727
20
19.800000381469726
30
0
40
1.0379999999999998
210
0
220
-0
230
1
0
CIRCLE
5
102
100
AcDbEntity
8
0
100
AcDbCircle
10
30.350000381469727
20
25.500000381469725
30
0
40
1.0379999999999998
210
0
220
-0
230
1
0
CIRCLE
5
103
100
AcDbEntity
8
0
100
AcDbCircle
10
21.850000381469727
20
30.850000381469727
30
0
40
1.6000000000000003
210
0
220
-0
230
1
0
CIRCLE
5
104
100
AcDbEntity
8
0
100
AcDbCircle
10
21.850000381469727
20
12.850000381469728
30
0
40
1.6000000000000003
210
0
220
-0
230
1
0
LWPOLYLINE
5
105
100
AcDbEntity
8
0
100
AcDbPolyline
90
8
70
1
43
0.0
10
18.681819837429011
20
22.36331088495092
10
25.017222364501368
20
22.336702723475042
42
-0.41912107801305798
10
26.812527681282262
20
20.564555588297971
10
26.814335371592044
20
20.005198374555853
42
-0.413747406441971
10
25.018217654741143
20
18.204185502099044
10
18.671540385712404
20
18.246715440406689
42
-0.41733667037637118
10
16.87535723885642
20
20.007228033826344
10
16.87426110494496
20
20.565271448763191
42
-0.41512754083511039
0
CIRCLE
5
106
100
AcDbEntity
8
0
100
AcDbCircle
10
30.350000381469727
20
16.850000381469727
30
0
40
0.50000000000000044
210
0
220
-0
230
1
0
CIRCLE
5
107
100
AcDbEntity
8
0
100
AcDbCircle
10
12.850000381469728
20
59.199989318847663
30
0
40
1.6000000000000003
210
0
220
-0
230
1
0
CIRCLE
5
108
100
AcDbEntity
8
0
100
AcDbCircle
10
25.500000381469725
20
50.699989318847656
30
0
40
1.0379999999999998
210
-0
220
0
230
1
0
CIRCLE
5
109
100
AcDbEntity
8
0
100
AcDbCircle
10
30.850000381469727
20
59.199989318847663
30
0
40
1.6000000000000003
210
0
220
-0
230
1
0
LWPOLYLINE
5
110
100
AcDbEntity
8
0
100
AcDbPolyline
90
4
70
1
43
0.0
10
17.605000381469729
20
52.324989318847663
10
17.605000381469722
20
55.324989318847663
10
20.605000381469726
20
55.324989318847663
10
20.605000381469729
20
52.324989318847663
0
CIRCLE
5
111
100
AcDbEntity
8
0
100
AcDbCircle
10
24.220596458334931
20
58.68998933604766
30
0
40
0.49999999999999989
210
0
220
-0
230
1
0
LWPOLYLINE
5
112
100
AcDbEntity
8
0
100
AcDbPolyline
90
4
70
1
43
0.0
10
20.855000381469729
20
65.924989318847651
10
20.855000381469729
20
62.524989318847659
10
15.455000381469723
20
62.524989318847659
10
15.455000381469723
20
65.924989318847651
0
CIRCLE
5
113
100
AcDbEntity
8
0
100
AcDbCircle
10
21.850000381469727
20
59.199989318847663
30
0
40
1.6000000000000003
210
0
220
-0
230
1
0
CIRCLE
5
114
100
AcDbEntity
8
0
100
AcDbCircle
10
25.500000381469725
20
67.699989318847656
30
0
40
1.0379999999999998
210
-0
220
0
230
1
0
CIRCLE
5
115
100
AcDbEntity
8
0
100
AcDbCircle
10
21.850000381469727
20
59.199989318847663
30
0
40
15.499999999999998
210
-0
220
0
230
1
0
CIRCLE
5
116
100
AcDbEntity
8
0
100
AcDbCircle
10
27.350002288818359
20
91.499987792968767
30
0
40
1.0379999999999998
210
0
220
0
230
1
0
CIRCLE
5
117
100
AcDbEntity
8
0
100
AcDbCircle
10
18.850002288818359
20
84.54998779296875
30
0
40
1.6000000000000003
210
0
220
0
230
1
0
CIRCLE
5
118
100
AcDbEntity
8
0
100
AcDbCircle
10
10.350002288818359
20
97.199987792968756
30
0
40
1.0379999999999998
210
0
220
0
230
1
0
LWPOLYLINE
5
119
100
AcDbEntity
8
0
100
AcDbPolyline
90
12
70
1
43
0.0
10
15.687064732593246
20
98.945806417188948
42
0.41472660736624006
10
12.135670449660338
20
95.390987036198339
10
12.13747215348938
20
94.83348223112327
10
12.13747215348938
20
92.266493354814259
10
12.135670449660342
20
91.708988549739189
42
0.41472660736623879
10
15.68706473259325
20
88.154169168748552
10
22.021607324602712
20
88.196617624771505
42
0.41428809225135171
10
25.574676655362243
20
91.689255816367535
10
25.575807429280928
20
92.264914916944903
10
25.575807429280928
20
94.835060668992639
10
25.574676655362243
20
95.410719769569994
42
0.41428809225135249
10
22.021607324602705
20
98.903357961166023
0
CIRCLE
5
120
100
AcDbEntity
8
0
100
AcDbCircle
10
10.350002288818359
20
88.549987792968764
30
0
40
0.50000000000000044
210
0
220
0
230
1
0
CIRCLE
5
121
100
AcDbEntity
8
0
100
AcDbCircle
10
18.850002288818359
20
102.54998779296876
30
0
40
1.6000000000000003
210
0
220
0
230
1
0
CIRCLE
5
122
100
AcDbEntity
8
0
100
AcDbCircle
10
18.850002288818359
20
93.549987792968764
30
0
40
12.5
210
0
220
-0
230
1
0
CIRCLE
5
123
100
AcDbEntity
8
0
100
AcDbCircle
10
10.350002288818359
20
128.54997863769532
30
0
40
1.0379999999999998
210
-0
220
0
230
1
0
CIRCLE
5
124
100
AcDbEntity
8
0
100
AcDbCircle
10
18.850002288818359
20
133.89997863769531
30
0
40
1.6000000000000003
210
-0
220
0
230
1
0
LWPOLYLINE
5
125
100
AcDbEntity
8
0
100
AcDbPolyline
90
6
70
1
43
0.0
10
25.850002393126488
20
124.89997863769531
42
0.99999999999999989
10
11.850002184510231
20
124.89997863769531
10
9.8500021547079086
20
124.89997863769533
10
9.8500021547079051
20
118.57542322311534
42
0.51949385329591613
10
27.85000242292881
20
118.57542322311534
10
27.85000242292881
20
124.89997863769531
0
CIRCLE
5
126
100
AcDbEntity
8
0
100
AcDbCircle
10
27.350002288818359
20
128.54997863769532
30
0
40
1.0379999999999998
210
-0
220
0
230
1
0
CIRCLE
5
127
100
AcDbEntity
8
0
100
AcDbCircle
10
18.850002288818359
20
124.89997863769531
30
0
40
12.5
210
0
220
-0
230
1
0
ENDSEC
0
SECTION
2
OBJECTS
0
DICTIONARY
5
C
100
AcDbDictionary
3
ACAD_GROUP
350
D
3
ACAD_MLINESTYLE
350
17
0
DICTIONARY
5
D
100
AcDbDictionary
0
DICTIONARY
5
1A
330
C
100
AcDbDictionary
0
DICTIONARY
5
17
100
AcDbDictionary
0
ENDSEC
0
EOF
