%TF.GenerationSoftware,KiCad,Pcbnew,7.0.1-3b83917a11~172~ubuntu22.04.1*%
%TF.CreationDate,2023-07-05T11:02:10+02:00*%
%TF.ProjectId,phyphox-newton,70687970-686f-4782-9d6e-6577746f6e2e,rev?*%
%TF.SameCoordinates,Original*%
%TF.FileFunction,Copper,L2,Inr*%
%TF.FilePolarity,Positive*%
%FSLAX46Y46*%
G04 Gerber Fmt 4.6, Leading zero omitted, Abs format (unit mm)*
G04 Created by KiCad (PCBNEW 7.0.1-3b83917a11~172~ubuntu22.04.1) date 2023-07-05 11:02:10*
%MOMM*%
%LPD*%
G01*
G04 APERTURE LIST*
%TA.AperFunction,ComponentPad*%
%ADD10C,2.500000*%
%TD*%
%TA.AperFunction,ComponentPad*%
%ADD11O,1.100000X2.100000*%
%TD*%
%TA.AperFunction,ComponentPad*%
%ADD12O,1.100000X2.600000*%
%TD*%
%TA.AperFunction,ComponentPad*%
%ADD13C,1.524000*%
%TD*%
%TA.AperFunction,ViaPad*%
%ADD14C,0.800000*%
%TD*%
%TA.AperFunction,ViaPad*%
%ADD15C,0.600000*%
%TD*%
G04 APERTURE END LIST*
D10*
%TO.N,N/C*%
%TO.C,H3*%
X121000000Y-137625000D03*
%TD*%
D11*
%TO.N,GND*%
%TO.C,J2*%
X108055000Y-134945000D03*
D12*
X108055000Y-140305000D03*
D11*
X116695000Y-134945000D03*
D12*
X116695000Y-140305000D03*
%TD*%
D13*
%TO.N,SC*%
%TO.C,C1*%
X111375000Y-131500000D03*
%TO.N,GND*%
X116375000Y-131500000D03*
%TD*%
D10*
%TO.N,N/C*%
%TO.C,H1*%
X104000000Y-104875000D03*
%TD*%
D13*
%TO.N,SC*%
%TO.C,C13*%
X113625000Y-131500000D03*
%TO.N,GND*%
X108625000Y-131500000D03*
%TD*%
D10*
%TO.N,N/C*%
%TO.C,H4*%
X104000000Y-137625000D03*
%TD*%
%TO.N,N/C*%
%TO.C,H2*%
X121000000Y-104875000D03*
%TD*%
D14*
%TO.N,VL53_DRY*%
X106000000Y-118750000D03*
%TO.N,SWDIO*%
X109400500Y-114500000D03*
X106816275Y-108728275D03*
X114775500Y-116081637D03*
%TO.N,SWDCLK*%
X115500000Y-115250000D03*
X109400500Y-113500000D03*
X107500000Y-107500000D03*
%TO.N,/USB_N*%
X102001354Y-137105651D03*
X108171232Y-112046087D03*
%TO.N,/USB_P*%
X112200000Y-133800000D03*
X107400000Y-111000000D03*
X101258890Y-137848115D03*
X112840000Y-138730000D03*
%TO.N,SWO*%
X116250000Y-117750000D03*
%TO.N,RESET*%
X107150000Y-101900000D03*
X116200000Y-101325000D03*
D15*
X103022553Y-115624779D03*
D14*
X117175000Y-106425000D03*
X119550000Y-106400000D03*
%TO.N,SC*%
X122250000Y-116500000D03*
X117800000Y-129000000D03*
X123500000Y-112125000D03*
%TO.N,SDA*%
X104100499Y-133052417D03*
X112396094Y-111315204D03*
X110150498Y-102077635D03*
X106891344Y-132476443D03*
X110800000Y-112000000D03*
X112511746Y-126684003D03*
%TO.N,SCL*%
X111800000Y-124600000D03*
X104500000Y-130800000D03*
X111025000Y-101450498D03*
X110800000Y-111000000D03*
X108367339Y-114403050D03*
X102750000Y-134250000D03*
X106480500Y-134258375D03*
%TO.N,VBUS*%
X111400000Y-139600000D03*
X109706886Y-123878901D03*
D15*
X103138498Y-116415828D03*
D14*
X109500000Y-141000000D03*
X111346278Y-137346278D03*
X108049264Y-128338000D03*
X100833641Y-119407960D03*
D15*
%TO.N,GND*%
X100690000Y-107720000D03*
D14*
X122697119Y-126597234D03*
X114400000Y-110800000D03*
D15*
X105990000Y-114720000D03*
X101090000Y-113620000D03*
D14*
X112150498Y-103400498D03*
X109174645Y-122500500D03*
D15*
X104890000Y-111220000D03*
D14*
X111980707Y-127530763D03*
D15*
X100690000Y-114120000D03*
X101090000Y-116620000D03*
D14*
X119120000Y-117540000D03*
D15*
X103490000Y-107720000D03*
D14*
X121000000Y-125250000D03*
X110275367Y-107622922D03*
X120750000Y-120250000D03*
X104257765Y-121189441D03*
D15*
X100690000Y-118520000D03*
X102790000Y-107720000D03*
D14*
X108400000Y-137000000D03*
X108150000Y-110300000D03*
D15*
X101090000Y-115620000D03*
D14*
X116750000Y-107900000D03*
X100750000Y-122000000D03*
D15*
X100690000Y-115120000D03*
X102090000Y-107720000D03*
D14*
X110950000Y-105025000D03*
X123650000Y-108175000D03*
X111400000Y-113000000D03*
X114250000Y-120660000D03*
D15*
X104890000Y-107720000D03*
D14*
X115600000Y-137200000D03*
X117475000Y-101300000D03*
D15*
X104890000Y-108420000D03*
D14*
X111675000Y-109000000D03*
D15*
X101390000Y-107720000D03*
X100690000Y-117820000D03*
X104890000Y-110520000D03*
D14*
X122500000Y-119250000D03*
D15*
X101090000Y-114620000D03*
D14*
X115750000Y-122500000D03*
X103838000Y-132088000D03*
D15*
X103290000Y-114720000D03*
D14*
X123500000Y-134750000D03*
X101911897Y-131088103D03*
X109150000Y-101450498D03*
X117449999Y-111699999D03*
X103995085Y-134046345D03*
D15*
X104890000Y-109820000D03*
X100690000Y-117120000D03*
D14*
X122500500Y-122500000D03*
X105500000Y-125750000D03*
X111500000Y-121000000D03*
D15*
X104190000Y-107720000D03*
D14*
X106175000Y-106775000D03*
X123500000Y-130500000D03*
X116250000Y-120250000D03*
D15*
X100690000Y-116120000D03*
X104890000Y-109120000D03*
D14*
X119182069Y-129471389D03*
X105364689Y-128539481D03*
X106900000Y-103225000D03*
X117200000Y-104850000D03*
X120500000Y-131500000D03*
X104887979Y-119000000D03*
%TO.N,LED_G*%
X108153202Y-118013000D03*
X103804296Y-126278253D03*
%TO.N,LED_B*%
X104050500Y-125100000D03*
X109400500Y-117027345D03*
%TO.N,LED_R*%
X103725500Y-128270000D03*
X109152553Y-117995604D03*
%TO.N,VEML_INT*%
X107925000Y-103075000D03*
%TO.N,BMP581_INT*%
X109400000Y-115900000D03*
X102802165Y-130633760D03*
%TO.N,BMI_INT_2*%
X113200000Y-108600000D03*
X111399500Y-119872463D03*
X113088000Y-115656185D03*
%TO.N,BMI_INT_1*%
X113750000Y-117250000D03*
X112315055Y-119471510D03*
X113800000Y-113800000D03*
%TO.N,VCC_DAM*%
X110349356Y-137418043D03*
X114102755Y-133585833D03*
X108800000Y-125600000D03*
%TO.N,1Wire_DAM*%
X115125000Y-133250000D03*
X109351508Y-137475500D03*
X109516652Y-128667655D03*
%TO.N,1Wire*%
X113500000Y-118687000D03*
X115324218Y-109219439D03*
X112200000Y-106250000D03*
X110400000Y-128200000D03*
%TO.N,CC2*%
X114400000Y-129800000D03*
X113559312Y-137720688D03*
%TO.N,VCC*%
X123450000Y-103500000D03*
X116000000Y-125250000D03*
X101996296Y-118696431D03*
X115201446Y-101449998D03*
X111697367Y-116397247D03*
X109150498Y-105000000D03*
X114400000Y-109600000D03*
X106455500Y-131000000D03*
X105900000Y-136700000D03*
X103700000Y-123700000D03*
X114400000Y-112000000D03*
X111023497Y-110025806D03*
X116650000Y-114970000D03*
X108100500Y-127093750D03*
%TD*%
%TA.AperFunction,Conductor*%
%TO.N,GND*%
G36*
X110709862Y-100715527D02*
G01*
X110754689Y-100756965D01*
X110774312Y-100814771D01*
X110763974Y-100874935D01*
X110726180Y-100922876D01*
X110596717Y-101022215D01*
X110500463Y-101147657D01*
X110439956Y-101293735D01*
X110428146Y-101383437D01*
X110403582Y-101442738D01*
X110352659Y-101481812D01*
X110289022Y-101490190D01*
X110150498Y-101471952D01*
X109993735Y-101492591D01*
X109847657Y-101553098D01*
X109722215Y-101649352D01*
X109625961Y-101774794D01*
X109565454Y-101920872D01*
X109544815Y-102077634D01*
X109565454Y-102234397D01*
X109625961Y-102380475D01*
X109722215Y-102505917D01*
X109847657Y-102602171D01*
X109993736Y-102662679D01*
X110150498Y-102683317D01*
X110307260Y-102662679D01*
X110453339Y-102602171D01*
X110578780Y-102505917D01*
X110675034Y-102380476D01*
X110735542Y-102234397D01*
X110747351Y-102144694D01*
X110771914Y-102085394D01*
X110822838Y-102046320D01*
X110886471Y-102037942D01*
X111025000Y-102056180D01*
X111181762Y-102035542D01*
X111327841Y-101975034D01*
X111453282Y-101878780D01*
X111549536Y-101753339D01*
X111610044Y-101607260D01*
X111630682Y-101450498D01*
X111610044Y-101293736D01*
X111549536Y-101147657D01*
X111482720Y-101060580D01*
X111453282Y-101022215D01*
X111323820Y-100922876D01*
X111286026Y-100874935D01*
X111275688Y-100814771D01*
X111295311Y-100756965D01*
X111340138Y-100715527D01*
X111399306Y-100700500D01*
X114826489Y-100700500D01*
X114885657Y-100715527D01*
X114930484Y-100756965D01*
X114950107Y-100814771D01*
X114939769Y-100874936D01*
X114901975Y-100922876D01*
X114773163Y-101021715D01*
X114676909Y-101147157D01*
X114616402Y-101293235D01*
X114595763Y-101449997D01*
X114616402Y-101606760D01*
X114676909Y-101752838D01*
X114773163Y-101878280D01*
X114880748Y-101960832D01*
X114898605Y-101974534D01*
X115044684Y-102035042D01*
X115201446Y-102055680D01*
X115358208Y-102035042D01*
X115504287Y-101974534D01*
X115629728Y-101878280D01*
X115667231Y-101829404D01*
X115718154Y-101790330D01*
X115781792Y-101781952D01*
X115841091Y-101806513D01*
X115897159Y-101849536D01*
X116043238Y-101910044D01*
X116200000Y-101930682D01*
X116356762Y-101910044D01*
X116502841Y-101849536D01*
X116628282Y-101753282D01*
X116724536Y-101627841D01*
X116785044Y-101481762D01*
X116805682Y-101325000D01*
X116785044Y-101168238D01*
X116724536Y-101022159D01*
X116630790Y-100899986D01*
X116605763Y-100836654D01*
X116617954Y-100769656D01*
X116663686Y-100719199D01*
X116729166Y-100700500D01*
X118175500Y-100700500D01*
X118237500Y-100717113D01*
X118282887Y-100762500D01*
X118299500Y-100824500D01*
X118299500Y-101594484D01*
X118329058Y-101781113D01*
X118370951Y-101910044D01*
X118387453Y-101960832D01*
X118473240Y-102129199D01*
X118506880Y-102175500D01*
X118584309Y-102282073D01*
X118717926Y-102415690D01*
X118789726Y-102467855D01*
X118870801Y-102526760D01*
X119039168Y-102612547D01*
X119218882Y-102670940D01*
X119218883Y-102670940D01*
X119218886Y-102670941D01*
X119405516Y-102700500D01*
X119405519Y-102700500D01*
X119477410Y-102700500D01*
X119500000Y-102700500D01*
X119539882Y-102700500D01*
X123187591Y-102700500D01*
X123252381Y-102718773D01*
X123298076Y-102768205D01*
X123311209Y-102834229D01*
X123287909Y-102897386D01*
X123235043Y-102939061D01*
X123147159Y-102975463D01*
X123021717Y-103071717D01*
X122925463Y-103197159D01*
X122864956Y-103343237D01*
X122844317Y-103500000D01*
X122864956Y-103656762D01*
X122925463Y-103802840D01*
X123021717Y-103928282D01*
X123090462Y-103981031D01*
X123147159Y-104024536D01*
X123293238Y-104085044D01*
X123450000Y-104105682D01*
X123606762Y-104085044D01*
X123752841Y-104024536D01*
X123878282Y-103928282D01*
X123974536Y-103802841D01*
X124035044Y-103656762D01*
X124055682Y-103500000D01*
X124035044Y-103343238D01*
X123974536Y-103197159D01*
X123974535Y-103197158D01*
X123878282Y-103071717D01*
X123752840Y-102975463D01*
X123664957Y-102939061D01*
X123612091Y-102897386D01*
X123588791Y-102834229D01*
X123601924Y-102768205D01*
X123647619Y-102718773D01*
X123712409Y-102700500D01*
X124675500Y-102700500D01*
X124737500Y-102717113D01*
X124782887Y-102762500D01*
X124799500Y-102824500D01*
X124799500Y-139675500D01*
X124782887Y-139737500D01*
X124737500Y-139782887D01*
X124675500Y-139799500D01*
X119405516Y-139799500D01*
X119218886Y-139829058D01*
X119039167Y-139887453D01*
X119008969Y-139902840D01*
X118870801Y-139973240D01*
X118870798Y-139973241D01*
X118870798Y-139973242D01*
X118717926Y-140084309D01*
X118584309Y-140217926D01*
X118473242Y-140370798D01*
X118387453Y-140539167D01*
X118329058Y-140718886D01*
X118299500Y-140905516D01*
X118299500Y-141675500D01*
X118282887Y-141737500D01*
X118237500Y-141782887D01*
X118175500Y-141799500D01*
X117694521Y-141799500D01*
X117633402Y-141783391D01*
X117588163Y-141739249D01*
X117570558Y-141678543D01*
X117585163Y-141617047D01*
X117669766Y-141458764D01*
X117729808Y-141260834D01*
X117745000Y-141106588D01*
X117745000Y-140555000D01*
X115645000Y-140555000D01*
X115645000Y-141106588D01*
X115660191Y-141260834D01*
X115720233Y-141458764D01*
X115804837Y-141617047D01*
X115819442Y-141678543D01*
X115801837Y-141739249D01*
X115756598Y-141783391D01*
X115695479Y-141799500D01*
X109762409Y-141799500D01*
X109697619Y-141781227D01*
X109651924Y-141731795D01*
X109638791Y-141665771D01*
X109662091Y-141602614D01*
X109714957Y-141560939D01*
X109757748Y-141543214D01*
X109802841Y-141524536D01*
X109928282Y-141428282D01*
X110024536Y-141302841D01*
X110085044Y-141156762D01*
X110105682Y-141000000D01*
X110085044Y-140843238D01*
X110024536Y-140697159D01*
X110013879Y-140683271D01*
X109928282Y-140571717D01*
X109802840Y-140475463D01*
X109656762Y-140414956D01*
X109500000Y-140394317D01*
X109343237Y-140414956D01*
X109197159Y-140475463D01*
X109126899Y-140529376D01*
X109091271Y-140548419D01*
X109051413Y-140555000D01*
X107005000Y-140555000D01*
X107005000Y-141106588D01*
X107020191Y-141260834D01*
X107080233Y-141458764D01*
X107164837Y-141617047D01*
X107179442Y-141678543D01*
X107161837Y-141739249D01*
X107116598Y-141783391D01*
X107055479Y-141799500D01*
X106824500Y-141799500D01*
X106762500Y-141782887D01*
X106717113Y-141737500D01*
X106700500Y-141675500D01*
X106700500Y-140905516D01*
X106670941Y-140718886D01*
X106666666Y-140705728D01*
X106612547Y-140539168D01*
X106526760Y-140370801D01*
X106451428Y-140267116D01*
X106415690Y-140217926D01*
X106282073Y-140084309D01*
X106241732Y-140055000D01*
X107005000Y-140055000D01*
X107805000Y-140055000D01*
X107805000Y-138533590D01*
X108305000Y-138533590D01*
X108305000Y-140055000D01*
X109105000Y-140055000D01*
X109105000Y-139600000D01*
X110794317Y-139600000D01*
X110814956Y-139756762D01*
X110875463Y-139902840D01*
X110971717Y-140028282D01*
X111074759Y-140107348D01*
X111097159Y-140124536D01*
X111243238Y-140185044D01*
X111400000Y-140205682D01*
X111556762Y-140185044D01*
X111702841Y-140124536D01*
X111793462Y-140055000D01*
X115645000Y-140055000D01*
X116445000Y-140055000D01*
X116445000Y-138533590D01*
X116945000Y-138533590D01*
X116945000Y-140055000D01*
X117745000Y-140055000D01*
X117745000Y-139503412D01*
X117729808Y-139349165D01*
X117669766Y-139151235D01*
X117572268Y-138968828D01*
X117441054Y-138808945D01*
X117281171Y-138677731D01*
X117098764Y-138580233D01*
X116945000Y-138533590D01*
X116445000Y-138533590D01*
X116291235Y-138580233D01*
X116108828Y-138677731D01*
X115948945Y-138808945D01*
X115817731Y-138968828D01*
X115720233Y-139151235D01*
X115660191Y-139349165D01*
X115645000Y-139503412D01*
X115645000Y-140055000D01*
X111793462Y-140055000D01*
X111828282Y-140028282D01*
X111924536Y-139902841D01*
X111985044Y-139756762D01*
X112005682Y-139600000D01*
X111985044Y-139443238D01*
X111924536Y-139297159D01*
X111924535Y-139297158D01*
X111828282Y-139171717D01*
X111702840Y-139075463D01*
X111556762Y-139014956D01*
X111399999Y-138994317D01*
X111243237Y-139014956D01*
X111097159Y-139075463D01*
X110971717Y-139171717D01*
X110875463Y-139297159D01*
X110814956Y-139443237D01*
X110794317Y-139600000D01*
X109105000Y-139600000D01*
X109105000Y-139503412D01*
X109089808Y-139349165D01*
X109029766Y-139151235D01*
X108932268Y-138968828D01*
X108801054Y-138808945D01*
X108704860Y-138730000D01*
X112234317Y-138730000D01*
X112254956Y-138886762D01*
X112315463Y-139032840D01*
X112411717Y-139158282D01*
X112537159Y-139254536D01*
X112683238Y-139315044D01*
X112819361Y-139332964D01*
X112839999Y-139335682D01*
X112839999Y-139335681D01*
X112840000Y-139335682D01*
X112996762Y-139315044D01*
X113142841Y-139254536D01*
X113268282Y-139158282D01*
X113364536Y-139032841D01*
X113425044Y-138886762D01*
X113445682Y-138730000D01*
X113425044Y-138573238D01*
X113391336Y-138491859D01*
X113382958Y-138428221D01*
X113407522Y-138368920D01*
X113458446Y-138329845D01*
X113522080Y-138321468D01*
X113559312Y-138326370D01*
X113716074Y-138305732D01*
X113862153Y-138245224D01*
X113987594Y-138148970D01*
X114083848Y-138023529D01*
X114144356Y-137877450D01*
X114164994Y-137720688D01*
X114152397Y-137625000D01*
X119544528Y-137625000D01*
X119564379Y-137864558D01*
X119564379Y-137864561D01*
X119564380Y-137864563D01*
X119623390Y-138097591D01*
X119719951Y-138317728D01*
X119851429Y-138518969D01*
X120014236Y-138695825D01*
X120014239Y-138695827D01*
X120203927Y-138843468D01*
X120203929Y-138843469D01*
X120203933Y-138843472D01*
X120415344Y-138957882D01*
X120642703Y-139035934D01*
X120879808Y-139075500D01*
X121120191Y-139075500D01*
X121120192Y-139075500D01*
X121357297Y-139035934D01*
X121584656Y-138957882D01*
X121796067Y-138843472D01*
X121985764Y-138695825D01*
X122148571Y-138518969D01*
X122280049Y-138317728D01*
X122376610Y-138097591D01*
X122435620Y-137864563D01*
X122455471Y-137625000D01*
X122435620Y-137385437D01*
X122376610Y-137152409D01*
X122280049Y-136932272D01*
X122148571Y-136731031D01*
X121985764Y-136554175D01*
X121916119Y-136499968D01*
X121796072Y-136406531D01*
X121796068Y-136406528D01*
X121796067Y-136406528D01*
X121584656Y-136292118D01*
X121584655Y-136292117D01*
X121584652Y-136292116D01*
X121357299Y-136214066D01*
X121199226Y-136187688D01*
X121120192Y-136174500D01*
X120879808Y-136174500D01*
X120820531Y-136184391D01*
X120642700Y-136214066D01*
X120415347Y-136292116D01*
X120203927Y-136406531D01*
X120014239Y-136554172D01*
X120014236Y-136554174D01*
X120014236Y-136554175D01*
X119851429Y-136731031D01*
X119745278Y-136893507D01*
X119719950Y-136932274D01*
X119712662Y-136948889D01*
X119623390Y-137152409D01*
X119574297Y-137346277D01*
X119564379Y-137385441D01*
X119544528Y-137625000D01*
X114152397Y-137625000D01*
X114144356Y-137563926D01*
X114083848Y-137417847D01*
X114047523Y-137370507D01*
X113987594Y-137292405D01*
X113862152Y-137196151D01*
X113716074Y-137135644D01*
X113559311Y-137115005D01*
X113402549Y-137135644D01*
X113256471Y-137196151D01*
X113131029Y-137292405D01*
X113034775Y-137417847D01*
X112974268Y-137563925D01*
X112953629Y-137720687D01*
X112974268Y-137877450D01*
X113007975Y-137958828D01*
X113016353Y-138022466D01*
X112991790Y-138081767D01*
X112940867Y-138120841D01*
X112877229Y-138129219D01*
X112840000Y-138124317D01*
X112683237Y-138144956D01*
X112537159Y-138205463D01*
X112411717Y-138301717D01*
X112315463Y-138427159D01*
X112254956Y-138573237D01*
X112234317Y-138730000D01*
X108704860Y-138730000D01*
X108641171Y-138677731D01*
X108458764Y-138580233D01*
X108305000Y-138533590D01*
X107805000Y-138533590D01*
X107651235Y-138580233D01*
X107468828Y-138677731D01*
X107308945Y-138808945D01*
X107177731Y-138968828D01*
X107080233Y-139151235D01*
X107020191Y-139349165D01*
X107005000Y-139503412D01*
X107005000Y-140055000D01*
X106241732Y-140055000D01*
X106183248Y-140012509D01*
X106129199Y-139973240D01*
X105960832Y-139887453D01*
X105781113Y-139829058D01*
X105594484Y-139799500D01*
X105594481Y-139799500D01*
X105522590Y-139799500D01*
X100324500Y-139799500D01*
X100262500Y-139782887D01*
X100217113Y-139737500D01*
X100200500Y-139675500D01*
X100200500Y-137848114D01*
X100653207Y-137848114D01*
X100673846Y-138004877D01*
X100734353Y-138150955D01*
X100830607Y-138276397D01*
X100895734Y-138326370D01*
X100956049Y-138372651D01*
X101102128Y-138433159D01*
X101238251Y-138451079D01*
X101258889Y-138453797D01*
X101258889Y-138453796D01*
X101258890Y-138453797D01*
X101415652Y-138433159D01*
X101561731Y-138372651D01*
X101687172Y-138276397D01*
X101783426Y-138150956D01*
X101843934Y-138004877D01*
X101864572Y-137848115D01*
X101864572Y-137848114D01*
X101866703Y-137831930D01*
X101866785Y-137831940D01*
X101870446Y-137794770D01*
X101900185Y-137746946D01*
X101948009Y-137717207D01*
X101985179Y-137713546D01*
X101985169Y-137713464D01*
X102015838Y-137709426D01*
X102158116Y-137690695D01*
X102304195Y-137630187D01*
X102350269Y-137594832D01*
X102411053Y-137570083D01*
X102475957Y-137579824D01*
X102526797Y-137621328D01*
X102549332Y-137682968D01*
X102564379Y-137864558D01*
X102564379Y-137864561D01*
X102564380Y-137864563D01*
X102623390Y-138097591D01*
X102719951Y-138317728D01*
X102851429Y-138518969D01*
X103014236Y-138695825D01*
X103014239Y-138695827D01*
X103203927Y-138843468D01*
X103203929Y-138843469D01*
X103203933Y-138843472D01*
X103415344Y-138957882D01*
X103642703Y-139035934D01*
X103879808Y-139075500D01*
X104120191Y-139075500D01*
X104120192Y-139075500D01*
X104357297Y-139035934D01*
X104584656Y-138957882D01*
X104796067Y-138843472D01*
X104985764Y-138695825D01*
X105148571Y-138518969D01*
X105280049Y-138317728D01*
X105376610Y-138097591D01*
X105435620Y-137864563D01*
X105455471Y-137625000D01*
X105443083Y-137475500D01*
X108745825Y-137475500D01*
X108766464Y-137632262D01*
X108826971Y-137778340D01*
X108923225Y-137903782D01*
X109048666Y-138000035D01*
X109048667Y-138000036D01*
X109194746Y-138060544D01*
X109351508Y-138081182D01*
X109508270Y-138060544D01*
X109654349Y-138000036D01*
X109779790Y-137903782D01*
X109784409Y-137897761D01*
X109835332Y-137858685D01*
X109898971Y-137850306D01*
X109958273Y-137874869D01*
X110046514Y-137942578D01*
X110046515Y-137942579D01*
X110192594Y-138003087D01*
X110349356Y-138023725D01*
X110506118Y-138003087D01*
X110652197Y-137942579D01*
X110777638Y-137846325D01*
X110788826Y-137831743D01*
X110839748Y-137792670D01*
X110903386Y-137784291D01*
X110962688Y-137808854D01*
X111043437Y-137870814D01*
X111189516Y-137931322D01*
X111325639Y-137949242D01*
X111346277Y-137951960D01*
X111346277Y-137951959D01*
X111346278Y-137951960D01*
X111503040Y-137931322D01*
X111649119Y-137870814D01*
X111774560Y-137774560D01*
X111870814Y-137649119D01*
X111931322Y-137503040D01*
X111951960Y-137346278D01*
X111931322Y-137189516D01*
X111870814Y-137043437D01*
X111829627Y-136989761D01*
X111774560Y-136917995D01*
X111649118Y-136821741D01*
X111503040Y-136761234D01*
X111346278Y-136740595D01*
X111189515Y-136761234D01*
X111043437Y-136821741D01*
X110917995Y-136917996D01*
X110906805Y-136932579D01*
X110855882Y-136971652D01*
X110792245Y-136980029D01*
X110732945Y-136955466D01*
X110652196Y-136893506D01*
X110506118Y-136832999D01*
X110349356Y-136812360D01*
X110192593Y-136832999D01*
X110046515Y-136893506D01*
X109921073Y-136989761D01*
X109916450Y-136995786D01*
X109865527Y-137034859D01*
X109801890Y-137043236D01*
X109742590Y-137018673D01*
X109654348Y-136950963D01*
X109508270Y-136890456D01*
X109351508Y-136869817D01*
X109194745Y-136890456D01*
X109048667Y-136950963D01*
X108923225Y-137047217D01*
X108826971Y-137172659D01*
X108766464Y-137318737D01*
X108745825Y-137475500D01*
X105443083Y-137475500D01*
X105435620Y-137385437D01*
X105431839Y-137370506D01*
X105433761Y-137302847D01*
X105470928Y-137246277D01*
X105532266Y-137217652D01*
X105599495Y-137225503D01*
X105743238Y-137285044D01*
X105900000Y-137305682D01*
X106056762Y-137285044D01*
X106202841Y-137224536D01*
X106328282Y-137128282D01*
X106424536Y-137002841D01*
X106485044Y-136856762D01*
X106505682Y-136700000D01*
X106485044Y-136543238D01*
X106424536Y-136397159D01*
X106405059Y-136371776D01*
X106328282Y-136271717D01*
X106202840Y-136175463D01*
X106056762Y-136114956D01*
X105899999Y-136094317D01*
X105743237Y-136114956D01*
X105597159Y-136175463D01*
X105471717Y-136271717D01*
X105375463Y-136397159D01*
X105314956Y-136543237D01*
X105307113Y-136602809D01*
X105279209Y-136666274D01*
X105221596Y-136704840D01*
X105152286Y-136706452D01*
X105092946Y-136670606D01*
X104985764Y-136554175D01*
X104985762Y-136554174D01*
X104985760Y-136554171D01*
X104796072Y-136406531D01*
X104796068Y-136406528D01*
X104796067Y-136406528D01*
X104584656Y-136292118D01*
X104584655Y-136292117D01*
X104584652Y-136292116D01*
X104357299Y-136214066D01*
X104199226Y-136187688D01*
X104120192Y-136174500D01*
X103879808Y-136174500D01*
X103820531Y-136184391D01*
X103642700Y-136214066D01*
X103415347Y-136292116D01*
X103203927Y-136406531D01*
X103014239Y-136554172D01*
X102851426Y-136731034D01*
X102762482Y-136867173D01*
X102712558Y-136911032D01*
X102647157Y-136922815D01*
X102585065Y-136899139D01*
X102544113Y-136846804D01*
X102529846Y-136812361D01*
X102525890Y-136802810D01*
X102478151Y-136740595D01*
X102429636Y-136677368D01*
X102304194Y-136581114D01*
X102158116Y-136520607D01*
X102001354Y-136499968D01*
X101844591Y-136520607D01*
X101698513Y-136581114D01*
X101573071Y-136677368D01*
X101476817Y-136802810D01*
X101416310Y-136948888D01*
X101393541Y-137121836D01*
X101393457Y-137121825D01*
X101389795Y-137158999D01*
X101360058Y-137206819D01*
X101312238Y-137236556D01*
X101275064Y-137240218D01*
X101275075Y-137240302D01*
X101102127Y-137263071D01*
X100956049Y-137323578D01*
X100830607Y-137419832D01*
X100734353Y-137545274D01*
X100673846Y-137691352D01*
X100653207Y-137848114D01*
X100200500Y-137848114D01*
X100200500Y-135195000D01*
X107005000Y-135195000D01*
X107005000Y-135496588D01*
X107020191Y-135650834D01*
X107080233Y-135848764D01*
X107177731Y-136031171D01*
X107308945Y-136191054D01*
X107468828Y-136322268D01*
X107651235Y-136419766D01*
X107805000Y-136466410D01*
X107805000Y-135195000D01*
X108305000Y-135195000D01*
X108305000Y-136466410D01*
X108458764Y-136419766D01*
X108641171Y-136322268D01*
X108801054Y-136191054D01*
X108932268Y-136031171D01*
X109029766Y-135848764D01*
X109089808Y-135650834D01*
X109105000Y-135496588D01*
X109105000Y-135195000D01*
X115645000Y-135195000D01*
X115645000Y-135496588D01*
X115660191Y-135650834D01*
X115720233Y-135848764D01*
X115817731Y-136031171D01*
X115948945Y-136191054D01*
X116108828Y-136322268D01*
X116291235Y-136419766D01*
X116445000Y-136466410D01*
X116445000Y-135195000D01*
X116945000Y-135195000D01*
X116945000Y-136466410D01*
X117098764Y-136419766D01*
X117281171Y-136322268D01*
X117441054Y-136191054D01*
X117572268Y-136031171D01*
X117669766Y-135848764D01*
X117729808Y-135650834D01*
X117745000Y-135496588D01*
X117745000Y-135195000D01*
X116945000Y-135195000D01*
X116445000Y-135195000D01*
X115645000Y-135195000D01*
X109105000Y-135195000D01*
X108305000Y-135195000D01*
X107805000Y-135195000D01*
X107005000Y-135195000D01*
X100200500Y-135195000D01*
X100200500Y-134249999D01*
X102144317Y-134249999D01*
X102164956Y-134406762D01*
X102225463Y-134552840D01*
X102321717Y-134678282D01*
X102447159Y-134774536D01*
X102593238Y-134835044D01*
X102729360Y-134852964D01*
X102749999Y-134855682D01*
X102749999Y-134855681D01*
X102750000Y-134855682D01*
X102906762Y-134835044D01*
X103052841Y-134774536D01*
X103178282Y-134678282D01*
X103274536Y-134552841D01*
X103335044Y-134406762D01*
X103354579Y-134258375D01*
X105874817Y-134258375D01*
X105895456Y-134415137D01*
X105955963Y-134561215D01*
X106052217Y-134686657D01*
X106088768Y-134714703D01*
X106177659Y-134782911D01*
X106323738Y-134843419D01*
X106459860Y-134861339D01*
X106480499Y-134864057D01*
X106480499Y-134864056D01*
X106480500Y-134864057D01*
X106637262Y-134843419D01*
X106783341Y-134782911D01*
X106872233Y-134714701D01*
X106926184Y-134690963D01*
X106985004Y-134694818D01*
X106985304Y-134695000D01*
X107805000Y-134695000D01*
X107805000Y-133423590D01*
X108305000Y-133423590D01*
X108305000Y-134695000D01*
X109105000Y-134695000D01*
X115645000Y-134695000D01*
X116445000Y-134695000D01*
X116445000Y-133423590D01*
X116945000Y-133423590D01*
X116945000Y-134695000D01*
X117745000Y-134695000D01*
X117745000Y-134393412D01*
X117729808Y-134239165D01*
X117669766Y-134041235D01*
X117572268Y-133858828D01*
X117441054Y-133698945D01*
X117281171Y-133567731D01*
X117098764Y-133470233D01*
X116945000Y-133423590D01*
X116445000Y-133423590D01*
X116291235Y-133470233D01*
X116108828Y-133567731D01*
X115948945Y-133698945D01*
X115817731Y-133858828D01*
X115720233Y-134041235D01*
X115660191Y-134239165D01*
X115645000Y-134393412D01*
X115645000Y-134695000D01*
X109105000Y-134695000D01*
X109105000Y-134393412D01*
X109089808Y-134239165D01*
X109029766Y-134041235D01*
X108932268Y-133858828D01*
X108883989Y-133800000D01*
X111594317Y-133800000D01*
X111614956Y-133956762D01*
X111675463Y-134102840D01*
X111771717Y-134228282D01*
X111897159Y-134324536D01*
X112043238Y-134385044D01*
X112179360Y-134402964D01*
X112199999Y-134405682D01*
X112199999Y-134405681D01*
X112200000Y-134405682D01*
X112356762Y-134385044D01*
X112502841Y-134324536D01*
X112628282Y-134228282D01*
X112724536Y-134102841D01*
X112785044Y-133956762D01*
X112805682Y-133800000D01*
X112785044Y-133643238D01*
X112761266Y-133585832D01*
X113497072Y-133585832D01*
X113517711Y-133742595D01*
X113578218Y-133888673D01*
X113674472Y-134014115D01*
X113777587Y-134093237D01*
X113799914Y-134110369D01*
X113945993Y-134170877D01*
X114082115Y-134188797D01*
X114102754Y-134191515D01*
X114102754Y-134191514D01*
X114102755Y-134191515D01*
X114259517Y-134170877D01*
X114405596Y-134110369D01*
X114531037Y-134014115D01*
X114627291Y-133888674D01*
X114648731Y-133836912D01*
X114687802Y-133785993D01*
X114747104Y-133761429D01*
X114810743Y-133769807D01*
X114822158Y-133774535D01*
X114822159Y-133774536D01*
X114968238Y-133835044D01*
X115125000Y-133855682D01*
X115281762Y-133835044D01*
X115427841Y-133774536D01*
X115553282Y-133678282D01*
X115649536Y-133552841D01*
X115710044Y-133406762D01*
X115730682Y-133250000D01*
X115710044Y-133093238D01*
X115649536Y-132947159D01*
X115649535Y-132947158D01*
X115553282Y-132821717D01*
X115427840Y-132725463D01*
X115281762Y-132664956D01*
X115125000Y-132644317D01*
X114968237Y-132664956D01*
X114822159Y-132725463D01*
X114696717Y-132821717D01*
X114600464Y-132947158D01*
X114579025Y-132998917D01*
X114539951Y-133049840D01*
X114480650Y-133074403D01*
X114417012Y-133066025D01*
X114259517Y-133000789D01*
X114102755Y-132980150D01*
X113945992Y-133000789D01*
X113799914Y-133061296D01*
X113674472Y-133157550D01*
X113578218Y-133282992D01*
X113517711Y-133429070D01*
X113497072Y-133585832D01*
X112761266Y-133585832D01*
X112724536Y-133497159D01*
X112703875Y-133470233D01*
X112628282Y-133371717D01*
X112502840Y-133275463D01*
X112356762Y-133214956D01*
X112200000Y-133194317D01*
X112043237Y-133214956D01*
X111897159Y-133275463D01*
X111771717Y-133371717D01*
X111675463Y-133497159D01*
X111614956Y-133643237D01*
X111594317Y-133800000D01*
X108883989Y-133800000D01*
X108801054Y-133698945D01*
X108641171Y-133567731D01*
X108458764Y-133470233D01*
X108305000Y-133423590D01*
X107805000Y-133423590D01*
X107651235Y-133470233D01*
X107468828Y-133567731D01*
X107308945Y-133698945D01*
X107177730Y-133858829D01*
X107167016Y-133878875D01*
X107125703Y-133924083D01*
X107067792Y-133944005D01*
X107007409Y-133933782D01*
X106959283Y-133895907D01*
X106908780Y-133830091D01*
X106783340Y-133733838D01*
X106637262Y-133673331D01*
X106480500Y-133652692D01*
X106323737Y-133673331D01*
X106177659Y-133733838D01*
X106052217Y-133830092D01*
X105955963Y-133955534D01*
X105895456Y-134101612D01*
X105874817Y-134258375D01*
X103354579Y-134258375D01*
X103355682Y-134250000D01*
X103335044Y-134093238D01*
X103274536Y-133947159D01*
X103272116Y-133944005D01*
X103178282Y-133821717D01*
X103052840Y-133725463D01*
X102906762Y-133664956D01*
X102750000Y-133644317D01*
X102593237Y-133664956D01*
X102447159Y-133725463D01*
X102321717Y-133821717D01*
X102225463Y-133947159D01*
X102164956Y-134093237D01*
X102144317Y-134249999D01*
X100200500Y-134249999D01*
X100200500Y-133052417D01*
X103494816Y-133052417D01*
X103515455Y-133209179D01*
X103575962Y-133355257D01*
X103672216Y-133480699D01*
X103785640Y-133567731D01*
X103797658Y-133576953D01*
X103943737Y-133637461D01*
X104100499Y-133658099D01*
X104257261Y-133637461D01*
X104403340Y-133576953D01*
X104528781Y-133480699D01*
X104625035Y-133355258D01*
X104685543Y-133209179D01*
X104706181Y-133052417D01*
X104685543Y-132895655D01*
X104625035Y-132749576D01*
X104606533Y-132725464D01*
X104528781Y-132624134D01*
X104403339Y-132527880D01*
X104279158Y-132476443D01*
X106285661Y-132476443D01*
X106306300Y-132633205D01*
X106366807Y-132779283D01*
X106463061Y-132904725D01*
X106518363Y-132947159D01*
X106588503Y-133000979D01*
X106734582Y-133061487D01*
X106891344Y-133082125D01*
X107048106Y-133061487D01*
X107194185Y-133000979D01*
X107319626Y-132904725D01*
X107415880Y-132779284D01*
X107476388Y-132633205D01*
X107487113Y-132551740D01*
X107926812Y-132551740D01*
X107991593Y-132597101D01*
X108191718Y-132690420D01*
X108405021Y-132747575D01*
X108625000Y-132766821D01*
X108844978Y-132747575D01*
X109058281Y-132690420D01*
X109258408Y-132597100D01*
X109323187Y-132551740D01*
X115676812Y-132551740D01*
X115741593Y-132597101D01*
X115941718Y-132690420D01*
X116155021Y-132747575D01*
X116375000Y-132766821D01*
X116594978Y-132747575D01*
X116808281Y-132690420D01*
X117008408Y-132597100D01*
X117073187Y-132551740D01*
X116375001Y-131853553D01*
X116375000Y-131853553D01*
X115676812Y-132551740D01*
X109323187Y-132551740D01*
X108625001Y-131853553D01*
X108625000Y-131853553D01*
X107926812Y-132551740D01*
X107487113Y-132551740D01*
X107497026Y-132476443D01*
X107479244Y-132341375D01*
X107484336Y-132286615D01*
X107512611Y-132239442D01*
X107558507Y-132209138D01*
X107562912Y-132208533D01*
X108271446Y-131500001D01*
X108978553Y-131500001D01*
X109676740Y-132198186D01*
X109722100Y-132133408D01*
X109815420Y-131933281D01*
X109872575Y-131719978D01*
X109891821Y-131500000D01*
X109891821Y-131499999D01*
X110407843Y-131499999D01*
X110426426Y-131688681D01*
X110481464Y-131870117D01*
X110495900Y-131897125D01*
X110570838Y-132037324D01*
X110691117Y-132183883D01*
X110837676Y-132304162D01*
X111004885Y-132393537D01*
X111186317Y-132448573D01*
X111375000Y-132467157D01*
X111563683Y-132448573D01*
X111745115Y-132393537D01*
X111912324Y-132304162D01*
X112058883Y-132183883D01*
X112179162Y-132037324D01*
X112268537Y-131870115D01*
X112323573Y-131688683D01*
X112342157Y-131500000D01*
X112342157Y-131499999D01*
X112657843Y-131499999D01*
X112676426Y-131688681D01*
X112731464Y-131870117D01*
X112745900Y-131897125D01*
X112820838Y-132037324D01*
X112941117Y-132183883D01*
X113087676Y-132304162D01*
X113254885Y-132393537D01*
X113436317Y-132448573D01*
X113625000Y-132467157D01*
X113813683Y-132448573D01*
X113995115Y-132393537D01*
X114162324Y-132304162D01*
X114308883Y-132183883D01*
X114429162Y-132037324D01*
X114518537Y-131870115D01*
X114573573Y-131688683D01*
X114592157Y-131500000D01*
X115108178Y-131500000D01*
X115127424Y-131719978D01*
X115184579Y-131933281D01*
X115277898Y-132133406D01*
X115323258Y-132198187D01*
X116021446Y-131500001D01*
X116728553Y-131500001D01*
X117426740Y-132198186D01*
X117472100Y-132133408D01*
X117565420Y-131933281D01*
X117622575Y-131719978D01*
X117641821Y-131500000D01*
X117622575Y-131280021D01*
X117565421Y-131066720D01*
X117472098Y-130866589D01*
X117426740Y-130801811D01*
X116728553Y-131500000D01*
X116728553Y-131500001D01*
X116021446Y-131500001D01*
X116021446Y-131500000D01*
X115323258Y-130801811D01*
X115323258Y-130801812D01*
X115277900Y-130866589D01*
X115184578Y-131066719D01*
X115127424Y-131280021D01*
X115108178Y-131500000D01*
X114592157Y-131500000D01*
X114573573Y-131311317D01*
X114518537Y-131129885D01*
X114429162Y-130962676D01*
X114308883Y-130816117D01*
X114162324Y-130695838D01*
X113995115Y-130606463D01*
X113904398Y-130578944D01*
X113813681Y-130551426D01*
X113625000Y-130532843D01*
X113436318Y-130551426D01*
X113254882Y-130606464D01*
X113087677Y-130695837D01*
X112941117Y-130816117D01*
X112820837Y-130962677D01*
X112731464Y-131129882D01*
X112676426Y-131311318D01*
X112657843Y-131499999D01*
X112342157Y-131499999D01*
X112323573Y-131311317D01*
X112268537Y-131129885D01*
X112179162Y-130962676D01*
X112058883Y-130816117D01*
X111912324Y-130695838D01*
X111745115Y-130606463D01*
X111654398Y-130578944D01*
X111563681Y-130551426D01*
X111375000Y-130532843D01*
X111186318Y-130551426D01*
X111004882Y-130606464D01*
X110837677Y-130695837D01*
X110691117Y-130816117D01*
X110570837Y-130962677D01*
X110481464Y-131129882D01*
X110426426Y-131311318D01*
X110407843Y-131499999D01*
X109891821Y-131499999D01*
X109872575Y-131280021D01*
X109815421Y-131066720D01*
X109722098Y-130866589D01*
X109676740Y-130801811D01*
X108978553Y-131500000D01*
X108978553Y-131500001D01*
X108271446Y-131500001D01*
X108271446Y-131500000D01*
X107573258Y-130801811D01*
X107573258Y-130801812D01*
X107527900Y-130866589D01*
X107434578Y-131066719D01*
X107377424Y-131280021D01*
X107358178Y-131500000D01*
X107377424Y-131719978D01*
X107408535Y-131836084D01*
X107409334Y-131897125D01*
X107380910Y-131951150D01*
X107330152Y-131985065D01*
X107269363Y-131990651D01*
X107213274Y-131966554D01*
X107194184Y-131951906D01*
X107048106Y-131891399D01*
X106891344Y-131870760D01*
X106734581Y-131891399D01*
X106588503Y-131951906D01*
X106463061Y-132048160D01*
X106366807Y-132173602D01*
X106306300Y-132319680D01*
X106285661Y-132476443D01*
X104279158Y-132476443D01*
X104257261Y-132467373D01*
X104100498Y-132446734D01*
X103943736Y-132467373D01*
X103797658Y-132527880D01*
X103672216Y-132624134D01*
X103575962Y-132749576D01*
X103515455Y-132895654D01*
X103494816Y-133052417D01*
X100200500Y-133052417D01*
X100200500Y-130633760D01*
X102196482Y-130633760D01*
X102217121Y-130790522D01*
X102277628Y-130936600D01*
X102373882Y-131062042D01*
X102427052Y-131102840D01*
X102499324Y-131158296D01*
X102645403Y-131218804D01*
X102802165Y-131239442D01*
X102958927Y-131218804D01*
X103105006Y-131158296D01*
X103230447Y-131062042D01*
X103326701Y-130936601D01*
X103383283Y-130799999D01*
X103894317Y-130799999D01*
X103914956Y-130956762D01*
X103975463Y-131102840D01*
X104071717Y-131228282D01*
X104179933Y-131311318D01*
X104197159Y-131324536D01*
X104343238Y-131385044D01*
X104500000Y-131405682D01*
X104656762Y-131385044D01*
X104802841Y-131324536D01*
X104928282Y-131228282D01*
X105024536Y-131102841D01*
X105067135Y-130999999D01*
X105849817Y-130999999D01*
X105870456Y-131156762D01*
X105930963Y-131302840D01*
X106027217Y-131428282D01*
X106120683Y-131500000D01*
X106152659Y-131524536D01*
X106298738Y-131585044D01*
X106455500Y-131605682D01*
X106612262Y-131585044D01*
X106758341Y-131524536D01*
X106883782Y-131428282D01*
X106980036Y-131302841D01*
X107040544Y-131156762D01*
X107061182Y-131000000D01*
X107040544Y-130843238D01*
X106980036Y-130697159D01*
X106938661Y-130643238D01*
X106883782Y-130571717D01*
X106758340Y-130475463D01*
X106692661Y-130448258D01*
X107926811Y-130448258D01*
X108625000Y-131146446D01*
X108625001Y-131146446D01*
X109323187Y-130448258D01*
X115676811Y-130448258D01*
X116375000Y-131146446D01*
X116375001Y-131146446D01*
X117073187Y-130448258D01*
X117008406Y-130402898D01*
X116808281Y-130309579D01*
X116594978Y-130252424D01*
X116375000Y-130233178D01*
X116155021Y-130252424D01*
X115941719Y-130309578D01*
X115741589Y-130402900D01*
X115676812Y-130448258D01*
X115676811Y-130448258D01*
X109323187Y-130448258D01*
X109258406Y-130402898D01*
X109058281Y-130309579D01*
X108844978Y-130252424D01*
X108625000Y-130233178D01*
X108405021Y-130252424D01*
X108191719Y-130309578D01*
X107991589Y-130402900D01*
X107926812Y-130448258D01*
X107926811Y-130448258D01*
X106692661Y-130448258D01*
X106612262Y-130414956D01*
X106455499Y-130394317D01*
X106298737Y-130414956D01*
X106152659Y-130475463D01*
X106027217Y-130571717D01*
X105930963Y-130697159D01*
X105870456Y-130843237D01*
X105849817Y-130999999D01*
X105067135Y-130999999D01*
X105085044Y-130956762D01*
X105105682Y-130800000D01*
X105085044Y-130643238D01*
X105024536Y-130497159D01*
X104961460Y-130414956D01*
X104928282Y-130371717D01*
X104802840Y-130275463D01*
X104656762Y-130214956D01*
X104500000Y-130194317D01*
X104343237Y-130214956D01*
X104197159Y-130275463D01*
X104071717Y-130371717D01*
X103975463Y-130497159D01*
X103914956Y-130643237D01*
X103894317Y-130799999D01*
X103383283Y-130799999D01*
X103387209Y-130790522D01*
X103407847Y-130633760D01*
X103387209Y-130476998D01*
X103326701Y-130330919D01*
X103284149Y-130275464D01*
X103230447Y-130205477D01*
X103105005Y-130109223D01*
X102958927Y-130048716D01*
X102802165Y-130028077D01*
X102645402Y-130048716D01*
X102499324Y-130109223D01*
X102373882Y-130205477D01*
X102277628Y-130330919D01*
X102217121Y-130476997D01*
X102196482Y-130633760D01*
X100200500Y-130633760D01*
X100200500Y-129800000D01*
X113794317Y-129800000D01*
X113814956Y-129956762D01*
X113875463Y-130102840D01*
X113971717Y-130228282D01*
X114097158Y-130324535D01*
X114097159Y-130324536D01*
X114243238Y-130385044D01*
X114400000Y-130405682D01*
X114556762Y-130385044D01*
X114702841Y-130324536D01*
X114828282Y-130228282D01*
X114924536Y-130102841D01*
X114985044Y-129956762D01*
X115005682Y-129800000D01*
X114985044Y-129643238D01*
X114924536Y-129497159D01*
X114871685Y-129428282D01*
X114828282Y-129371717D01*
X114702840Y-129275463D01*
X114556762Y-129214956D01*
X114400000Y-129194317D01*
X114243237Y-129214956D01*
X114097159Y-129275463D01*
X113971717Y-129371717D01*
X113875463Y-129497159D01*
X113814956Y-129643237D01*
X113794317Y-129800000D01*
X100200500Y-129800000D01*
X100200500Y-128270000D01*
X103119817Y-128270000D01*
X103140456Y-128426762D01*
X103200963Y-128572840D01*
X103297217Y-128698282D01*
X103410286Y-128785042D01*
X103422659Y-128794536D01*
X103568738Y-128855044D01*
X103725500Y-128875682D01*
X103882262Y-128855044D01*
X104028341Y-128794536D01*
X104153782Y-128698282D01*
X104250036Y-128572841D01*
X104310544Y-128426762D01*
X104322230Y-128338000D01*
X107443581Y-128338000D01*
X107464220Y-128494762D01*
X107524727Y-128640840D01*
X107620981Y-128766282D01*
X107657803Y-128794536D01*
X107746423Y-128862536D01*
X107892502Y-128923044D01*
X108049264Y-128943682D01*
X108206026Y-128923044D01*
X108352105Y-128862536D01*
X108477546Y-128766282D01*
X108553226Y-128667654D01*
X108910969Y-128667654D01*
X108931608Y-128824417D01*
X108992115Y-128970495D01*
X109088369Y-129095937D01*
X109167639Y-129156762D01*
X109213811Y-129192191D01*
X109359890Y-129252699D01*
X109516652Y-129273337D01*
X109673414Y-129252699D01*
X109819493Y-129192191D01*
X109944934Y-129095937D01*
X110018550Y-128999999D01*
X117194317Y-128999999D01*
X117214956Y-129156762D01*
X117275463Y-129302840D01*
X117371717Y-129428282D01*
X117497159Y-129524536D01*
X117643238Y-129585044D01*
X117800000Y-129605682D01*
X117956762Y-129585044D01*
X118102841Y-129524536D01*
X118228282Y-129428282D01*
X118324536Y-129302841D01*
X118385044Y-129156762D01*
X118405682Y-129000000D01*
X118385044Y-128843238D01*
X118324536Y-128697159D01*
X118229144Y-128572841D01*
X118228282Y-128571717D01*
X118102840Y-128475463D01*
X117956762Y-128414956D01*
X117800000Y-128394317D01*
X117643237Y-128414956D01*
X117497159Y-128475463D01*
X117371717Y-128571717D01*
X117275463Y-128697159D01*
X117214956Y-128843237D01*
X117194317Y-128999999D01*
X110018550Y-128999999D01*
X110041188Y-128970496D01*
X110088892Y-128855327D01*
X110127969Y-128804403D01*
X110187273Y-128779840D01*
X110226772Y-128785042D01*
X110227053Y-128782913D01*
X110243237Y-128785043D01*
X110243238Y-128785044D01*
X110400000Y-128805682D01*
X110556762Y-128785044D01*
X110702841Y-128724536D01*
X110828282Y-128628282D01*
X110924536Y-128502841D01*
X110985044Y-128356762D01*
X111005682Y-128200000D01*
X110985044Y-128043238D01*
X110924536Y-127897159D01*
X110881994Y-127841717D01*
X110828282Y-127771717D01*
X110702840Y-127675463D01*
X110556762Y-127614956D01*
X110399999Y-127594317D01*
X110243237Y-127614956D01*
X110097159Y-127675463D01*
X109971717Y-127771717D01*
X109875463Y-127897158D01*
X109827759Y-128012327D01*
X109788684Y-128063250D01*
X109729383Y-128087813D01*
X109689879Y-128082612D01*
X109689599Y-128084742D01*
X109673414Y-128082611D01*
X109658929Y-128080704D01*
X109516652Y-128061972D01*
X109359889Y-128082611D01*
X109213811Y-128143118D01*
X109088369Y-128239372D01*
X108992115Y-128364814D01*
X108931608Y-128510892D01*
X108910969Y-128667654D01*
X108553226Y-128667654D01*
X108573800Y-128640841D01*
X108634308Y-128494762D01*
X108654946Y-128338000D01*
X108634308Y-128181238D01*
X108573800Y-128035159D01*
X108477546Y-127909718D01*
X108433973Y-127876283D01*
X108375269Y-127831238D01*
X108336194Y-127780313D01*
X108327817Y-127716673D01*
X108352383Y-127657372D01*
X108403308Y-127618299D01*
X108403341Y-127618286D01*
X108528782Y-127522032D01*
X108625036Y-127396591D01*
X108685544Y-127250512D01*
X108706182Y-127093750D01*
X108685544Y-126936988D01*
X108625036Y-126790909D01*
X108625035Y-126790908D01*
X108543005Y-126684003D01*
X111906063Y-126684003D01*
X111926702Y-126840765D01*
X111987209Y-126986843D01*
X112083463Y-127112285D01*
X112129160Y-127147349D01*
X112208905Y-127208539D01*
X112354984Y-127269047D01*
X112491106Y-127286967D01*
X112511745Y-127289685D01*
X112511745Y-127289684D01*
X112511746Y-127289685D01*
X112668508Y-127269047D01*
X112814587Y-127208539D01*
X112940028Y-127112285D01*
X113036282Y-126986844D01*
X113096790Y-126840765D01*
X113117428Y-126684003D01*
X113101584Y-126563659D01*
X117385392Y-126563659D01*
X117400685Y-126650386D01*
X117415668Y-126735354D01*
X117484721Y-126895438D01*
X117588832Y-127035283D01*
X117722386Y-127147349D01*
X117878185Y-127225594D01*
X118047829Y-127265800D01*
X118178433Y-127265800D01*
X118178436Y-127265800D01*
X118308164Y-127250637D01*
X118471993Y-127191008D01*
X118617654Y-127095205D01*
X118737296Y-126968393D01*
X118824467Y-126817407D01*
X118874469Y-126650388D01*
X118884607Y-126476340D01*
X118854332Y-126304646D01*
X118785279Y-126144562D01*
X118681168Y-126004717D01*
X118547614Y-125892651D01*
X118391815Y-125814406D01*
X118222171Y-125774200D01*
X118091564Y-125774200D01*
X118013727Y-125783297D01*
X117961834Y-125789363D01*
X117798005Y-125848992D01*
X117652346Y-125944794D01*
X117532704Y-126071606D01*
X117445533Y-126222591D01*
X117395531Y-126389613D01*
X117385392Y-126563659D01*
X113101584Y-126563659D01*
X113096790Y-126527241D01*
X113036282Y-126381162D01*
X112940028Y-126255720D01*
X112814586Y-126159466D01*
X112668508Y-126098959D01*
X112511746Y-126078320D01*
X112354983Y-126098959D01*
X112208905Y-126159466D01*
X112083463Y-126255720D01*
X111987209Y-126381162D01*
X111926702Y-126527240D01*
X111906063Y-126684003D01*
X108543005Y-126684003D01*
X108528782Y-126665467D01*
X108403340Y-126569213D01*
X108257262Y-126508706D01*
X108100500Y-126488067D01*
X107943737Y-126508706D01*
X107797659Y-126569213D01*
X107672217Y-126665467D01*
X107575963Y-126790909D01*
X107515456Y-126936987D01*
X107494817Y-127093749D01*
X107515456Y-127250512D01*
X107575963Y-127396590D01*
X107575964Y-127396591D01*
X107672218Y-127522032D01*
X107759363Y-127588900D01*
X107774494Y-127600511D01*
X107813568Y-127651434D01*
X107821946Y-127715071D01*
X107797384Y-127774371D01*
X107746463Y-127813447D01*
X107746423Y-127813463D01*
X107620981Y-127909717D01*
X107524727Y-128035159D01*
X107464220Y-128181237D01*
X107443581Y-128338000D01*
X104322230Y-128338000D01*
X104331182Y-128270000D01*
X104310544Y-128113238D01*
X104250036Y-127967159D01*
X104205960Y-127909718D01*
X104153782Y-127841717D01*
X104028340Y-127745463D01*
X103882262Y-127684956D01*
X103725500Y-127664317D01*
X103568737Y-127684956D01*
X103422659Y-127745463D01*
X103297217Y-127841717D01*
X103200963Y-127967159D01*
X103140456Y-128113237D01*
X103119817Y-128270000D01*
X100200500Y-128270000D01*
X100200500Y-126278252D01*
X103198613Y-126278252D01*
X103219252Y-126435015D01*
X103279759Y-126581093D01*
X103376013Y-126706535D01*
X103485973Y-126790909D01*
X103501455Y-126802789D01*
X103647534Y-126863297D01*
X103804296Y-126883935D01*
X103961058Y-126863297D01*
X104107137Y-126802789D01*
X104232578Y-126706535D01*
X104328832Y-126581094D01*
X104389340Y-126435015D01*
X104409978Y-126278253D01*
X104389340Y-126121491D01*
X104328832Y-125975412D01*
X104305338Y-125944794D01*
X104228817Y-125845069D01*
X104205576Y-125793774D01*
X104207418Y-125737489D01*
X104233965Y-125687824D01*
X104279741Y-125655022D01*
X104353341Y-125624536D01*
X104385318Y-125599999D01*
X108194317Y-125599999D01*
X108214956Y-125756762D01*
X108275463Y-125902840D01*
X108371717Y-126028282D01*
X108436930Y-126078321D01*
X108497159Y-126124536D01*
X108643238Y-126185044D01*
X108800000Y-126205682D01*
X108956762Y-126185044D01*
X109102841Y-126124536D01*
X109228282Y-126028282D01*
X109324536Y-125902841D01*
X109385044Y-125756762D01*
X109405682Y-125600000D01*
X109385044Y-125443238D01*
X109324536Y-125297159D01*
X109324535Y-125297158D01*
X109288350Y-125250000D01*
X115394317Y-125250000D01*
X115414956Y-125406762D01*
X115475463Y-125552840D01*
X115571717Y-125678282D01*
X115648878Y-125737489D01*
X115697159Y-125774536D01*
X115843238Y-125835044D01*
X116000000Y-125855682D01*
X116156762Y-125835044D01*
X116302841Y-125774536D01*
X116428282Y-125678282D01*
X116524536Y-125552841D01*
X116585044Y-125406762D01*
X116605682Y-125250000D01*
X116585044Y-125093238D01*
X116524536Y-124947159D01*
X116490529Y-124902840D01*
X116428282Y-124821717D01*
X116302840Y-124725463D01*
X116156762Y-124664956D01*
X116000000Y-124644317D01*
X115843237Y-124664956D01*
X115697159Y-124725463D01*
X115571717Y-124821717D01*
X115475463Y-124947159D01*
X115414956Y-125093237D01*
X115394317Y-125250000D01*
X109288350Y-125250000D01*
X109228282Y-125171717D01*
X109102840Y-125075463D01*
X108956762Y-125014956D01*
X108800000Y-124994317D01*
X108643237Y-125014956D01*
X108497159Y-125075463D01*
X108371717Y-125171717D01*
X108275463Y-125297159D01*
X108214956Y-125443237D01*
X108194317Y-125599999D01*
X104385318Y-125599999D01*
X104478782Y-125528282D01*
X104575036Y-125402841D01*
X104635544Y-125256762D01*
X104656182Y-125100000D01*
X104635544Y-124943238D01*
X104575036Y-124797159D01*
X104478782Y-124671717D01*
X104385316Y-124599999D01*
X111194317Y-124599999D01*
X111214956Y-124756762D01*
X111275463Y-124902840D01*
X111371717Y-125028282D01*
X111465183Y-125100000D01*
X111497159Y-125124536D01*
X111643238Y-125185044D01*
X111800000Y-125205682D01*
X111956762Y-125185044D01*
X112102841Y-125124536D01*
X112228282Y-125028282D01*
X112324536Y-124902841D01*
X112385044Y-124756762D01*
X112405682Y-124600000D01*
X112385044Y-124443238D01*
X112324536Y-124297159D01*
X112235974Y-124181742D01*
X112228282Y-124171717D01*
X112102840Y-124075463D01*
X111956762Y-124014956D01*
X111800000Y-123994317D01*
X111643237Y-124014956D01*
X111497159Y-124075463D01*
X111371717Y-124171717D01*
X111275463Y-124297159D01*
X111214956Y-124443237D01*
X111194317Y-124599999D01*
X104385316Y-124599999D01*
X104353340Y-124575463D01*
X104207262Y-124514956D01*
X104050499Y-124494317D01*
X103959675Y-124506275D01*
X103901079Y-124499858D01*
X103899070Y-124498515D01*
X103854462Y-124531224D01*
X103747658Y-124575463D01*
X103622217Y-124671717D01*
X103525963Y-124797159D01*
X103465456Y-124943237D01*
X103444817Y-125099999D01*
X103465456Y-125256762D01*
X103525963Y-125402840D01*
X103625978Y-125533183D01*
X103649219Y-125584478D01*
X103647377Y-125640762D01*
X103620831Y-125690427D01*
X103575056Y-125723230D01*
X103501453Y-125753717D01*
X103376013Y-125849970D01*
X103279759Y-125975412D01*
X103219252Y-126121490D01*
X103198613Y-126278252D01*
X100200500Y-126278252D01*
X100200500Y-123700000D01*
X103094317Y-123700000D01*
X103114956Y-123856762D01*
X103175463Y-124002840D01*
X103271717Y-124128282D01*
X103397158Y-124224535D01*
X103397159Y-124224536D01*
X103543238Y-124285044D01*
X103679361Y-124302964D01*
X103699999Y-124305682D01*
X103699999Y-124305681D01*
X103700000Y-124305682D01*
X103790827Y-124293724D01*
X103849419Y-124300141D01*
X103851428Y-124301483D01*
X103896036Y-124268775D01*
X104002841Y-124224536D01*
X104128282Y-124128282D01*
X104224536Y-124002841D01*
X104275874Y-123878900D01*
X109101203Y-123878900D01*
X109121842Y-124035663D01*
X109182349Y-124181741D01*
X109278603Y-124307183D01*
X109404044Y-124403436D01*
X109404045Y-124403437D01*
X109550124Y-124463945D01*
X109706886Y-124484583D01*
X109863648Y-124463945D01*
X110009727Y-124403437D01*
X110135168Y-124307183D01*
X110231422Y-124181742D01*
X110291930Y-124035663D01*
X110312568Y-123878901D01*
X110291930Y-123722139D01*
X110231422Y-123576060D01*
X110206236Y-123543237D01*
X110135168Y-123450618D01*
X110009726Y-123354364D01*
X109863648Y-123293857D01*
X109706886Y-123273218D01*
X109550123Y-123293857D01*
X109404045Y-123354364D01*
X109278603Y-123450618D01*
X109182349Y-123576060D01*
X109121842Y-123722138D01*
X109101203Y-123878900D01*
X104275874Y-123878900D01*
X104285044Y-123856762D01*
X104305682Y-123700000D01*
X104285044Y-123543238D01*
X104224536Y-123397159D01*
X104191699Y-123354365D01*
X104128282Y-123271717D01*
X104002840Y-123175463D01*
X103856762Y-123114956D01*
X103700000Y-123094317D01*
X103543237Y-123114956D01*
X103397159Y-123175463D01*
X103271717Y-123271717D01*
X103175463Y-123397159D01*
X103114956Y-123543237D01*
X103094317Y-123700000D01*
X100200500Y-123700000D01*
X100200500Y-119930496D01*
X100219199Y-119865016D01*
X100269656Y-119819284D01*
X100336654Y-119807093D01*
X100399986Y-119832120D01*
X100452563Y-119872463D01*
X100530800Y-119932496D01*
X100676879Y-119993004D01*
X100833641Y-120013642D01*
X100990403Y-119993004D01*
X101136482Y-119932496D01*
X101214719Y-119872463D01*
X110793817Y-119872463D01*
X110814456Y-120029225D01*
X110874963Y-120175303D01*
X110971217Y-120300745D01*
X111096659Y-120396999D01*
X111242738Y-120457507D01*
X111399500Y-120478145D01*
X111556262Y-120457507D01*
X111702341Y-120396999D01*
X111827782Y-120300745D01*
X111924036Y-120175304D01*
X111952875Y-120105679D01*
X111991947Y-120054760D01*
X112051248Y-120030196D01*
X112114884Y-120038573D01*
X112158293Y-120056554D01*
X112315055Y-120077192D01*
X112471817Y-120056554D01*
X112617896Y-119996046D01*
X112743337Y-119899792D01*
X112839591Y-119774351D01*
X112900099Y-119628272D01*
X112920737Y-119471510D01*
X112900099Y-119314748D01*
X112876115Y-119256847D01*
X112867738Y-119193211D01*
X112892301Y-119133910D01*
X112943224Y-119094835D01*
X113006862Y-119086457D01*
X113066163Y-119111020D01*
X113141291Y-119168667D01*
X113197159Y-119211536D01*
X113343238Y-119272044D01*
X113500000Y-119292682D01*
X113656762Y-119272044D01*
X113802841Y-119211536D01*
X113928282Y-119115282D01*
X114024536Y-118989841D01*
X114085044Y-118843762D01*
X114105682Y-118687000D01*
X114085044Y-118530238D01*
X114024536Y-118384159D01*
X114000321Y-118352601D01*
X113928282Y-118258717D01*
X113802840Y-118162463D01*
X113656762Y-118101956D01*
X113500000Y-118081317D01*
X113343237Y-118101956D01*
X113197159Y-118162463D01*
X113071717Y-118258717D01*
X112975463Y-118384159D01*
X112914956Y-118530237D01*
X112894317Y-118687000D01*
X112914956Y-118843762D01*
X112938938Y-118901661D01*
X112947316Y-118965299D01*
X112922753Y-119024600D01*
X112871830Y-119063674D01*
X112808192Y-119072052D01*
X112748891Y-119047489D01*
X112617895Y-118946973D01*
X112471817Y-118886466D01*
X112315055Y-118865827D01*
X112158292Y-118886466D01*
X112012214Y-118946973D01*
X111886772Y-119043227D01*
X111790519Y-119168667D01*
X111761680Y-119238291D01*
X111722605Y-119289213D01*
X111663304Y-119313776D01*
X111599667Y-119305398D01*
X111556262Y-119287419D01*
X111511113Y-119281475D01*
X111399500Y-119266780D01*
X111242737Y-119287419D01*
X111096659Y-119347926D01*
X110971217Y-119444180D01*
X110874963Y-119569622D01*
X110814456Y-119715700D01*
X110793817Y-119872463D01*
X101214719Y-119872463D01*
X101261923Y-119836242D01*
X101358177Y-119710801D01*
X101418685Y-119564722D01*
X101439323Y-119407960D01*
X101422455Y-119279837D01*
X101428506Y-119222264D01*
X101460038Y-119173709D01*
X101510176Y-119144762D01*
X101567991Y-119141731D01*
X101620880Y-119165279D01*
X101662751Y-119197407D01*
X101693455Y-119220967D01*
X101839534Y-119281475D01*
X101996296Y-119302113D01*
X102153058Y-119281475D01*
X102299137Y-119220967D01*
X102424578Y-119124713D01*
X102520832Y-118999272D01*
X102581340Y-118853193D01*
X102594926Y-118750000D01*
X105394317Y-118750000D01*
X105414956Y-118906762D01*
X105475463Y-119052840D01*
X105571717Y-119178282D01*
X105649923Y-119238291D01*
X105697159Y-119274536D01*
X105843238Y-119335044D01*
X106000000Y-119355682D01*
X106156762Y-119335044D01*
X106302841Y-119274536D01*
X106428282Y-119178282D01*
X106524536Y-119052841D01*
X106585044Y-118906762D01*
X106605682Y-118750000D01*
X106585044Y-118593238D01*
X106524536Y-118447159D01*
X106485785Y-118396657D01*
X106428282Y-118321717D01*
X106302840Y-118225463D01*
X106156762Y-118164956D01*
X106000000Y-118144317D01*
X105843237Y-118164956D01*
X105697159Y-118225463D01*
X105571717Y-118321717D01*
X105475463Y-118447159D01*
X105414956Y-118593237D01*
X105394317Y-118750000D01*
X102594926Y-118750000D01*
X102601978Y-118696431D01*
X102581340Y-118539669D01*
X102520832Y-118393590D01*
X102479359Y-118339541D01*
X102424578Y-118268148D01*
X102299136Y-118171894D01*
X102153058Y-118111387D01*
X101996296Y-118090748D01*
X101839533Y-118111387D01*
X101693455Y-118171894D01*
X101568013Y-118268148D01*
X101471759Y-118393590D01*
X101411252Y-118539668D01*
X101390613Y-118696431D01*
X101407481Y-118824550D01*
X101401430Y-118882127D01*
X101369898Y-118930681D01*
X101319760Y-118959629D01*
X101261945Y-118962659D01*
X101209056Y-118939111D01*
X101136481Y-118883423D01*
X100990403Y-118822916D01*
X100833641Y-118802277D01*
X100676880Y-118822915D01*
X100626552Y-118843762D01*
X100530800Y-118883424D01*
X100530799Y-118883424D01*
X100521453Y-118887296D01*
X100461846Y-118896138D01*
X100405109Y-118875837D01*
X100364642Y-118831188D01*
X100350000Y-118772735D01*
X100350000Y-118012999D01*
X107547519Y-118012999D01*
X107568158Y-118169762D01*
X107628665Y-118315840D01*
X107724919Y-118441282D01*
X107833453Y-118524562D01*
X107850361Y-118537536D01*
X107996440Y-118598044D01*
X108153202Y-118618682D01*
X108309964Y-118598044D01*
X108456043Y-118537536D01*
X108581484Y-118441282D01*
X108581485Y-118441280D01*
X108588725Y-118435725D01*
X108637373Y-118413039D01*
X108691050Y-118413039D01*
X108739698Y-118435724D01*
X108849711Y-118520139D01*
X108849712Y-118520140D01*
X108995791Y-118580648D01*
X109152553Y-118601286D01*
X109309315Y-118580648D01*
X109455394Y-118520140D01*
X109580835Y-118423886D01*
X109677089Y-118298445D01*
X109737597Y-118152366D01*
X109758235Y-117995604D01*
X109737597Y-117838842D01*
X109677089Y-117692763D01*
X109675551Y-117689049D01*
X109666230Y-117636188D01*
X109680123Y-117584340D01*
X109714624Y-117543223D01*
X109828782Y-117455627D01*
X109925036Y-117330186D01*
X109958250Y-117250000D01*
X113144317Y-117250000D01*
X113164956Y-117406762D01*
X113225463Y-117552840D01*
X113321717Y-117678282D01*
X113415183Y-117750000D01*
X113447159Y-117774536D01*
X113593238Y-117835044D01*
X113750000Y-117855682D01*
X113906762Y-117835044D01*
X114052841Y-117774536D01*
X114084817Y-117750000D01*
X115644317Y-117750000D01*
X115664956Y-117906762D01*
X115725463Y-118052840D01*
X115821717Y-118178282D01*
X115938834Y-118268148D01*
X115947159Y-118274536D01*
X116093238Y-118335044D01*
X116226597Y-118352601D01*
X116249999Y-118355682D01*
X116249999Y-118355681D01*
X116250000Y-118355682D01*
X116349288Y-118342610D01*
X116416646Y-118352601D01*
X116468572Y-118396657D01*
X116489405Y-118461490D01*
X116472859Y-118527548D01*
X116429533Y-118602592D01*
X116429533Y-118602593D01*
X116385403Y-118750000D01*
X116379531Y-118769613D01*
X116369392Y-118943659D01*
X116388645Y-119052840D01*
X116399668Y-119115354D01*
X116468721Y-119275438D01*
X116572832Y-119415283D01*
X116706386Y-119527349D01*
X116862185Y-119605594D01*
X117031829Y-119645800D01*
X117162433Y-119645800D01*
X117162436Y-119645800D01*
X117292164Y-119630637D01*
X117455993Y-119571008D01*
X117601654Y-119475205D01*
X117721296Y-119348393D01*
X117808467Y-119197407D01*
X117858469Y-119030388D01*
X117863521Y-118943659D01*
X118401392Y-118943659D01*
X118420645Y-119052840D01*
X118431668Y-119115354D01*
X118500721Y-119275438D01*
X118604832Y-119415283D01*
X118738386Y-119527349D01*
X118894185Y-119605594D01*
X119063829Y-119645800D01*
X119194433Y-119645800D01*
X119194436Y-119645800D01*
X119324164Y-119630637D01*
X119487993Y-119571008D01*
X119633654Y-119475205D01*
X119753296Y-119348393D01*
X119840467Y-119197407D01*
X119890469Y-119030388D01*
X119900607Y-118856340D01*
X119870332Y-118684646D01*
X119801279Y-118524562D01*
X119697168Y-118384717D01*
X119637970Y-118335044D01*
X119563615Y-118272652D01*
X119563614Y-118272651D01*
X119407815Y-118194406D01*
X119238171Y-118154200D01*
X119107564Y-118154200D01*
X119036861Y-118162464D01*
X118977834Y-118169363D01*
X118814005Y-118228992D01*
X118668346Y-118324794D01*
X118548704Y-118451606D01*
X118461533Y-118602591D01*
X118456716Y-118618682D01*
X118417403Y-118750000D01*
X118411531Y-118769613D01*
X118401392Y-118943659D01*
X117863521Y-118943659D01*
X117868607Y-118856340D01*
X117838332Y-118684646D01*
X117769279Y-118524562D01*
X117665168Y-118384717D01*
X117605970Y-118335044D01*
X117531615Y-118272652D01*
X117531614Y-118272651D01*
X117375815Y-118194406D01*
X117206171Y-118154200D01*
X117075564Y-118154200D01*
X116945836Y-118169363D01*
X116945834Y-118169363D01*
X116931440Y-118171046D01*
X116931264Y-118169546D01*
X116895648Y-118173758D01*
X116842155Y-118154547D01*
X116802853Y-118113486D01*
X116786000Y-118059203D01*
X116795136Y-118003107D01*
X116835044Y-117906762D01*
X116855682Y-117750000D01*
X116835044Y-117593238D01*
X116774536Y-117447159D01*
X116743964Y-117407317D01*
X116678282Y-117321717D01*
X116552840Y-117225463D01*
X116406762Y-117164956D01*
X116250000Y-117144317D01*
X116093237Y-117164956D01*
X115947159Y-117225463D01*
X115821717Y-117321717D01*
X115725463Y-117447159D01*
X115664956Y-117593237D01*
X115644317Y-117750000D01*
X114084817Y-117750000D01*
X114178282Y-117678282D01*
X114274536Y-117552841D01*
X114335044Y-117406762D01*
X114355682Y-117250000D01*
X114335044Y-117093238D01*
X114274536Y-116947159D01*
X114260051Y-116928282D01*
X114178282Y-116821717D01*
X114052840Y-116725463D01*
X113906762Y-116664956D01*
X113750000Y-116644317D01*
X113593237Y-116664956D01*
X113447159Y-116725463D01*
X113321717Y-116821717D01*
X113225463Y-116947159D01*
X113164956Y-117093237D01*
X113144317Y-117250000D01*
X109958250Y-117250000D01*
X109985544Y-117184107D01*
X110006182Y-117027345D01*
X109985544Y-116870583D01*
X109925036Y-116724504D01*
X109880667Y-116666681D01*
X109828782Y-116599062D01*
X109780293Y-116561856D01*
X109744567Y-116518324D01*
X109731779Y-116463479D01*
X109744567Y-116408635D01*
X109753913Y-116397247D01*
X111091684Y-116397247D01*
X111112323Y-116554009D01*
X111172830Y-116700087D01*
X111269084Y-116825529D01*
X111387417Y-116916328D01*
X111394526Y-116921783D01*
X111540605Y-116982291D01*
X111697367Y-117002929D01*
X111854129Y-116982291D01*
X112000208Y-116921783D01*
X112125649Y-116825529D01*
X112221903Y-116700088D01*
X112282411Y-116554009D01*
X112303049Y-116397247D01*
X112282411Y-116240485D01*
X112221903Y-116094406D01*
X112193018Y-116056762D01*
X112125649Y-115968964D01*
X112000207Y-115872710D01*
X111854129Y-115812203D01*
X111697367Y-115791564D01*
X111540604Y-115812203D01*
X111394526Y-115872710D01*
X111269084Y-115968964D01*
X111172830Y-116094406D01*
X111112323Y-116240484D01*
X111091684Y-116397247D01*
X109753913Y-116397247D01*
X109780290Y-116365106D01*
X109828282Y-116328282D01*
X109924536Y-116202841D01*
X109985044Y-116056762D01*
X110005682Y-115900000D01*
X109985044Y-115743238D01*
X109948985Y-115656184D01*
X112482317Y-115656184D01*
X112502956Y-115812947D01*
X112563463Y-115959025D01*
X112659717Y-116084467D01*
X112735291Y-116142456D01*
X112785159Y-116180721D01*
X112931238Y-116241229D01*
X113088000Y-116261867D01*
X113244762Y-116241229D01*
X113390841Y-116180721D01*
X113516282Y-116084467D01*
X113518454Y-116081636D01*
X114169817Y-116081636D01*
X114190456Y-116238399D01*
X114250963Y-116384477D01*
X114347217Y-116509919D01*
X114463390Y-116599061D01*
X114472659Y-116606173D01*
X114618738Y-116666681D01*
X114775500Y-116687319D01*
X114932262Y-116666681D01*
X115078341Y-116606173D01*
X115203782Y-116509919D01*
X115211394Y-116499999D01*
X121644317Y-116499999D01*
X121664956Y-116656762D01*
X121725463Y-116802840D01*
X121821717Y-116928282D01*
X121892104Y-116982291D01*
X121947159Y-117024536D01*
X122093238Y-117085044D01*
X122250000Y-117105682D01*
X122406762Y-117085044D01*
X122552841Y-117024536D01*
X122678282Y-116928282D01*
X122774536Y-116802841D01*
X122835044Y-116656762D01*
X122855682Y-116500000D01*
X122835044Y-116343238D01*
X122774536Y-116197159D01*
X122732561Y-116142456D01*
X122678282Y-116071717D01*
X122552840Y-115975463D01*
X122406762Y-115914956D01*
X122250000Y-115894317D01*
X122093237Y-115914956D01*
X121947159Y-115975463D01*
X121821717Y-116071717D01*
X121725463Y-116197159D01*
X121664956Y-116343237D01*
X121644317Y-116499999D01*
X115211394Y-116499999D01*
X115300036Y-116384478D01*
X115360544Y-116238399D01*
X115381182Y-116081637D01*
X115369907Y-115995995D01*
X115375427Y-115939951D01*
X115405166Y-115892128D01*
X115452989Y-115862390D01*
X115484015Y-115859334D01*
X115483815Y-115857813D01*
X115514484Y-115853775D01*
X115656762Y-115835044D01*
X115802841Y-115774536D01*
X115928282Y-115678282D01*
X116024536Y-115552841D01*
X116058832Y-115470042D01*
X116091631Y-115424271D01*
X116141297Y-115397723D01*
X116197582Y-115395881D01*
X116248877Y-115419122D01*
X116322944Y-115475955D01*
X116347159Y-115494536D01*
X116493238Y-115555044D01*
X116650000Y-115575682D01*
X116806762Y-115555044D01*
X116952841Y-115494536D01*
X117078282Y-115398282D01*
X117174536Y-115272841D01*
X117235044Y-115126762D01*
X117255682Y-114970000D01*
X117235044Y-114813238D01*
X117174536Y-114667159D01*
X117157009Y-114644317D01*
X117078282Y-114541717D01*
X116952840Y-114445463D01*
X116806762Y-114384956D01*
X116650000Y-114364317D01*
X116493237Y-114384956D01*
X116347159Y-114445463D01*
X116221717Y-114541717D01*
X116125464Y-114667158D01*
X116091169Y-114749954D01*
X116058367Y-114795729D01*
X116008702Y-114822276D01*
X115952417Y-114824118D01*
X115901122Y-114800877D01*
X115802840Y-114725463D01*
X115656762Y-114664956D01*
X115500000Y-114644317D01*
X115343237Y-114664956D01*
X115197159Y-114725463D01*
X115071717Y-114821717D01*
X114975463Y-114947159D01*
X114914956Y-115093237D01*
X114894317Y-115250000D01*
X114905592Y-115335642D01*
X114900073Y-115391682D01*
X114870338Y-115439503D01*
X114822520Y-115469242D01*
X114791484Y-115472301D01*
X114791685Y-115473824D01*
X114618737Y-115496593D01*
X114472659Y-115557100D01*
X114347217Y-115653354D01*
X114250963Y-115778796D01*
X114190456Y-115924874D01*
X114169817Y-116081636D01*
X113518454Y-116081636D01*
X113612536Y-115959026D01*
X113673044Y-115812947D01*
X113693682Y-115656185D01*
X113693309Y-115653355D01*
X113685911Y-115597159D01*
X113673044Y-115499423D01*
X113612536Y-115353344D01*
X113556585Y-115280427D01*
X113516282Y-115227902D01*
X113390840Y-115131648D01*
X113244762Y-115071141D01*
X113088000Y-115050502D01*
X112931237Y-115071141D01*
X112785159Y-115131648D01*
X112659717Y-115227902D01*
X112563463Y-115353344D01*
X112502956Y-115499422D01*
X112482317Y-115656184D01*
X109948985Y-115656184D01*
X109924536Y-115597159D01*
X109892220Y-115555044D01*
X109828282Y-115471717D01*
X109702841Y-115375464D01*
X109556057Y-115314664D01*
X109509220Y-115280634D01*
X109482936Y-115229050D01*
X109482936Y-115171155D01*
X109509220Y-115119571D01*
X109556058Y-115085542D01*
X109557259Y-115085044D01*
X109557262Y-115085044D01*
X109703341Y-115024536D01*
X109828782Y-114928282D01*
X109925036Y-114802841D01*
X109985544Y-114656762D01*
X110006182Y-114500000D01*
X109985544Y-114343238D01*
X109925036Y-114197159D01*
X109888623Y-114149704D01*
X109831673Y-114075485D01*
X109808988Y-114026837D01*
X109808988Y-113973160D01*
X109831672Y-113924514D01*
X109925036Y-113802841D01*
X109926213Y-113799999D01*
X113194317Y-113799999D01*
X113214956Y-113956762D01*
X113275463Y-114102840D01*
X113371717Y-114228282D01*
X113497158Y-114324535D01*
X113497159Y-114324536D01*
X113643238Y-114385044D01*
X113800000Y-114405682D01*
X113956762Y-114385044D01*
X114102841Y-114324536D01*
X114228282Y-114228282D01*
X114324536Y-114102841D01*
X114385044Y-113956762D01*
X114405682Y-113800000D01*
X114405335Y-113797368D01*
X114386824Y-113656762D01*
X114385044Y-113643238D01*
X114324536Y-113497159D01*
X114228282Y-113371717D01*
X114102840Y-113275463D01*
X113956762Y-113214956D01*
X113800000Y-113194317D01*
X113643237Y-113214956D01*
X113497159Y-113275463D01*
X113371717Y-113371717D01*
X113275463Y-113497159D01*
X113214956Y-113643237D01*
X113194317Y-113799999D01*
X109926213Y-113799999D01*
X109985544Y-113656762D01*
X110006182Y-113500000D01*
X109985544Y-113343238D01*
X109925036Y-113197159D01*
X109878352Y-113136319D01*
X109828782Y-113071717D01*
X109703340Y-112975463D01*
X109557262Y-112914956D01*
X109400500Y-112894317D01*
X109243737Y-112914956D01*
X109097659Y-112975463D01*
X108972217Y-113071717D01*
X108875963Y-113197159D01*
X108815456Y-113343237D01*
X108794817Y-113499999D01*
X108815455Y-113656759D01*
X108841859Y-113720504D01*
X108850915Y-113777686D01*
X108833024Y-113832746D01*
X108792087Y-113873684D01*
X108737026Y-113891574D01*
X108679845Y-113882517D01*
X108524101Y-113818006D01*
X108367339Y-113797367D01*
X108210576Y-113818006D01*
X108064498Y-113878513D01*
X107939056Y-113974767D01*
X107842802Y-114100209D01*
X107782295Y-114246287D01*
X107761656Y-114403050D01*
X107782295Y-114559812D01*
X107842802Y-114705890D01*
X107939056Y-114831332D01*
X108064497Y-114927585D01*
X108064498Y-114927586D01*
X108210577Y-114988094D01*
X108367339Y-115008732D01*
X108524101Y-114988094D01*
X108670180Y-114927586D01*
X108761575Y-114857455D01*
X108820875Y-114832894D01*
X108884513Y-114841272D01*
X108935436Y-114880347D01*
X108972217Y-114928282D01*
X109074188Y-115006526D01*
X109097659Y-115024536D01*
X109210173Y-115071141D01*
X109244441Y-115085335D01*
X109291279Y-115119364D01*
X109317563Y-115170948D01*
X109317563Y-115228843D01*
X109291279Y-115280427D01*
X109244442Y-115314457D01*
X109097158Y-115375464D01*
X108971717Y-115471717D01*
X108875463Y-115597159D01*
X108814956Y-115743237D01*
X108794317Y-115900000D01*
X108814956Y-116056762D01*
X108875463Y-116202840D01*
X108929582Y-116273370D01*
X108971718Y-116328282D01*
X108991208Y-116343237D01*
X109020206Y-116365488D01*
X109055931Y-116409020D01*
X109068719Y-116463864D01*
X109055932Y-116518707D01*
X109020206Y-116562239D01*
X108972218Y-116599061D01*
X108875963Y-116724504D01*
X108815456Y-116870582D01*
X108794817Y-117027345D01*
X108815456Y-117184107D01*
X108877501Y-117333899D01*
X108886822Y-117386760D01*
X108872929Y-117438608D01*
X108838426Y-117479727D01*
X108717028Y-117572879D01*
X108668381Y-117595564D01*
X108614704Y-117595564D01*
X108566056Y-117572879D01*
X108456042Y-117488463D01*
X108309964Y-117427956D01*
X108153202Y-117407317D01*
X107996439Y-117427956D01*
X107850361Y-117488463D01*
X107724919Y-117584717D01*
X107628665Y-117710159D01*
X107568158Y-117856237D01*
X107547519Y-118012999D01*
X100350000Y-118012999D01*
X100350000Y-115624778D01*
X102516906Y-115624778D01*
X102537387Y-115767236D01*
X102597176Y-115898153D01*
X102693980Y-116009872D01*
X102723005Y-116073428D01*
X102713061Y-116142586D01*
X102653332Y-116273370D01*
X102632851Y-116415827D01*
X102653332Y-116558285D01*
X102713121Y-116689202D01*
X102807368Y-116797969D01*
X102807370Y-116797971D01*
X102928445Y-116875781D01*
X103066537Y-116916328D01*
X103210459Y-116916328D01*
X103348551Y-116875781D01*
X103469626Y-116797971D01*
X103563875Y-116689201D01*
X103623663Y-116558285D01*
X103644145Y-116415828D01*
X103623663Y-116273371D01*
X103618409Y-116261867D01*
X103581351Y-116180721D01*
X103563875Y-116142455D01*
X103469626Y-116033685D01*
X103469624Y-116033683D01*
X103467070Y-116030736D01*
X103443603Y-115990089D01*
X103436923Y-115943632D01*
X103447987Y-115898025D01*
X103507718Y-115767236D01*
X103528200Y-115624779D01*
X103507718Y-115482322D01*
X103504810Y-115475955D01*
X103447929Y-115351404D01*
X103353682Y-115242637D01*
X103353681Y-115242636D01*
X103232606Y-115164826D01*
X103094514Y-115124279D01*
X102950592Y-115124279D01*
X102812500Y-115164826D01*
X102691423Y-115242637D01*
X102597176Y-115351404D01*
X102537387Y-115482321D01*
X102516906Y-115624778D01*
X100350000Y-115624778D01*
X100350000Y-113274000D01*
X100366613Y-113212000D01*
X100412000Y-113166613D01*
X100474000Y-113150000D01*
X102220000Y-113150000D01*
X102233681Y-113136319D01*
X102273909Y-113109439D01*
X102321362Y-113100000D01*
X104480000Y-113100000D01*
X104480000Y-111000000D01*
X106794317Y-111000000D01*
X106814956Y-111156762D01*
X106875463Y-111302840D01*
X106971717Y-111428282D01*
X107065183Y-111500000D01*
X107097159Y-111524536D01*
X107243238Y-111585044D01*
X107379361Y-111602964D01*
X107399999Y-111605682D01*
X107399999Y-111605681D01*
X107400000Y-111605682D01*
X107508258Y-111591429D01*
X107571892Y-111599807D01*
X107622815Y-111638881D01*
X107647379Y-111698182D01*
X107639001Y-111761820D01*
X107586188Y-111889324D01*
X107565549Y-112046086D01*
X107586188Y-112202849D01*
X107646695Y-112348927D01*
X107742949Y-112474369D01*
X107808329Y-112524536D01*
X107868391Y-112570623D01*
X108014470Y-112631131D01*
X108171232Y-112651769D01*
X108327994Y-112631131D01*
X108474073Y-112570623D01*
X108599514Y-112474369D01*
X108695768Y-112348928D01*
X108756276Y-112202849D01*
X108776914Y-112046087D01*
X108770847Y-112000000D01*
X110194317Y-112000000D01*
X110214956Y-112156762D01*
X110275463Y-112302840D01*
X110371717Y-112428282D01*
X110497159Y-112524536D01*
X110643238Y-112585044D01*
X110800000Y-112605682D01*
X110956762Y-112585044D01*
X111102841Y-112524536D01*
X111228282Y-112428282D01*
X111324536Y-112302841D01*
X111385044Y-112156762D01*
X111405682Y-112000000D01*
X113794317Y-112000000D01*
X113814956Y-112156762D01*
X113875463Y-112302840D01*
X113971717Y-112428282D01*
X114097159Y-112524536D01*
X114243238Y-112585044D01*
X114400000Y-112605682D01*
X114556762Y-112585044D01*
X114702841Y-112524536D01*
X114828282Y-112428282D01*
X114924536Y-112302841D01*
X114985044Y-112156762D01*
X114989226Y-112124999D01*
X122894317Y-112124999D01*
X122914956Y-112281762D01*
X122975463Y-112427840D01*
X123071717Y-112553282D01*
X123140007Y-112605682D01*
X123197159Y-112649536D01*
X123343238Y-112710044D01*
X123500000Y-112730682D01*
X123656762Y-112710044D01*
X123802841Y-112649536D01*
X123928282Y-112553282D01*
X124024536Y-112427841D01*
X124085044Y-112281762D01*
X124105682Y-112125000D01*
X124085044Y-111968238D01*
X124024536Y-111822159D01*
X124024535Y-111822158D01*
X123928282Y-111696717D01*
X123802840Y-111600463D01*
X123656762Y-111539956D01*
X123500000Y-111519317D01*
X123343237Y-111539956D01*
X123197159Y-111600463D01*
X123071717Y-111696717D01*
X122975463Y-111822159D01*
X122914956Y-111968237D01*
X122894317Y-112124999D01*
X114989226Y-112124999D01*
X115005682Y-112000000D01*
X114985044Y-111843238D01*
X114924536Y-111697159D01*
X114863830Y-111618045D01*
X114828282Y-111571717D01*
X114702840Y-111475463D01*
X114556762Y-111414956D01*
X114400000Y-111394317D01*
X114243237Y-111414956D01*
X114097159Y-111475463D01*
X113971717Y-111571717D01*
X113875463Y-111697159D01*
X113814956Y-111843237D01*
X113794317Y-112000000D01*
X111405682Y-112000000D01*
X111385044Y-111843238D01*
X111324536Y-111697159D01*
X111231171Y-111575483D01*
X111208488Y-111526839D01*
X111208488Y-111473161D01*
X111231173Y-111424514D01*
X111315050Y-111315204D01*
X111790411Y-111315204D01*
X111811050Y-111471966D01*
X111871557Y-111618044D01*
X111967811Y-111743486D01*
X111991705Y-111761820D01*
X112093253Y-111839740D01*
X112239332Y-111900248D01*
X112396094Y-111920886D01*
X112552856Y-111900248D01*
X112698935Y-111839740D01*
X112824376Y-111743486D01*
X112920630Y-111618045D01*
X112981138Y-111471966D01*
X113001776Y-111315204D01*
X112981138Y-111158442D01*
X112920630Y-111012363D01*
X112911144Y-111000000D01*
X112824376Y-110886921D01*
X112698934Y-110790667D01*
X112552856Y-110730160D01*
X112396094Y-110709521D01*
X112239331Y-110730160D01*
X112093253Y-110790667D01*
X111967811Y-110886921D01*
X111871557Y-111012363D01*
X111811050Y-111158441D01*
X111790411Y-111315204D01*
X111315050Y-111315204D01*
X111324536Y-111302841D01*
X111385044Y-111156762D01*
X111405682Y-111000000D01*
X111385044Y-110843238D01*
X111351875Y-110763161D01*
X111318289Y-110682076D01*
X111320349Y-110681222D01*
X111305219Y-110644700D01*
X111313596Y-110581059D01*
X111352670Y-110530136D01*
X111451779Y-110454088D01*
X111548033Y-110328647D01*
X111608541Y-110182568D01*
X111629179Y-110025806D01*
X111608541Y-109869044D01*
X111548033Y-109722965D01*
X111545624Y-109719826D01*
X111453679Y-109599999D01*
X113794317Y-109599999D01*
X113814956Y-109756762D01*
X113875463Y-109902840D01*
X113971717Y-110028282D01*
X114097159Y-110124536D01*
X114243238Y-110185044D01*
X114400000Y-110205682D01*
X114556762Y-110185044D01*
X114702841Y-110124536D01*
X114828282Y-110028282D01*
X114924536Y-109902841D01*
X114947432Y-109847563D01*
X114986507Y-109796639D01*
X115045809Y-109772076D01*
X115109444Y-109780453D01*
X115167456Y-109804483D01*
X115324218Y-109825121D01*
X115480980Y-109804483D01*
X115627059Y-109743975D01*
X115752500Y-109647721D01*
X115848754Y-109522280D01*
X115909262Y-109376201D01*
X115929900Y-109219439D01*
X115909262Y-109062677D01*
X115848754Y-108916598D01*
X115838197Y-108902840D01*
X115752500Y-108791156D01*
X115627058Y-108694902D01*
X115480980Y-108634395D01*
X115324218Y-108613756D01*
X115167455Y-108634395D01*
X115021377Y-108694902D01*
X114895935Y-108791156D01*
X114799682Y-108916596D01*
X114776784Y-108971877D01*
X114737709Y-109022799D01*
X114678408Y-109047362D01*
X114614771Y-109038984D01*
X114556762Y-109014956D01*
X114400000Y-108994317D01*
X114243237Y-109014956D01*
X114097159Y-109075463D01*
X113971717Y-109171717D01*
X113875463Y-109297159D01*
X113814956Y-109443237D01*
X113794317Y-109599999D01*
X111453679Y-109599999D01*
X111451779Y-109597523D01*
X111326337Y-109501269D01*
X111180259Y-109440762D01*
X111023497Y-109420123D01*
X110866734Y-109440762D01*
X110720656Y-109501269D01*
X110595214Y-109597523D01*
X110498960Y-109722965D01*
X110438453Y-109869043D01*
X110417814Y-110025805D01*
X110438453Y-110182568D01*
X110505208Y-110343730D01*
X110503147Y-110344583D01*
X110518277Y-110381115D01*
X110509897Y-110444750D01*
X110470824Y-110495671D01*
X110371716Y-110571719D01*
X110275463Y-110697159D01*
X110214956Y-110843237D01*
X110194317Y-111000000D01*
X110214956Y-111156762D01*
X110275463Y-111302840D01*
X110368826Y-111424514D01*
X110391511Y-111473162D01*
X110391511Y-111526838D01*
X110368826Y-111575486D01*
X110275463Y-111697159D01*
X110214956Y-111843237D01*
X110194317Y-112000000D01*
X108770847Y-112000000D01*
X108756276Y-111889325D01*
X108695768Y-111743246D01*
X108599514Y-111617804D01*
X108474072Y-111521550D01*
X108327994Y-111461043D01*
X108171231Y-111440404D01*
X108062976Y-111454657D01*
X107999338Y-111446279D01*
X107948415Y-111407204D01*
X107923852Y-111347903D01*
X107932230Y-111284265D01*
X107985044Y-111156762D01*
X108005682Y-111000000D01*
X107985044Y-110843238D01*
X107924536Y-110697159D01*
X107924535Y-110697158D01*
X107828282Y-110571717D01*
X107702840Y-110475463D01*
X107556762Y-110414956D01*
X107400000Y-110394317D01*
X107243237Y-110414956D01*
X107097159Y-110475463D01*
X106971717Y-110571717D01*
X106875463Y-110697159D01*
X106814956Y-110843237D01*
X106794317Y-111000000D01*
X104480000Y-111000000D01*
X104480000Y-108728275D01*
X106210592Y-108728275D01*
X106231231Y-108885037D01*
X106291738Y-109031115D01*
X106387992Y-109156557D01*
X106513433Y-109252810D01*
X106513434Y-109252811D01*
X106659513Y-109313319D01*
X106816275Y-109333957D01*
X106973037Y-109313319D01*
X107119116Y-109252811D01*
X107244557Y-109156557D01*
X107340811Y-109031116D01*
X107401319Y-108885037D01*
X107421957Y-108728275D01*
X107405069Y-108600000D01*
X112594317Y-108600000D01*
X112614956Y-108756762D01*
X112675463Y-108902840D01*
X112771717Y-109028282D01*
X112864677Y-109099612D01*
X112897159Y-109124536D01*
X113043238Y-109185044D01*
X113200000Y-109205682D01*
X113356762Y-109185044D01*
X113502841Y-109124536D01*
X113628282Y-109028282D01*
X113724536Y-108902841D01*
X113785044Y-108756762D01*
X113805682Y-108600000D01*
X113785044Y-108443238D01*
X113724536Y-108297159D01*
X113652852Y-108203738D01*
X113628282Y-108171717D01*
X113502840Y-108075463D01*
X113356762Y-108014956D01*
X113200000Y-107994317D01*
X113043237Y-108014956D01*
X112897159Y-108075463D01*
X112771717Y-108171717D01*
X112675463Y-108297159D01*
X112614956Y-108443237D01*
X112594317Y-108600000D01*
X107405069Y-108600000D01*
X107401319Y-108571513D01*
X107340811Y-108425434D01*
X107244557Y-108299993D01*
X107234619Y-108287041D01*
X107236835Y-108285340D01*
X107214044Y-108255637D01*
X107205667Y-108191999D01*
X107230231Y-108132699D01*
X107281154Y-108093626D01*
X107344789Y-108085248D01*
X107500000Y-108105682D01*
X107656762Y-108085044D01*
X107802841Y-108024536D01*
X107928282Y-107928282D01*
X108024536Y-107802841D01*
X108085044Y-107656762D01*
X108105682Y-107500000D01*
X108085044Y-107343238D01*
X108024536Y-107197159D01*
X107928282Y-107071717D01*
X107802840Y-106975463D01*
X107656762Y-106914956D01*
X107500000Y-106894317D01*
X107343237Y-106914956D01*
X107197159Y-106975463D01*
X107071717Y-107071717D01*
X106975463Y-107197159D01*
X106914956Y-107343237D01*
X106894317Y-107499999D01*
X106914956Y-107656762D01*
X106975463Y-107802840D01*
X107081656Y-107941234D01*
X107079439Y-107942934D01*
X107102229Y-107972634D01*
X107110607Y-108036272D01*
X107086044Y-108095573D01*
X107035121Y-108134648D01*
X106971483Y-108143026D01*
X106816275Y-108122592D01*
X106659512Y-108143231D01*
X106513434Y-108203738D01*
X106387992Y-108299992D01*
X106291738Y-108425434D01*
X106231231Y-108571512D01*
X106210592Y-108728275D01*
X104480000Y-108728275D01*
X104480000Y-108020000D01*
X100690000Y-108020000D01*
X100684879Y-108020000D01*
X100660579Y-108036295D01*
X100613575Y-108045890D01*
X100474831Y-108046820D01*
X100412480Y-108030486D01*
X100366752Y-107985063D01*
X100350000Y-107922823D01*
X100350000Y-104874999D01*
X102544528Y-104874999D01*
X102564379Y-105114558D01*
X102564379Y-105114561D01*
X102564380Y-105114563D01*
X102623390Y-105347591D01*
X102719951Y-105567728D01*
X102851429Y-105768969D01*
X103014236Y-105945825D01*
X103077468Y-105995040D01*
X103203927Y-106093468D01*
X103203929Y-106093469D01*
X103203933Y-106093472D01*
X103415344Y-106207882D01*
X103642703Y-106285934D01*
X103879808Y-106325500D01*
X104120191Y-106325500D01*
X104120192Y-106325500D01*
X104357297Y-106285934D01*
X104461973Y-106249999D01*
X111594317Y-106249999D01*
X111614956Y-106406762D01*
X111675463Y-106552840D01*
X111771717Y-106678282D01*
X111897158Y-106774535D01*
X111897159Y-106774536D01*
X112043238Y-106835044D01*
X112200000Y-106855682D01*
X112356762Y-106835044D01*
X112502841Y-106774536D01*
X112628282Y-106678282D01*
X112724536Y-106552841D01*
X112777490Y-106425000D01*
X116569317Y-106425000D01*
X116589956Y-106581762D01*
X116650463Y-106727840D01*
X116746717Y-106853282D01*
X116800197Y-106894318D01*
X116872159Y-106949536D01*
X117018238Y-107010044D01*
X117175000Y-107030682D01*
X117331762Y-107010044D01*
X117477841Y-106949536D01*
X117603282Y-106853282D01*
X117699536Y-106727841D01*
X117760044Y-106581762D01*
X117780682Y-106425000D01*
X117777391Y-106399999D01*
X118944317Y-106399999D01*
X118964956Y-106556762D01*
X119025463Y-106702840D01*
X119121717Y-106828282D01*
X119207778Y-106894318D01*
X119247159Y-106924536D01*
X119393238Y-106985044D01*
X119550000Y-107005682D01*
X119706762Y-106985044D01*
X119852841Y-106924536D01*
X119978282Y-106828282D01*
X120074536Y-106702841D01*
X120135044Y-106556762D01*
X120155682Y-106400000D01*
X120140240Y-106282710D01*
X120149882Y-106216132D01*
X120192874Y-106164385D01*
X120256561Y-106142705D01*
X120322196Y-106157473D01*
X120348733Y-106171834D01*
X120415344Y-106207882D01*
X120642703Y-106285934D01*
X120879808Y-106325500D01*
X121120191Y-106325500D01*
X121120192Y-106325500D01*
X121357297Y-106285934D01*
X121584656Y-106207882D01*
X121796067Y-106093472D01*
X121985764Y-105945825D01*
X122148571Y-105768969D01*
X122280049Y-105567728D01*
X122376610Y-105347591D01*
X122435620Y-105114563D01*
X122455471Y-104875000D01*
X122435620Y-104635437D01*
X122376610Y-104402409D01*
X122280049Y-104182272D01*
X122148571Y-103981031D01*
X121985764Y-103804175D01*
X121964370Y-103787523D01*
X121796072Y-103656531D01*
X121796068Y-103656528D01*
X121796067Y-103656528D01*
X121584656Y-103542118D01*
X121584655Y-103542117D01*
X121584652Y-103542116D01*
X121357299Y-103464066D01*
X121199227Y-103437688D01*
X121120192Y-103424500D01*
X120879808Y-103424500D01*
X120820531Y-103434391D01*
X120642700Y-103464066D01*
X120415347Y-103542116D01*
X120203927Y-103656531D01*
X120014239Y-103804172D01*
X120014236Y-103804174D01*
X120014236Y-103804175D01*
X119851429Y-103981031D01*
X119719951Y-104182272D01*
X119623390Y-104402409D01*
X119580516Y-104571717D01*
X119564379Y-104635441D01*
X119544528Y-104874999D01*
X119564379Y-105114558D01*
X119564379Y-105114561D01*
X119564380Y-105114563D01*
X119623390Y-105347591D01*
X119719951Y-105567728D01*
X119750264Y-105614126D01*
X119770450Y-105680878D01*
X119751417Y-105747969D01*
X119699183Y-105794177D01*
X119630270Y-105804885D01*
X119550000Y-105794317D01*
X119393237Y-105814956D01*
X119247159Y-105875463D01*
X119121717Y-105971717D01*
X119025463Y-106097159D01*
X118964956Y-106243237D01*
X118944317Y-106399999D01*
X117777391Y-106399999D01*
X117760044Y-106268238D01*
X117699536Y-106122159D01*
X117677344Y-106093238D01*
X117603282Y-105996717D01*
X117477840Y-105900463D01*
X117331762Y-105839956D01*
X117175000Y-105819317D01*
X117018237Y-105839956D01*
X116872159Y-105900463D01*
X116746717Y-105996717D01*
X116650463Y-106122159D01*
X116589956Y-106268237D01*
X116569317Y-106425000D01*
X112777490Y-106425000D01*
X112785044Y-106406762D01*
X112805682Y-106250000D01*
X112785044Y-106093238D01*
X112724536Y-105947159D01*
X112669522Y-105875463D01*
X112628282Y-105821717D01*
X112502840Y-105725463D01*
X112356762Y-105664956D01*
X112200000Y-105644317D01*
X112043237Y-105664956D01*
X111897159Y-105725463D01*
X111771717Y-105821717D01*
X111675463Y-105947159D01*
X111614956Y-106093237D01*
X111594317Y-106249999D01*
X104461973Y-106249999D01*
X104584656Y-106207882D01*
X104796067Y-106093472D01*
X104985764Y-105945825D01*
X105148571Y-105768969D01*
X105280049Y-105567728D01*
X105376610Y-105347591D01*
X105435620Y-105114563D01*
X105445113Y-105000000D01*
X108544815Y-105000000D01*
X108565454Y-105156762D01*
X108625961Y-105302840D01*
X108722215Y-105428282D01*
X108847657Y-105524536D01*
X108993736Y-105585044D01*
X109150498Y-105605682D01*
X109307260Y-105585044D01*
X109453339Y-105524536D01*
X109578780Y-105428282D01*
X109675034Y-105302841D01*
X109735542Y-105156762D01*
X109756180Y-105000000D01*
X109735542Y-104843238D01*
X109675034Y-104697159D01*
X109578780Y-104571717D01*
X109453338Y-104475463D01*
X109307260Y-104414956D01*
X109150498Y-104394317D01*
X108993735Y-104414956D01*
X108847657Y-104475463D01*
X108722215Y-104571717D01*
X108625961Y-104697159D01*
X108565454Y-104843237D01*
X108544815Y-105000000D01*
X105445113Y-105000000D01*
X105455471Y-104875000D01*
X105435620Y-104635437D01*
X105376610Y-104402409D01*
X105280049Y-104182272D01*
X105148571Y-103981031D01*
X104985764Y-103804175D01*
X104964370Y-103787523D01*
X104796072Y-103656531D01*
X104796068Y-103656528D01*
X104796067Y-103656528D01*
X104584656Y-103542118D01*
X104584655Y-103542117D01*
X104584652Y-103542116D01*
X104357299Y-103464066D01*
X104199227Y-103437688D01*
X104120192Y-103424500D01*
X103879808Y-103424500D01*
X103820531Y-103434391D01*
X103642700Y-103464066D01*
X103415347Y-103542116D01*
X103203927Y-103656531D01*
X103014239Y-103804172D01*
X103014236Y-103804174D01*
X103014236Y-103804175D01*
X102851429Y-103981031D01*
X102719951Y-104182272D01*
X102623390Y-104402409D01*
X102580516Y-104571717D01*
X102564379Y-104635441D01*
X102544528Y-104874999D01*
X100350000Y-104874999D01*
X100350000Y-103045000D01*
X100324500Y-103045000D01*
X100262500Y-103028387D01*
X100217113Y-102983000D01*
X100200500Y-102921000D01*
X100200500Y-102824500D01*
X100217113Y-102762500D01*
X100262500Y-102717113D01*
X100324500Y-102700500D01*
X105594484Y-102700500D01*
X105781113Y-102670941D01*
X105781114Y-102670940D01*
X105781118Y-102670940D01*
X105960832Y-102612547D01*
X106129199Y-102526760D01*
X106282073Y-102415690D01*
X106415690Y-102282073D01*
X106449676Y-102235294D01*
X106492976Y-102198067D01*
X106548370Y-102184191D01*
X106604108Y-102196611D01*
X106648370Y-102232693D01*
X106721719Y-102328283D01*
X106829217Y-102410769D01*
X106847159Y-102424536D01*
X106993238Y-102485044D01*
X107150000Y-102505682D01*
X107306762Y-102485044D01*
X107339535Y-102471468D01*
X107403171Y-102463091D01*
X107462472Y-102487654D01*
X107501547Y-102538577D01*
X107509925Y-102602215D01*
X107485362Y-102661516D01*
X107400463Y-102772159D01*
X107339956Y-102918237D01*
X107319317Y-103074999D01*
X107339956Y-103231762D01*
X107400463Y-103377840D01*
X107496717Y-103503282D01*
X107547330Y-103542118D01*
X107622159Y-103599536D01*
X107768238Y-103660044D01*
X107925000Y-103680682D01*
X108081762Y-103660044D01*
X108227841Y-103599536D01*
X108353282Y-103503282D01*
X108449536Y-103377841D01*
X108510044Y-103231762D01*
X108530682Y-103075000D01*
X108510044Y-102918238D01*
X108449536Y-102772159D01*
X108407298Y-102717113D01*
X108353282Y-102646717D01*
X108227840Y-102550463D01*
X108081762Y-102489956D01*
X107925000Y-102469317D01*
X107768237Y-102489956D01*
X107735463Y-102503531D01*
X107671826Y-102511908D01*
X107612525Y-102487344D01*
X107573451Y-102436421D01*
X107565074Y-102372783D01*
X107589635Y-102313485D01*
X107674536Y-102202841D01*
X107735044Y-102056762D01*
X107755682Y-101900000D01*
X107735044Y-101743238D01*
X107674536Y-101597159D01*
X107633831Y-101544111D01*
X107578282Y-101471717D01*
X107452840Y-101375463D01*
X107306762Y-101314956D01*
X107150000Y-101294317D01*
X106993237Y-101314956D01*
X106871952Y-101365194D01*
X106812346Y-101374036D01*
X106755609Y-101353735D01*
X106715142Y-101309086D01*
X106700500Y-101250633D01*
X106700500Y-100824500D01*
X106717113Y-100762500D01*
X106762500Y-100717113D01*
X106824500Y-100700500D01*
X110650694Y-100700500D01*
X110709862Y-100715527D01*
G37*
%TD.AperFunction*%
%TD*%
M02*
