%TF.GenerationSoftware,KiCad,Pcbnew,7.0.1-3b83917a11~172~ubuntu22.04.1*%
%TF.CreationDate,2023-07-05T11:02:10+02:00*%
%TF.ProjectId,phyphox-newton,70687970-686f-4782-9d6e-6577746f6e2e,rev?*%
%TF.SameCoordinates,Original*%
%TF.FileFunction,Copper,L1,Top*%
%TF.FilePolarity,Positive*%
%FSLAX46Y46*%
G04 Gerber Fmt 4.6, Leading zero omitted, Abs format (unit mm)*
G04 Created by KiCad (PCBNEW 7.0.1-3b83917a11~172~ubuntu22.04.1) date 2023-07-05 11:02:10*
%MOMM*%
%LPD*%
G01*
G04 APERTURE LIST*
G04 Aperture macros list*
%AMRoundRect*
0 Rectangle with rounded corners*
0 $1 Rounding radius*
0 $2 $3 $4 $5 $6 $7 $8 $9 X,Y pos of 4 corners*
0 Add a 4 corners polygon primitive as box body*
4,1,4,$2,$3,$4,$5,$6,$7,$8,$9,$2,$3,0*
0 Add four circle primitives for the rounded corners*
1,1,$1+$1,$2,$3*
1,1,$1+$1,$4,$5*
1,1,$1+$1,$6,$7*
1,1,$1+$1,$8,$9*
0 Add four rect primitives between the rounded corners*
20,1,$1+$1,$2,$3,$4,$5,0*
20,1,$1+$1,$4,$5,$6,$7,0*
20,1,$1+$1,$6,$7,$8,$9,0*
20,1,$1+$1,$8,$9,$2,$3,0*%
%AMFreePoly0*
4,1,21,-0.600000,0.250000,-0.580970,0.345671,-0.526777,0.426777,-0.445671,0.480970,-0.350000,0.500000,0.350000,0.500000,0.445671,0.480970,0.526777,0.426777,0.580970,0.345671,0.600000,0.250000,0.600000,-0.250000,0.580970,-0.345671,0.526777,-0.426777,0.445671,-0.480970,0.350000,-0.500000,-0.350000,-0.500000,-0.445671,-0.480970,-0.526777,-0.426777,-0.580970,-0.345671,-0.600000,-0.250000,
-0.600000,0.250000,-0.600000,0.250000,$1*%
G04 Aperture macros list end*
%TA.AperFunction,SMDPad,CuDef*%
%ADD10R,0.350000X0.550000*%
%TD*%
%TA.AperFunction,SMDPad,CuDef*%
%ADD11R,1.600000X0.700000*%
%TD*%
%TA.AperFunction,SMDPad,CuDef*%
%ADD12RoundRect,0.250000X0.475000X-0.250000X0.475000X0.250000X-0.475000X0.250000X-0.475000X-0.250000X0*%
%TD*%
%TA.AperFunction,SMDPad,CuDef*%
%ADD13R,0.400000X0.650000*%
%TD*%
%TA.AperFunction,ComponentPad*%
%ADD14C,2.500000*%
%TD*%
%TA.AperFunction,SMDPad,CuDef*%
%ADD15R,0.270000X0.840000*%
%TD*%
%TA.AperFunction,SMDPad,CuDef*%
%ADD16R,0.840000X0.270000*%
%TD*%
%TA.AperFunction,SMDPad,CuDef*%
%ADD17R,1.100000X1.100000*%
%TD*%
%TA.AperFunction,SMDPad,CuDef*%
%ADD18R,1.400000X1.050000*%
%TD*%
%TA.AperFunction,SMDPad,CuDef*%
%ADD19R,4.100000X1.850000*%
%TD*%
%TA.AperFunction,SMDPad,CuDef*%
%ADD20RoundRect,0.200000X-0.200000X-0.275000X0.200000X-0.275000X0.200000X0.275000X-0.200000X0.275000X0*%
%TD*%
%TA.AperFunction,SMDPad,CuDef*%
%ADD21R,0.850000X0.200000*%
%TD*%
%TA.AperFunction,SMDPad,CuDef*%
%ADD22R,0.200000X0.850000*%
%TD*%
%TA.AperFunction,SMDPad,CuDef*%
%ADD23RoundRect,0.225000X0.250000X-0.225000X0.250000X0.225000X-0.250000X0.225000X-0.250000X-0.225000X0*%
%TD*%
%TA.AperFunction,SMDPad,CuDef*%
%ADD24RoundRect,0.200000X0.275000X-0.200000X0.275000X0.200000X-0.275000X0.200000X-0.275000X-0.200000X0*%
%TD*%
%TA.AperFunction,SMDPad,CuDef*%
%ADD25R,0.300000X0.700000*%
%TD*%
%TA.AperFunction,SMDPad,CuDef*%
%ADD26R,1.000000X0.700000*%
%TD*%
%TA.AperFunction,ComponentPad*%
%ADD27O,1.100000X2.100000*%
%TD*%
%TA.AperFunction,ComponentPad*%
%ADD28O,1.100000X2.600000*%
%TD*%
%TA.AperFunction,SMDPad,CuDef*%
%ADD29RoundRect,0.200000X0.200000X0.275000X-0.200000X0.275000X-0.200000X-0.275000X0.200000X-0.275000X0*%
%TD*%
%TA.AperFunction,ComponentPad*%
%ADD30C,1.524000*%
%TD*%
%TA.AperFunction,SMDPad,CuDef*%
%ADD31FreePoly0,0.000000*%
%TD*%
%TA.AperFunction,SMDPad,CuDef*%
%ADD32RoundRect,0.225000X-0.250000X0.225000X-0.250000X-0.225000X0.250000X-0.225000X0.250000X0.225000X0*%
%TD*%
%TA.AperFunction,SMDPad,CuDef*%
%ADD33RoundRect,0.250000X-0.250000X-0.475000X0.250000X-0.475000X0.250000X0.475000X-0.250000X0.475000X0*%
%TD*%
%TA.AperFunction,SMDPad,CuDef*%
%ADD34RoundRect,0.200000X-0.275000X0.200000X-0.275000X-0.200000X0.275000X-0.200000X0.275000X0.200000X0*%
%TD*%
%TA.AperFunction,SMDPad,CuDef*%
%ADD35C,0.500000*%
%TD*%
%TA.AperFunction,SMDPad,CuDef*%
%ADD36RoundRect,0.225000X0.225000X0.250000X-0.225000X0.250000X-0.225000X-0.250000X0.225000X-0.250000X0*%
%TD*%
%TA.AperFunction,SMDPad,CuDef*%
%ADD37R,0.558800X0.952500*%
%TD*%
%TA.AperFunction,SMDPad,CuDef*%
%ADD38RoundRect,0.250000X-0.475000X0.250000X-0.475000X-0.250000X0.475000X-0.250000X0.475000X0.250000X0*%
%TD*%
%TA.AperFunction,SMDPad,CuDef*%
%ADD39RoundRect,0.218750X0.218750X0.381250X-0.218750X0.381250X-0.218750X-0.381250X0.218750X-0.381250X0*%
%TD*%
%TA.AperFunction,SMDPad,CuDef*%
%ADD40RoundRect,0.225000X-0.225000X-0.250000X0.225000X-0.250000X0.225000X0.250000X-0.225000X0.250000X0*%
%TD*%
%TA.AperFunction,SMDPad,CuDef*%
%ADD41R,0.400000X0.800000*%
%TD*%
%TA.AperFunction,SMDPad,CuDef*%
%ADD42R,2.500000X1.750000*%
%TD*%
%TA.AperFunction,SMDPad,CuDef*%
%ADD43R,0.355600X0.355600*%
%TD*%
%TA.AperFunction,SMDPad,CuDef*%
%ADD44R,0.431800X0.431800*%
%TD*%
%TA.AperFunction,SMDPad,CuDef*%
%ADD45RoundRect,0.125000X0.537500X0.125000X-0.537500X0.125000X-0.537500X-0.125000X0.537500X-0.125000X0*%
%TD*%
%TA.AperFunction,SMDPad,CuDef*%
%ADD46R,0.254000X0.482600*%
%TD*%
%TA.AperFunction,SMDPad,CuDef*%
%ADD47R,0.482600X0.254000*%
%TD*%
%TA.AperFunction,SMDPad,CuDef*%
%ADD48R,0.250000X0.650000*%
%TD*%
%TA.AperFunction,SMDPad,CuDef*%
%ADD49R,1.450000X1.050000*%
%TD*%
%TA.AperFunction,SMDPad,CuDef*%
%ADD50R,0.400000X0.400000*%
%TD*%
%TA.AperFunction,SMDPad,CuDef*%
%ADD51R,0.254000X0.279400*%
%TD*%
%TA.AperFunction,SMDPad,CuDef*%
%ADD52R,0.254000X0.254000*%
%TD*%
%TA.AperFunction,SMDPad,CuDef*%
%ADD53FreePoly0,180.000000*%
%TD*%
%TA.AperFunction,ViaPad*%
%ADD54C,0.800000*%
%TD*%
%TA.AperFunction,ViaPad*%
%ADD55C,0.600000*%
%TD*%
%TA.AperFunction,Conductor*%
%ADD56C,0.125000*%
%TD*%
%TA.AperFunction,Conductor*%
%ADD57C,0.250000*%
%TD*%
%TA.AperFunction,Conductor*%
%ADD58C,0.200000*%
%TD*%
%TA.AperFunction,Conductor*%
%ADD59C,0.500000*%
%TD*%
G04 APERTURE END LIST*
D10*
%TO.P,IC2,1,VDD*%
%TO.N,VCC*%
X104950000Y-133900000D03*
%TO.P,IC2,2,SCL*%
%TO.N,SCL*%
X105950000Y-133900000D03*
%TO.P,IC2,3,SDA*%
%TO.N,SDA*%
X105950000Y-132050000D03*
%TO.P,IC2,4,VSS*%
%TO.N,GND*%
X104950000Y-132050000D03*
D11*
%TO.P,IC2,5,PAD*%
X105450000Y-132975000D03*
%TD*%
D12*
%TO.P,C3,1*%
%TO.N,GND*%
X123600000Y-129500000D03*
%TO.P,C3,2*%
%TO.N,BUCK_OUT*%
X123600000Y-127600000D03*
%TD*%
D13*
%TO.P,U7,1*%
%TO.N,Net-(U5-Pad1)*%
X107600000Y-126250000D03*
%TO.P,U7,2*%
%TO.N,Net-(U5-Pad7)*%
X106950000Y-126250000D03*
%TO.P,U7,3,GND*%
%TO.N,GND*%
X106300000Y-126250000D03*
%TO.P,U7,4*%
%TO.N,DAM*%
X106300000Y-128150000D03*
%TO.P,U7,5,VCC*%
%TO.N,VBUS*%
X107600000Y-128150000D03*
%TD*%
D14*
%TO.P,H3,1*%
%TO.N,N/C*%
X121000000Y-137625000D03*
%TD*%
D15*
%TO.P,U4,1,INT*%
%TO.N,MLX_INT*%
X113250000Y-102065000D03*
%TO.P,U4,2,SENB/CS*%
%TO.N,VCC*%
X112750000Y-102065000D03*
%TO.P,U4,3,SCL/SCLK*%
%TO.N,SCL*%
X112250000Y-102065000D03*
%TO.P,U4,4,N/C*%
%TO.N,unconnected-(U4-N{slash}C-Pad4)*%
X111750000Y-102065000D03*
D16*
%TO.P,U4,5,SDA/MOSI*%
%TO.N,SDA*%
X111065000Y-102750000D03*
%TO.P,U4,6,MISO*%
%TO.N,unconnected-(U4-MISO-Pad6)*%
X111065000Y-103250000D03*
%TO.P,U4,7,INT/TRIG*%
%TO.N,MLX_TRIG*%
X111065000Y-103750000D03*
%TO.P,U4,8,VDD_IO*%
%TO.N,VCC*%
X111065000Y-104250000D03*
D15*
%TO.P,U4,9,N/C*%
%TO.N,unconnected-(U4-N{slash}C-Pad9)*%
X111750000Y-104935000D03*
%TO.P,U4,10,N/C*%
%TO.N,unconnected-(U4-N{slash}C-Pad10)*%
X112250000Y-104935000D03*
%TO.P,U4,11,A1*%
%TO.N,GND*%
X112750000Y-104935000D03*
%TO.P,U4,12,A0*%
X113250000Y-104935000D03*
D16*
%TO.P,U4,13,VSS*%
X113935000Y-104250000D03*
%TO.P,U4,14,N/C*%
%TO.N,unconnected-(U4-N{slash}C-Pad14)*%
X113935000Y-103750000D03*
%TO.P,U4,15,VDD*%
%TO.N,VCC*%
X113935000Y-103250000D03*
%TO.P,U4,16,N/C*%
%TO.N,unconnected-(U4-N{slash}C-Pad16)*%
X113935000Y-102750000D03*
D17*
%TO.P,U4,17,GND*%
%TO.N,GND*%
X112500000Y-103500000D03*
%TD*%
D18*
%TO.P,SW1,1,1*%
%TO.N,GND*%
X118500000Y-107875000D03*
X114900000Y-107875000D03*
%TO.P,SW1,2,2*%
%TO.N,RESET*%
X118500000Y-106425000D03*
X114900000Y-106425000D03*
%TD*%
D19*
%TO.P,L1,1,1*%
%TO.N,Net-(U6-LX)*%
X122049999Y-114075000D03*
%TO.P,L1,2,2*%
%TO.N,SC*%
X122049999Y-110425000D03*
%TD*%
D20*
%TO.P,R4,1*%
%TO.N,GND*%
X121750000Y-120200000D03*
%TO.P,R4,2*%
%TO.N,Net-(S1-ILIM)*%
X123400000Y-120200000D03*
%TD*%
D21*
%TO.P,IC6,1,SEL1*%
%TO.N,DAM*%
X109850000Y-125300000D03*
%TO.P,IC6,2,S1*%
%TO.N,VCC_DAM*%
X109850000Y-125700000D03*
%TO.P,IC6,3,D1*%
%TO.N,VCC*%
X109850000Y-126100000D03*
%TO.P,IC6,4,SEL2*%
%TO.N,DAM*%
X109850000Y-126500000D03*
D22*
%TO.P,IC6,5,S2*%
%TO.N,1Wire_DAM*%
X110100000Y-127150000D03*
%TO.P,IC6,6,D2*%
%TO.N,1Wire*%
X110500000Y-127150000D03*
%TO.P,IC6,7,N.C._1*%
%TO.N,unconnected-(IC6-N.C._1-Pad7)*%
X110900000Y-127150000D03*
%TO.P,IC6,8,GND*%
%TO.N,GND*%
X111300000Y-127150000D03*
D21*
%TO.P,IC6,9,D3*%
%TO.N,SDA*%
X111550000Y-126500000D03*
%TO.P,IC6,10,S3*%
%TO.N,SDA_DAM*%
X111550000Y-126100000D03*
%TO.P,IC6,11,SEL3*%
%TO.N,DAM*%
X111550000Y-125700000D03*
%TO.P,IC6,12,N.C._2*%
%TO.N,unconnected-(IC6-N.C._2-Pad12)*%
X111550000Y-125300000D03*
D22*
%TO.P,IC6,13,D4*%
%TO.N,SCL*%
X111300000Y-124650000D03*
%TO.P,IC6,14,S4*%
%TO.N,SCL_DAM*%
X110900000Y-124650000D03*
%TO.P,IC6,15,SEL4*%
%TO.N,DAM*%
X110500000Y-124650000D03*
%TO.P,IC6,16,VDD*%
%TO.N,VBUS*%
X110100000Y-124650000D03*
%TD*%
D23*
%TO.P,C9,1*%
%TO.N,VCC*%
X109100000Y-104400000D03*
%TO.P,C9,2*%
%TO.N,GND*%
X109100000Y-102850000D03*
%TD*%
D24*
%TO.P,R14,1*%
%TO.N,CC2*%
X112200000Y-122325000D03*
%TO.P,R14,2*%
%TO.N,GND*%
X112200000Y-120675000D03*
%TD*%
D25*
%TO.P,J2,A1,GND*%
%TO.N,GND*%
X109375000Y-134535000D03*
%TO.P,J2,A2,TX1+*%
%TO.N,SDA_DAM*%
X109875000Y-134535000D03*
%TO.P,J2,A3,TX1-*%
%TO.N,SCL_DAM*%
X110375000Y-134535000D03*
%TO.P,J2,A4,VBUS*%
%TO.N,VBUS*%
X110875000Y-134535000D03*
%TO.P,J2,A5,CC1*%
%TO.N,CC1*%
X111375000Y-134535000D03*
%TO.P,J2,A6,D+*%
%TO.N,/USB_P*%
X111875000Y-134535000D03*
%TO.P,J2,A7,D-*%
%TO.N,/USB_N*%
X112875000Y-134535000D03*
%TO.P,J2,A8,SBU1*%
%TO.N,unconnected-(J2-SBU1-PadA8)*%
X113375000Y-134535000D03*
%TO.P,J2,A9,VBUS*%
%TO.N,VBUS*%
X113875000Y-134535000D03*
%TO.P,J2,A10,RX2-*%
%TO.N,VCC_DAM*%
X114375000Y-134535000D03*
%TO.P,J2,A11,RX2+*%
%TO.N,1Wire_DAM*%
X114875000Y-134535000D03*
%TO.P,J2,A12,GND*%
%TO.N,GND*%
X115375000Y-134535000D03*
D26*
%TO.P,J2,B1,GND*%
X115475000Y-135835000D03*
D25*
%TO.P,J2,B2,TX2+*%
%TO.N,unconnected-(J2-TX2+-PadB2)*%
X114625000Y-135835000D03*
%TO.P,J2,B3,TX2-*%
%TO.N,unconnected-(J2-TX2--PadB3)*%
X114125000Y-135835000D03*
%TO.P,J2,B4,VBUS*%
%TO.N,VBUS*%
X113625000Y-135835000D03*
%TO.P,J2,B5,CC2*%
%TO.N,CC2*%
X113125000Y-135835000D03*
%TO.P,J2,B6,D+*%
%TO.N,/USB_P*%
X112625000Y-135835000D03*
%TO.P,J2,B7,D-*%
%TO.N,/USB_N*%
X112125000Y-135835000D03*
%TO.P,J2,B8,SBU2*%
%TO.N,unconnected-(J2-SBU2-PadB8)*%
X111625000Y-135835000D03*
%TO.P,J2,B9,VBUS*%
%TO.N,VBUS*%
X111125000Y-135835000D03*
%TO.P,J2,B10,RX1-*%
%TO.N,VCC_DAM*%
X110625000Y-135835000D03*
%TO.P,J2,B11,RX1+*%
%TO.N,1Wire_DAM*%
X110125000Y-135835000D03*
D26*
%TO.P,J2,B12,GND*%
%TO.N,GND*%
X109275000Y-135835000D03*
D27*
%TO.P,J2,S1,SHIELD*%
X108055000Y-134945000D03*
D28*
X108055000Y-140305000D03*
D27*
X116695000Y-134945000D03*
D28*
X116695000Y-140305000D03*
%TD*%
D29*
%TO.P,R7,1*%
%TO.N,LED_R*%
X103300000Y-128300000D03*
%TO.P,R7,2*%
%TO.N,Net-(LED1-K_R)*%
X101650000Y-128300000D03*
%TD*%
D30*
%TO.P,C1,1*%
%TO.N,SC*%
X111375000Y-131500000D03*
D31*
X111375000Y-132500000D03*
D30*
%TO.P,C1,2*%
%TO.N,GND*%
X116375000Y-131500000D03*
D31*
X116375000Y-132500000D03*
%TD*%
D24*
%TO.P,R13,1*%
%TO.N,CC1*%
X110700000Y-122925000D03*
%TO.P,R13,2*%
%TO.N,GND*%
X110700000Y-121275000D03*
%TD*%
D32*
%TO.P,C10,1*%
%TO.N,VBUS*%
X104800000Y-126855000D03*
%TO.P,C10,2*%
%TO.N,GND*%
X104800000Y-128405000D03*
%TD*%
D24*
%TO.P,R19,1*%
%TO.N,VBUS*%
X119500000Y-125325000D03*
%TO.P,R19,2*%
%TO.N,DAM_REF*%
X119500000Y-123675000D03*
%TD*%
D23*
%TO.P,C11,1*%
%TO.N,VCC*%
X109570000Y-110815000D03*
%TO.P,C11,2*%
%TO.N,GND*%
X109570000Y-109265000D03*
%TD*%
D33*
%TO.P,C4,1*%
%TO.N,SC*%
X120925000Y-108250000D03*
%TO.P,C4,2*%
%TO.N,GND*%
X122825000Y-108250000D03*
%TD*%
D34*
%TO.P,R3,1*%
%TO.N,Net-(S1-FLG)*%
X121150000Y-121625000D03*
%TO.P,R3,2*%
%TO.N,BUCK_OUT*%
X121150000Y-123275000D03*
%TD*%
D32*
%TO.P,C14,1*%
%TO.N,VCC*%
X123450000Y-104500000D03*
%TO.P,C14,2*%
%TO.N,GND*%
X123450000Y-106050000D03*
%TD*%
D14*
%TO.P,H1,1*%
%TO.N,N/C*%
X104000000Y-104875000D03*
%TD*%
D29*
%TO.P,R9,1*%
%TO.N,VCC*%
X106150000Y-130000000D03*
%TO.P,R9,2*%
%TO.N,SCL*%
X104500000Y-130000000D03*
%TD*%
D35*
%TO.P,FID3,*%
%TO.N,*%
X123500000Y-138500000D03*
%TD*%
D36*
%TO.P,C7,1*%
%TO.N,Net-(S1-VOUT)*%
X123350000Y-118450000D03*
%TO.P,C7,2*%
%TO.N,GND*%
X121800000Y-118450000D03*
%TD*%
D20*
%TO.P,R11,1*%
%TO.N,VCC*%
X110800000Y-115500000D03*
%TO.P,R11,2*%
%TO.N,BMI_INT_2*%
X112450000Y-115500000D03*
%TD*%
D29*
%TO.P,R6,1*%
%TO.N,LED_B*%
X103300000Y-125100000D03*
%TO.P,R6,2*%
%TO.N,Net-(LED1-K_B)*%
X101650000Y-125100000D03*
%TD*%
D37*
%TO.P,U6,1,CE*%
%TO.N,SC*%
X118400000Y-110400000D03*
%TO.P,U6,2,GND*%
%TO.N,GND*%
X117449999Y-110400000D03*
%TO.P,U6,3,BAT*%
%TO.N,SC*%
X116499998Y-110400000D03*
%TO.P,U6,4,VOUT*%
%TO.N,VCC*%
X116499998Y-113155900D03*
%TO.P,U6,5,LX*%
%TO.N,Net-(U6-LX)*%
X118400000Y-113155900D03*
%TD*%
D29*
%TO.P,R5,1*%
%TO.N,LED_G*%
X103300000Y-126700000D03*
%TO.P,R5,2*%
%TO.N,Net-(LED1-K_G)*%
X101650000Y-126700000D03*
%TD*%
D38*
%TO.P,C5,1*%
%TO.N,VCC*%
X118000000Y-115027950D03*
%TO.P,C5,2*%
%TO.N,GND*%
X118000000Y-116927950D03*
%TD*%
D39*
%TO.P,FB1,1*%
%TO.N,Net-(S1-VOUT)*%
X123537500Y-116550000D03*
%TO.P,FB1,2*%
%TO.N,SC*%
X121412500Y-116550000D03*
%TD*%
D40*
%TO.P,C8,1*%
%TO.N,VCC*%
X101605000Y-120300000D03*
%TO.P,C8,2*%
%TO.N,GND*%
X103155000Y-120300000D03*
%TD*%
D36*
%TO.P,C6,1*%
%TO.N,BUCK_OUT*%
X123675000Y-125200000D03*
%TO.P,C6,2*%
%TO.N,GND*%
X122125000Y-125200000D03*
%TD*%
D41*
%TO.P,IC3,1,OUT*%
%TO.N,BUCK_OUT*%
X121550000Y-129900000D03*
%TO.P,IC3,2,ADJ/SENSE*%
%TO.N,Net-(IC3-ADJ{slash}SENSE)*%
X120600000Y-129900000D03*
%TO.P,IC3,3,GND*%
%TO.N,GND*%
X119650000Y-129900000D03*
%TO.P,IC3,4,PG*%
%TO.N,unconnected-(IC3-PG-Pad4)*%
X119650000Y-132900000D03*
%TO.P,IC3,5,EN*%
%TO.N,VBUS*%
X120600000Y-132900000D03*
%TO.P,IC3,6,IN*%
X121550000Y-132900000D03*
D42*
%TO.P,IC3,7,EPAD*%
%TO.N,GND*%
X120600000Y-131400000D03*
%TD*%
D43*
%TO.P,U1,1,ANT_PCB*%
%TO.N,unconnected-(U1-ANT_PCB-Pad1)*%
X101811198Y-111910000D03*
%TO.P,U1,2,ANT_GND1*%
%TO.N,GND*%
X101811198Y-112560000D03*
%TO.P,U1,3,ANT_GND2*%
X101811198Y-113502000D03*
%TO.P,U1,4,GND*%
X101811198Y-114152000D03*
%TO.P,U1,5,ANT_INT*%
%TO.N,/ANT*%
X101811198Y-114802000D03*
%TO.P,U1,6,ANT*%
X101811198Y-115452000D03*
%TO.P,U1,7,GND*%
%TO.N,GND*%
X101811198Y-116102000D03*
%TO.P,U1,8,GND*%
X101811198Y-116752000D03*
%TO.P,U1,9,VCC*%
%TO.N,VCC*%
X101811198Y-117402000D03*
%TO.P,U1,10,GPIO_10*%
%TO.N,unconnected-(U1-GPIO_10-Pad10)*%
X102461198Y-114477000D03*
%TO.P,U1,11,GPIO_11*%
%TO.N,unconnected-(U1-GPIO_11-Pad11)*%
X102461198Y-115127000D03*
%TO.P,U1,12,RESET_N*%
%TO.N,RESET*%
X102461198Y-115777000D03*
%TO.P,U1,13,GPIO_13*%
%TO.N,unconnected-(U1-GPIO_13-Pad13)*%
X102461198Y-116427000D03*
%TO.P,U1,14,GPIO_14*%
%TO.N,BMI_INT_2*%
X102701198Y-117590000D03*
%TO.P,U1,15,GPIO_15*%
%TO.N,BMI_INT_1*%
X103351198Y-117590000D03*
%TO.P,U1,16,SWO/GPIO_16*%
%TO.N,SWO*%
X104001198Y-117590000D03*
%TO.P,U1,17,XL1/GPIO_17*%
%TO.N,GND*%
X104651198Y-117590000D03*
%TO.P,U1,18,XL2/GPIO_18*%
X105301198Y-117590000D03*
%TO.P,U1,19,GPIO_19*%
%TO.N,VL53_DRY*%
X105951198Y-117590000D03*
%TO.P,U1,20,GPIO_20*%
%TO.N,unconnected-(U1-GPIO_20-Pad20)*%
X106601198Y-117590000D03*
%TO.P,U1,21,VBUS*%
%TO.N,VBUS*%
X103026198Y-116940000D03*
%TO.P,U1,22,NFC1/GPIO_22*%
%TO.N,unconnected-(U1-NFC1{slash}GPIO_22-Pad22)*%
X103676198Y-116940000D03*
%TO.P,U1,23,NFC2/GPIO_23*%
%TO.N,unconnected-(U1-NFC2{slash}GPIO_23-Pad23)*%
X104326198Y-116940000D03*
%TO.P,U1,24,GPIO_24*%
%TO.N,unconnected-(U1-GPIO_24-Pad24)*%
X104976198Y-116940000D03*
%TO.P,U1,25,GPIO_25*%
%TO.N,unconnected-(U1-GPIO_25-Pad25)*%
X105626198Y-116940000D03*
%TO.P,U1,26,GPIO_26*%
%TO.N,1Wire*%
X106276198Y-116940000D03*
%TO.P,U1,27,GPIO_27*%
%TO.N,SC*%
X107491202Y-117402000D03*
%TO.P,U1,28,GPIO_28*%
%TO.N,LED_G*%
X107491202Y-116752000D03*
%TO.P,U1,29,GPIO_29*%
%TO.N,LED_R*%
X107491202Y-116102000D03*
%TO.P,U1,30,GPIO_30*%
%TO.N,LED_B*%
X107491202Y-115452000D03*
%TO.P,U1,31,GPIO_31*%
%TO.N,BMP581_INT*%
X107491202Y-114802000D03*
%TO.P,U1,32,GPIO_32*%
%TO.N,SCL*%
X107491202Y-114152000D03*
%TO.P,U1,33,GPIO_33*%
%TO.N,SDA*%
X107491202Y-113502000D03*
%TO.P,U1,34,USBDP*%
%TO.N,/USB_P*%
X107491202Y-112560000D03*
%TO.P,U1,35,USBDM*%
%TO.N,/USB_N*%
X107491202Y-111910000D03*
%TO.P,U1,36,GPIO_36*%
%TO.N,unconnected-(U1-GPIO_36-Pad36)*%
X106841202Y-116427000D03*
%TO.P,U1,37,GPIO_37*%
%TO.N,unconnected-(U1-GPIO_37-Pad37)*%
X106841202Y-115777000D03*
%TO.P,U1,38,GPIO_38*%
%TO.N,unconnected-(U1-GPIO_38-Pad38)*%
X106841202Y-115127000D03*
%TO.P,U1,39,GPIO_39*%
%TO.N,MLX_TRIG*%
X106841202Y-114477000D03*
%TO.P,U1,40,GPIO_40*%
%TO.N,VEML_INT*%
X106601202Y-113315000D03*
%TO.P,U1,41,SWDCLK*%
%TO.N,SWDCLK*%
X105951202Y-113315000D03*
%TO.P,U1,42,SWDIO*%
%TO.N,SWDIO*%
X105301202Y-113315000D03*
%TO.P,U1,43,GND*%
%TO.N,GND*%
X104651202Y-113315000D03*
%TO.P,U1,44,GND*%
X104001202Y-113315000D03*
%TO.P,U1,45,GND*%
X103351202Y-113315000D03*
%TO.P,U1,46,GND*%
X102701202Y-113315000D03*
%TO.P,U1,47,GPIO_47*%
%TO.N,unconnected-(U1-GPIO_47-Pad47)*%
X106276202Y-113965000D03*
%TO.P,U1,48,GPIO_48*%
%TO.N,unconnected-(U1-GPIO_48-Pad48)*%
X105626202Y-113965000D03*
%TO.P,U1,49,GPIO_49*%
%TO.N,unconnected-(U1-GPIO_49-Pad49)*%
X104976202Y-113965000D03*
%TO.P,U1,50,GPIO_50*%
%TO.N,unconnected-(U1-GPIO_50-Pad50)*%
X104326202Y-113965000D03*
%TO.P,U1,51,GPIO_51*%
%TO.N,unconnected-(U1-GPIO_51-Pad51)*%
X103676202Y-113965000D03*
%TO.P,U1,52,GPIO_52*%
%TO.N,unconnected-(U1-GPIO_52-Pad52)*%
X103026202Y-113965000D03*
D44*
%TO.P,U1,53,GND*%
%TO.N,GND*%
X104131202Y-115002000D03*
%TO.P,U1,54,GND*%
X104131202Y-115902000D03*
%TO.P,U1,55,GND*%
X105171202Y-115902000D03*
%TO.P,U1,56,GND*%
X105171202Y-115002000D03*
%TD*%
D20*
%TO.P,R10,1*%
%TO.N,VCC*%
X107550000Y-129820000D03*
%TO.P,R10,2*%
%TO.N,SDA*%
X109200000Y-129820000D03*
%TD*%
%TO.P,R8,1*%
%TO.N,VCC*%
X101375000Y-130000000D03*
%TO.P,R8,2*%
%TO.N,BMP581_INT*%
X103025000Y-130000000D03*
%TD*%
%TO.P,R12,1*%
%TO.N,VCC*%
X110800000Y-117250000D03*
%TO.P,R12,2*%
%TO.N,BMI_INT_1*%
X112450000Y-117250000D03*
%TD*%
D45*
%TO.P,U5,1*%
%TO.N,Net-(U5-Pad1)*%
X108100000Y-124500000D03*
%TO.P,U5,2,-*%
%TO.N,DAM_REF*%
X108100000Y-123850000D03*
%TO.P,U5,3,+*%
%TO.N,CC1*%
X108100000Y-123200000D03*
%TO.P,U5,4,V-*%
%TO.N,GND*%
X108100000Y-122550000D03*
%TO.P,U5,5,+*%
%TO.N,CC2*%
X105825000Y-122550000D03*
%TO.P,U5,6,-*%
%TO.N,DAM_REF*%
X105825000Y-123200000D03*
%TO.P,U5,7*%
%TO.N,Net-(U5-Pad7)*%
X105825000Y-123850000D03*
%TO.P,U5,8,V+*%
%TO.N,VBUS*%
X105825000Y-124500000D03*
%TD*%
D20*
%TO.P,R1,1*%
%TO.N,Net-(IC3-ADJ{slash}SENSE)*%
X120025000Y-128400000D03*
%TO.P,R1,2*%
%TO.N,BUCK_OUT*%
X121675000Y-128400000D03*
%TD*%
D35*
%TO.P,FID1,*%
%TO.N,*%
X101500000Y-103500000D03*
%TD*%
D46*
%TO.P,U2,1,SDO*%
%TO.N,GND*%
X111749999Y-112155700D03*
%TO.P,U2,2,NC*%
%TO.N,unconnected-(U2-NC-Pad2)*%
X112250000Y-112155700D03*
%TO.P,U2,3,NC*%
%TO.N,unconnected-(U2-NC-Pad3)*%
X112750000Y-112155700D03*
%TO.P,U2,4,INT1*%
%TO.N,BMI_INT_1*%
X113250001Y-112155700D03*
D47*
%TO.P,U2,5,VDDIO*%
%TO.N,VCC*%
X113414400Y-111499999D03*
%TO.P,U2,6,GNDIO*%
%TO.N,GND*%
X113414400Y-111000000D03*
%TO.P,U2,7,GND*%
X113414400Y-110500001D03*
D46*
%TO.P,U2,8,VDD*%
%TO.N,VCC*%
X113250001Y-109844300D03*
%TO.P,U2,9,INT2*%
%TO.N,BMI_INT_2*%
X112750000Y-109844300D03*
%TO.P,U2,10,NC*%
%TO.N,unconnected-(U2-NC-Pad10)*%
X112250000Y-109844300D03*
%TO.P,U2,11,NC*%
%TO.N,unconnected-(U2-NC-Pad11)*%
X111749999Y-109844300D03*
D47*
%TO.P,U2,12,CSB*%
%TO.N,VCC*%
X111585600Y-110500001D03*
%TO.P,U2,13,SCX*%
%TO.N,SCL*%
X111585600Y-111000000D03*
%TO.P,U2,14,SDX*%
%TO.N,SDA*%
X111585600Y-111499999D03*
%TD*%
D20*
%TO.P,R2,1*%
%TO.N,Net-(IC3-ADJ{slash}SENSE)*%
X120025000Y-126900000D03*
%TO.P,R2,2*%
%TO.N,GND*%
X121675000Y-126900000D03*
%TD*%
D40*
%TO.P,C12,1*%
%TO.N,VCC*%
X104475000Y-135300000D03*
%TO.P,C12,2*%
%TO.N,GND*%
X106025000Y-135300000D03*
%TD*%
D24*
%TO.P,R18,1*%
%TO.N,DAM_REF*%
X119500000Y-122325000D03*
%TO.P,R18,2*%
%TO.N,GND*%
X119500000Y-120675000D03*
%TD*%
D38*
%TO.P,C2,1*%
%TO.N,VBUS*%
X123450000Y-131650000D03*
%TO.P,C2,2*%
%TO.N,GND*%
X123450000Y-133550000D03*
%TD*%
D48*
%TO.P,S1,1,VOUT*%
%TO.N,Net-(S1-VOUT)*%
X123770000Y-121487500D03*
%TO.P,S1,2,ILIM*%
%TO.N,Net-(S1-ILIM)*%
X123270000Y-121487500D03*
%TO.P,S1,3,FLG*%
%TO.N,Net-(S1-FLG)*%
X122770000Y-121487500D03*
%TO.P,S1,4,CE*%
%TO.N,BUCK_OUT*%
X122770000Y-123587500D03*
%TO.P,S1,5,VSS*%
%TO.N,GND*%
X123270000Y-123587500D03*
%TO.P,S1,6,VIN*%
%TO.N,BUCK_OUT*%
X123770000Y-123587500D03*
D49*
%TO.P,S1,7,EPAD*%
%TO.N,GND*%
X123270000Y-122537500D03*
%TD*%
D50*
%TO.P,LED1,1,COM_A*%
%TO.N,VCC*%
X103000000Y-122300000D03*
%TO.P,LED1,2,K_R*%
%TO.N,Net-(LED1-K_R)*%
X103000000Y-123100000D03*
%TO.P,LED1,3,K_B*%
%TO.N,Net-(LED1-K_B)*%
X102200000Y-123100000D03*
%TO.P,LED1,4,K_G*%
%TO.N,Net-(LED1-K_G)*%
X102200000Y-122300000D03*
%TD*%
D51*
%TO.P,U3,1,VDDIO*%
%TO.N,VCC*%
X102226999Y-133510301D03*
%TO.P,U3,2,SCK*%
%TO.N,SCL*%
X102726999Y-133510301D03*
D52*
%TO.P,U3,3,VSS*%
%TO.N,GND*%
X103250000Y-133249999D03*
%TO.P,U3,4,SDI*%
%TO.N,SDA*%
X103250000Y-132750000D03*
%TO.P,U3,5,SDO*%
%TO.N,GND*%
X103250000Y-132250001D03*
D51*
%TO.P,U3,6,CSB*%
%TO.N,VCC*%
X102726999Y-131989699D03*
%TO.P,U3,7,INT*%
%TO.N,BMP581_INT*%
X102226999Y-131989699D03*
D52*
%TO.P,U3,8,VSS*%
%TO.N,GND*%
X101703998Y-132250001D03*
%TO.P,U3,9,VSS*%
X101703998Y-132750000D03*
%TO.P,U3,10,VDD*%
%TO.N,VCC*%
X101703998Y-133249999D03*
%TD*%
D53*
%TO.P,C13,1*%
%TO.N,SC*%
X113625000Y-132500000D03*
D30*
X113625000Y-131500000D03*
D53*
%TO.P,C13,2*%
%TO.N,GND*%
X108625000Y-132500000D03*
D30*
X108625000Y-131500000D03*
%TD*%
D14*
%TO.P,H4,1*%
%TO.N,N/C*%
X104000000Y-137625000D03*
%TD*%
%TO.P,H2,1*%
%TO.N,N/C*%
X121000000Y-104875000D03*
%TD*%
D54*
%TO.N,VL53_DRY*%
X106000000Y-118750000D03*
%TO.N,SWDIO*%
X109400500Y-114500000D03*
X106816275Y-108728275D03*
X114775500Y-116081637D03*
%TO.N,SWDCLK*%
X115500000Y-115250000D03*
X109400500Y-113500000D03*
X107500000Y-107500000D03*
%TO.N,/USB_N*%
X102001354Y-137105651D03*
X108171232Y-112046087D03*
%TO.N,/USB_P*%
X112200000Y-133800000D03*
X107400000Y-111000000D03*
X101258890Y-137848115D03*
X112840000Y-138730000D03*
%TO.N,SWO*%
X116250000Y-117750000D03*
%TO.N,RESET*%
X107150000Y-101900000D03*
X116200000Y-101325000D03*
D55*
X103022553Y-115624779D03*
D54*
X117175000Y-106425000D03*
X119550000Y-106400000D03*
%TO.N,SC*%
X122250000Y-116500000D03*
X117800000Y-129000000D03*
X123500000Y-112125000D03*
%TO.N,SDA*%
X104100499Y-133052417D03*
X112396094Y-111315204D03*
X110150498Y-102077635D03*
X106891344Y-132476443D03*
X110800000Y-112000000D03*
X112511746Y-126684003D03*
%TO.N,SCL*%
X111800000Y-124600000D03*
X104500000Y-130800000D03*
X111025000Y-101450498D03*
X110800000Y-111000000D03*
X108367339Y-114403050D03*
X102750000Y-134250000D03*
X106480500Y-134258375D03*
%TO.N,VBUS*%
X111400000Y-139600000D03*
X109706886Y-123878901D03*
D55*
X103138498Y-116415828D03*
D54*
X109500000Y-141000000D03*
X111346278Y-137346278D03*
X108049264Y-128338000D03*
X100833641Y-119407960D03*
D55*
%TO.N,GND*%
X100690000Y-107720000D03*
D54*
X122697119Y-126597234D03*
X114400000Y-110800000D03*
D55*
X105990000Y-114720000D03*
X101090000Y-113620000D03*
D54*
X112150498Y-103400498D03*
X109174645Y-122500500D03*
D55*
X104890000Y-111220000D03*
D54*
X111980707Y-127530763D03*
D55*
X100690000Y-114120000D03*
X101090000Y-116620000D03*
D54*
X119120000Y-117540000D03*
D55*
X103490000Y-107720000D03*
D54*
X121000000Y-125250000D03*
X110275367Y-107622922D03*
X120750000Y-120250000D03*
X104257765Y-121189441D03*
D55*
X100690000Y-118520000D03*
X102790000Y-107720000D03*
D54*
X108400000Y-137000000D03*
X108150000Y-110300000D03*
D55*
X101090000Y-115620000D03*
D54*
X116750000Y-107900000D03*
X100750000Y-122000000D03*
D55*
X100690000Y-115120000D03*
X102090000Y-107720000D03*
D54*
X110950000Y-105025000D03*
X123650000Y-108175000D03*
X111400000Y-113000000D03*
X114250000Y-120660000D03*
D55*
X104890000Y-107720000D03*
D54*
X115600000Y-137200000D03*
X117475000Y-101300000D03*
D55*
X104890000Y-108420000D03*
D54*
X111675000Y-109000000D03*
D55*
X101390000Y-107720000D03*
X100690000Y-117820000D03*
X104890000Y-110520000D03*
D54*
X122500000Y-119250000D03*
D55*
X101090000Y-114620000D03*
D54*
X115750000Y-122500000D03*
X103838000Y-132088000D03*
D55*
X103290000Y-114720000D03*
D54*
X123500000Y-134750000D03*
X101911897Y-131088103D03*
X109150000Y-101450498D03*
X117449999Y-111699999D03*
X103995085Y-134046345D03*
D55*
X104890000Y-109820000D03*
X100690000Y-117120000D03*
D54*
X122500500Y-122500000D03*
X105500000Y-125750000D03*
X111500000Y-121000000D03*
D55*
X104190000Y-107720000D03*
D54*
X106175000Y-106775000D03*
X123500000Y-130500000D03*
X116250000Y-120250000D03*
D55*
X100690000Y-116120000D03*
X104890000Y-109120000D03*
D54*
X119182069Y-129471389D03*
X105364689Y-128539481D03*
X106900000Y-103225000D03*
X117200000Y-104850000D03*
X120500000Y-131500000D03*
X104887979Y-119000000D03*
%TO.N,LED_G*%
X108153202Y-118013000D03*
X103804296Y-126278253D03*
%TO.N,LED_B*%
X104050500Y-125100000D03*
X109400500Y-117027345D03*
%TO.N,LED_R*%
X103725500Y-128270000D03*
X109152553Y-117995604D03*
%TO.N,VEML_INT*%
X107925000Y-103075000D03*
%TO.N,BMP581_INT*%
X109400000Y-115900000D03*
X102802165Y-130633760D03*
%TO.N,BMI_INT_2*%
X113200000Y-108600000D03*
X111399500Y-119872463D03*
X113088000Y-115656185D03*
%TO.N,BMI_INT_1*%
X113750000Y-117250000D03*
X112315055Y-119471510D03*
X113800000Y-113800000D03*
%TO.N,VCC_DAM*%
X110349356Y-137418043D03*
X114102755Y-133585833D03*
X108800000Y-125600000D03*
%TO.N,1Wire_DAM*%
X115125000Y-133250000D03*
X109351508Y-137475500D03*
X109516652Y-128667655D03*
%TO.N,1Wire*%
X113500000Y-118687000D03*
X115324218Y-109219439D03*
X112200000Y-106250000D03*
X110400000Y-128200000D03*
%TO.N,CC2*%
X114400000Y-129800000D03*
X113559312Y-137720688D03*
%TO.N,VCC*%
X123450000Y-103500000D03*
X116000000Y-125250000D03*
X101996296Y-118696431D03*
X115201446Y-101449998D03*
X111697367Y-116397247D03*
X109150498Y-105000000D03*
X114400000Y-109600000D03*
X106455500Y-131000000D03*
X105900000Y-136700000D03*
X103700000Y-123700000D03*
X114400000Y-112000000D03*
X111023497Y-110025806D03*
X116650000Y-114970000D03*
X108100500Y-127093750D03*
%TD*%
D56*
%TO.N,VL53_DRY*%
X105951198Y-118701198D02*
X106000000Y-118750000D01*
X105951198Y-117590000D02*
X105951198Y-118701198D01*
D57*
%TO.N,/ANT*%
X101811198Y-114802000D02*
X101811198Y-115452000D01*
D56*
%TO.N,SWDIO*%
X105301202Y-111698798D02*
X105301202Y-113315000D01*
X109400500Y-114500000D02*
X109613844Y-114286656D01*
X109613844Y-114286656D02*
X112713343Y-114286656D01*
X114500000Y-115000000D02*
X113426687Y-115000000D01*
X106271725Y-108728275D02*
X105626202Y-109373798D01*
X114775500Y-116081637D02*
X114775500Y-115275500D01*
X114775500Y-115275500D02*
X114500000Y-115000000D01*
X113426687Y-115000000D02*
X112713343Y-114286656D01*
X105626202Y-111373798D02*
X105301202Y-111698798D01*
X106816275Y-108728275D02*
X106271725Y-108728275D01*
X105626202Y-109373798D02*
X105626202Y-111373798D01*
D57*
%TO.N,SWDCLK*%
X109650500Y-113750000D02*
X109400500Y-113500000D01*
D56*
X107500000Y-108980760D02*
X107500000Y-107500000D01*
X105951202Y-113315000D02*
X105951202Y-110529558D01*
D57*
X113499695Y-114525000D02*
X112750000Y-113775305D01*
X112750000Y-113775305D02*
X112750000Y-113750000D01*
D56*
X107500000Y-108980760D02*
X105951202Y-110529558D01*
D57*
X115500000Y-115250000D02*
X114775000Y-114525000D01*
X112750000Y-113750000D02*
X109650500Y-113750000D01*
X114775000Y-114525000D02*
X113499695Y-114525000D01*
D58*
%TO.N,/USB_N*%
X112150000Y-136385001D02*
X112125000Y-136360001D01*
X112875000Y-134535000D02*
X112125000Y-135285000D01*
X104642032Y-139175000D02*
X105042032Y-138775000D01*
X105042032Y-138775000D02*
X105506800Y-138775000D01*
X111506800Y-138175000D02*
X112150000Y-137531800D01*
X112125000Y-135285000D02*
X112125000Y-135835000D01*
X108035145Y-111910000D02*
X108171232Y-112046087D01*
X102001354Y-137105651D02*
X102001354Y-137529916D01*
X103357968Y-139175000D02*
X104642032Y-139175000D01*
X107491202Y-111910000D02*
X108035145Y-111910000D01*
X112125000Y-136360001D02*
X112125000Y-135835000D01*
X102001354Y-137529916D02*
X102450000Y-137978562D01*
X105506800Y-138775000D02*
X106106800Y-138175000D01*
X106106800Y-138175000D02*
X111506800Y-138175000D01*
X112150000Y-137531800D02*
X112150000Y-136385001D01*
X102450000Y-137978562D02*
X102450000Y-138267032D01*
X102450000Y-138267032D02*
X103357968Y-139175000D01*
D56*
%TO.N,/USB_P*%
X107260602Y-112560000D02*
X107000000Y-112299398D01*
D58*
X102000019Y-138164979D02*
X102000019Y-138453421D01*
X112625000Y-135835000D02*
X112625000Y-136360001D01*
D56*
X107491202Y-112560000D02*
X107260602Y-112560000D01*
D58*
X112600000Y-137718200D02*
X112264100Y-138054100D01*
X112625000Y-136360001D02*
X112600000Y-136385001D01*
X101683155Y-137848115D02*
X102000019Y-138164979D01*
X101258890Y-137848115D02*
X101683155Y-137848115D01*
X102000019Y-138453421D02*
X103171580Y-139624981D01*
X104828421Y-139624981D02*
X105228402Y-139225000D01*
X105228402Y-139225000D02*
X105693200Y-139225000D01*
X111875000Y-134125000D02*
X112200000Y-133800000D01*
X112840000Y-138730000D02*
X112840000Y-138630000D01*
X106293200Y-138625000D02*
X111693200Y-138625000D01*
X112840000Y-138630000D02*
X112264100Y-138054100D01*
X107000000Y-111400000D02*
X107400000Y-111000000D01*
X111875000Y-134535000D02*
X111875000Y-134125000D01*
X112600000Y-136385001D02*
X112600000Y-137718200D01*
X111693200Y-138625000D02*
X112264100Y-138054100D01*
X103171580Y-139624981D02*
X104828421Y-139624981D01*
X107000000Y-112299398D02*
X107000000Y-111400000D01*
X105693200Y-139225000D02*
X106293200Y-138625000D01*
D56*
%TO.N,SWO*%
X108300000Y-119700000D02*
X108675000Y-119325000D01*
X104001198Y-118101198D02*
X104225479Y-118325479D01*
X104225479Y-118325479D02*
X104225479Y-119274417D01*
X114650500Y-119349500D02*
X116250000Y-117750000D01*
X108675000Y-119325000D02*
X110465380Y-119325000D01*
X104651062Y-119700000D02*
X108300000Y-119700000D01*
X112455462Y-118675000D02*
X113129962Y-119349500D01*
X104001198Y-117590000D02*
X104001198Y-118101198D01*
X104225479Y-119274417D02*
X104651062Y-119700000D01*
X110465380Y-119325000D02*
X111115381Y-118675000D01*
X113129962Y-119349500D02*
X114650500Y-119349500D01*
X111115381Y-118675000D02*
X112455462Y-118675000D01*
%TO.N,RESET*%
X118500000Y-106425000D02*
X117175000Y-106425000D01*
X118500000Y-106425000D02*
X119525000Y-106425000D01*
X108262002Y-100787998D02*
X107150000Y-101900000D01*
X119525000Y-106425000D02*
X119550000Y-106400000D01*
X114900000Y-106425000D02*
X117175000Y-106425000D01*
X102461198Y-115777000D02*
X102870332Y-115777000D01*
X115199915Y-100787998D02*
X115662998Y-100787998D01*
X115662998Y-100787998D02*
X116200000Y-101325000D01*
X102870332Y-115777000D02*
X103022553Y-115624779D01*
X115199915Y-100787998D02*
X108262002Y-100787998D01*
%TO.N,SC*%
X114536917Y-117400000D02*
X114800000Y-117400000D01*
X110650000Y-118025000D02*
X113911917Y-118025000D01*
D59*
X116499998Y-110400000D02*
X116499998Y-109527951D01*
X119300000Y-109652950D02*
X118825000Y-109177950D01*
D56*
X119500000Y-116000000D02*
X120050000Y-116550000D01*
D59*
X120925000Y-109950000D02*
X120925000Y-108250000D01*
X115600000Y-130352630D02*
X115600000Y-129600000D01*
D56*
X116200000Y-116000000D02*
X119500000Y-116000000D01*
D59*
X118825000Y-109177950D02*
X116849999Y-109177950D01*
X122049999Y-110425000D02*
X121400000Y-110425000D01*
X123200000Y-110425000D02*
X123450000Y-110675000D01*
D56*
X107775000Y-118675000D02*
X110000000Y-118675000D01*
D59*
X122024999Y-110400000D02*
X122049999Y-110425000D01*
D56*
X113911917Y-118025000D02*
X114536917Y-117400000D01*
D59*
X116200000Y-129000000D02*
X117800000Y-129000000D01*
D56*
X110000000Y-118675000D02*
X110650000Y-118025000D01*
D59*
X115600000Y-129600000D02*
X116200000Y-129000000D01*
X123450000Y-110675000D02*
X123450000Y-112075000D01*
X118400000Y-110400000D02*
X119300000Y-110400000D01*
X121400000Y-110425000D02*
X120925000Y-109950000D01*
X113375000Y-131500000D02*
X114452630Y-131500000D01*
D56*
X107491202Y-118391202D02*
X107775000Y-118675000D01*
X107491202Y-117402000D02*
X107491202Y-118391202D01*
X120050000Y-116550000D02*
X121412500Y-116550000D01*
X114800000Y-117400000D02*
X116200000Y-116000000D01*
D59*
X123450000Y-112075000D02*
X123500000Y-112125000D01*
X114452630Y-131500000D02*
X115600000Y-130352630D01*
X122250000Y-116500000D02*
X121462500Y-116500000D01*
X111375000Y-131500000D02*
X113375000Y-131500000D01*
X119300000Y-110400000D02*
X119300000Y-109652950D01*
X119300000Y-110400000D02*
X122024999Y-110400000D01*
X122049999Y-110425000D02*
X123200000Y-110425000D01*
X116849999Y-109177950D02*
X116499998Y-109527951D01*
D56*
%TO.N,SDA*%
X112327743Y-126500000D02*
X112511746Y-126684003D01*
D58*
X103577000Y-132750000D02*
X103250000Y-132750000D01*
D56*
X108491413Y-112908587D02*
X108491413Y-112708587D01*
X110450000Y-102750000D02*
X111065000Y-102750000D01*
D58*
X112396094Y-111315204D02*
X112211299Y-111499999D01*
D56*
X112643207Y-128106793D02*
X111500000Y-129250000D01*
X111500000Y-129250000D02*
X110700000Y-129250000D01*
D58*
X112511746Y-126684003D02*
X112680707Y-126852964D01*
D56*
X106000000Y-132000000D02*
X106414901Y-132000000D01*
X112511746Y-126684003D02*
X112643207Y-126815464D01*
X110150498Y-102450498D02*
X110450000Y-102750000D01*
X111550000Y-126500000D02*
X112327743Y-126500000D01*
D58*
X111300001Y-111499999D02*
X110800000Y-112000000D01*
D56*
X106414901Y-132000000D02*
X106891344Y-132476443D01*
D58*
X108732107Y-129820000D02*
X109200000Y-129820000D01*
X104100499Y-133052417D02*
X103879417Y-133052417D01*
D56*
X112643207Y-126815464D02*
X112643207Y-128106793D01*
X110150498Y-102077635D02*
X110150498Y-102450498D01*
D58*
X111585600Y-111499999D02*
X111300001Y-111499999D01*
D56*
X107491202Y-113502000D02*
X107898000Y-113502000D01*
X109200000Y-112000000D02*
X110800000Y-112000000D01*
D58*
X103879417Y-133052417D02*
X103577000Y-132750000D01*
D56*
X110700000Y-129250000D02*
X110000000Y-129950000D01*
X110000000Y-129950000D02*
X109425000Y-129950000D01*
X109200000Y-129820000D02*
X108679074Y-129820000D01*
D58*
X106891344Y-131660763D02*
X108732107Y-129820000D01*
X112211299Y-111499999D02*
X111585600Y-111499999D01*
X106891344Y-132476443D02*
X106891344Y-131660763D01*
D56*
X107898000Y-113502000D02*
X108491413Y-112908587D01*
X108491413Y-112708587D02*
X109200000Y-112000000D01*
D58*
%TO.N,SCL*%
X111202204Y-101273294D02*
X111025000Y-101450498D01*
X112250000Y-101418801D02*
X112104493Y-101273294D01*
D56*
X104500000Y-130800000D02*
X104500000Y-130000000D01*
X107491202Y-114152000D02*
X108116289Y-114152000D01*
D58*
X112104493Y-101273294D02*
X111202204Y-101273294D01*
X111585600Y-111000000D02*
X110800000Y-111000000D01*
X111300000Y-124650000D02*
X111750000Y-124650000D01*
D56*
X102726999Y-133510301D02*
X102726999Y-134226999D01*
X102726999Y-134226999D02*
X102750000Y-134250000D01*
X108116289Y-114152000D02*
X108367339Y-114403050D01*
D58*
X111750000Y-124650000D02*
X111800000Y-124600000D01*
X112250000Y-101418801D02*
X112250000Y-102065000D01*
D56*
X106072125Y-133850000D02*
X106480500Y-134258375D01*
D59*
%TO.N,VBUS*%
X120600000Y-132900000D02*
X121550000Y-132900000D01*
D58*
X111125000Y-135385000D02*
X111125000Y-135835000D01*
X104400000Y-122400000D02*
X104400000Y-123900000D01*
X111125000Y-135835000D02*
X111125000Y-137125000D01*
X113625000Y-135335000D02*
X113625000Y-135835000D01*
X110875000Y-135135000D02*
X111125000Y-135385000D01*
D57*
X111400000Y-139600000D02*
X110900000Y-139600000D01*
D58*
X110875000Y-134535000D02*
X110875000Y-135135000D01*
X104750000Y-124750000D02*
X104750000Y-126805000D01*
D56*
X119362500Y-125462500D02*
X119362500Y-127187500D01*
D58*
X107600000Y-127618555D02*
X106981445Y-127000000D01*
X107600000Y-128150000D02*
X107861264Y-128150000D01*
X103600000Y-121600000D02*
X104400000Y-122400000D01*
D59*
X120600000Y-133900000D02*
X120600000Y-132900000D01*
D56*
X118519569Y-134289569D02*
X119245000Y-135015000D01*
X110100000Y-124272015D02*
X109706886Y-123878901D01*
D58*
X111400000Y-139600000D02*
X111500000Y-139700000D01*
X103300000Y-121400000D02*
X103500000Y-121600000D01*
X105000000Y-124500000D02*
X105825000Y-124500000D01*
X107600000Y-128150000D02*
X107600000Y-127618555D01*
D59*
X119245000Y-135255000D02*
X120600000Y-133900000D01*
X122200000Y-132900000D02*
X123450000Y-131650000D01*
D58*
X111125000Y-137125000D02*
X111346278Y-137346278D01*
X103500000Y-121600000D02*
X103600000Y-121600000D01*
D56*
X110100000Y-124650000D02*
X110100000Y-124272015D01*
D58*
X105000000Y-124500000D02*
X104750000Y-124750000D01*
D59*
X121550000Y-132900000D02*
X122200000Y-132900000D01*
D56*
X118519569Y-128030431D02*
X118519569Y-134289569D01*
D58*
X100833641Y-119407960D02*
X100833641Y-120746103D01*
X100833641Y-120746103D02*
X101487538Y-121400000D01*
X113625000Y-135835000D02*
X113625000Y-136585000D01*
D59*
X115780000Y-138720000D02*
X114800000Y-139700000D01*
D57*
X110900000Y-139600000D02*
X109500000Y-141000000D01*
D58*
X113875000Y-134535000D02*
X113875000Y-135085000D01*
D56*
X103026198Y-116528128D02*
X103138498Y-116415828D01*
D59*
X115760000Y-138720000D02*
X115780000Y-138720000D01*
D58*
X104400000Y-123900000D02*
X105000000Y-124500000D01*
D59*
X119245000Y-135255000D02*
X115780000Y-138720000D01*
D56*
X119245000Y-135015000D02*
X119245000Y-135255000D01*
X119362500Y-127187500D02*
X118519569Y-128030431D01*
D58*
X101487538Y-121400000D02*
X103300000Y-121400000D01*
D59*
X111500000Y-139700000D02*
X114800000Y-139700000D01*
D58*
X107861264Y-128150000D02*
X108049264Y-128338000D01*
X106981445Y-127000000D02*
X104945000Y-127000000D01*
D59*
X113625000Y-136585000D02*
X115760000Y-138720000D01*
D58*
X113875000Y-135085000D02*
X113625000Y-135335000D01*
D56*
X103026198Y-116940000D02*
X103026198Y-116528128D01*
D58*
%TO.N,GND*%
X114200000Y-111000000D02*
X114400000Y-110800000D01*
X104890000Y-109120000D02*
X104890000Y-109820000D01*
D59*
X101811198Y-113502000D02*
X101208000Y-113502000D01*
X122394353Y-126900000D02*
X122697119Y-126597234D01*
X123450000Y-134700000D02*
X123500000Y-134750000D01*
D56*
X103675999Y-132250001D02*
X103838000Y-132088000D01*
X104651198Y-118763219D02*
X104887979Y-119000000D01*
X102251498Y-116961700D02*
X102174899Y-116885101D01*
D57*
X106300000Y-126250000D02*
X106000000Y-126250000D01*
D59*
X121050000Y-125200000D02*
X121000000Y-125250000D01*
D58*
X103490000Y-107720000D02*
X104190000Y-107720000D01*
D56*
X102174899Y-116885101D02*
X102041798Y-116752000D01*
D59*
X104003331Y-116220000D02*
X103776665Y-115993334D01*
D56*
X109570000Y-108328289D02*
X110275367Y-107622922D01*
X102041798Y-116752000D02*
X101811198Y-116752000D01*
X103250000Y-132250001D02*
X103675999Y-132250001D01*
D58*
X104890000Y-108420000D02*
X104890000Y-109120000D01*
D59*
X123450000Y-133550000D02*
X123450000Y-134700000D01*
D56*
X123650000Y-106250000D02*
X123450000Y-106050000D01*
X116725000Y-107875000D02*
X116750000Y-107900000D01*
D58*
X102790000Y-107720000D02*
X103490000Y-107720000D01*
D56*
X111300000Y-127150000D02*
X111599944Y-127150000D01*
X101703998Y-132250001D02*
X101703998Y-131296002D01*
D58*
X121750000Y-120000000D02*
X122500000Y-119250000D01*
D59*
X104295000Y-115450000D02*
X104270000Y-115475000D01*
D58*
X109275000Y-135835000D02*
X109275000Y-136125000D01*
X112950000Y-105750000D02*
X113250001Y-105449999D01*
X111825000Y-120675000D02*
X111225000Y-121275000D01*
D59*
X121675000Y-126900000D02*
X122394353Y-126900000D01*
X123270000Y-122537500D02*
X122538000Y-122537500D01*
D56*
X115450000Y-104850000D02*
X117200000Y-104850000D01*
D59*
X101090000Y-113620000D02*
X101090000Y-118170000D01*
D56*
X102251498Y-117159100D02*
X102260898Y-117149700D01*
D57*
X104651202Y-113315000D02*
X102701202Y-113315000D01*
D58*
X109125145Y-122550000D02*
X109174645Y-122500500D01*
D56*
X102251498Y-117070000D02*
X102490000Y-117070000D01*
D57*
X102228000Y-113502000D02*
X101811198Y-113502000D01*
D59*
X105990000Y-114720000D02*
X105453202Y-114720000D01*
D58*
X111749999Y-112650001D02*
X111400000Y-113000000D01*
D59*
X123450000Y-130450000D02*
X123500000Y-130500000D01*
X122125000Y-125200000D02*
X121050000Y-125200000D01*
D56*
X103250000Y-133301260D02*
X103995085Y-134046345D01*
X112500000Y-103500000D02*
X112250000Y-103500000D01*
D59*
X103290000Y-114720000D02*
X103340000Y-114770000D01*
D56*
X106025000Y-135300000D02*
X106380000Y-134945000D01*
D59*
X104131202Y-115902000D02*
X105171202Y-115902000D01*
D56*
X114850001Y-104250001D02*
X113935000Y-104250000D01*
D58*
X114235000Y-120675000D02*
X114250000Y-120660000D01*
D57*
X104730000Y-111380000D02*
X104890000Y-111220000D01*
D56*
X112500000Y-103500000D02*
X112350498Y-103500000D01*
D57*
X102701202Y-113315000D02*
X102415000Y-113315000D01*
D58*
X115475000Y-135835000D02*
X115475000Y-137075000D01*
D56*
X114850001Y-104250001D02*
X115450000Y-104850000D01*
D58*
X113414400Y-111000000D02*
X114200000Y-111000000D01*
X102090000Y-107720000D02*
X102790000Y-107720000D01*
D57*
X101811198Y-113502000D02*
X101811198Y-114152000D01*
D58*
X115475000Y-137075000D02*
X115600000Y-137200000D01*
X109275000Y-136125000D02*
X108400000Y-137000000D01*
D57*
X104651202Y-113315000D02*
X104730000Y-113236202D01*
D59*
X105740000Y-115450000D02*
X105740000Y-114870000D01*
D58*
X104890000Y-110520000D02*
X104890000Y-111220000D01*
X119500000Y-120675000D02*
X120325000Y-120675000D01*
D57*
X102415000Y-113315000D02*
X102228000Y-113502000D01*
D58*
X104890000Y-107720000D02*
X104890000Y-108420000D01*
D56*
X111599944Y-127150000D02*
X111980707Y-127530763D01*
X102174899Y-116885101D02*
X102405101Y-116885101D01*
X102251498Y-116961700D02*
X102481700Y-116961700D01*
X109100000Y-102850000D02*
X109100000Y-101500498D01*
D59*
X118000000Y-116927950D02*
X118507950Y-116927950D01*
D56*
X102251498Y-117070000D02*
X102251498Y-116961700D01*
D59*
X103795000Y-115974999D02*
X103795000Y-115075000D01*
D58*
X111749999Y-112155700D02*
X111749999Y-112650001D01*
X104890000Y-109820000D02*
X104890000Y-110520000D01*
X115375000Y-134535000D02*
X115375000Y-135735000D01*
D59*
X118507950Y-116927950D02*
X119120000Y-117540000D01*
D58*
X112200000Y-120675000D02*
X114235000Y-120675000D01*
X123270000Y-123587500D02*
X123270000Y-122537500D01*
D56*
X101703998Y-132750000D02*
X101703998Y-132250001D01*
D57*
X106000000Y-126250000D02*
X105500000Y-125750000D01*
D58*
X113825000Y-106625000D02*
X112950000Y-105750000D01*
D59*
X105740000Y-116220000D02*
X104003331Y-116220000D01*
D56*
X116775000Y-107875000D02*
X116750000Y-107900000D01*
D59*
X105590000Y-114720000D02*
X103290000Y-114720000D01*
D58*
X112750000Y-105550000D02*
X112750000Y-104935000D01*
D56*
X114900000Y-107875000D02*
X116725000Y-107875000D01*
D59*
X103776665Y-115993334D02*
X103795000Y-115974999D01*
D58*
X112750000Y-105550000D02*
X112950000Y-105750000D01*
X103368324Y-120300000D02*
X104257765Y-121189441D01*
D56*
X101926498Y-116867300D02*
X102490000Y-116867300D01*
D58*
X113250001Y-105449999D02*
X113250000Y-104935000D01*
D56*
X105000000Y-132000000D02*
X105000000Y-132525000D01*
D59*
X117449999Y-110400000D02*
X117449999Y-111699999D01*
X105740000Y-114870000D02*
X105590000Y-114720000D01*
D58*
X104190000Y-107720000D02*
X104890000Y-107720000D01*
D56*
X106380000Y-134945000D02*
X108055000Y-134945000D01*
X102405101Y-116885101D02*
X102481700Y-116961700D01*
D58*
X113414400Y-110500001D02*
X114100001Y-110500001D01*
X101390000Y-107720000D02*
X102090000Y-107720000D01*
X121800000Y-118550000D02*
X122500000Y-119250000D01*
X105230208Y-128405000D02*
X105364689Y-128539481D01*
D59*
X122825000Y-108250000D02*
X123575000Y-108250000D01*
D57*
X104730000Y-113236202D02*
X104730000Y-111380000D01*
D59*
X105740000Y-115450000D02*
X104295000Y-115450000D01*
D58*
X108100000Y-122550000D02*
X109125145Y-122550000D01*
D56*
X103838000Y-132088000D02*
X103926000Y-132000000D01*
X119610680Y-129900000D02*
X119182069Y-129471389D01*
X112250000Y-103500000D02*
X112150498Y-103400498D01*
X118500000Y-107875000D02*
X116775000Y-107875000D01*
X102251498Y-117820000D02*
X102251498Y-117170000D01*
D59*
X105453202Y-114720000D02*
X105171202Y-115002000D01*
X104131202Y-115002000D02*
X105171202Y-115002000D01*
D56*
X103926000Y-132000000D02*
X105000000Y-132000000D01*
X102251498Y-117170000D02*
X102251498Y-117159100D01*
X104651198Y-117590000D02*
X104651198Y-118763219D01*
X102260898Y-117149700D02*
X102490000Y-117149700D01*
D59*
X123575000Y-108250000D02*
X123650000Y-108175000D01*
X123450000Y-129550000D02*
X123450000Y-130450000D01*
D58*
X111225000Y-121275000D02*
X110700000Y-121275000D01*
D56*
X105301198Y-118586781D02*
X104887979Y-119000000D01*
X123650000Y-108175000D02*
X123650000Y-106250000D01*
D59*
X105740000Y-116220000D02*
X105740000Y-115450000D01*
D58*
X114900000Y-107875000D02*
X114600000Y-107875000D01*
D59*
X122538000Y-122537500D02*
X122500500Y-122500000D01*
X105171202Y-115002000D02*
X105171202Y-115902000D01*
D56*
X105000000Y-132525000D02*
X105450000Y-132975000D01*
D58*
X104800000Y-128405000D02*
X105230208Y-128405000D01*
D56*
X105301198Y-117590000D02*
X105301198Y-118586781D01*
D58*
X114100001Y-110500001D02*
X114400000Y-110800000D01*
D56*
X109570000Y-109265000D02*
X109570000Y-108328289D01*
D59*
X104131202Y-115902000D02*
X103908000Y-115902000D01*
D56*
X109100000Y-101500498D02*
X109150000Y-101450498D01*
D58*
X100690000Y-107720000D02*
X101390000Y-107720000D01*
X109375000Y-134535000D02*
X109375000Y-135735000D01*
X120325000Y-120675000D02*
X120750000Y-120250000D01*
X113825000Y-107100000D02*
X113825000Y-106625000D01*
D59*
X101208000Y-113502000D02*
X101090000Y-113620000D01*
X104131202Y-115002000D02*
X104131202Y-115902000D01*
D58*
X114600000Y-107875000D02*
X113825000Y-107100000D01*
D56*
X101703998Y-131296002D02*
X101911897Y-131088103D01*
D58*
%TO.N,unconnected-(U4-N{slash}C-Pad4)*%
X111749999Y-102052200D02*
X111749999Y-101975497D01*
D56*
%TO.N,MLX_TRIG*%
X111002500Y-103687500D02*
X108612500Y-103687500D01*
X106637500Y-112449550D02*
X107029452Y-112841502D01*
X108525000Y-105225000D02*
X108525000Y-108875000D01*
X108525000Y-108875000D02*
X106637501Y-110762499D01*
X108612500Y-103687500D02*
X108362500Y-103937500D01*
X108362500Y-105062500D02*
X108525000Y-105225000D01*
X107029452Y-112841502D02*
X107041502Y-112841502D01*
X111065000Y-103750000D02*
X111002500Y-103687500D01*
X111052200Y-103750000D02*
X110989700Y-103687500D01*
X108362500Y-103937500D02*
X108362500Y-105062500D01*
X107041502Y-112841502D02*
X107041502Y-114276700D01*
X107041502Y-114276700D02*
X106841202Y-114477000D01*
X106637501Y-110762499D02*
X106637500Y-112449550D01*
%TO.N,Net-(LED1-K_R)*%
X102575000Y-127375000D02*
X102575000Y-124300000D01*
X101650000Y-128300000D02*
X102575000Y-127375000D01*
X102575000Y-124300000D02*
X103000000Y-123875000D01*
X103000000Y-123875000D02*
X103000000Y-123100000D01*
%TO.N,Net-(LED1-K_B)*%
X102200000Y-123375000D02*
X101675000Y-123900000D01*
X102200000Y-123100000D02*
X102200000Y-123375000D01*
X101675000Y-123900000D02*
X101675000Y-125075000D01*
%TO.N,Net-(LED1-K_G)*%
X101500000Y-123387500D02*
X100987500Y-123900000D01*
X101800000Y-122300000D02*
X101500000Y-122600000D01*
X101650000Y-126700000D02*
X100987500Y-126037500D01*
X102200000Y-122300000D02*
X101800000Y-122300000D01*
X101500000Y-122600000D02*
X101500000Y-123387500D01*
X100987500Y-126037500D02*
X100987500Y-123900000D01*
D58*
%TO.N,LED_G*%
X103804296Y-126278253D02*
X103721747Y-126278253D01*
D56*
X107491202Y-116752000D02*
X107721802Y-116752000D01*
D58*
X103721747Y-126278253D02*
X103300000Y-126700000D01*
D56*
X107721802Y-116752000D02*
X107931502Y-116961700D01*
X107931502Y-116961700D02*
X107931502Y-117791300D01*
X107931502Y-117791300D02*
X108153202Y-118013000D01*
%TO.N,LED_B*%
X103300000Y-125100000D02*
X104050500Y-125100000D01*
X107721802Y-115452000D02*
X109297147Y-117027345D01*
X107491202Y-115452000D02*
X107721802Y-115452000D01*
X109297147Y-117027345D02*
X109400500Y-117027345D01*
%TO.N,LED_R*%
X108256502Y-116656502D02*
X108256502Y-117096320D01*
X108256502Y-117096320D02*
X108256502Y-117099553D01*
X108256502Y-117099553D02*
X109152553Y-117995604D01*
D58*
X103725500Y-128270000D02*
X103330000Y-128270000D01*
D56*
X107491202Y-116102000D02*
X107702000Y-116102000D01*
X107702000Y-116102000D02*
X108256502Y-116656502D01*
%TO.N,VEML_INT*%
X107925000Y-103075000D02*
X107925000Y-105125000D01*
X106312500Y-112584169D02*
X106312501Y-110627879D01*
X106601202Y-113315000D02*
X106601202Y-112872872D01*
X108200000Y-108740380D02*
X108200000Y-105400000D01*
X106312501Y-110627879D02*
X108200000Y-108740380D01*
X106601202Y-112872872D02*
X106312500Y-112584169D01*
X107925000Y-105125000D02*
X108200000Y-105400000D01*
%TO.N,DAM*%
X108599500Y-129000500D02*
X106600500Y-129000500D01*
X106600500Y-129000500D02*
X106300000Y-128700000D01*
X108800000Y-128800000D02*
X108599500Y-129000500D01*
X110825000Y-126175000D02*
X110537500Y-126462500D01*
X110500000Y-124650000D02*
X110500000Y-125300000D01*
X106300000Y-128700000D02*
X106300000Y-128150000D01*
X109850000Y-126500000D02*
X109400000Y-126500000D01*
X110500000Y-125300000D02*
X110462500Y-125337500D01*
X110825000Y-125700000D02*
X110825000Y-126175000D01*
X110462500Y-125337500D02*
X110825000Y-125700000D01*
X108800000Y-127100000D02*
X108800000Y-128800000D01*
X109400000Y-126500000D02*
X108800000Y-127100000D01*
X110462500Y-125337500D02*
X109887500Y-125337500D01*
X110537500Y-126462500D02*
X109887500Y-126462500D01*
X110825000Y-125700000D02*
X111550000Y-125700000D01*
%TO.N,SCL_DAM*%
X110816019Y-130150500D02*
X110025500Y-130941018D01*
X110900000Y-124650000D02*
X110900000Y-124000000D01*
X110025500Y-133400000D02*
X110375000Y-133749500D01*
X111150000Y-123750000D02*
X112500000Y-123750000D01*
X110025500Y-130941018D02*
X110025500Y-133400000D01*
X110900000Y-124000000D02*
X111150000Y-123750000D01*
X113499246Y-124749246D02*
X113499246Y-128742134D01*
X112500000Y-123750000D02*
X113499246Y-124749246D01*
X112090880Y-130150500D02*
X110816019Y-130150500D01*
X110375000Y-133749500D02*
X110375000Y-134535000D01*
X113499246Y-128742134D02*
X112090880Y-130150500D01*
%TO.N,SDA_DAM*%
X109700500Y-133700500D02*
X109700500Y-130806399D01*
X109700500Y-130806399D02*
X110681400Y-129825500D01*
X111924500Y-129825500D02*
X113174246Y-128575754D01*
X112764660Y-126000000D02*
X112300000Y-126000000D01*
X109875000Y-134535000D02*
X109875000Y-133875000D01*
X113174246Y-126409586D02*
X112764660Y-126000000D01*
X109875000Y-133875000D02*
X109700500Y-133700500D01*
X112300000Y-126000000D02*
X112200000Y-126100000D01*
X112200000Y-126100000D02*
X111550000Y-126100000D01*
X113174246Y-128575754D02*
X113174246Y-126409586D01*
X110681400Y-129825500D02*
X111924500Y-129825500D01*
%TO.N,BMP581_INT*%
X108927372Y-115900000D02*
X109400000Y-115900000D01*
X107829372Y-114802000D02*
X108927372Y-115900000D01*
X102226999Y-131773001D02*
X102574397Y-131425603D01*
X102226999Y-131989699D02*
X102226999Y-131773001D01*
X103025000Y-130410925D02*
X102802165Y-130633760D01*
X102574397Y-131425603D02*
X102574397Y-130861528D01*
X107491202Y-114802000D02*
X107829372Y-114802000D01*
X102574397Y-130861528D02*
X102802165Y-130633760D01*
%TO.N,BMI_INT_2*%
X109250000Y-120000000D02*
X110845926Y-120000000D01*
X102701198Y-118160339D02*
X103570430Y-119029570D01*
X110845926Y-120000000D02*
X110973463Y-119872463D01*
D58*
X112750000Y-109050000D02*
X113200000Y-108600000D01*
D56*
X108900000Y-120350000D02*
X108925000Y-120325000D01*
X102701198Y-117590000D02*
X102701198Y-118160339D01*
X108925000Y-120325000D02*
X109250000Y-120000000D01*
D58*
X112750000Y-109844300D02*
X112750000Y-109050000D01*
D56*
X112931815Y-115500000D02*
X113088000Y-115656185D01*
X112450000Y-115500000D02*
X112931815Y-115500000D01*
X110973463Y-119872463D02*
X111399500Y-119872463D01*
X103570430Y-119538607D02*
X104381823Y-120350000D01*
X103570430Y-119029570D02*
X103570430Y-119538607D01*
X104381823Y-120350000D02*
X108900000Y-120350000D01*
%TO.N,BMI_INT_1*%
X104516442Y-120025000D02*
X103900479Y-119409036D01*
X103900479Y-118900000D02*
X103351198Y-118350719D01*
X111750000Y-119000000D02*
X111250000Y-119000000D01*
X112315055Y-119471510D02*
X112221510Y-119471510D01*
X112221510Y-119471510D02*
X111750000Y-119000000D01*
X110600000Y-119650000D02*
X109000000Y-119650000D01*
D58*
X113250001Y-113250001D02*
X113800000Y-113800000D01*
D56*
X113750000Y-117250000D02*
X112450000Y-117250000D01*
D58*
X113250001Y-112155700D02*
X113250001Y-113250001D01*
D56*
X103900479Y-119409036D02*
X103900479Y-118900000D01*
X108625000Y-120025000D02*
X104516442Y-120025000D01*
X109000000Y-119650000D02*
X108625000Y-120025000D01*
X111250000Y-119000000D02*
X110600000Y-119650000D01*
X103351198Y-118350719D02*
X103351198Y-117590000D01*
D58*
%TO.N,VCC_DAM*%
X109850000Y-125700000D02*
X108900000Y-125700000D01*
D56*
X114375000Y-134535000D02*
X114375000Y-133858078D01*
X114375000Y-133858078D02*
X114102755Y-133585833D01*
D58*
X110349356Y-137418043D02*
X110625000Y-137142399D01*
X110625000Y-137142399D02*
X110625000Y-135835000D01*
X108900000Y-125700000D02*
X108800000Y-125600000D01*
D56*
%TO.N,1Wire_DAM*%
X114875000Y-133500000D02*
X115125000Y-133250000D01*
D58*
X109351508Y-137475500D02*
X109351508Y-137425941D01*
X109351508Y-137425941D02*
X110125000Y-136652449D01*
X110100000Y-127150000D02*
X109516652Y-127733348D01*
X110125000Y-136652449D02*
X110125000Y-135835000D01*
D56*
X114875000Y-134535000D02*
X114875000Y-133500000D01*
D58*
X109516652Y-127733348D02*
X109516652Y-128667655D01*
%TO.N,1Wire*%
X115004779Y-108900000D02*
X115324218Y-109219439D01*
D56*
X107041498Y-117149700D02*
X107041498Y-118541498D01*
X106276198Y-116940000D02*
X106831798Y-116940000D01*
D58*
X110500000Y-128100000D02*
X110400000Y-128200000D01*
X113900000Y-108310050D02*
X113900000Y-108525000D01*
D56*
X110330760Y-119000000D02*
X110980762Y-118350000D01*
X107500000Y-119000000D02*
X110330760Y-119000000D01*
X107041498Y-118541498D02*
X107500000Y-119000000D01*
X110980762Y-118350000D02*
X113163000Y-118350000D01*
D58*
X112200000Y-106250000D02*
X112200000Y-106610050D01*
X110500000Y-127150000D02*
X110500000Y-128100000D01*
D56*
X113163000Y-118350000D02*
X113500000Y-118687000D01*
D58*
X114275000Y-108900000D02*
X115004779Y-108900000D01*
X112200000Y-106610050D02*
X113900000Y-108310050D01*
D56*
X106831798Y-116940000D02*
X107041498Y-117149700D01*
D58*
X113900000Y-108525000D02*
X114275000Y-108900000D01*
D56*
%TO.N,DAM_REF*%
X109545682Y-121475000D02*
X110008182Y-121937500D01*
X118837500Y-121662500D02*
X119500000Y-122325000D01*
X106867500Y-121712500D02*
X108370000Y-121712500D01*
D59*
X119500000Y-122325000D02*
X119500000Y-123675000D01*
D56*
X104900000Y-122835508D02*
X104900000Y-122264492D01*
X108607500Y-121475000D02*
X109545682Y-121475000D01*
X106620000Y-121960000D02*
X106867500Y-121712500D01*
D58*
X108100000Y-123850000D02*
X107088541Y-123850000D01*
X106438541Y-123200000D02*
X105825000Y-123200000D01*
D56*
X105264492Y-123200000D02*
X104900000Y-122835508D01*
X105204492Y-121960000D02*
X106620000Y-121960000D01*
X110008182Y-121937500D02*
X111458426Y-121937500D01*
X111733426Y-121662500D02*
X118837500Y-121662500D01*
X111458426Y-121937500D02*
X111733426Y-121662500D01*
D58*
X107088541Y-123850000D02*
X106438541Y-123200000D01*
D56*
X108370000Y-121712500D02*
X108607500Y-121475000D01*
X104900000Y-122264492D02*
X105204492Y-121960000D01*
D57*
%TO.N,Net-(U5-Pad1)*%
X108100000Y-125250000D02*
X108100000Y-124500000D01*
X107600000Y-125750000D02*
X108100000Y-125250000D01*
X107600000Y-126250000D02*
X107600000Y-125750000D01*
D58*
%TO.N,CC1*%
X109538379Y-123200000D02*
X109813379Y-122925000D01*
X109813379Y-122925000D02*
X110700000Y-122925000D01*
D56*
X110950638Y-130475500D02*
X112225500Y-130475500D01*
D58*
X108100000Y-123200000D02*
X109538379Y-123200000D01*
D56*
X112225500Y-130475500D02*
X113824246Y-128876753D01*
X111300000Y-133825000D02*
X110910120Y-133825000D01*
X111375000Y-134535000D02*
X111375000Y-133900000D01*
X110350500Y-133265380D02*
X110350500Y-131075638D01*
X110910120Y-133825000D02*
X110350500Y-133265380D01*
X112206220Y-122987500D02*
X110762500Y-122987500D01*
X113824246Y-124605526D02*
X112206220Y-122987500D01*
X113824246Y-128876753D02*
X113824246Y-124605526D01*
X110350500Y-131075638D02*
X110950638Y-130475500D01*
X111375000Y-133900000D02*
X111300000Y-133825000D01*
D58*
%TO.N,CC2*%
X113559312Y-137720688D02*
X113050000Y-137211376D01*
D56*
X107217500Y-122037500D02*
X106705000Y-122550000D01*
D58*
X113050000Y-136332182D02*
X113125000Y-136257182D01*
X112200000Y-122468628D02*
X114400000Y-124668628D01*
X114400000Y-124668628D02*
X114400000Y-129800000D01*
X113050000Y-137211376D02*
X113050000Y-136332182D01*
D56*
X108827500Y-121800000D02*
X108590000Y-122037500D01*
X106705000Y-122550000D02*
X105825000Y-122550000D01*
X109411062Y-121800000D02*
X108827500Y-121800000D01*
D58*
X113125000Y-136257182D02*
X113125000Y-135835000D01*
D56*
X108590000Y-122037500D02*
X107217500Y-122037500D01*
X109873562Y-122262500D02*
X109411062Y-121800000D01*
X112137500Y-122262500D02*
X109873562Y-122262500D01*
D57*
%TO.N,Net-(U5-Pad7)*%
X106473896Y-123850000D02*
X105825000Y-123850000D01*
X106950000Y-124326104D02*
X106473896Y-123850000D01*
X106950000Y-126250000D02*
X106950000Y-124326104D01*
D59*
%TO.N,VCC*%
X118000000Y-114250000D02*
X118000000Y-115027950D01*
D58*
X113899999Y-111499999D02*
X114400000Y-112000000D01*
D56*
X105200000Y-135500000D02*
X105200000Y-135800000D01*
X104475000Y-135300000D02*
X105000000Y-135300000D01*
X114008300Y-101383300D02*
X115125000Y-102500000D01*
D59*
X118000000Y-115027950D02*
X116707950Y-115027950D01*
D56*
X110800000Y-117250000D02*
X110800000Y-116400000D01*
X101750000Y-129250000D02*
X103500000Y-129250000D01*
D59*
X116499998Y-113155900D02*
X117165900Y-113155900D01*
X117540000Y-113790000D02*
X118000000Y-114250000D01*
D58*
X103000000Y-122300000D02*
X103400000Y-122300000D01*
D56*
X112860501Y-101383300D02*
X114008300Y-101383300D01*
X105200000Y-135800000D02*
X105200000Y-136000000D01*
X112750000Y-101493801D02*
X112860501Y-101383300D01*
D58*
X111497692Y-110500001D02*
X111023497Y-110025806D01*
D56*
X110359194Y-110025806D02*
X109570000Y-110815000D01*
D58*
X114155700Y-109844300D02*
X114400000Y-109600000D01*
D56*
X101375000Y-129625000D02*
X101750000Y-129250000D01*
X113935000Y-103250000D02*
X115125000Y-103250000D01*
X111023497Y-110025806D02*
X110359194Y-110025806D01*
X101703998Y-133249999D02*
X101049999Y-133249999D01*
X111694614Y-116400000D02*
X111697367Y-116397247D01*
X105000000Y-134775000D02*
X105000000Y-133850000D01*
X104475000Y-135300000D02*
X102100000Y-135300000D01*
X103750000Y-130750000D02*
X102726999Y-131773001D01*
X123450000Y-104500000D02*
X123450000Y-103500000D01*
X105000000Y-135300000D02*
X105200000Y-135500000D01*
X101049999Y-133249999D02*
X101000000Y-133200000D01*
X109850000Y-126100000D02*
X109236917Y-126100000D01*
D59*
X117165900Y-113155900D02*
X117540000Y-113530000D01*
D56*
X101000000Y-130375000D02*
X101375000Y-130000000D01*
X106150000Y-130000000D02*
X106150000Y-130694500D01*
X110800000Y-116400000D02*
X110800000Y-115500000D01*
D58*
X101605000Y-119087727D02*
X101996296Y-118696431D01*
D56*
X101811198Y-117402000D02*
X101811198Y-118511333D01*
X115125000Y-102500000D02*
X115125000Y-103250000D01*
X112750000Y-102065000D02*
X112750000Y-101493801D01*
X106455500Y-130914500D02*
X106455500Y-131000000D01*
X123200000Y-103250000D02*
X123450000Y-103500000D01*
D59*
X117540000Y-113530000D02*
X117540000Y-113790000D01*
X116707950Y-115027950D02*
X116650000Y-114970000D01*
D56*
X110800000Y-116400000D02*
X111694614Y-116400000D01*
X115125000Y-103250000D02*
X123200000Y-103250000D01*
X101000000Y-133200000D02*
X101000000Y-130375000D01*
X101811198Y-118511333D02*
X101996296Y-118696431D01*
D58*
X103700000Y-122600000D02*
X103700000Y-123700000D01*
D56*
X105200000Y-136000000D02*
X105900000Y-136700000D01*
X102226999Y-133510301D02*
X102087500Y-133649800D01*
X104475000Y-135300000D02*
X105000000Y-134775000D01*
D58*
X113250001Y-109844300D02*
X114155700Y-109844300D01*
X101605000Y-120300000D02*
X101605000Y-119087727D01*
D56*
X107550000Y-129820000D02*
X106455500Y-130914500D01*
X102100000Y-135300000D02*
X101700000Y-135300000D01*
X108243167Y-127093750D02*
X108100500Y-127093750D01*
X109250000Y-104250000D02*
X111065000Y-104250000D01*
X103500000Y-129250000D02*
X103750000Y-129500000D01*
D58*
X113414400Y-111499999D02*
X113899999Y-111499999D01*
D56*
X102087500Y-133649800D02*
X102087500Y-135287500D01*
X102726999Y-131773001D02*
X102726999Y-131989699D01*
X101700000Y-135300000D02*
X101000000Y-134600000D01*
X103750000Y-129500000D02*
X103750000Y-130750000D01*
D58*
X103400000Y-122300000D02*
X103700000Y-122600000D01*
X109100000Y-104400000D02*
X109100000Y-104949502D01*
D56*
X106150000Y-130694500D02*
X106455500Y-131000000D01*
D58*
X109100000Y-104949502D02*
X109150498Y-105000000D01*
D56*
X109236917Y-126100000D02*
X108243167Y-127093750D01*
X102087500Y-135287500D02*
X102100000Y-135300000D01*
X101000000Y-134600000D02*
X101000000Y-133200000D01*
X109100000Y-104400000D02*
X109250000Y-104250000D01*
D57*
%TO.N,BUCK_OUT*%
X123770000Y-123587500D02*
X123770000Y-124500000D01*
D59*
X123132500Y-124500000D02*
X123770000Y-124500000D01*
D57*
X122770000Y-124137500D02*
X123132500Y-124500000D01*
X122770000Y-123587500D02*
X122770000Y-124137500D01*
D58*
X121462500Y-123587500D02*
X122770000Y-123587500D01*
D59*
X123675000Y-127425000D02*
X123675000Y-125200000D01*
X123770000Y-125105000D02*
X123770000Y-124500000D01*
D58*
X121150000Y-123275000D02*
X121462500Y-123587500D01*
D59*
X122600000Y-127650000D02*
X123450000Y-127650000D01*
X121550000Y-129900000D02*
X121550000Y-128525000D01*
X121675000Y-128400000D02*
X121850000Y-128400000D01*
X121850000Y-128400000D02*
X122600000Y-127650000D01*
%TO.N,Net-(S1-VOUT)*%
X124250000Y-120744239D02*
X123845000Y-121149239D01*
X123350000Y-118450000D02*
X124250000Y-119350000D01*
X124250000Y-119350000D02*
X124250000Y-120744239D01*
X123537500Y-116550000D02*
X123537500Y-118262500D01*
X123845000Y-121149239D02*
X123845000Y-121487500D01*
%TO.N,Net-(IC3-ADJ{slash}SENSE)*%
X120600000Y-129900000D02*
X120600000Y-128975000D01*
X120025000Y-126900000D02*
X120025000Y-128400000D01*
X120600000Y-128975000D02*
X120025000Y-128400000D01*
D58*
%TO.N,Net-(S1-FLG)*%
X122770000Y-121487500D02*
X121287500Y-121487500D01*
%TO.N,Net-(S1-ILIM)*%
X123270000Y-121487500D02*
X123270000Y-120330000D01*
D59*
%TO.N,Net-(U6-LX)*%
X118827949Y-113155900D02*
X119474999Y-113802950D01*
X119474999Y-113802950D02*
X121777949Y-113802950D01*
X118400000Y-113155900D02*
X118827949Y-113155900D01*
%TD*%
%TA.AperFunction,Conductor*%
%TO.N,GND*%
G36*
X123638000Y-133316613D02*
G01*
X123683387Y-133362000D01*
X123700000Y-133424000D01*
X123700000Y-134549999D01*
X123974979Y-134549999D01*
X124077695Y-134539506D01*
X124244122Y-134484357D01*
X124393345Y-134392316D01*
X124517315Y-134268346D01*
X124569961Y-134182994D01*
X124616015Y-134139290D01*
X124677664Y-134124110D01*
X124738745Y-134141432D01*
X124783246Y-134186717D01*
X124799500Y-134248091D01*
X124799500Y-139675500D01*
X124782887Y-139737500D01*
X124737500Y-139782887D01*
X124675500Y-139799500D01*
X119405516Y-139799500D01*
X119218886Y-139829058D01*
X119039167Y-139887453D01*
X118951713Y-139932013D01*
X118870801Y-139973240D01*
X118870798Y-139973241D01*
X118870798Y-139973242D01*
X118717926Y-140084309D01*
X118584309Y-140217926D01*
X118493448Y-140342987D01*
X118473240Y-140370801D01*
X118450742Y-140414956D01*
X118387453Y-140539167D01*
X118329058Y-140718886D01*
X118299500Y-140905516D01*
X118299500Y-141675500D01*
X118282887Y-141737500D01*
X118237500Y-141782887D01*
X118175500Y-141799500D01*
X117694521Y-141799500D01*
X117633402Y-141783391D01*
X117588163Y-141739249D01*
X117570558Y-141678543D01*
X117585163Y-141617047D01*
X117669766Y-141458764D01*
X117729808Y-141260834D01*
X117745000Y-141106588D01*
X117745000Y-140555000D01*
X115645000Y-140555000D01*
X115645000Y-141106588D01*
X115660191Y-141260834D01*
X115720233Y-141458764D01*
X115804837Y-141617047D01*
X115819442Y-141678543D01*
X115801837Y-141739249D01*
X115756598Y-141783391D01*
X115695479Y-141799500D01*
X109762409Y-141799500D01*
X109697619Y-141781227D01*
X109651924Y-141731795D01*
X109638791Y-141665771D01*
X109662091Y-141602614D01*
X109714957Y-141560939D01*
X109757748Y-141543214D01*
X109802841Y-141524536D01*
X109928282Y-141428282D01*
X110024536Y-141302841D01*
X110085044Y-141156762D01*
X110105682Y-141000000D01*
X110096752Y-140932180D01*
X110102273Y-140876136D01*
X110132009Y-140828315D01*
X110872376Y-140087948D01*
X110922768Y-140057370D01*
X110981588Y-140053515D01*
X111035539Y-140077254D01*
X111097159Y-140124536D01*
X111097160Y-140124536D01*
X111097161Y-140124537D01*
X111110406Y-140130023D01*
X111243238Y-140185044D01*
X111400000Y-140205682D01*
X111556762Y-140185044D01*
X111617370Y-140159938D01*
X111664823Y-140150500D01*
X114767738Y-140150500D01*
X114781622Y-140151280D01*
X114817033Y-140155270D01*
X114817033Y-140155269D01*
X114817035Y-140155270D01*
X114873228Y-140144636D01*
X114877726Y-140143872D01*
X114934287Y-140135348D01*
X114934288Y-140135347D01*
X114940268Y-140134446D01*
X114945128Y-140132846D01*
X114950467Y-140130023D01*
X114950472Y-140130023D01*
X115001045Y-140103292D01*
X115005136Y-140101227D01*
X115056642Y-140076425D01*
X115056644Y-140076422D01*
X115062078Y-140073806D01*
X115066271Y-140070831D01*
X115070533Y-140066568D01*
X115070538Y-140066566D01*
X115111001Y-140026101D01*
X115114259Y-140022962D01*
X115156194Y-139984055D01*
X115156195Y-139984053D01*
X115160613Y-139979954D01*
X115172033Y-139965069D01*
X115433321Y-139703781D01*
X115482682Y-139673533D01*
X115540398Y-139668991D01*
X115593885Y-139691146D01*
X115631485Y-139735169D01*
X115645000Y-139791464D01*
X115645000Y-140055000D01*
X117745000Y-140055000D01*
X117745000Y-139503412D01*
X117729808Y-139349165D01*
X117669766Y-139151235D01*
X117572268Y-138968828D01*
X117441054Y-138808945D01*
X117281171Y-138677731D01*
X117098764Y-138580233D01*
X116889149Y-138516647D01*
X116889653Y-138514983D01*
X116839140Y-138494780D01*
X116798681Y-138438799D01*
X116794447Y-138369858D01*
X116827750Y-138309351D01*
X117512101Y-137625000D01*
X119544528Y-137625000D01*
X119564379Y-137864558D01*
X119564379Y-137864561D01*
X119564380Y-137864563D01*
X119623390Y-138097591D01*
X119719951Y-138317728D01*
X119851429Y-138518969D01*
X120014236Y-138695825D01*
X120058144Y-138730000D01*
X120203927Y-138843468D01*
X120203929Y-138843469D01*
X120203933Y-138843472D01*
X120415344Y-138957882D01*
X120642703Y-139035934D01*
X120879808Y-139075500D01*
X121120191Y-139075500D01*
X121120192Y-139075500D01*
X121357297Y-139035934D01*
X121584656Y-138957882D01*
X121796067Y-138843472D01*
X121985764Y-138695825D01*
X122148571Y-138518969D01*
X122160964Y-138500000D01*
X122994353Y-138500000D01*
X123014834Y-138642457D01*
X123074623Y-138773374D01*
X123160355Y-138872314D01*
X123168872Y-138882143D01*
X123289947Y-138959953D01*
X123428039Y-139000500D01*
X123571961Y-139000500D01*
X123710053Y-138959953D01*
X123831128Y-138882143D01*
X123925377Y-138773373D01*
X123985165Y-138642457D01*
X124005647Y-138500000D01*
X123985165Y-138357543D01*
X123964952Y-138313284D01*
X123925376Y-138226625D01*
X123831129Y-138117858D01*
X123831128Y-138117857D01*
X123710053Y-138040047D01*
X123571961Y-137999500D01*
X123428039Y-137999500D01*
X123289947Y-138040047D01*
X123168870Y-138117858D01*
X123074623Y-138226625D01*
X123014834Y-138357542D01*
X122994353Y-138500000D01*
X122160964Y-138500000D01*
X122280049Y-138317728D01*
X122376610Y-138097591D01*
X122435620Y-137864563D01*
X122455471Y-137625000D01*
X122435620Y-137385437D01*
X122376610Y-137152409D01*
X122280049Y-136932272D01*
X122148571Y-136731031D01*
X121985764Y-136554175D01*
X121944593Y-136522130D01*
X121796072Y-136406531D01*
X121796068Y-136406528D01*
X121796067Y-136406528D01*
X121584656Y-136292118D01*
X121584655Y-136292117D01*
X121584652Y-136292116D01*
X121357299Y-136214066D01*
X121199226Y-136187688D01*
X121120192Y-136174500D01*
X120879808Y-136174500D01*
X120820531Y-136184391D01*
X120642700Y-136214066D01*
X120415347Y-136292116D01*
X120203927Y-136406531D01*
X120014239Y-136554172D01*
X120014236Y-136554174D01*
X120014236Y-136554175D01*
X119851429Y-136731031D01*
X119719951Y-136932272D01*
X119719950Y-136932274D01*
X119712662Y-136948889D01*
X119623390Y-137152409D01*
X119568161Y-137370507D01*
X119564379Y-137385441D01*
X119544528Y-137625000D01*
X117512101Y-137625000D01*
X119505328Y-135631773D01*
X119505333Y-135631770D01*
X119515536Y-135621566D01*
X119515538Y-135621566D01*
X120895749Y-134241353D01*
X120906098Y-134232105D01*
X120933970Y-134209879D01*
X120966182Y-134162630D01*
X120968820Y-134158911D01*
X121002793Y-134112883D01*
X121002795Y-134112877D01*
X121006379Y-134108021D01*
X121008694Y-134103437D01*
X121027321Y-134043045D01*
X121028759Y-134038672D01*
X121047646Y-133984700D01*
X121047646Y-133984695D01*
X121049637Y-133979006D01*
X121050500Y-133973932D01*
X121050500Y-133910739D01*
X121050587Y-133906102D01*
X121051649Y-133877709D01*
X121052724Y-133848990D01*
X121052723Y-133848989D01*
X121052949Y-133842970D01*
X121050500Y-133824365D01*
X121050500Y-133800000D01*
X122225001Y-133800000D01*
X122225001Y-133849979D01*
X122235493Y-133952695D01*
X122290642Y-134119122D01*
X122382683Y-134268345D01*
X122506654Y-134392316D01*
X122655877Y-134484357D01*
X122822303Y-134539506D01*
X122925021Y-134550000D01*
X123200000Y-134550000D01*
X123200000Y-133800000D01*
X122225001Y-133800000D01*
X121050500Y-133800000D01*
X121050500Y-133573007D01*
X121068142Y-133509258D01*
X121116047Y-133463649D01*
X121180585Y-133449156D01*
X121243391Y-133469905D01*
X121271769Y-133488867D01*
X121330251Y-133500500D01*
X121330252Y-133500500D01*
X121769748Y-133500500D01*
X121769749Y-133500500D01*
X121798989Y-133494683D01*
X121828231Y-133488867D01*
X121894552Y-133444552D01*
X121920573Y-133405608D01*
X121965222Y-133365142D01*
X122023675Y-133350500D01*
X122167738Y-133350500D01*
X122181622Y-133351280D01*
X122217033Y-133355270D01*
X122217033Y-133355269D01*
X122217035Y-133355270D01*
X122273228Y-133344636D01*
X122277726Y-133343872D01*
X122334287Y-133335348D01*
X122334288Y-133335347D01*
X122340268Y-133334446D01*
X122345131Y-133332846D01*
X122380086Y-133314371D01*
X122438029Y-133300000D01*
X123576000Y-133300000D01*
X123638000Y-133316613D01*
G37*
%TD.AperFunction*%
%TA.AperFunction,Conductor*%
G36*
X107055129Y-138941609D02*
G01*
X107100368Y-138985751D01*
X107117973Y-139046456D01*
X107103369Y-139107952D01*
X107080233Y-139151237D01*
X107020191Y-139349165D01*
X107005000Y-139503412D01*
X107005000Y-140055000D01*
X109105000Y-140055000D01*
X109105000Y-139503412D01*
X109089808Y-139349165D01*
X109029766Y-139151237D01*
X109006631Y-139107952D01*
X108992027Y-139046456D01*
X109009632Y-138985751D01*
X109054871Y-138941609D01*
X109115990Y-138925500D01*
X110927304Y-138925500D01*
X110986472Y-138940527D01*
X111031299Y-138981965D01*
X111050922Y-139039771D01*
X111040584Y-139099935D01*
X111002790Y-139147875D01*
X110991187Y-139156778D01*
X110971716Y-139171719D01*
X110927713Y-139229064D01*
X110898228Y-139256679D01*
X110861432Y-139273351D01*
X110834706Y-139280512D01*
X110824149Y-139282853D01*
X110785895Y-139289599D01*
X110761193Y-139299831D01*
X110729380Y-139322106D01*
X110720264Y-139327914D01*
X110687545Y-139346805D01*
X110663262Y-139375744D01*
X110655956Y-139383716D01*
X109671684Y-140367988D01*
X109623862Y-140397726D01*
X109567818Y-140403246D01*
X109500000Y-140394317D01*
X109343237Y-140414956D01*
X109197159Y-140475463D01*
X109126899Y-140529376D01*
X109091271Y-140548419D01*
X109051413Y-140555000D01*
X107005000Y-140555000D01*
X107005000Y-141106588D01*
X107020191Y-141260834D01*
X107080233Y-141458764D01*
X107164837Y-141617047D01*
X107179442Y-141678543D01*
X107161837Y-141739249D01*
X107116598Y-141783391D01*
X107055479Y-141799500D01*
X106824500Y-141799500D01*
X106762500Y-141782887D01*
X106717113Y-141737500D01*
X106700500Y-141675500D01*
X106700500Y-140905516D01*
X106670941Y-140718886D01*
X106666666Y-140705728D01*
X106612547Y-140539168D01*
X106526760Y-140370801D01*
X106451428Y-140267116D01*
X106415690Y-140217926D01*
X106282073Y-140084309D01*
X106144084Y-139984055D01*
X106129199Y-139973240D01*
X105960832Y-139887453D01*
X105781113Y-139829058D01*
X105594484Y-139799500D01*
X105594481Y-139799500D01*
X105522590Y-139799500D01*
X105378236Y-139799500D01*
X105321941Y-139785985D01*
X105277918Y-139748385D01*
X105255763Y-139694898D01*
X105260305Y-139637182D01*
X105290555Y-139587819D01*
X105316555Y-139561819D01*
X105356783Y-139534939D01*
X105404236Y-139525500D01*
X105623957Y-139525500D01*
X105640777Y-139528243D01*
X105650962Y-139527772D01*
X105650965Y-139527773D01*
X105697280Y-139525631D01*
X105703005Y-139525500D01*
X105722024Y-139525500D01*
X105736518Y-139523817D01*
X105763192Y-139522585D01*
X105769530Y-139519786D01*
X105796833Y-139511332D01*
X105803633Y-139510061D01*
X105826343Y-139495998D01*
X105841525Y-139487996D01*
X105865965Y-139477206D01*
X105870859Y-139472311D01*
X105893263Y-139454564D01*
X105899152Y-139450919D01*
X105915253Y-139429595D01*
X105926513Y-139416656D01*
X106381351Y-138961819D01*
X106421580Y-138934939D01*
X106469033Y-138925500D01*
X106994010Y-138925500D01*
X107055129Y-138941609D01*
G37*
%TD.AperFunction*%
%TA.AperFunction,Conductor*%
G36*
X100399985Y-119832119D02*
G01*
X100442858Y-119865016D01*
X100484627Y-119897066D01*
X100520353Y-119940598D01*
X100533141Y-119995442D01*
X100533141Y-120676860D01*
X100530397Y-120693680D01*
X100533009Y-120750182D01*
X100533141Y-120755908D01*
X100533141Y-120774922D01*
X100534822Y-120789410D01*
X100536056Y-120816096D01*
X100538854Y-120822433D01*
X100547307Y-120849729D01*
X100548579Y-120856537D01*
X100562638Y-120879243D01*
X100570643Y-120894430D01*
X100581433Y-120918866D01*
X100586329Y-120923762D01*
X100604075Y-120946166D01*
X100607722Y-120952055D01*
X100620891Y-120962000D01*
X100629037Y-120968151D01*
X100641992Y-120979425D01*
X101226088Y-121563521D01*
X101236045Y-121577358D01*
X101243579Y-121584226D01*
X101243580Y-121584228D01*
X101256967Y-121596432D01*
X101277854Y-121615474D01*
X101281995Y-121619429D01*
X101295426Y-121632860D01*
X101306866Y-121641922D01*
X101326603Y-121659915D01*
X101326604Y-121659915D01*
X101326605Y-121659916D01*
X101332878Y-121662346D01*
X101333061Y-121662417D01*
X101358348Y-121675745D01*
X101364057Y-121679656D01*
X101390052Y-121685769D01*
X101406448Y-121690846D01*
X101431365Y-121700500D01*
X101438289Y-121700500D01*
X101466678Y-121703793D01*
X101473419Y-121705379D01*
X101499871Y-121701688D01*
X101517003Y-121700500D01*
X101828231Y-121700500D01*
X101888820Y-121716310D01*
X101933958Y-121759710D01*
X101952135Y-121819632D01*
X101938716Y-121880795D01*
X101897122Y-121927602D01*
X101855446Y-121955448D01*
X101833605Y-121988135D01*
X101799395Y-122022344D01*
X101754698Y-122040858D01*
X101697382Y-122052259D01*
X101633648Y-122094846D01*
X101633647Y-122094846D01*
X101610388Y-122110386D01*
X101602501Y-122122191D01*
X101587081Y-122140979D01*
X101340979Y-122387081D01*
X101322191Y-122402501D01*
X101310386Y-122410388D01*
X101285500Y-122447633D01*
X101285498Y-122447637D01*
X101268710Y-122472763D01*
X101268708Y-122472765D01*
X101252260Y-122497380D01*
X101246872Y-122524471D01*
X101237387Y-122572156D01*
X101231848Y-122600000D01*
X101231848Y-122600001D01*
X101234617Y-122613920D01*
X101237000Y-122638113D01*
X101237000Y-123227199D01*
X101227561Y-123274652D01*
X101200681Y-123314880D01*
X100828479Y-123687081D01*
X100809691Y-123702501D01*
X100797886Y-123710388D01*
X100773001Y-123747631D01*
X100772997Y-123747639D01*
X100739760Y-123797382D01*
X100719348Y-123900000D01*
X100722117Y-123913921D01*
X100724500Y-123938112D01*
X100724500Y-125999388D01*
X100722117Y-126023579D01*
X100719813Y-126035164D01*
X100719348Y-126037500D01*
X100731710Y-126099648D01*
X100739760Y-126140117D01*
X100775553Y-126193687D01*
X100776159Y-126194593D01*
X100797888Y-126227112D01*
X100809692Y-126234999D01*
X100828483Y-126250421D01*
X101013181Y-126435119D01*
X101040061Y-126475347D01*
X101049500Y-126522800D01*
X101049500Y-127006514D01*
X101049501Y-127006518D01*
X101064354Y-127100304D01*
X101064354Y-127100305D01*
X101064355Y-127100306D01*
X101121949Y-127213342D01*
X101211656Y-127303049D01*
X101211658Y-127303050D01*
X101324696Y-127360646D01*
X101418481Y-127375500D01*
X101881518Y-127375499D01*
X101886044Y-127374782D01*
X101947445Y-127380585D01*
X101998456Y-127415252D01*
X102026457Y-127470205D01*
X102024519Y-127531850D01*
X101993124Y-127584936D01*
X101988386Y-127589674D01*
X101939024Y-127619924D01*
X101891278Y-127623682D01*
X101891278Y-127624500D01*
X101418485Y-127624500D01*
X101371589Y-127631927D01*
X101324696Y-127639354D01*
X101324694Y-127639354D01*
X101324693Y-127639355D01*
X101211657Y-127696949D01*
X101121950Y-127786656D01*
X101064353Y-127899697D01*
X101049500Y-127993478D01*
X101049500Y-128606514D01*
X101051447Y-128618806D01*
X101064354Y-128700304D01*
X101064354Y-128700305D01*
X101064355Y-128700306D01*
X101121949Y-128813342D01*
X101211656Y-128903049D01*
X101211658Y-128903050D01*
X101324696Y-128960646D01*
X101354234Y-128965324D01*
X101380187Y-128969435D01*
X101441321Y-128997617D01*
X101478721Y-129053590D01*
X101481364Y-129120855D01*
X101448471Y-129179589D01*
X101339879Y-129288181D01*
X101299651Y-129315061D01*
X101252199Y-129324500D01*
X101143485Y-129324500D01*
X101096589Y-129331927D01*
X101049696Y-129339354D01*
X101049694Y-129339354D01*
X101049693Y-129339355D01*
X100936657Y-129396949D01*
X100846950Y-129486656D01*
X100789353Y-129599697D01*
X100774500Y-129693479D01*
X100774500Y-130201483D01*
X100769161Y-130237477D01*
X100753604Y-130270371D01*
X100752259Y-130272383D01*
X100741973Y-130324092D01*
X100741974Y-130324096D01*
X100731848Y-130374999D01*
X100734617Y-130388921D01*
X100737000Y-130413112D01*
X100737000Y-133161888D01*
X100734617Y-133186079D01*
X100731847Y-133200000D01*
X100734617Y-133213921D01*
X100737000Y-133238112D01*
X100737000Y-134561888D01*
X100734617Y-134586079D01*
X100731847Y-134599999D01*
X100736721Y-134624500D01*
X100737000Y-134625901D01*
X100737911Y-134630479D01*
X100739860Y-134640281D01*
X100752259Y-134702615D01*
X100752259Y-134702616D01*
X100752260Y-134702617D01*
X100777874Y-134740952D01*
X100810388Y-134789612D01*
X100821113Y-134796778D01*
X100822192Y-134797499D01*
X100840983Y-134812921D01*
X101487080Y-135459019D01*
X101502502Y-135477810D01*
X101510388Y-135489613D01*
X101522185Y-135497495D01*
X101522191Y-135497500D01*
X101532345Y-135504284D01*
X101573599Y-135531848D01*
X101597383Y-135547740D01*
X101674099Y-135563000D01*
X101674100Y-135563000D01*
X101700000Y-135568152D01*
X101713920Y-135565382D01*
X101738113Y-135563000D01*
X102061888Y-135563000D01*
X102086079Y-135565383D01*
X102100000Y-135568152D01*
X102113921Y-135565383D01*
X102138112Y-135563000D01*
X103715349Y-135563000D01*
X103771644Y-135576515D01*
X103815667Y-135614115D01*
X103837822Y-135667602D01*
X103840280Y-135683124D01*
X103901472Y-135803221D01*
X103996778Y-135898527D01*
X104078203Y-135940015D01*
X104126605Y-135984057D01*
X104145847Y-136046605D01*
X104130570Y-136110237D01*
X104085029Y-136157232D01*
X104021908Y-136174500D01*
X103879808Y-136174500D01*
X103820531Y-136184391D01*
X103642700Y-136214066D01*
X103415347Y-136292116D01*
X103203927Y-136406531D01*
X103014239Y-136554172D01*
X103014236Y-136554174D01*
X103014236Y-136554175D01*
X102989437Y-136581114D01*
X102851426Y-136731034D01*
X102762482Y-136867173D01*
X102712558Y-136911032D01*
X102647157Y-136922815D01*
X102585065Y-136899139D01*
X102544113Y-136846804D01*
X102532484Y-136818729D01*
X102525890Y-136802810D01*
X102473047Y-136733943D01*
X102429636Y-136677368D01*
X102304194Y-136581114D01*
X102158116Y-136520607D01*
X102001354Y-136499968D01*
X101844591Y-136520607D01*
X101698513Y-136581114D01*
X101573071Y-136677368D01*
X101476817Y-136802810D01*
X101416310Y-136948888D01*
X101393541Y-137121836D01*
X101393457Y-137121825D01*
X101389795Y-137158999D01*
X101360058Y-137206819D01*
X101312238Y-137236556D01*
X101275064Y-137240218D01*
X101275075Y-137240302D01*
X101102127Y-137263071D01*
X100956049Y-137323578D01*
X100830607Y-137419832D01*
X100734353Y-137545274D01*
X100673846Y-137691352D01*
X100653207Y-137848114D01*
X100673846Y-138004877D01*
X100734353Y-138150955D01*
X100830607Y-138276397D01*
X100936360Y-138357543D01*
X100956049Y-138372651D01*
X101102128Y-138433159D01*
X101238251Y-138451079D01*
X101258889Y-138453797D01*
X101258889Y-138453796D01*
X101258890Y-138453797D01*
X101415652Y-138433159D01*
X101529527Y-138385990D01*
X101583419Y-138376720D01*
X101636063Y-138391535D01*
X101677213Y-138427555D01*
X101698866Y-138477774D01*
X101699222Y-138479679D01*
X101701200Y-138496728D01*
X101702434Y-138523414D01*
X101705232Y-138529751D01*
X101713685Y-138557047D01*
X101714957Y-138563855D01*
X101729016Y-138586561D01*
X101737021Y-138601748D01*
X101747811Y-138626184D01*
X101752707Y-138631080D01*
X101770453Y-138653484D01*
X101774099Y-138659372D01*
X101774100Y-138659373D01*
X101795415Y-138675469D01*
X101808370Y-138686743D01*
X102709446Y-139587819D01*
X102739696Y-139637182D01*
X102744238Y-139694898D01*
X102722083Y-139748385D01*
X102678060Y-139785985D01*
X102621765Y-139799500D01*
X100324500Y-139799500D01*
X100262500Y-139782887D01*
X100217113Y-139737500D01*
X100200500Y-139675500D01*
X100200500Y-119930496D01*
X100219199Y-119865016D01*
X100269656Y-119819284D01*
X100336653Y-119807093D01*
X100399985Y-119832119D01*
G37*
%TD.AperFunction*%
%TA.AperFunction,Conductor*%
G36*
X108243000Y-134711613D02*
G01*
X108288387Y-134757000D01*
X108305000Y-134819000D01*
X108305000Y-136466412D01*
X108314554Y-136473497D01*
X108317508Y-136473229D01*
X108365202Y-136488865D01*
X108402791Y-136522126D01*
X108417809Y-136542188D01*
X108532910Y-136628352D01*
X108667624Y-136678597D01*
X108727176Y-136685000D01*
X109067371Y-136685000D01*
X109132161Y-136703273D01*
X109177856Y-136752705D01*
X109190989Y-136818729D01*
X109167689Y-136881886D01*
X109114823Y-136923561D01*
X109048667Y-136950963D01*
X108923225Y-137047217D01*
X108826971Y-137172659D01*
X108766464Y-137318737D01*
X108745825Y-137475500D01*
X108766464Y-137632262D01*
X108795784Y-137703048D01*
X108804626Y-137762655D01*
X108784325Y-137819391D01*
X108739676Y-137859858D01*
X108681223Y-137874500D01*
X106176043Y-137874500D01*
X106159222Y-137871756D01*
X106116108Y-137873749D01*
X106102719Y-137874368D01*
X106096995Y-137874500D01*
X106077983Y-137874500D01*
X106063495Y-137876181D01*
X106036807Y-137877415D01*
X106030466Y-137880215D01*
X106003178Y-137888665D01*
X105996368Y-137889938D01*
X105973659Y-137903998D01*
X105958477Y-137912000D01*
X105934033Y-137922794D01*
X105929133Y-137927694D01*
X105906743Y-137945429D01*
X105900848Y-137949079D01*
X105884750Y-137970396D01*
X105873479Y-137983348D01*
X105543543Y-138313284D01*
X105484310Y-138346296D01*
X105416570Y-138343213D01*
X105360580Y-138304958D01*
X105333084Y-138242972D01*
X105342306Y-138175795D01*
X105376610Y-138097591D01*
X105435620Y-137864563D01*
X105455471Y-137625000D01*
X105435620Y-137385437D01*
X105431839Y-137370506D01*
X105433761Y-137302847D01*
X105470928Y-137246277D01*
X105532266Y-137217652D01*
X105599495Y-137225503D01*
X105743238Y-137285044D01*
X105900000Y-137305682D01*
X106056762Y-137285044D01*
X106202841Y-137224536D01*
X106328282Y-137128282D01*
X106424536Y-137002841D01*
X106485044Y-136856762D01*
X106505682Y-136700000D01*
X106485044Y-136543238D01*
X106424536Y-136397159D01*
X106424535Y-136397157D01*
X106424133Y-136396187D01*
X106416183Y-136329573D01*
X106444093Y-136268568D01*
X106499692Y-136231027D01*
X106558488Y-136211544D01*
X106702732Y-136122573D01*
X106822572Y-136002733D01*
X106891475Y-135891024D01*
X106938262Y-135846922D01*
X107000845Y-135832179D01*
X107062399Y-135850759D01*
X107106372Y-135897667D01*
X107177731Y-136031170D01*
X107308945Y-136191054D01*
X107468828Y-136322268D01*
X107651235Y-136419766D01*
X107805000Y-136466410D01*
X107805000Y-134819000D01*
X107821613Y-134757000D01*
X107867000Y-134711613D01*
X107929000Y-134695000D01*
X108181000Y-134695000D01*
X108243000Y-134711613D01*
G37*
%TD.AperFunction*%
%TA.AperFunction,Conductor*%
G36*
X117398440Y-129457081D02*
G01*
X117434064Y-129476122D01*
X117497159Y-129524536D01*
X117497160Y-129524536D01*
X117497161Y-129524537D01*
X117509372Y-129529595D01*
X117643238Y-129585044D01*
X117800000Y-129605682D01*
X117956762Y-129585044D01*
X118044581Y-129548668D01*
X118085117Y-129531878D01*
X118144723Y-129523036D01*
X118201460Y-129543337D01*
X118241927Y-129587986D01*
X118256569Y-129646439D01*
X118256569Y-134251457D01*
X118254186Y-134275648D01*
X118251416Y-134289568D01*
X118256569Y-134315470D01*
X118271828Y-134392184D01*
X118271828Y-134392185D01*
X118271829Y-134392186D01*
X118329957Y-134479181D01*
X118341762Y-134487069D01*
X118360550Y-134502488D01*
X118772798Y-134914736D01*
X118804891Y-134970322D01*
X118804891Y-135034510D01*
X118772797Y-135090097D01*
X117865437Y-135997457D01*
X117804329Y-136030895D01*
X117734835Y-136026111D01*
X117678886Y-135984614D01*
X117654138Y-135919500D01*
X117666474Y-135860525D01*
X117666222Y-135860449D01*
X117667087Y-135857595D01*
X117668401Y-135851317D01*
X117669767Y-135848760D01*
X117729808Y-135650834D01*
X117745000Y-135496588D01*
X117745000Y-135195000D01*
X116945000Y-135195000D01*
X116945000Y-136466410D01*
X117098760Y-136419767D01*
X117101321Y-136418399D01*
X117107605Y-136417084D01*
X117110449Y-136416222D01*
X117110525Y-136416473D01*
X117169504Y-136404138D01*
X117234617Y-136428887D01*
X117276112Y-136484836D01*
X117280896Y-136554330D01*
X117247458Y-136615437D01*
X115857680Y-138005215D01*
X115802093Y-138037309D01*
X115737905Y-138037309D01*
X115682320Y-138005216D01*
X114265157Y-136588054D01*
X114232555Y-136530505D01*
X114234178Y-136464381D01*
X114269563Y-136408499D01*
X114328643Y-136378758D01*
X114332074Y-136378075D01*
X114350807Y-136374348D01*
X114399187Y-136374348D01*
X114455252Y-136385500D01*
X114455253Y-136385500D01*
X114461833Y-136386809D01*
X114503746Y-136403517D01*
X114536907Y-136434115D01*
X114617810Y-136542188D01*
X114732910Y-136628352D01*
X114867624Y-136678597D01*
X114927176Y-136685000D01*
X115225000Y-136685000D01*
X115225000Y-134919473D01*
X115225500Y-134914396D01*
X115225500Y-134509000D01*
X115242113Y-134447000D01*
X115287500Y-134401613D01*
X115349500Y-134385000D01*
X115401000Y-134385000D01*
X115463000Y-134401613D01*
X115508387Y-134447000D01*
X115525000Y-134509000D01*
X115525000Y-134945000D01*
X115601000Y-134945000D01*
X115663000Y-134961613D01*
X115708387Y-135007000D01*
X115725000Y-135069000D01*
X115725000Y-136685000D01*
X116022824Y-136685000D01*
X116082375Y-136678597D01*
X116217089Y-136628352D01*
X116332187Y-136542190D01*
X116347203Y-136522130D01*
X116384791Y-136488867D01*
X116432486Y-136473228D01*
X116435443Y-136473497D01*
X116445000Y-136466410D01*
X116445000Y-134819000D01*
X116461613Y-134757000D01*
X116507000Y-134711613D01*
X116569000Y-134695000D01*
X117745000Y-134695000D01*
X117745000Y-134393412D01*
X117729808Y-134239165D01*
X117669766Y-134041235D01*
X117572268Y-133858828D01*
X117441054Y-133698945D01*
X117281171Y-133567731D01*
X117224492Y-133537436D01*
X117181565Y-133499478D01*
X117160287Y-133446273D01*
X117165204Y-133389181D01*
X117195264Y-133340396D01*
X117317318Y-133218342D01*
X117409357Y-133069122D01*
X117464506Y-132902696D01*
X117475000Y-132799979D01*
X117475000Y-132750000D01*
X115501909Y-132750000D01*
X115462049Y-132743419D01*
X115430582Y-132726599D01*
X115281762Y-132664956D01*
X115125000Y-132644317D01*
X114968237Y-132664956D01*
X114822159Y-132725463D01*
X114696717Y-132821717D01*
X114647876Y-132885370D01*
X114599936Y-132923164D01*
X114539771Y-132933502D01*
X114481965Y-132913879D01*
X114440527Y-132869052D01*
X114425500Y-132809884D01*
X114425500Y-132195731D01*
X114422646Y-132165301D01*
X114416143Y-132146717D01*
X114409553Y-132096207D01*
X114423825Y-132047309D01*
X114429162Y-132037324D01*
X114445285Y-132007158D01*
X114483127Y-131964313D01*
X114536160Y-131942997D01*
X114586917Y-131935348D01*
X114586919Y-131935346D01*
X114592898Y-131934446D01*
X114597758Y-131932846D01*
X114603097Y-131930023D01*
X114603102Y-131930023D01*
X114653675Y-131903292D01*
X114657766Y-131901227D01*
X114709272Y-131876425D01*
X114709274Y-131876422D01*
X114714708Y-131873806D01*
X114718901Y-131870831D01*
X114723163Y-131866568D01*
X114723168Y-131866566D01*
X114763631Y-131826101D01*
X114766889Y-131822962D01*
X114808824Y-131784055D01*
X114808826Y-131784051D01*
X114813241Y-131779955D01*
X114824659Y-131765073D01*
X114921108Y-131668624D01*
X114976690Y-131636534D01*
X115040877Y-131636534D01*
X115096465Y-131668627D01*
X115128559Y-131724215D01*
X115184579Y-131933281D01*
X115266652Y-132109289D01*
X115277628Y-132174295D01*
X115275000Y-132200020D01*
X115275000Y-132250000D01*
X117474999Y-132250000D01*
X117474999Y-132200028D01*
X117472370Y-132174301D01*
X117483346Y-132109290D01*
X117565421Y-131933278D01*
X117622575Y-131719978D01*
X117641821Y-131500000D01*
X117622575Y-131280021D01*
X117565421Y-131066720D01*
X117472098Y-130866589D01*
X117426740Y-130801811D01*
X116462680Y-131765871D01*
X116407093Y-131797965D01*
X116342905Y-131797965D01*
X116287318Y-131765871D01*
X116109127Y-131587680D01*
X116077033Y-131532093D01*
X116077033Y-131467905D01*
X116109127Y-131412318D01*
X117073187Y-130448258D01*
X117008406Y-130402898D01*
X116808281Y-130309579D01*
X116594978Y-130252424D01*
X116375000Y-130233178D01*
X116185308Y-130249775D01*
X116118849Y-130237058D01*
X116068962Y-130191344D01*
X116050500Y-130126247D01*
X116050500Y-129837966D01*
X116059939Y-129790513D01*
X116086819Y-129750285D01*
X116350284Y-129486819D01*
X116390512Y-129459939D01*
X116437965Y-129450500D01*
X117358581Y-129450500D01*
X117398440Y-129457081D01*
G37*
%TD.AperFunction*%
%TA.AperFunction,Conductor*%
G36*
X109405295Y-133760540D02*
G01*
X109452103Y-133802134D01*
X109484071Y-133849979D01*
X109489483Y-133858078D01*
X109504104Y-133879959D01*
X109519660Y-133912851D01*
X109525000Y-133948847D01*
X109525000Y-134150527D01*
X109524500Y-134155604D01*
X109524500Y-134914396D01*
X109525000Y-134919473D01*
X109525000Y-135961000D01*
X109508387Y-136023000D01*
X109463000Y-136068387D01*
X109401000Y-136085000D01*
X109149000Y-136085000D01*
X109087000Y-136068387D01*
X109041613Y-136023000D01*
X109025000Y-135961000D01*
X109025000Y-135069000D01*
X109041613Y-135007000D01*
X109087000Y-134961613D01*
X109149000Y-134945000D01*
X109225000Y-134945000D01*
X109225000Y-133871024D01*
X109240811Y-133810435D01*
X109284210Y-133765296D01*
X109344132Y-133747120D01*
X109405295Y-133760540D01*
G37*
%TD.AperFunction*%
%TA.AperFunction,Conductor*%
G36*
X103928048Y-133630962D02*
G01*
X103943737Y-133637461D01*
X103987618Y-133643238D01*
X104100498Y-133658099D01*
X104100498Y-133658098D01*
X104100499Y-133658099D01*
X104187186Y-133646686D01*
X104251523Y-133655357D01*
X104276187Y-133674645D01*
X104278539Y-133671505D01*
X104407910Y-133768352D01*
X104493834Y-133800400D01*
X104536070Y-133826839D01*
X104564488Y-133867769D01*
X104574500Y-133916582D01*
X104574500Y-134194749D01*
X104586132Y-134253230D01*
X104622673Y-134307917D01*
X104630448Y-134319552D01*
X104681892Y-134353926D01*
X104722358Y-134398575D01*
X104737000Y-134457028D01*
X104737000Y-134500500D01*
X104720387Y-134562500D01*
X104675000Y-134607887D01*
X104613000Y-134624500D01*
X104216510Y-134624500D01*
X104116875Y-134640280D01*
X103996778Y-134701472D01*
X103901472Y-134796778D01*
X103840280Y-134916875D01*
X103837822Y-134932398D01*
X103815667Y-134985885D01*
X103771644Y-135023485D01*
X103715349Y-135037000D01*
X103042587Y-135037000D01*
X102977797Y-135018727D01*
X102932102Y-134969295D01*
X102918969Y-134903271D01*
X102942269Y-134840114D01*
X102995135Y-134798439D01*
X103032622Y-134782911D01*
X103052841Y-134774536D01*
X103178282Y-134678282D01*
X103274536Y-134552841D01*
X103335044Y-134406762D01*
X103355682Y-134250000D01*
X103335044Y-134093238D01*
X103316493Y-134048451D01*
X103307651Y-133988844D01*
X103327952Y-133932108D01*
X103372601Y-133891641D01*
X103418482Y-133880148D01*
X103418220Y-133877709D01*
X103484375Y-133870596D01*
X103619089Y-133820351D01*
X103734190Y-133734186D01*
X103781331Y-133671214D01*
X103822470Y-133635992D01*
X103874698Y-133621664D01*
X103928048Y-133630962D01*
G37*
%TD.AperFunction*%
%TA.AperFunction,Conductor*%
G36*
X105638000Y-132741613D02*
G01*
X105683387Y-132787000D01*
X105700000Y-132849000D01*
X105700000Y-133367695D01*
X105685359Y-133426148D01*
X105644892Y-133470797D01*
X105630447Y-133480448D01*
X105586132Y-133546769D01*
X105574500Y-133605251D01*
X105574500Y-134194747D01*
X105584145Y-134243238D01*
X105581489Y-134302415D01*
X105551684Y-134353608D01*
X105501533Y-134385133D01*
X105477760Y-134393011D01*
X105476991Y-134390691D01*
X105446462Y-134400823D01*
X105390038Y-134392671D01*
X105343224Y-134360134D01*
X105315917Y-134310089D01*
X105313889Y-134253119D01*
X105325500Y-134194748D01*
X105325500Y-133605252D01*
X105317114Y-133563095D01*
X105313867Y-133546769D01*
X105269552Y-133480448D01*
X105255108Y-133470797D01*
X105214641Y-133426148D01*
X105200000Y-133367695D01*
X105200000Y-132849000D01*
X105216613Y-132787000D01*
X105262000Y-132741613D01*
X105324000Y-132725000D01*
X105576000Y-132725000D01*
X105638000Y-132741613D01*
G37*
%TD.AperFunction*%
%TA.AperFunction,Conductor*%
G36*
X102501190Y-132314173D02*
G01*
X102524145Y-132318739D01*
X102571881Y-132339348D01*
X102606970Y-132377718D01*
X102623243Y-132427100D01*
X102629400Y-132484372D01*
X102679648Y-132619092D01*
X102722017Y-132675690D01*
X102743916Y-132723642D01*
X102743916Y-132776358D01*
X102722017Y-132824310D01*
X102679648Y-132880907D01*
X102629400Y-133015627D01*
X102623243Y-133072899D01*
X102606971Y-133122280D01*
X102571884Y-133160649D01*
X102524150Y-133181259D01*
X102501195Y-133185826D01*
X102452806Y-133185827D01*
X102406412Y-133176598D01*
X102357628Y-133155233D01*
X102322306Y-133115375D01*
X102306961Y-133064376D01*
X102314424Y-133011645D01*
X102324595Y-132984374D01*
X102330998Y-132924824D01*
X102330998Y-132877000D01*
X101700998Y-132877000D01*
X101638998Y-132860387D01*
X101593611Y-132815000D01*
X101576998Y-132753000D01*
X101576998Y-132747000D01*
X101593611Y-132685000D01*
X101638998Y-132639613D01*
X101700998Y-132623000D01*
X102330998Y-132623000D01*
X102330998Y-132575169D01*
X102324341Y-132513256D01*
X102324341Y-132486744D01*
X102330754Y-132427100D01*
X102347027Y-132377717D01*
X102382117Y-132339348D01*
X102429849Y-132318739D01*
X102432230Y-132318266D01*
X102432231Y-132318264D01*
X102452809Y-132314172D01*
X102501190Y-132314173D01*
G37*
%TD.AperFunction*%
%TA.AperFunction,Conductor*%
G36*
X122319673Y-128887956D02*
G01*
X122375489Y-128922384D01*
X122405940Y-128980465D01*
X122402508Y-129045955D01*
X122385493Y-129097301D01*
X122375000Y-129200021D01*
X122375000Y-129250000D01*
X123726000Y-129250000D01*
X123788000Y-129266613D01*
X123833387Y-129312000D01*
X123850000Y-129374000D01*
X123850000Y-130499999D01*
X124124979Y-130499999D01*
X124227695Y-130489506D01*
X124394122Y-130434357D01*
X124543345Y-130342316D01*
X124587819Y-130297843D01*
X124637182Y-130267593D01*
X124694898Y-130263051D01*
X124748385Y-130285206D01*
X124785985Y-130329229D01*
X124799500Y-130385524D01*
X124799500Y-132851909D01*
X124783246Y-132913283D01*
X124738745Y-132958568D01*
X124677664Y-132975890D01*
X124616015Y-132960710D01*
X124569961Y-132917006D01*
X124517315Y-132831653D01*
X124393345Y-132707683D01*
X124244123Y-132615643D01*
X124075918Y-132559904D01*
X124024516Y-132527066D01*
X123994989Y-132473692D01*
X123994483Y-132412698D01*
X124023120Y-132358842D01*
X124073967Y-132325157D01*
X124137882Y-132302793D01*
X124137882Y-132302792D01*
X124137884Y-132302792D01*
X124247150Y-132222150D01*
X124327792Y-132112884D01*
X124329050Y-132109289D01*
X124372646Y-131984699D01*
X124375500Y-131954266D01*
X124375500Y-131345734D01*
X124372646Y-131315301D01*
X124327793Y-131187118D01*
X124327792Y-131187115D01*
X124247150Y-131077849D01*
X124137884Y-130997207D01*
X124009696Y-130952353D01*
X123979269Y-130949500D01*
X123979266Y-130949500D01*
X122920734Y-130949500D01*
X122920731Y-130949500D01*
X122890303Y-130952353D01*
X122762115Y-130997207D01*
X122652849Y-131077849D01*
X122573770Y-131184999D01*
X122526125Y-131223878D01*
X122465659Y-131235085D01*
X122407245Y-131215864D01*
X122365249Y-131170941D01*
X122350000Y-131111366D01*
X122350000Y-130477176D01*
X122343597Y-130417624D01*
X122307801Y-130321650D01*
X122301094Y-130261752D01*
X122309983Y-130239460D01*
X122283137Y-130237241D01*
X122228062Y-130195694D01*
X122207188Y-130167811D01*
X122092087Y-130081646D01*
X122081168Y-130077574D01*
X122038931Y-130051136D01*
X122010512Y-130010205D01*
X122000500Y-129961392D01*
X122000500Y-129750000D01*
X122375001Y-129750000D01*
X122375001Y-129799979D01*
X122385493Y-129902695D01*
X122445035Y-130082379D01*
X122447662Y-130151317D01*
X122443372Y-130158710D01*
X122486362Y-130171148D01*
X122529522Y-130213219D01*
X122532684Y-130218346D01*
X122656654Y-130342316D01*
X122805877Y-130434357D01*
X122972303Y-130489506D01*
X123075021Y-130500000D01*
X123350000Y-130500000D01*
X123350000Y-129750000D01*
X122375001Y-129750000D01*
X122000500Y-129750000D01*
X122000500Y-129136534D01*
X122018772Y-129071744D01*
X122068205Y-129026049D01*
X122106767Y-129006400D01*
X122113342Y-129003050D01*
X122197122Y-128919269D01*
X122254104Y-128886812D01*
X122319673Y-128887956D01*
G37*
%TD.AperFunction*%
%TA.AperFunction,Conductor*%
G36*
X103915975Y-131057212D02*
G01*
X103971940Y-131098248D01*
X103975463Y-131102840D01*
X103975464Y-131102841D01*
X103996309Y-131130006D01*
X104071717Y-131228282D01*
X104197159Y-131324536D01*
X104271408Y-131355291D01*
X104316934Y-131387808D01*
X104343532Y-131437027D01*
X104345790Y-131492928D01*
X104335870Y-131515458D01*
X104337878Y-131516207D01*
X104281402Y-131667624D01*
X104275000Y-131727176D01*
X104275000Y-131875000D01*
X105001000Y-131875000D01*
X105063000Y-131891613D01*
X105108387Y-131937000D01*
X105125000Y-131999000D01*
X105125000Y-132101000D01*
X105108387Y-132163000D01*
X105063000Y-132208387D01*
X105001000Y-132225000D01*
X104275000Y-132225000D01*
X104275000Y-132250331D01*
X104268654Y-132289491D01*
X104250266Y-132324643D01*
X104196548Y-132396400D01*
X104159919Y-132429105D01*
X104113468Y-132445027D01*
X104017186Y-132457703D01*
X103948596Y-132447146D01*
X103896420Y-132401389D01*
X103894376Y-132394377D01*
X103877000Y-132377001D01*
X103377000Y-132377001D01*
X103367820Y-132386181D01*
X103327592Y-132413061D01*
X103280139Y-132422500D01*
X103247000Y-132422500D01*
X103185000Y-132405887D01*
X103139613Y-132360500D01*
X103123000Y-132298500D01*
X103123000Y-132247001D01*
X103139613Y-132185001D01*
X103185000Y-132139614D01*
X103247000Y-132123001D01*
X103877000Y-132123001D01*
X103877000Y-132075177D01*
X103870597Y-132015625D01*
X103820352Y-131880911D01*
X103734188Y-131765812D01*
X103619088Y-131679648D01*
X103489014Y-131631133D01*
X103438634Y-131596154D01*
X103411181Y-131541309D01*
X103413370Y-131480016D01*
X103444664Y-131427272D01*
X103785885Y-131086051D01*
X103846726Y-131052673D01*
X103915975Y-131057212D01*
G37*
%TD.AperFunction*%
%TA.AperFunction,Conductor*%
G36*
X102359814Y-129524390D02*
G01*
X102402190Y-129556468D01*
X102427244Y-129603341D01*
X102430373Y-129656398D01*
X102424500Y-129693479D01*
X102424500Y-130105488D01*
X102411713Y-130160330D01*
X102375990Y-130203861D01*
X102373885Y-130205475D01*
X102277627Y-130330921D01*
X102217121Y-130476997D01*
X102196482Y-130633760D01*
X102217121Y-130790522D01*
X102277628Y-130936600D01*
X102285773Y-130947215D01*
X102304816Y-130982843D01*
X102311397Y-131022701D01*
X102311397Y-131265303D01*
X102301958Y-131312756D01*
X102275080Y-131352981D01*
X102112603Y-131515458D01*
X102067978Y-131560083D01*
X102049190Y-131575502D01*
X102016881Y-131597091D01*
X102016809Y-131596983D01*
X101993188Y-131617266D01*
X101927421Y-131628225D01*
X101878824Y-131623001D01*
X101830998Y-131623001D01*
X101830998Y-132253001D01*
X101814385Y-132315001D01*
X101768998Y-132360388D01*
X101706998Y-132377001D01*
X101700998Y-132377001D01*
X101638998Y-132360388D01*
X101593611Y-132315001D01*
X101576998Y-132253001D01*
X101576998Y-131623001D01*
X101529174Y-131623001D01*
X101469622Y-131629403D01*
X101430334Y-131644057D01*
X101371547Y-131650908D01*
X101316280Y-131629731D01*
X101277124Y-131585350D01*
X101263000Y-131527875D01*
X101263000Y-130799500D01*
X101279613Y-130737500D01*
X101325000Y-130692113D01*
X101386999Y-130675500D01*
X101606506Y-130675499D01*
X101606518Y-130675499D01*
X101700304Y-130660646D01*
X101813342Y-130603050D01*
X101903050Y-130513342D01*
X101960646Y-130400304D01*
X101975500Y-130306519D01*
X101975499Y-129693482D01*
X101975498Y-129693478D01*
X101969626Y-129656397D01*
X101972755Y-129603341D01*
X101997809Y-129556468D01*
X102040185Y-129524390D01*
X102092099Y-129513000D01*
X102307900Y-129513000D01*
X102359814Y-129524390D01*
G37*
%TD.AperFunction*%
%TA.AperFunction,Conductor*%
G36*
X112099484Y-127124578D02*
G01*
X112208905Y-127208539D01*
X112280898Y-127238359D01*
X112303660Y-127247788D01*
X112343888Y-127274668D01*
X112370768Y-127314896D01*
X112380207Y-127362349D01*
X112380207Y-127946493D01*
X112370768Y-127993946D01*
X112343888Y-128034174D01*
X111427381Y-128950681D01*
X111387153Y-128977561D01*
X111339700Y-128987000D01*
X110738113Y-128987000D01*
X110713917Y-128984616D01*
X110683161Y-128978497D01*
X110626822Y-128951169D01*
X110607892Y-128924006D01*
X110591702Y-128983792D01*
X110562318Y-129010867D01*
X110560833Y-129014643D01*
X110525815Y-129050078D01*
X110510389Y-129060385D01*
X110502503Y-129072188D01*
X110487083Y-129090976D01*
X110008690Y-129569371D01*
X109949956Y-129602264D01*
X109882690Y-129599621D01*
X109826718Y-129562221D01*
X109798536Y-129501088D01*
X109785646Y-129419696D01*
X109756724Y-129362934D01*
X109743592Y-129296911D01*
X109766894Y-129233754D01*
X109806719Y-129202360D01*
X109806542Y-129202129D01*
X109944934Y-129095937D01*
X109948741Y-129090976D01*
X110041188Y-128970496D01*
X110088892Y-128855327D01*
X110127969Y-128804403D01*
X110187273Y-128779840D01*
X110226772Y-128785042D01*
X110227053Y-128782913D01*
X110243237Y-128785043D01*
X110243238Y-128785044D01*
X110330491Y-128796531D01*
X110399999Y-128805682D01*
X110399999Y-128805681D01*
X110400000Y-128805682D01*
X110469505Y-128796531D01*
X110537478Y-128806803D01*
X110585983Y-128848642D01*
X110584884Y-128837480D01*
X110609979Y-128780111D01*
X110659902Y-128742321D01*
X110702841Y-128724536D01*
X110828282Y-128628282D01*
X110924536Y-128502841D01*
X110985044Y-128356762D01*
X111003775Y-128214484D01*
X111007813Y-128183815D01*
X111010276Y-128184139D01*
X111012749Y-128158223D01*
X111041684Y-128110746D01*
X111088457Y-128080685D01*
X111143664Y-128074085D01*
X111152172Y-128075000D01*
X111447824Y-128075000D01*
X111507375Y-128068597D01*
X111642089Y-128018352D01*
X111757188Y-127932188D01*
X111843352Y-127817089D01*
X111893597Y-127682375D01*
X111900000Y-127622824D01*
X111900000Y-127222955D01*
X111918699Y-127157475D01*
X111969156Y-127111743D01*
X112036154Y-127099552D01*
X112099484Y-127124578D01*
G37*
%TD.AperFunction*%
%TA.AperFunction,Conductor*%
G36*
X124729304Y-121028009D02*
G01*
X124780494Y-121073757D01*
X124799500Y-121139728D01*
X124799500Y-128614476D01*
X124785985Y-128670771D01*
X124748385Y-128714794D01*
X124694898Y-128736949D01*
X124637182Y-128732407D01*
X124587819Y-128702157D01*
X124543345Y-128657683D01*
X124394123Y-128565643D01*
X124225918Y-128509904D01*
X124174516Y-128477066D01*
X124144989Y-128423692D01*
X124144483Y-128362698D01*
X124173120Y-128308842D01*
X124223967Y-128275157D01*
X124287882Y-128252793D01*
X124287882Y-128252792D01*
X124287884Y-128252792D01*
X124397150Y-128172150D01*
X124477792Y-128062884D01*
X124480085Y-128056332D01*
X124522646Y-127934699D01*
X124525500Y-127904266D01*
X124525500Y-127295734D01*
X124522646Y-127265301D01*
X124477793Y-127137118D01*
X124477792Y-127137115D01*
X124397150Y-127027849D01*
X124287885Y-126947208D01*
X124208545Y-126919446D01*
X124165159Y-126893302D01*
X124135846Y-126851991D01*
X124125500Y-126802404D01*
X124125500Y-125877611D01*
X124134939Y-125830158D01*
X124161819Y-125789930D01*
X124248527Y-125703221D01*
X124248528Y-125703220D01*
X124309719Y-125583126D01*
X124325500Y-125483488D01*
X124325500Y-124916512D01*
X124324543Y-124910472D01*
X124309719Y-124816875D01*
X124309719Y-124816874D01*
X124248528Y-124696780D01*
X124239692Y-124679438D01*
X124229939Y-124664842D01*
X124220500Y-124617389D01*
X124220500Y-124564732D01*
X124223609Y-124537139D01*
X124224315Y-124534045D01*
X124220847Y-124487770D01*
X124220500Y-124478503D01*
X124220500Y-124466237D01*
X124218672Y-124454113D01*
X124217633Y-124444890D01*
X124214166Y-124398623D01*
X124213010Y-124395677D01*
X124205819Y-124368845D01*
X124205348Y-124365713D01*
X124185216Y-124323909D01*
X124181506Y-124315406D01*
X124176884Y-124303630D01*
X124164552Y-124272206D01*
X124162570Y-124269721D01*
X124147800Y-124246212D01*
X124146424Y-124243356D01*
X124128602Y-124224148D01*
X124104072Y-124185109D01*
X124095500Y-124139807D01*
X124095500Y-123644757D01*
X124105512Y-123595944D01*
X124133930Y-123555014D01*
X124176167Y-123528575D01*
X124237088Y-123505852D01*
X124352188Y-123419688D01*
X124438352Y-123304589D01*
X124488597Y-123169875D01*
X124495000Y-123110324D01*
X124495000Y-122787500D01*
X123520000Y-122787500D01*
X123520000Y-123051072D01*
X123514660Y-123087068D01*
X123499104Y-123119958D01*
X123470114Y-123163345D01*
X123456132Y-123184270D01*
X123444500Y-123242751D01*
X123444500Y-123501638D01*
X123435061Y-123549091D01*
X123408181Y-123589319D01*
X123389875Y-123607624D01*
X123378387Y-123650500D01*
X123333000Y-123695887D01*
X123271000Y-123712500D01*
X123269000Y-123712500D01*
X123207000Y-123695887D01*
X123161613Y-123650500D01*
X123150124Y-123607624D01*
X123131819Y-123589319D01*
X123104939Y-123549091D01*
X123095500Y-123501638D01*
X123095500Y-123242751D01*
X123084883Y-123189377D01*
X123083867Y-123184269D01*
X123040895Y-123119958D01*
X123025340Y-123087068D01*
X123020000Y-123051072D01*
X123020000Y-122787500D01*
X122045000Y-122787500D01*
X122045000Y-122893145D01*
X122027732Y-122956266D01*
X121980737Y-123001807D01*
X121917105Y-123017084D01*
X121854557Y-122997842D01*
X121810515Y-122949439D01*
X121753050Y-122836657D01*
X121663343Y-122746950D01*
X121550302Y-122689353D01*
X121456521Y-122674500D01*
X120843485Y-122674500D01*
X120796588Y-122681927D01*
X120749696Y-122689354D01*
X120749694Y-122689354D01*
X120749693Y-122689355D01*
X120636657Y-122746949D01*
X120546950Y-122836656D01*
X120489353Y-122949697D01*
X120474500Y-123043478D01*
X120474500Y-123506514D01*
X120477307Y-123524236D01*
X120489354Y-123600304D01*
X120489354Y-123600305D01*
X120489355Y-123600306D01*
X120546949Y-123713342D01*
X120636656Y-123803049D01*
X120636658Y-123803050D01*
X120749696Y-123860646D01*
X120843481Y-123875500D01*
X121350878Y-123875499D01*
X121395671Y-123883872D01*
X121406327Y-123888000D01*
X121413252Y-123888000D01*
X121441642Y-123891294D01*
X121448381Y-123892879D01*
X121474832Y-123889189D01*
X121491964Y-123888000D01*
X122320500Y-123888000D01*
X122382500Y-123904613D01*
X122427887Y-123950000D01*
X122444500Y-124012000D01*
X122444500Y-124104138D01*
X122435061Y-124151591D01*
X122408181Y-124191819D01*
X122375000Y-124225000D01*
X122375000Y-125326000D01*
X122358387Y-125388000D01*
X122313000Y-125433387D01*
X122251000Y-125450000D01*
X121175001Y-125450000D01*
X121175001Y-125498315D01*
X121185143Y-125597605D01*
X121238453Y-125758485D01*
X121261702Y-125796178D01*
X121279576Y-125849224D01*
X121272301Y-125904725D01*
X121241359Y-125951372D01*
X121193056Y-125979659D01*
X121185601Y-125981982D01*
X121040124Y-126069925D01*
X120919925Y-126190124D01*
X120831981Y-126335602D01*
X120806863Y-126416208D01*
X120777002Y-126466147D01*
X120727649Y-126496967D01*
X120669672Y-126501883D01*
X120615835Y-126479811D01*
X120577993Y-126435611D01*
X120553050Y-126386657D01*
X120463343Y-126296950D01*
X120350302Y-126239353D01*
X120256521Y-126224500D01*
X119793484Y-126224500D01*
X119777002Y-126227111D01*
X119768894Y-126228394D01*
X119715840Y-126225265D01*
X119668968Y-126200211D01*
X119636890Y-126157834D01*
X119625500Y-126105921D01*
X119625500Y-126049499D01*
X119642113Y-125987499D01*
X119687500Y-125942112D01*
X119749500Y-125925499D01*
X119806514Y-125925499D01*
X119806518Y-125925499D01*
X119900304Y-125910646D01*
X120013342Y-125853050D01*
X120103050Y-125763342D01*
X120160646Y-125650304D01*
X120175500Y-125556519D01*
X120175499Y-125093482D01*
X120160646Y-124999696D01*
X120135325Y-124950000D01*
X121175000Y-124950000D01*
X121875000Y-124950000D01*
X121875000Y-124225001D01*
X121851685Y-124225001D01*
X121752394Y-124235143D01*
X121591513Y-124288453D01*
X121447267Y-124377426D01*
X121327426Y-124497267D01*
X121238453Y-124641513D01*
X121185143Y-124802393D01*
X121175000Y-124901685D01*
X121175000Y-124950000D01*
X120135325Y-124950000D01*
X120121416Y-124922703D01*
X120103050Y-124886657D01*
X120013343Y-124796950D01*
X119900302Y-124739353D01*
X119806521Y-124724500D01*
X119193485Y-124724500D01*
X119146588Y-124731927D01*
X119099696Y-124739354D01*
X119099694Y-124739354D01*
X119099693Y-124739355D01*
X118986657Y-124796949D01*
X118896950Y-124886656D01*
X118839353Y-124999697D01*
X118824500Y-125093478D01*
X118824500Y-125556514D01*
X118824501Y-125556518D01*
X118839354Y-125650304D01*
X118839354Y-125650305D01*
X118839355Y-125650306D01*
X118896949Y-125763342D01*
X118986656Y-125853049D01*
X119031795Y-125876049D01*
X119081228Y-125921744D01*
X119099500Y-125986534D01*
X119099500Y-126277738D01*
X119084645Y-126336588D01*
X119043639Y-126381338D01*
X118986308Y-126401266D01*
X118926386Y-126391597D01*
X118878233Y-126354648D01*
X118861492Y-126317341D01*
X118860072Y-126317954D01*
X118854320Y-126304619D01*
X118785279Y-126144562D01*
X118681168Y-126004717D01*
X118547614Y-125892651D01*
X118391815Y-125814406D01*
X118222171Y-125774200D01*
X118091564Y-125774200D01*
X118013727Y-125783297D01*
X117961834Y-125789363D01*
X117798005Y-125848992D01*
X117652346Y-125944794D01*
X117532704Y-126071606D01*
X117445533Y-126222591D01*
X117427906Y-126281472D01*
X117396416Y-126386658D01*
X117395531Y-126389613D01*
X117385392Y-126563659D01*
X117397547Y-126632587D01*
X117415668Y-126735354D01*
X117484721Y-126895438D01*
X117588832Y-127035283D01*
X117722386Y-127147349D01*
X117878185Y-127225594D01*
X118047829Y-127265800D01*
X118178433Y-127265800D01*
X118178436Y-127265800D01*
X118308164Y-127250637D01*
X118471993Y-127191008D01*
X118617654Y-127095205D01*
X118737296Y-126968393D01*
X118824467Y-126817407D01*
X118856709Y-126709707D01*
X118894694Y-126651217D01*
X118958242Y-126622479D01*
X119027250Y-126632587D01*
X119079886Y-126678343D01*
X119099500Y-126745272D01*
X119099500Y-127027199D01*
X119090061Y-127074652D01*
X119063181Y-127114880D01*
X118360548Y-127817512D01*
X118341760Y-127832932D01*
X118329955Y-127840819D01*
X118305067Y-127878066D01*
X118305068Y-127878067D01*
X118271829Y-127927814D01*
X118268475Y-127944679D01*
X118268474Y-127944682D01*
X118251417Y-128030430D01*
X118254186Y-128044352D01*
X118256569Y-128068543D01*
X118256569Y-128353561D01*
X118241927Y-128412014D01*
X118201460Y-128456663D01*
X118144723Y-128476964D01*
X118085117Y-128468122D01*
X117956762Y-128414956D01*
X117800000Y-128394317D01*
X117643237Y-128414956D01*
X117497161Y-128475462D01*
X117473525Y-128493598D01*
X117434064Y-128523877D01*
X117398440Y-128542919D01*
X117358581Y-128549500D01*
X116232262Y-128549500D01*
X116218378Y-128548720D01*
X116182963Y-128544729D01*
X116126811Y-128555354D01*
X116122241Y-128556131D01*
X116059758Y-128565549D01*
X116054851Y-128567163D01*
X115998985Y-128596690D01*
X115994847Y-128598779D01*
X115937936Y-128626186D01*
X115933712Y-128629183D01*
X115889059Y-128673836D01*
X115885722Y-128677051D01*
X115839392Y-128720039D01*
X115827967Y-128734928D01*
X115304264Y-129258631D01*
X115293898Y-129267895D01*
X115266031Y-129290118D01*
X115233824Y-129337356D01*
X115231144Y-129341132D01*
X115193633Y-129391959D01*
X115191301Y-129396578D01*
X115172674Y-129456966D01*
X115171225Y-129461369D01*
X115158761Y-129496990D01*
X115126400Y-129546618D01*
X115074708Y-129575567D01*
X115015484Y-129577229D01*
X114962250Y-129551224D01*
X114927158Y-129503488D01*
X114924536Y-129497159D01*
X114828282Y-129371718D01*
X114799903Y-129349942D01*
X114749013Y-129310893D01*
X114713288Y-129267362D01*
X114700500Y-129212518D01*
X114700500Y-125250000D01*
X115394317Y-125250000D01*
X115414956Y-125406762D01*
X115475463Y-125552840D01*
X115571717Y-125678282D01*
X115679057Y-125760646D01*
X115697159Y-125774536D01*
X115843238Y-125835044D01*
X116000000Y-125855682D01*
X116156762Y-125835044D01*
X116302841Y-125774536D01*
X116428282Y-125678282D01*
X116524536Y-125552841D01*
X116585044Y-125406762D01*
X116605682Y-125250000D01*
X116585044Y-125093238D01*
X116524536Y-124947159D01*
X116489643Y-124901685D01*
X116428282Y-124821717D01*
X116302840Y-124725463D01*
X116156762Y-124664956D01*
X116000000Y-124644317D01*
X115843237Y-124664956D01*
X115697159Y-124725463D01*
X115571717Y-124821717D01*
X115475463Y-124947159D01*
X115414956Y-125093237D01*
X115394317Y-125250000D01*
X114700500Y-125250000D01*
X114700500Y-124737872D01*
X114703243Y-124721051D01*
X114702772Y-124710865D01*
X114702773Y-124710864D01*
X114700631Y-124664548D01*
X114700500Y-124658824D01*
X114700500Y-124639806D01*
X114698817Y-124625308D01*
X114698451Y-124617389D01*
X114697585Y-124598637D01*
X114694786Y-124592299D01*
X114686332Y-124564995D01*
X114685061Y-124558196D01*
X114685061Y-124558195D01*
X114670997Y-124535481D01*
X114662994Y-124520297D01*
X114658119Y-124509256D01*
X114652206Y-124495863D01*
X114647310Y-124490967D01*
X114629563Y-124468561D01*
X114625919Y-124462676D01*
X114604602Y-124446578D01*
X114591648Y-124435305D01*
X112897938Y-122741595D01*
X112867688Y-122692232D01*
X112863146Y-122634518D01*
X112875500Y-122556519D01*
X112875499Y-122093482D01*
X112871605Y-122068894D01*
X112874735Y-122015840D01*
X112899789Y-121968968D01*
X112942166Y-121936890D01*
X112994079Y-121925500D01*
X118677200Y-121925500D01*
X118724653Y-121934939D01*
X118764881Y-121961819D01*
X118789674Y-121986612D01*
X118819923Y-122035971D01*
X118823683Y-122083723D01*
X118824500Y-122083723D01*
X118824500Y-122556514D01*
X118826978Y-122572160D01*
X118839354Y-122650304D01*
X118839354Y-122650305D01*
X118839355Y-122650306D01*
X118896948Y-122763340D01*
X118896949Y-122763341D01*
X118896950Y-122763342D01*
X118986658Y-122853050D01*
X118986659Y-122853050D01*
X119000545Y-122866936D01*
X119000042Y-122867438D01*
X119031229Y-122896269D01*
X119049500Y-122961057D01*
X119049500Y-123038943D01*
X119031229Y-123103731D01*
X119000042Y-123132561D01*
X119000545Y-123133064D01*
X118986659Y-123146949D01*
X118986658Y-123146950D01*
X118970263Y-123163345D01*
X118896949Y-123236658D01*
X118839353Y-123349697D01*
X118824500Y-123443478D01*
X118824500Y-123906514D01*
X118827571Y-123925901D01*
X118839354Y-124000304D01*
X118839354Y-124000305D01*
X118839355Y-124000306D01*
X118896949Y-124113342D01*
X118986656Y-124203049D01*
X118986658Y-124203050D01*
X119099696Y-124260646D01*
X119193481Y-124275500D01*
X119806518Y-124275499D01*
X119900304Y-124260646D01*
X120013342Y-124203050D01*
X120103050Y-124113342D01*
X120160646Y-124000304D01*
X120175500Y-123906519D01*
X120175499Y-123443482D01*
X120160646Y-123349696D01*
X120121748Y-123273354D01*
X120103051Y-123236659D01*
X120055769Y-123189377D01*
X120013342Y-123146950D01*
X120013340Y-123146949D01*
X119999455Y-123133064D01*
X119999957Y-123132561D01*
X119968771Y-123103731D01*
X119950500Y-123038943D01*
X119950500Y-122961057D01*
X119968771Y-122896269D01*
X119999957Y-122867438D01*
X119999455Y-122866936D01*
X120013339Y-122853051D01*
X120013342Y-122853050D01*
X120103050Y-122763342D01*
X120160646Y-122650304D01*
X120175500Y-122556519D01*
X120175499Y-122093482D01*
X120160646Y-121999696D01*
X120111731Y-121903695D01*
X120103050Y-121886657D01*
X120013341Y-121796948D01*
X119964388Y-121772005D01*
X119920189Y-121734163D01*
X119898117Y-121680326D01*
X119903033Y-121622348D01*
X119933854Y-121572996D01*
X119983793Y-121543136D01*
X120064396Y-121518019D01*
X120209872Y-121430075D01*
X120262818Y-121377130D01*
X120312181Y-121346880D01*
X120369897Y-121342338D01*
X120423385Y-121364493D01*
X120460985Y-121408516D01*
X120474500Y-121464811D01*
X120474500Y-121856514D01*
X120478346Y-121880795D01*
X120489354Y-121950304D01*
X120489354Y-121950305D01*
X120489355Y-121950306D01*
X120546949Y-122063342D01*
X120636656Y-122153049D01*
X120636658Y-122153050D01*
X120749696Y-122210646D01*
X120843481Y-122225500D01*
X121456518Y-122225499D01*
X121550304Y-122210646D01*
X121663342Y-122153050D01*
X121753050Y-122063342D01*
X121810515Y-121950560D01*
X121854557Y-121902159D01*
X121917105Y-121882917D01*
X121980737Y-121898194D01*
X122027732Y-121943735D01*
X122045000Y-122006856D01*
X122045000Y-122287500D01*
X124495000Y-122287500D01*
X124495000Y-121964676D01*
X124488597Y-121905124D01*
X124438352Y-121770410D01*
X124352187Y-121655309D01*
X124345190Y-121650071D01*
X124308616Y-121606309D01*
X124295500Y-121550804D01*
X124295500Y-121387205D01*
X124304939Y-121339753D01*
X124331816Y-121299526D01*
X124545757Y-121085584D01*
X124556098Y-121076344D01*
X124583970Y-121054118D01*
X124583970Y-121054117D01*
X124598191Y-121042778D01*
X124661620Y-121016507D01*
X124729304Y-121028009D01*
G37*
%TD.AperFunction*%
%TA.AperFunction,Conductor*%
G36*
X119523385Y-127546482D02*
G01*
X119560985Y-127590505D01*
X119574500Y-127646800D01*
X119574500Y-127757746D01*
X119565061Y-127805199D01*
X119538180Y-127845428D01*
X119496950Y-127886656D01*
X119439353Y-127999697D01*
X119424500Y-128093478D01*
X119424500Y-128706514D01*
X119438756Y-128796531D01*
X119439354Y-128800304D01*
X119452188Y-128825492D01*
X119465693Y-128883335D01*
X119450747Y-128940824D01*
X119410778Y-128984765D01*
X119354959Y-129005075D01*
X119342628Y-129006400D01*
X119207910Y-129056647D01*
X119092810Y-129142811D01*
X119005836Y-129258995D01*
X118958080Y-129297479D01*
X118897723Y-129308368D01*
X118839529Y-129288999D01*
X118797737Y-129244111D01*
X118782569Y-129184684D01*
X118782569Y-128190731D01*
X118792008Y-128143278D01*
X118818888Y-128103050D01*
X119362819Y-127559119D01*
X119412182Y-127528869D01*
X119469898Y-127524327D01*
X119523385Y-127546482D01*
G37*
%TD.AperFunction*%
%TA.AperFunction,Conductor*%
G36*
X123130856Y-125750130D02*
G01*
X123177826Y-125779575D01*
X123188181Y-125789930D01*
X123215061Y-125830158D01*
X123224500Y-125877611D01*
X123224500Y-126775500D01*
X123207887Y-126837500D01*
X123162500Y-126882887D01*
X123100500Y-126899500D01*
X123070731Y-126899500D01*
X123040303Y-126902353D01*
X122912115Y-126947207D01*
X122802849Y-127027849D01*
X122739791Y-127113291D01*
X122700002Y-127148186D01*
X122649288Y-127163311D01*
X122596885Y-127155913D01*
X122587667Y-127150000D01*
X121549000Y-127150000D01*
X121487000Y-127133387D01*
X121441613Y-127088000D01*
X121425000Y-127026000D01*
X121425000Y-126774000D01*
X121441613Y-126712000D01*
X121487000Y-126666613D01*
X121549000Y-126650000D01*
X122574999Y-126650000D01*
X122574999Y-126568421D01*
X122568591Y-126497895D01*
X122518017Y-126335599D01*
X122509007Y-126320694D01*
X122491684Y-126268319D01*
X122498793Y-126213613D01*
X122528927Y-126167404D01*
X122576121Y-126138839D01*
X122658485Y-126111546D01*
X122802732Y-126022573D01*
X122922572Y-125902733D01*
X122984606Y-125802160D01*
X123023519Y-125762676D01*
X123075749Y-125744095D01*
X123130856Y-125750130D01*
G37*
%TD.AperFunction*%
%TA.AperFunction,Conductor*%
G36*
X106567125Y-124952037D02*
G01*
X106609214Y-124996975D01*
X106624500Y-125056618D01*
X106624500Y-125301000D01*
X106607887Y-125363000D01*
X106562500Y-125408387D01*
X106500500Y-125425000D01*
X106500000Y-125425000D01*
X106500000Y-126326000D01*
X106483387Y-126388000D01*
X106438000Y-126433387D01*
X106376000Y-126450000D01*
X105592461Y-126450000D01*
X105562565Y-126468320D01*
X105504849Y-126472861D01*
X105451362Y-126450705D01*
X105413764Y-126406682D01*
X105398527Y-126376778D01*
X105303221Y-126281472D01*
X105183124Y-126220280D01*
X105155102Y-126215842D01*
X105101615Y-126193687D01*
X105064015Y-126149664D01*
X105050500Y-126093369D01*
X105050500Y-126050000D01*
X105600000Y-126050000D01*
X106100000Y-126050000D01*
X106100000Y-125425000D01*
X106052176Y-125425000D01*
X105992624Y-125431402D01*
X105857910Y-125481647D01*
X105742811Y-125567811D01*
X105656647Y-125682910D01*
X105606402Y-125817624D01*
X105600000Y-125877176D01*
X105600000Y-126050000D01*
X105050500Y-126050000D01*
X105050500Y-125065714D01*
X105069920Y-124999089D01*
X105122096Y-124953332D01*
X105190686Y-124942775D01*
X105201953Y-124944258D01*
X105201955Y-124944259D01*
X105249361Y-124950500D01*
X106400638Y-124950499D01*
X106448045Y-124944259D01*
X106448076Y-124944244D01*
X106448095Y-124944236D01*
X106508610Y-124932883D01*
X106567125Y-124952037D01*
G37*
%TD.AperFunction*%
%TA.AperFunction,Conductor*%
G36*
X109475955Y-122236831D02*
G01*
X109660640Y-122421516D01*
X109676062Y-122440307D01*
X109692436Y-122464813D01*
X109720818Y-122497524D01*
X109732567Y-122561915D01*
X109709896Y-122623316D01*
X109659121Y-122664621D01*
X109640614Y-122672793D01*
X109635716Y-122677691D01*
X109613319Y-122695432D01*
X109607426Y-122699081D01*
X109591329Y-122720396D01*
X109580058Y-122733348D01*
X109500408Y-122813000D01*
X109465161Y-122848247D01*
X109403895Y-122881720D01*
X109334256Y-122876789D01*
X109278318Y-122835018D01*
X109252026Y-122800000D01*
X108845448Y-122800000D01*
X108793044Y-122788382D01*
X108768057Y-122776730D01*
X108723044Y-122755740D01*
X108675640Y-122749500D01*
X108675639Y-122749500D01*
X107973998Y-122749500D01*
X107912000Y-122732888D01*
X107866613Y-122687501D01*
X107850000Y-122625501D01*
X107850000Y-122424500D01*
X107866613Y-122362500D01*
X107912000Y-122317113D01*
X107974000Y-122300500D01*
X108551888Y-122300500D01*
X108576079Y-122302883D01*
X108590000Y-122305652D01*
X108606435Y-122302383D01*
X108630626Y-122300000D01*
X109252026Y-122300000D01*
X109289227Y-122250452D01*
X109291543Y-122252191D01*
X109299484Y-122237954D01*
X109355165Y-122205014D01*
X109419859Y-122204602D01*
X109475955Y-122236831D01*
G37*
%TD.AperFunction*%
%TA.AperFunction,Conductor*%
G36*
X110031889Y-120279364D02*
G01*
X110077206Y-120324137D01*
X110094313Y-120385502D01*
X110078694Y-120447262D01*
X110034471Y-120493117D01*
X109990125Y-120519924D01*
X109869925Y-120640124D01*
X109781980Y-120785603D01*
X109731409Y-120947893D01*
X109725000Y-121018424D01*
X109725000Y-121091423D01*
X109713095Y-121144440D01*
X109679664Y-121187277D01*
X109631129Y-121211707D01*
X109576810Y-121213039D01*
X109545682Y-121206848D01*
X109545680Y-121206848D01*
X109531761Y-121209617D01*
X109507570Y-121212000D01*
X108645612Y-121212000D01*
X108621421Y-121209617D01*
X108607500Y-121206847D01*
X108504883Y-121227259D01*
X108450293Y-121263736D01*
X108417886Y-121285389D01*
X108410001Y-121297190D01*
X108394584Y-121315975D01*
X108297381Y-121413180D01*
X108257152Y-121440061D01*
X108209699Y-121449500D01*
X106905612Y-121449500D01*
X106881421Y-121447117D01*
X106867500Y-121444347D01*
X106841599Y-121449500D01*
X106792367Y-121459293D01*
X106792366Y-121459293D01*
X106764882Y-121464759D01*
X106752720Y-121472887D01*
X106752717Y-121472887D01*
X106677888Y-121522886D01*
X106670003Y-121534688D01*
X106654584Y-121553475D01*
X106547381Y-121660680D01*
X106507152Y-121687561D01*
X106459699Y-121697000D01*
X105242604Y-121697000D01*
X105218413Y-121694617D01*
X105204492Y-121691847D01*
X105101875Y-121712259D01*
X105061326Y-121739354D01*
X105047252Y-121748758D01*
X105014880Y-121770388D01*
X105006989Y-121782196D01*
X104991574Y-121800978D01*
X104740979Y-122051573D01*
X104722191Y-122066993D01*
X104710386Y-122074880D01*
X104709998Y-122075462D01*
X104670644Y-122112927D01*
X104619050Y-122129969D01*
X104565123Y-122123317D01*
X104519218Y-122094247D01*
X103861450Y-121436479D01*
X103851497Y-121422645D01*
X103809681Y-121384524D01*
X103805540Y-121380569D01*
X103792110Y-121367139D01*
X103780674Y-121358080D01*
X103769158Y-121347581D01*
X103737053Y-121300688D01*
X103729239Y-121244397D01*
X103747358Y-121190532D01*
X103787604Y-121150408D01*
X103832733Y-121122572D01*
X103952573Y-121002732D01*
X104041546Y-120858486D01*
X104094856Y-120697606D01*
X104095247Y-120693780D01*
X104117419Y-120634705D01*
X104165792Y-120594189D01*
X104227841Y-120582724D01*
X104260786Y-120594075D01*
X104279203Y-120597738D01*
X104279206Y-120597740D01*
X104381823Y-120618152D01*
X104395743Y-120615383D01*
X104419935Y-120613000D01*
X108861888Y-120613000D01*
X108886079Y-120615383D01*
X108900000Y-120618152D01*
X109002617Y-120597740D01*
X109067654Y-120554284D01*
X109067654Y-120554283D01*
X109089612Y-120539612D01*
X109097494Y-120527814D01*
X109112914Y-120509023D01*
X109129284Y-120492655D01*
X109129284Y-120492652D01*
X109139487Y-120482451D01*
X109139490Y-120482446D01*
X109281402Y-120340535D01*
X109322621Y-120299318D01*
X109362850Y-120272439D01*
X109410302Y-120263000D01*
X109970322Y-120263000D01*
X110031889Y-120279364D01*
G37*
%TD.AperFunction*%
%TA.AperFunction,Conductor*%
G36*
X116757132Y-116276597D02*
G01*
X116801206Y-116314407D01*
X116823233Y-116368137D01*
X116818382Y-116426004D01*
X116785493Y-116525253D01*
X116775000Y-116627971D01*
X116775000Y-116677950D01*
X119224999Y-116677950D01*
X119224999Y-116627971D01*
X119214506Y-116525254D01*
X119181618Y-116426004D01*
X119176767Y-116368137D01*
X119198794Y-116314407D01*
X119242869Y-116276597D01*
X119299324Y-116263000D01*
X119339700Y-116263000D01*
X119387153Y-116272439D01*
X119427380Y-116299318D01*
X119637980Y-116509919D01*
X119837080Y-116709019D01*
X119852502Y-116727810D01*
X119860388Y-116739613D01*
X119872185Y-116747495D01*
X119872191Y-116747500D01*
X119882345Y-116754284D01*
X119914649Y-116775868D01*
X119947383Y-116797740D01*
X120024099Y-116813000D01*
X120024100Y-116813000D01*
X120050000Y-116818152D01*
X120063920Y-116815382D01*
X120088113Y-116813000D01*
X120650500Y-116813000D01*
X120712500Y-116829613D01*
X120757887Y-116875000D01*
X120774500Y-116937000D01*
X120774500Y-116964248D01*
X120790048Y-117062418D01*
X120790048Y-117062419D01*
X120790049Y-117062420D01*
X120850342Y-117180751D01*
X120944249Y-117274658D01*
X121062580Y-117334951D01*
X121094174Y-117339955D01*
X121156869Y-117349885D01*
X121211865Y-117373154D01*
X121249608Y-117419431D01*
X121261343Y-117477983D01*
X121244350Y-117535230D01*
X121202568Y-117577896D01*
X121122267Y-117627426D01*
X121002426Y-117747267D01*
X120913453Y-117891513D01*
X120860143Y-118052393D01*
X120850000Y-118151685D01*
X120850000Y-118200000D01*
X121926000Y-118200000D01*
X121988000Y-118216613D01*
X122033387Y-118262000D01*
X122050000Y-118324000D01*
X122050000Y-119363638D01*
X122040561Y-119411091D01*
X122013681Y-119451319D01*
X122000000Y-119465000D01*
X122000000Y-120326000D01*
X121983387Y-120388000D01*
X121938000Y-120433387D01*
X121876000Y-120450000D01*
X120850001Y-120450000D01*
X120850001Y-120531579D01*
X120856408Y-120602104D01*
X120906981Y-120764397D01*
X120950478Y-120836350D01*
X120968347Y-120898624D01*
X120952370Y-120961411D01*
X120906908Y-121007569D01*
X120852992Y-121022166D01*
X120853121Y-121022975D01*
X120845614Y-121024163D01*
X120844373Y-121024500D01*
X120843491Y-121024500D01*
X120843484Y-121024500D01*
X120843482Y-121024501D01*
X120749696Y-121039354D01*
X120749694Y-121039354D01*
X120749693Y-121039355D01*
X120651504Y-121089384D01*
X120587535Y-121102661D01*
X120525697Y-121081582D01*
X120483155Y-121031999D01*
X120471719Y-120967676D01*
X120475000Y-120931575D01*
X120475000Y-120925000D01*
X118525001Y-120925000D01*
X118525001Y-120931579D01*
X118531408Y-121002104D01*
X118581981Y-121164397D01*
X118610365Y-121211350D01*
X118628234Y-121273627D01*
X118612254Y-121336416D01*
X118566788Y-121382574D01*
X118504248Y-121399500D01*
X113195752Y-121399500D01*
X113133212Y-121382574D01*
X113087746Y-121336416D01*
X113071766Y-121273627D01*
X113089635Y-121211350D01*
X113118019Y-121164396D01*
X113168590Y-121002106D01*
X113175000Y-120931576D01*
X113175000Y-120925000D01*
X112074000Y-120925000D01*
X112012000Y-120908387D01*
X111966613Y-120863000D01*
X111950000Y-120801000D01*
X111950000Y-120549000D01*
X111966613Y-120487000D01*
X112012000Y-120441613D01*
X112074000Y-120425000D01*
X113174999Y-120425000D01*
X113174999Y-120418421D01*
X113168591Y-120347895D01*
X113118018Y-120185602D01*
X113030074Y-120040124D01*
X112909874Y-119919924D01*
X112896629Y-119911917D01*
X112855314Y-119871015D01*
X112837182Y-119815778D01*
X112846218Y-119758350D01*
X112882717Y-119670233D01*
X112915520Y-119624459D01*
X112965185Y-119597913D01*
X113021470Y-119596071D01*
X113027344Y-119597239D01*
X113027345Y-119597240D01*
X113088793Y-119609463D01*
X113129961Y-119617652D01*
X113129961Y-119617651D01*
X113129962Y-119617652D01*
X113143882Y-119614883D01*
X113168074Y-119612500D01*
X114612388Y-119612500D01*
X114636579Y-119614883D01*
X114650500Y-119617652D01*
X114691669Y-119609463D01*
X114753117Y-119597240D01*
X114792376Y-119571008D01*
X114818154Y-119553784D01*
X114840112Y-119539112D01*
X114847996Y-119527312D01*
X114863416Y-119508520D01*
X116000210Y-118371726D01*
X116048031Y-118341990D01*
X116104071Y-118336470D01*
X116250000Y-118355682D01*
X116349288Y-118342610D01*
X116416646Y-118352601D01*
X116468572Y-118396657D01*
X116489405Y-118461490D01*
X116472859Y-118527548D01*
X116429533Y-118602592D01*
X116426789Y-118611758D01*
X116384080Y-118754419D01*
X116379531Y-118769613D01*
X116369392Y-118943659D01*
X116388525Y-119052160D01*
X116399668Y-119115354D01*
X116468721Y-119275438D01*
X116572832Y-119415283D01*
X116706386Y-119527349D01*
X116862185Y-119605594D01*
X117031829Y-119645800D01*
X117162433Y-119645800D01*
X117162436Y-119645800D01*
X117292164Y-119630637D01*
X117455993Y-119571008D01*
X117601654Y-119475205D01*
X117721296Y-119348393D01*
X117808467Y-119197407D01*
X117858469Y-119030388D01*
X117863521Y-118943659D01*
X118401392Y-118943659D01*
X118420525Y-119052160D01*
X118431668Y-119115354D01*
X118500721Y-119275438D01*
X118604832Y-119415283D01*
X118738386Y-119527349D01*
X118894185Y-119605594D01*
X118897937Y-119606483D01*
X118949764Y-119632757D01*
X118983933Y-119679761D01*
X118992935Y-119737171D01*
X118974793Y-119792378D01*
X118933491Y-119833257D01*
X118790124Y-119919925D01*
X118669925Y-120040124D01*
X118581980Y-120185603D01*
X118531409Y-120347893D01*
X118525000Y-120418424D01*
X118525000Y-120425000D01*
X119250000Y-120425000D01*
X119250000Y-119775000D01*
X119750000Y-119775000D01*
X119750000Y-120425000D01*
X120474999Y-120425000D01*
X120474999Y-120418421D01*
X120468591Y-120347895D01*
X120418018Y-120185602D01*
X120330074Y-120040124D01*
X120239950Y-119950000D01*
X120850000Y-119950000D01*
X121500000Y-119950000D01*
X121500000Y-119286362D01*
X121509439Y-119238909D01*
X121536319Y-119198681D01*
X121550000Y-119185000D01*
X121550000Y-118700000D01*
X120850001Y-118700000D01*
X120850001Y-118748315D01*
X120860143Y-118847605D01*
X120913453Y-119008486D01*
X121002426Y-119152732D01*
X121079691Y-119229997D01*
X121111785Y-119285584D01*
X121111785Y-119349772D01*
X121079691Y-119405359D01*
X120994925Y-119490124D01*
X120906980Y-119635603D01*
X120856409Y-119797893D01*
X120850000Y-119868424D01*
X120850000Y-119950000D01*
X120239950Y-119950000D01*
X120209875Y-119919925D01*
X120064396Y-119831980D01*
X119902106Y-119781409D01*
X119831576Y-119775000D01*
X119750000Y-119775000D01*
X119250000Y-119775000D01*
X119250000Y-119744456D01*
X119260141Y-119695342D01*
X119288906Y-119654262D01*
X119331590Y-119627934D01*
X119487993Y-119571008D01*
X119633654Y-119475205D01*
X119753296Y-119348393D01*
X119840467Y-119197407D01*
X119890469Y-119030388D01*
X119900607Y-118856340D01*
X119870332Y-118684646D01*
X119801279Y-118524562D01*
X119697168Y-118384717D01*
X119686766Y-118375989D01*
X119602739Y-118305481D01*
X119563614Y-118272651D01*
X119407815Y-118194406D01*
X119238171Y-118154200D01*
X119107564Y-118154200D01*
X119029727Y-118163297D01*
X118977834Y-118169363D01*
X118814005Y-118228992D01*
X118668346Y-118324794D01*
X118548704Y-118451606D01*
X118461533Y-118602591D01*
X118444723Y-118658742D01*
X118416080Y-118754419D01*
X118411531Y-118769613D01*
X118401392Y-118943659D01*
X117863521Y-118943659D01*
X117868607Y-118856340D01*
X117838332Y-118684646D01*
X117769279Y-118524562D01*
X117665168Y-118384717D01*
X117654766Y-118375989D01*
X117570739Y-118305481D01*
X117531614Y-118272651D01*
X117375815Y-118194406D01*
X117206171Y-118154200D01*
X117075564Y-118154200D01*
X116945836Y-118169363D01*
X116945834Y-118169363D01*
X116931440Y-118171046D01*
X116931264Y-118169546D01*
X116895648Y-118173758D01*
X116842155Y-118154547D01*
X116802853Y-118113486D01*
X116786000Y-118059203D01*
X116795136Y-118003107D01*
X116835044Y-117906762D01*
X116843884Y-117839610D01*
X116870970Y-117777132D01*
X116926964Y-117738378D01*
X116994980Y-117735036D01*
X117054504Y-117768116D01*
X117056654Y-117770266D01*
X117205877Y-117862307D01*
X117372303Y-117917456D01*
X117475021Y-117927950D01*
X117750000Y-117927950D01*
X117750000Y-117177950D01*
X118250000Y-117177950D01*
X118250000Y-117927949D01*
X118524979Y-117927949D01*
X118627695Y-117917456D01*
X118794122Y-117862307D01*
X118943345Y-117770266D01*
X119067316Y-117646295D01*
X119159357Y-117497072D01*
X119214506Y-117330646D01*
X119225000Y-117227929D01*
X119225000Y-117177950D01*
X118250000Y-117177950D01*
X117750000Y-117177950D01*
X116775001Y-117177950D01*
X116761624Y-117191326D01*
X116756302Y-117209966D01*
X116705845Y-117255698D01*
X116638847Y-117267889D01*
X116575515Y-117242862D01*
X116552840Y-117225463D01*
X116406762Y-117164956D01*
X116250000Y-117144317D01*
X116093237Y-117164956D01*
X115947159Y-117225463D01*
X115821717Y-117321717D01*
X115725463Y-117447159D01*
X115664956Y-117593237D01*
X115644317Y-117750000D01*
X115663529Y-117895923D01*
X115658009Y-117951966D01*
X115628271Y-117999789D01*
X114577881Y-119050181D01*
X114537653Y-119077061D01*
X114490200Y-119086500D01*
X114170078Y-119086500D01*
X114111625Y-119071858D01*
X114066976Y-119031391D01*
X114046675Y-118974655D01*
X114055517Y-118915048D01*
X114071758Y-118875837D01*
X114085044Y-118843762D01*
X114105682Y-118687000D01*
X114085044Y-118530238D01*
X114025163Y-118385674D01*
X114015991Y-118330112D01*
X114032339Y-118276222D01*
X114070832Y-118235122D01*
X114079571Y-118229284D01*
X114079571Y-118229283D01*
X114101529Y-118214612D01*
X114109413Y-118202811D01*
X114124828Y-118184025D01*
X114609539Y-117699316D01*
X114649765Y-117672439D01*
X114697218Y-117663000D01*
X114761888Y-117663000D01*
X114786079Y-117665383D01*
X114800000Y-117668152D01*
X114902617Y-117647740D01*
X114967654Y-117604284D01*
X114967654Y-117604283D01*
X114989612Y-117589612D01*
X114993135Y-117584340D01*
X114997496Y-117577812D01*
X115012916Y-117559020D01*
X116272618Y-116299319D01*
X116312847Y-116272439D01*
X116360300Y-116263000D01*
X116700676Y-116263000D01*
X116757132Y-116276597D01*
G37*
%TD.AperFunction*%
%TA.AperFunction,Conductor*%
G36*
X102810417Y-118641496D02*
G01*
X103271111Y-119102189D01*
X103297991Y-119142417D01*
X103307430Y-119189870D01*
X103307430Y-119500495D01*
X103305047Y-119524686D01*
X103302277Y-119538606D01*
X103307430Y-119564508D01*
X103322689Y-119641222D01*
X103322689Y-119641223D01*
X103322690Y-119641224D01*
X103369180Y-119710801D01*
X103384103Y-119733135D01*
X103399661Y-119766030D01*
X103405000Y-119802025D01*
X103405000Y-120426000D01*
X103388387Y-120488000D01*
X103343000Y-120533387D01*
X103281000Y-120550000D01*
X103029000Y-120550000D01*
X102967000Y-120533387D01*
X102921613Y-120488000D01*
X102905000Y-120426000D01*
X102905000Y-119325001D01*
X102881685Y-119325001D01*
X102782394Y-119335143D01*
X102621513Y-119388453D01*
X102477267Y-119477426D01*
X102357426Y-119597267D01*
X102295392Y-119697840D01*
X102256479Y-119737324D01*
X102204249Y-119755905D01*
X102149143Y-119749869D01*
X102102173Y-119720424D01*
X102083220Y-119701471D01*
X101973206Y-119645417D01*
X101923773Y-119599722D01*
X101905500Y-119534932D01*
X101905500Y-119422812D01*
X101919511Y-119365555D01*
X101958376Y-119321237D01*
X102013314Y-119299873D01*
X102056708Y-119294159D01*
X102153058Y-119281475D01*
X102299137Y-119220967D01*
X102424578Y-119124713D01*
X102520832Y-118999272D01*
X102581340Y-118853193D01*
X102599798Y-118712989D01*
X102626882Y-118650513D01*
X102682877Y-118611758D01*
X102750893Y-118608416D01*
X102810417Y-118641496D01*
G37*
%TD.AperFunction*%
%TA.AperFunction,Conductor*%
G36*
X122805856Y-119000130D02*
G01*
X122852826Y-119029575D01*
X122871778Y-119048527D01*
X122871780Y-119048528D01*
X122991874Y-119109719D01*
X123019642Y-119114117D01*
X123091510Y-119125500D01*
X123091512Y-119125500D01*
X123337034Y-119125500D01*
X123384487Y-119134939D01*
X123424715Y-119161819D01*
X123575715Y-119312819D01*
X123605965Y-119362182D01*
X123610507Y-119419898D01*
X123588352Y-119473385D01*
X123544329Y-119510985D01*
X123488034Y-119524500D01*
X123168485Y-119524500D01*
X123121589Y-119531927D01*
X123074696Y-119539354D01*
X123074694Y-119539354D01*
X123074693Y-119539355D01*
X122961657Y-119596949D01*
X122871949Y-119686657D01*
X122847005Y-119735612D01*
X122809163Y-119779811D01*
X122755326Y-119801882D01*
X122697348Y-119796966D01*
X122647996Y-119766145D01*
X122618136Y-119716206D01*
X122593019Y-119635603D01*
X122505074Y-119490124D01*
X122470309Y-119455360D01*
X122438214Y-119399772D01*
X122438214Y-119335585D01*
X122470308Y-119279996D01*
X122597574Y-119152730D01*
X122659606Y-119052160D01*
X122698519Y-119012676D01*
X122750749Y-118994095D01*
X122805856Y-119000130D01*
G37*
%TD.AperFunction*%
%TA.AperFunction,Conductor*%
G36*
X105416998Y-117428813D02*
G01*
X105462385Y-117474200D01*
X105478998Y-117536200D01*
X105478998Y-118268462D01*
X105508556Y-118317170D01*
X105512412Y-118375989D01*
X105488673Y-118429943D01*
X105475463Y-118447159D01*
X105414956Y-118593237D01*
X105394317Y-118750000D01*
X105414956Y-118906762D01*
X105475463Y-119052840D01*
X105571353Y-119177807D01*
X105571718Y-119178282D01*
X105602365Y-119201798D01*
X105619080Y-119214624D01*
X105656873Y-119262565D01*
X105667211Y-119322729D01*
X105647588Y-119380535D01*
X105602761Y-119421973D01*
X105543593Y-119437000D01*
X104811362Y-119437000D01*
X104763909Y-119427561D01*
X104723681Y-119400681D01*
X104524798Y-119201798D01*
X104497918Y-119161570D01*
X104488479Y-119114117D01*
X104488479Y-118363591D01*
X104490862Y-118339400D01*
X104493631Y-118325478D01*
X104475781Y-118235741D01*
X104473398Y-118211550D01*
X104473398Y-117767800D01*
X104828998Y-117767800D01*
X104828998Y-118267800D01*
X104876822Y-118267800D01*
X104945649Y-118260400D01*
X104976198Y-118254889D01*
X105006746Y-118260400D01*
X105075574Y-118267800D01*
X105123398Y-118267800D01*
X105123398Y-117767800D01*
X104828998Y-117767800D01*
X104473398Y-117767800D01*
X104473398Y-117536200D01*
X104490011Y-117474200D01*
X104535398Y-117428813D01*
X104597398Y-117412200D01*
X105354998Y-117412200D01*
X105416998Y-117428813D01*
G37*
%TD.AperFunction*%
%TA.AperFunction,Conductor*%
G36*
X124737500Y-102717113D02*
G01*
X124782887Y-102762500D01*
X124799500Y-102824500D01*
X124799500Y-118963035D01*
X124785985Y-119019330D01*
X124748385Y-119063353D01*
X124694898Y-119085508D01*
X124637182Y-119080966D01*
X124587819Y-119050716D01*
X124576164Y-119039061D01*
X124572946Y-119035721D01*
X124567243Y-119029575D01*
X124534055Y-118993806D01*
X124534053Y-118993805D01*
X124529958Y-118989391D01*
X124515067Y-118977964D01*
X124036819Y-118499716D01*
X124009939Y-118459488D01*
X124000500Y-118412035D01*
X124000500Y-118166510D01*
X123989527Y-118097231D01*
X123988000Y-118077833D01*
X123988000Y-117343772D01*
X123997439Y-117296320D01*
X124024318Y-117256091D01*
X124037547Y-117242862D01*
X124099658Y-117180751D01*
X124159951Y-117062420D01*
X124169373Y-117002929D01*
X124175500Y-116964248D01*
X124175500Y-116135752D01*
X124162989Y-116056762D01*
X124159951Y-116037580D01*
X124099658Y-115919249D01*
X124005751Y-115825342D01*
X123887420Y-115765049D01*
X123887419Y-115765048D01*
X123887418Y-115765048D01*
X123789248Y-115749500D01*
X123789246Y-115749500D01*
X123285754Y-115749500D01*
X123285752Y-115749500D01*
X123187581Y-115765048D01*
X123069247Y-115825343D01*
X122975343Y-115919247D01*
X122913736Y-116040156D01*
X122893432Y-116089541D01*
X122850183Y-116127071D01*
X122794682Y-116141167D01*
X122738765Y-116128822D01*
X122694358Y-116092669D01*
X122678282Y-116071718D01*
X122678280Y-116071717D01*
X122678280Y-116071716D01*
X122552840Y-115975463D01*
X122406762Y-115914956D01*
X122250000Y-115894317D01*
X122093240Y-115914955D01*
X122093237Y-115914956D01*
X122093238Y-115914956D01*
X122082895Y-115919239D01*
X122035447Y-115928677D01*
X121987995Y-115919238D01*
X121947767Y-115892358D01*
X121880752Y-115825343D01*
X121880751Y-115825342D01*
X121762420Y-115765049D01*
X121762419Y-115765048D01*
X121762418Y-115765048D01*
X121664248Y-115749500D01*
X121664246Y-115749500D01*
X121160754Y-115749500D01*
X121160752Y-115749500D01*
X121062581Y-115765048D01*
X120944247Y-115825343D01*
X120850343Y-115919247D01*
X120790048Y-116037581D01*
X120774500Y-116135752D01*
X120774500Y-116163000D01*
X120757887Y-116225000D01*
X120712500Y-116270387D01*
X120650500Y-116287000D01*
X120210301Y-116287000D01*
X120162848Y-116277561D01*
X120122620Y-116250681D01*
X119712920Y-115840982D01*
X119697498Y-115822191D01*
X119689612Y-115810388D01*
X119662740Y-115792433D01*
X119602617Y-115752260D01*
X119557261Y-115743238D01*
X119525901Y-115737000D01*
X119525901Y-115736999D01*
X119499999Y-115731847D01*
X119486079Y-115734617D01*
X119461888Y-115737000D01*
X118941744Y-115737000D01*
X118876757Y-115718606D01*
X118831049Y-115668881D01*
X118818183Y-115602578D01*
X118841974Y-115539367D01*
X118877792Y-115490834D01*
X118879165Y-115486911D01*
X118922646Y-115362649D01*
X118925500Y-115332216D01*
X118925500Y-114723684D01*
X118922646Y-114693251D01*
X118877793Y-114565068D01*
X118877792Y-114565065D01*
X118797150Y-114455799D01*
X118687884Y-114375157D01*
X118563451Y-114331617D01*
X118559699Y-114330304D01*
X118559697Y-114330303D01*
X118545403Y-114325302D01*
X118545641Y-114324621D01*
X118514621Y-114314734D01*
X118475492Y-114279102D01*
X118454785Y-114230402D01*
X118444638Y-114176779D01*
X118443864Y-114172220D01*
X118443803Y-114171813D01*
X118435348Y-114115713D01*
X118435347Y-114115711D01*
X118434448Y-114109744D01*
X118432842Y-114104861D01*
X118407168Y-114056287D01*
X118403296Y-114048961D01*
X118401222Y-114044852D01*
X118384655Y-114010447D01*
X118372572Y-113949694D01*
X118391384Y-113890676D01*
X118436397Y-113848122D01*
X118496377Y-113832650D01*
X118699149Y-113832650D01*
X118729284Y-113826655D01*
X118757631Y-113821017D01*
X118757631Y-113821016D01*
X118774642Y-113817633D01*
X118834829Y-113820589D01*
X118886515Y-113851569D01*
X119133629Y-114098683D01*
X119142895Y-114109051D01*
X119165120Y-114136920D01*
X119185201Y-114150611D01*
X119212363Y-114169130D01*
X119216140Y-114171810D01*
X119252384Y-114198560D01*
X119266972Y-114209326D01*
X119271567Y-114211645D01*
X119277324Y-114213420D01*
X119277326Y-114213422D01*
X119301794Y-114220969D01*
X119331979Y-114230280D01*
X119336370Y-114231724D01*
X119390300Y-114250596D01*
X119390301Y-114250596D01*
X119395988Y-114252586D01*
X119401072Y-114253450D01*
X119407097Y-114253450D01*
X119464261Y-114253450D01*
X119468898Y-114253537D01*
X119526009Y-114255674D01*
X119526009Y-114255673D01*
X119532028Y-114255899D01*
X119550634Y-114253450D01*
X119675499Y-114253450D01*
X119737499Y-114270063D01*
X119782886Y-114315450D01*
X119799499Y-114377450D01*
X119799499Y-115019749D01*
X119811131Y-115078230D01*
X119855446Y-115144552D01*
X119921768Y-115188867D01*
X119980250Y-115200500D01*
X119980251Y-115200500D01*
X124119747Y-115200500D01*
X124119748Y-115200500D01*
X124155044Y-115193479D01*
X124178230Y-115188867D01*
X124244551Y-115144552D01*
X124288866Y-115078231D01*
X124300499Y-115019748D01*
X124300499Y-113130252D01*
X124299216Y-113123804D01*
X124288866Y-113071769D01*
X124244551Y-113005447D01*
X124178229Y-112961132D01*
X124119748Y-112949500D01*
X124119747Y-112949500D01*
X123702053Y-112949500D01*
X123637263Y-112931227D01*
X123591568Y-112881795D01*
X123578435Y-112815771D01*
X123601735Y-112752614D01*
X123654601Y-112710939D01*
X123656762Y-112710044D01*
X123802841Y-112649536D01*
X123928282Y-112553282D01*
X124024536Y-112427841D01*
X124085044Y-112281762D01*
X124105682Y-112125000D01*
X124085044Y-111968238D01*
X124024536Y-111822159D01*
X123969156Y-111749986D01*
X123944129Y-111686654D01*
X123956320Y-111619656D01*
X124002052Y-111569199D01*
X124067532Y-111550500D01*
X124119748Y-111550500D01*
X124155778Y-111543333D01*
X124178230Y-111538867D01*
X124244551Y-111494552D01*
X124288866Y-111428231D01*
X124300031Y-111372101D01*
X124300499Y-111369749D01*
X124300499Y-109480251D01*
X124288866Y-109421769D01*
X124244551Y-109355447D01*
X124178229Y-109311132D01*
X124119748Y-109299500D01*
X124119747Y-109299500D01*
X123824014Y-109299500D01*
X123761235Y-109282434D01*
X123715737Y-109235932D01*
X123700043Y-109172796D01*
X123718475Y-109110404D01*
X123759357Y-109044122D01*
X123814506Y-108877696D01*
X123825000Y-108774979D01*
X123825000Y-108500000D01*
X122699000Y-108500000D01*
X122637000Y-108483387D01*
X122591613Y-108438000D01*
X122575000Y-108376000D01*
X122575000Y-108124000D01*
X122591613Y-108062000D01*
X122637000Y-108016613D01*
X122699000Y-108000000D01*
X123824999Y-108000000D01*
X123824999Y-107725021D01*
X123814506Y-107622304D01*
X123759357Y-107455877D01*
X123667316Y-107306654D01*
X123572342Y-107211680D01*
X123542092Y-107162317D01*
X123537550Y-107104601D01*
X123559705Y-107051114D01*
X123603728Y-107013514D01*
X123660023Y-106999999D01*
X123748315Y-106999999D01*
X123847605Y-106989856D01*
X124008486Y-106936546D01*
X124152732Y-106847573D01*
X124272573Y-106727732D01*
X124361546Y-106583486D01*
X124414856Y-106422606D01*
X124425000Y-106323315D01*
X124425000Y-106300000D01*
X122475001Y-106300000D01*
X122475001Y-106323315D01*
X122485143Y-106422605D01*
X122538453Y-106583486D01*
X122627426Y-106727732D01*
X122713013Y-106813319D01*
X122743263Y-106862682D01*
X122747805Y-106920397D01*
X122725651Y-106973885D01*
X122681628Y-107011484D01*
X122625333Y-107025000D01*
X122525021Y-107025000D01*
X122422304Y-107035493D01*
X122255877Y-107090642D01*
X122106654Y-107182683D01*
X121982683Y-107306654D01*
X121890642Y-107455876D01*
X121834904Y-107624081D01*
X121802066Y-107675483D01*
X121748693Y-107705010D01*
X121687699Y-107705516D01*
X121633843Y-107676879D01*
X121600156Y-107626029D01*
X121599474Y-107624081D01*
X121577793Y-107562118D01*
X121577792Y-107562115D01*
X121497150Y-107452849D01*
X121387884Y-107372207D01*
X121259696Y-107327353D01*
X121229269Y-107324500D01*
X121229266Y-107324500D01*
X120620734Y-107324500D01*
X120620731Y-107324500D01*
X120590303Y-107327353D01*
X120462115Y-107372207D01*
X120352849Y-107452849D01*
X120272207Y-107562115D01*
X120227353Y-107690303D01*
X120224500Y-107720731D01*
X120224500Y-108779269D01*
X120227353Y-108809696D01*
X120272207Y-108937884D01*
X120352848Y-109047149D01*
X120391574Y-109075730D01*
X120430452Y-109123376D01*
X120441659Y-109183841D01*
X120422437Y-109242255D01*
X120377515Y-109284251D01*
X120317940Y-109299500D01*
X119980250Y-109299500D01*
X119921768Y-109311132D01*
X119855446Y-109355448D01*
X119852932Y-109359211D01*
X119813578Y-109396676D01*
X119761985Y-109413719D01*
X119708058Y-109407068D01*
X119662152Y-109377998D01*
X119626165Y-109342012D01*
X119622946Y-109338671D01*
X119584055Y-109296756D01*
X119584053Y-109296755D01*
X119579958Y-109292341D01*
X119565067Y-109280914D01*
X119349399Y-109065246D01*
X119318103Y-109012500D01*
X119315914Y-108951207D01*
X119343367Y-108896362D01*
X119393747Y-108861383D01*
X119442088Y-108843352D01*
X119557188Y-108757188D01*
X119643352Y-108642089D01*
X119693597Y-108507375D01*
X119700000Y-108447824D01*
X119700000Y-108125000D01*
X117300000Y-108125000D01*
X117300000Y-108447824D01*
X117306402Y-108507377D01*
X117326073Y-108560117D01*
X117332924Y-108618904D01*
X117311747Y-108674170D01*
X117267366Y-108713326D01*
X117209891Y-108727450D01*
X116882261Y-108727450D01*
X116868377Y-108726670D01*
X116832962Y-108722679D01*
X116776810Y-108733304D01*
X116772240Y-108734081D01*
X116709757Y-108743499D01*
X116704850Y-108745113D01*
X116648984Y-108774640D01*
X116644846Y-108776729D01*
X116587935Y-108804136D01*
X116583711Y-108807133D01*
X116539058Y-108851786D01*
X116535721Y-108855001D01*
X116489391Y-108897989D01*
X116477966Y-108912878D01*
X116204262Y-109186582D01*
X116193896Y-109195846D01*
X116166028Y-109218071D01*
X116150954Y-109240179D01*
X116106850Y-109279738D01*
X116049427Y-109294320D01*
X115991793Y-109280595D01*
X115947105Y-109241698D01*
X115925564Y-109186510D01*
X115909262Y-109062677D01*
X115860879Y-108945871D01*
X115851581Y-108892521D01*
X115865909Y-108840293D01*
X115901131Y-108799154D01*
X115957187Y-108757190D01*
X116043352Y-108642089D01*
X116093597Y-108507375D01*
X116100000Y-108447824D01*
X116100000Y-108125000D01*
X114774000Y-108125000D01*
X114712000Y-108108387D01*
X114666613Y-108063000D01*
X114650000Y-108001000D01*
X114650000Y-107749000D01*
X114666613Y-107687000D01*
X114712000Y-107641613D01*
X114774000Y-107625000D01*
X116100000Y-107625000D01*
X116100000Y-107302176D01*
X116093597Y-107242624D01*
X116043352Y-107107910D01*
X115957188Y-106992810D01*
X115850189Y-106912711D01*
X115813616Y-106868948D01*
X115800500Y-106813444D01*
X115800500Y-106812000D01*
X115817113Y-106750000D01*
X115862500Y-106704613D01*
X115924500Y-106688000D01*
X116558743Y-106688000D01*
X116613587Y-106700788D01*
X116657119Y-106736514D01*
X116746717Y-106853282D01*
X116827093Y-106914956D01*
X116872159Y-106949536D01*
X117018238Y-107010044D01*
X117175000Y-107030682D01*
X117191898Y-107028457D01*
X117254510Y-107036415D01*
X117305095Y-107074164D01*
X117330545Y-107131924D01*
X117324265Y-107194728D01*
X117306402Y-107242620D01*
X117300000Y-107302176D01*
X117300000Y-107625000D01*
X119700000Y-107625000D01*
X119700000Y-107302176D01*
X119693597Y-107242624D01*
X119653956Y-107136342D01*
X119647619Y-107073902D01*
X119672668Y-107016356D01*
X119722682Y-106978449D01*
X119852841Y-106924536D01*
X119978282Y-106828282D01*
X120074536Y-106702841D01*
X120135044Y-106556762D01*
X120155682Y-106400000D01*
X120140240Y-106282710D01*
X120149882Y-106216132D01*
X120192874Y-106164385D01*
X120256561Y-106142705D01*
X120322196Y-106157473D01*
X120348733Y-106171834D01*
X120415344Y-106207882D01*
X120642703Y-106285934D01*
X120879808Y-106325500D01*
X121120191Y-106325500D01*
X121120192Y-106325500D01*
X121357297Y-106285934D01*
X121584656Y-106207882D01*
X121796067Y-106093472D01*
X121985764Y-105945825D01*
X122148571Y-105768969D01*
X122257428Y-105602350D01*
X122306280Y-105559017D01*
X122370376Y-105546511D01*
X122431937Y-105568305D01*
X122473888Y-105618354D01*
X122484593Y-105682775D01*
X122475000Y-105776683D01*
X122475000Y-105800000D01*
X124424999Y-105800000D01*
X124424999Y-105776685D01*
X124414856Y-105677394D01*
X124361546Y-105516513D01*
X124272573Y-105372267D01*
X124152734Y-105252428D01*
X124052159Y-105190393D01*
X124012675Y-105151479D01*
X123994094Y-105099249D01*
X124000130Y-105044141D01*
X124029574Y-104997173D01*
X124048528Y-104978220D01*
X124109719Y-104858126D01*
X124125500Y-104758488D01*
X124125500Y-104241512D01*
X124109719Y-104141874D01*
X124048528Y-104021780D01*
X124048527Y-104021778D01*
X123988498Y-103961749D01*
X123957917Y-103911352D01*
X123954064Y-103852527D01*
X123969138Y-103818275D01*
X123968289Y-103817924D01*
X123993188Y-103757810D01*
X124035044Y-103656762D01*
X124055682Y-103500000D01*
X124035044Y-103343238D01*
X123974536Y-103197159D01*
X123917874Y-103123315D01*
X123878282Y-103071717D01*
X123752840Y-102975463D01*
X123664957Y-102939061D01*
X123612091Y-102897386D01*
X123588791Y-102834229D01*
X123601924Y-102768205D01*
X123647619Y-102718773D01*
X123712409Y-102700500D01*
X124675500Y-102700500D01*
X124737500Y-102717113D01*
G37*
%TD.AperFunction*%
%TA.AperFunction,Conductor*%
G36*
X101071398Y-113166613D02*
G01*
X101116785Y-113212000D01*
X101133398Y-113274000D01*
X101133398Y-113324200D01*
X101633398Y-113324200D01*
X101633398Y-113274000D01*
X101650011Y-113212000D01*
X101695398Y-113166613D01*
X101757398Y-113150000D01*
X101864998Y-113150000D01*
X101926998Y-113166613D01*
X101972385Y-113212000D01*
X101988998Y-113274000D01*
X101988998Y-114205800D01*
X101972385Y-114267800D01*
X101926998Y-114313187D01*
X101864998Y-114329800D01*
X101133398Y-114329800D01*
X101133398Y-114377624D01*
X101139800Y-114437175D01*
X101190045Y-114571889D01*
X101276209Y-114686989D01*
X101383209Y-114767089D01*
X101419782Y-114810852D01*
X101432898Y-114866356D01*
X101432898Y-114999549D01*
X101444530Y-115058030D01*
X101444584Y-115058110D01*
X101463098Y-115102809D01*
X101463098Y-115151191D01*
X101444584Y-115195890D01*
X101444530Y-115195969D01*
X101432898Y-115254451D01*
X101432898Y-115387644D01*
X101419782Y-115443148D01*
X101383209Y-115486911D01*
X101276209Y-115567010D01*
X101190045Y-115682110D01*
X101139800Y-115816824D01*
X101133398Y-115876376D01*
X101133398Y-115924200D01*
X101864998Y-115924200D01*
X101926998Y-115940813D01*
X101972385Y-115986200D01*
X101988998Y-116048200D01*
X101988998Y-116805800D01*
X101972385Y-116867800D01*
X101926998Y-116913187D01*
X101864998Y-116929800D01*
X101133398Y-116929800D01*
X101133398Y-116977624D01*
X101139800Y-117037175D01*
X101190045Y-117171889D01*
X101276209Y-117286989D01*
X101383209Y-117367089D01*
X101419782Y-117410852D01*
X101432898Y-117466356D01*
X101432898Y-117599549D01*
X101444530Y-117658030D01*
X101488846Y-117724352D01*
X101493088Y-117727187D01*
X101533556Y-117771836D01*
X101548198Y-117830289D01*
X101548198Y-118251882D01*
X101541617Y-118291741D01*
X101522575Y-118327365D01*
X101504149Y-118351380D01*
X101471758Y-118393592D01*
X101411252Y-118539668D01*
X101390613Y-118696431D01*
X101403655Y-118795492D01*
X101398138Y-118851528D01*
X101377717Y-118884373D01*
X101379311Y-118885465D01*
X101373732Y-118893606D01*
X101363091Y-118907039D01*
X101359242Y-118911262D01*
X101308517Y-118944787D01*
X101247952Y-118950167D01*
X101192111Y-118926109D01*
X101136481Y-118883423D01*
X100990403Y-118822916D01*
X100833641Y-118802277D01*
X100676880Y-118822915D01*
X100603784Y-118853193D01*
X100530800Y-118883424D01*
X100530799Y-118883424D01*
X100521453Y-118887296D01*
X100461846Y-118896138D01*
X100405109Y-118875837D01*
X100364642Y-118831188D01*
X100350000Y-118772735D01*
X100350000Y-116279800D01*
X101133398Y-116279800D01*
X101133398Y-116327624D01*
X101140797Y-116396448D01*
X101146309Y-116426998D01*
X101140797Y-116457549D01*
X101133398Y-116526377D01*
X101133398Y-116574200D01*
X101633398Y-116574200D01*
X101633398Y-116279800D01*
X101133398Y-116279800D01*
X100350000Y-116279800D01*
X100350000Y-113679800D01*
X101133398Y-113679800D01*
X101133398Y-113727624D01*
X101140797Y-113796448D01*
X101146309Y-113826998D01*
X101140797Y-113857549D01*
X101133398Y-113926377D01*
X101133398Y-113974200D01*
X101633398Y-113974200D01*
X101633398Y-113679800D01*
X101133398Y-113679800D01*
X100350000Y-113679800D01*
X100350000Y-113274000D01*
X100366613Y-113212000D01*
X100412000Y-113166613D01*
X100474000Y-113150000D01*
X101009398Y-113150000D01*
X101071398Y-113166613D01*
G37*
%TD.AperFunction*%
%TA.AperFunction,Conductor*%
G36*
X102251618Y-117711729D02*
G01*
X102300024Y-117747625D01*
X102325792Y-117802101D01*
X102334530Y-117846030D01*
X102378846Y-117912352D01*
X102383088Y-117915187D01*
X102423556Y-117959836D01*
X102438198Y-118018289D01*
X102438198Y-118043917D01*
X102423556Y-118102370D01*
X102383089Y-118147019D01*
X102326352Y-118167320D01*
X102266745Y-118158478D01*
X102153058Y-118111387D01*
X102153057Y-118111386D01*
X102150745Y-118110429D01*
X102110517Y-118083549D01*
X102083637Y-118043321D01*
X102074198Y-117995868D01*
X102074198Y-117830289D01*
X102088835Y-117771844D01*
X102129292Y-117727197D01*
X102129307Y-117727187D01*
X102133550Y-117724352D01*
X102133551Y-117724350D01*
X102135269Y-117723202D01*
X102192007Y-117702893D01*
X102251618Y-117711729D01*
G37*
%TD.AperFunction*%
%TA.AperFunction,Conductor*%
G36*
X106020092Y-114331614D02*
G01*
X106020171Y-114331667D01*
X106078653Y-114343300D01*
X106078654Y-114343300D01*
X106338902Y-114343300D01*
X106400902Y-114359913D01*
X106446289Y-114405300D01*
X106462902Y-114467300D01*
X106462902Y-114674549D01*
X106474534Y-114733030D01*
X106474588Y-114733110D01*
X106493102Y-114777809D01*
X106493102Y-114826191D01*
X106474588Y-114870890D01*
X106474534Y-114870969D01*
X106462902Y-114929451D01*
X106462902Y-115324549D01*
X106474534Y-115383030D01*
X106474588Y-115383110D01*
X106493102Y-115427809D01*
X106493102Y-115476191D01*
X106474588Y-115520890D01*
X106474534Y-115520969D01*
X106462902Y-115579451D01*
X106462902Y-115974549D01*
X106474534Y-116033030D01*
X106474588Y-116033110D01*
X106493102Y-116077809D01*
X106493102Y-116126191D01*
X106474588Y-116170890D01*
X106474534Y-116170969D01*
X106462902Y-116229451D01*
X106462902Y-116437700D01*
X106446289Y-116499700D01*
X106400902Y-116545087D01*
X106338902Y-116561700D01*
X106078649Y-116561700D01*
X106020167Y-116573332D01*
X106020088Y-116573386D01*
X105975389Y-116591900D01*
X105927007Y-116591900D01*
X105882308Y-116573386D01*
X105868741Y-116564321D01*
X105835408Y-116548280D01*
X105799561Y-116497856D01*
X105792538Y-116436389D01*
X105816088Y-116379179D01*
X105830454Y-116359988D01*
X105880699Y-116225275D01*
X105887102Y-116165724D01*
X105887102Y-116117900D01*
X104039302Y-116117900D01*
X103977302Y-116101287D01*
X103931915Y-116055900D01*
X103915302Y-115993900D01*
X103915302Y-115217900D01*
X104347102Y-115217900D01*
X104347102Y-115686100D01*
X104955302Y-115686100D01*
X104955302Y-115217900D01*
X105387102Y-115217900D01*
X105387102Y-115686100D01*
X105887102Y-115686100D01*
X105887102Y-115638276D01*
X105880699Y-115578720D01*
X105849597Y-115495333D01*
X105841778Y-115451999D01*
X105849597Y-115408664D01*
X105880699Y-115325278D01*
X105887102Y-115265724D01*
X105887102Y-115217900D01*
X105387102Y-115217900D01*
X104955302Y-115217900D01*
X104347102Y-115217900D01*
X103915302Y-115217900D01*
X103381143Y-115217900D01*
X103344387Y-115221850D01*
X103292073Y-115203043D01*
X103288116Y-115200500D01*
X103232606Y-115164826D01*
X103094514Y-115124279D01*
X102963498Y-115124279D01*
X102901498Y-115107666D01*
X102856111Y-115062279D01*
X102839498Y-115000279D01*
X102839498Y-114929451D01*
X102827865Y-114870970D01*
X102827865Y-114870969D01*
X102827812Y-114870890D01*
X102809297Y-114826192D01*
X102809297Y-114777808D01*
X102827812Y-114733109D01*
X102827865Y-114733031D01*
X102839498Y-114674548D01*
X102839498Y-114467300D01*
X102856111Y-114405300D01*
X102901498Y-114359913D01*
X102963498Y-114343300D01*
X103223751Y-114343300D01*
X103235446Y-114340973D01*
X103282233Y-114331667D01*
X103282312Y-114331613D01*
X103327006Y-114313099D01*
X103375391Y-114313098D01*
X103420092Y-114331614D01*
X103434632Y-114341329D01*
X103466338Y-114356586D01*
X103502188Y-114407008D01*
X103509213Y-114468476D01*
X103485666Y-114525688D01*
X103471949Y-114544011D01*
X103421704Y-114678724D01*
X103415302Y-114738276D01*
X103415302Y-114786100D01*
X105887102Y-114786100D01*
X105887102Y-114738276D01*
X105880699Y-114678724D01*
X105830454Y-114544010D01*
X105816739Y-114525690D01*
X105793190Y-114468478D01*
X105800215Y-114407009D01*
X105836065Y-114356585D01*
X105867770Y-114341329D01*
X105882228Y-114331667D01*
X105882233Y-114331667D01*
X105882312Y-114331613D01*
X105927006Y-114313099D01*
X105975391Y-114313098D01*
X106020092Y-114331614D01*
G37*
%TD.AperFunction*%
%TA.AperFunction,Conductor*%
G36*
X115993033Y-109521963D02*
G01*
X116034471Y-109566790D01*
X116049498Y-109625958D01*
X116049498Y-109781314D01*
X116044159Y-109817310D01*
X116032394Y-109842181D01*
X116020098Y-109904001D01*
X116020098Y-110895999D01*
X116031730Y-110954480D01*
X116076045Y-111020802D01*
X116142367Y-111065117D01*
X116200849Y-111076750D01*
X116634043Y-111076750D01*
X116689547Y-111089866D01*
X116733310Y-111126439D01*
X116813409Y-111233438D01*
X116928509Y-111319602D01*
X117063223Y-111369847D01*
X117122775Y-111376250D01*
X117199999Y-111376250D01*
X117199999Y-110274000D01*
X117216612Y-110212000D01*
X117261999Y-110166613D01*
X117323999Y-110150000D01*
X117575999Y-110150000D01*
X117637999Y-110166613D01*
X117683386Y-110212000D01*
X117699999Y-110274000D01*
X117699999Y-111376250D01*
X117777223Y-111376250D01*
X117836774Y-111369847D01*
X117971488Y-111319602D01*
X118086588Y-111233438D01*
X118166688Y-111126439D01*
X118210451Y-111089866D01*
X118265955Y-111076750D01*
X118699149Y-111076750D01*
X118728389Y-111070933D01*
X118757631Y-111065117D01*
X118823952Y-111020802D01*
X118868267Y-110954481D01*
X118869096Y-110950309D01*
X118892338Y-110899013D01*
X118935870Y-110863288D01*
X118990714Y-110850500D01*
X119232098Y-110850500D01*
X119235268Y-110850500D01*
X119262860Y-110853608D01*
X119265954Y-110854315D01*
X119312230Y-110850847D01*
X119321497Y-110850500D01*
X119333762Y-110850500D01*
X119675499Y-110850500D01*
X119737499Y-110867113D01*
X119782886Y-110912500D01*
X119799499Y-110974500D01*
X119799499Y-111369749D01*
X119811131Y-111428230D01*
X119855446Y-111494552D01*
X119921768Y-111538867D01*
X119980250Y-111550500D01*
X119980251Y-111550500D01*
X122875500Y-111550500D01*
X122937500Y-111567113D01*
X122982887Y-111612500D01*
X122999500Y-111674500D01*
X122999500Y-111748742D01*
X122992919Y-111788600D01*
X122977121Y-111818155D01*
X122914956Y-111968237D01*
X122894317Y-112124999D01*
X122914956Y-112281762D01*
X122975463Y-112427840D01*
X123071717Y-112553282D01*
X123184462Y-112639793D01*
X123197159Y-112649536D01*
X123339720Y-112708587D01*
X123345399Y-112710939D01*
X123398265Y-112752614D01*
X123421565Y-112815771D01*
X123408432Y-112881795D01*
X123362737Y-112931227D01*
X123297947Y-112949500D01*
X119980250Y-112949500D01*
X119921768Y-112961132D01*
X119855446Y-113005447D01*
X119811131Y-113071769D01*
X119799499Y-113130251D01*
X119799499Y-113190984D01*
X119785984Y-113247279D01*
X119748384Y-113291302D01*
X119694897Y-113313457D01*
X119637181Y-113308915D01*
X119587818Y-113278665D01*
X119169317Y-112860165D01*
X119160051Y-112849797D01*
X119149481Y-112836543D01*
X119137828Y-112821930D01*
X119090557Y-112789700D01*
X119086819Y-112787048D01*
X119035984Y-112749529D01*
X119031373Y-112747202D01*
X118970998Y-112728579D01*
X118966589Y-112727128D01*
X118954630Y-112722943D01*
X118901978Y-112687224D01*
X118873971Y-112630094D01*
X118868267Y-112601419D01*
X118823952Y-112535097D01*
X118757630Y-112490782D01*
X118699149Y-112479150D01*
X118699148Y-112479150D01*
X118100852Y-112479150D01*
X118100851Y-112479150D01*
X118042369Y-112490782D01*
X117976047Y-112535097D01*
X117931732Y-112601419D01*
X117920100Y-112659901D01*
X117920100Y-112973635D01*
X117906585Y-113029930D01*
X117868985Y-113073953D01*
X117815498Y-113096108D01*
X117757782Y-113091566D01*
X117708419Y-113061316D01*
X117507268Y-112860165D01*
X117498002Y-112849797D01*
X117487432Y-112836543D01*
X117475779Y-112821930D01*
X117428508Y-112789700D01*
X117424770Y-112787048D01*
X117373935Y-112749529D01*
X117369324Y-112747202D01*
X117308949Y-112728579D01*
X117304544Y-112727130D01*
X117304538Y-112727128D01*
X117250599Y-112708254D01*
X117250598Y-112708253D01*
X117244923Y-112706268D01*
X117239814Y-112705400D01*
X117233802Y-112705400D01*
X117176638Y-112705400D01*
X117172001Y-112705313D01*
X117096212Y-112702477D01*
X117096275Y-112700771D01*
X117055987Y-112700331D01*
X116999265Y-112665058D01*
X116969072Y-112605479D01*
X116968265Y-112601419D01*
X116941582Y-112561486D01*
X116923950Y-112535097D01*
X116857628Y-112490782D01*
X116799147Y-112479150D01*
X116799146Y-112479150D01*
X116200850Y-112479150D01*
X116200849Y-112479150D01*
X116142367Y-112490782D01*
X116076045Y-112535097D01*
X116031730Y-112601419D01*
X116020098Y-112659901D01*
X116020098Y-113651899D01*
X116031730Y-113710380D01*
X116076045Y-113776702D01*
X116142367Y-113821017D01*
X116200849Y-113832650D01*
X116200850Y-113832650D01*
X116799146Y-113832650D01*
X116799147Y-113832650D01*
X116828387Y-113826833D01*
X116857629Y-113821017D01*
X116905513Y-113789021D01*
X116963690Y-113768587D01*
X117024519Y-113778702D01*
X117072954Y-113816866D01*
X117097018Y-113873640D01*
X117105550Y-113930248D01*
X117107163Y-113935148D01*
X117136687Y-113991010D01*
X117138777Y-113995150D01*
X117166184Y-114052060D01*
X117169183Y-114056287D01*
X117213846Y-114100950D01*
X117217063Y-114104289D01*
X117260043Y-114150611D01*
X117274930Y-114162034D01*
X117311456Y-114198560D01*
X117340030Y-114243105D01*
X117347428Y-114295507D01*
X117332303Y-114346222D01*
X117297409Y-114386011D01*
X117202849Y-114455799D01*
X117192349Y-114470027D01*
X117141456Y-114510352D01*
X117077160Y-114519429D01*
X117017095Y-114494767D01*
X116952841Y-114445464D01*
X116952840Y-114445463D01*
X116952838Y-114445462D01*
X116806762Y-114384956D01*
X116650000Y-114364317D01*
X116493237Y-114384956D01*
X116347159Y-114445463D01*
X116221717Y-114541717D01*
X116125464Y-114667158D01*
X116091169Y-114749954D01*
X116058367Y-114795729D01*
X116008702Y-114822276D01*
X115952417Y-114824118D01*
X115901122Y-114800877D01*
X115802840Y-114725463D01*
X115656762Y-114664956D01*
X115499999Y-114644317D01*
X115432180Y-114653246D01*
X115376136Y-114647726D01*
X115328314Y-114617988D01*
X115019043Y-114308717D01*
X115011734Y-114300741D01*
X115007342Y-114295507D01*
X114987455Y-114271806D01*
X114987454Y-114271805D01*
X114954736Y-114252915D01*
X114945627Y-114247112D01*
X114914684Y-114225446D01*
X114913803Y-114224829D01*
X114889107Y-114214599D01*
X114850852Y-114207853D01*
X114840296Y-114205512D01*
X114803807Y-114195735D01*
X114766180Y-114199028D01*
X114755372Y-114199500D01*
X114470078Y-114199500D01*
X114411625Y-114184858D01*
X114366976Y-114144391D01*
X114346675Y-114087655D01*
X114355517Y-114028048D01*
X114375641Y-113979462D01*
X114385044Y-113956762D01*
X114405682Y-113800000D01*
X114405335Y-113797368D01*
X114401074Y-113765000D01*
X114385044Y-113643238D01*
X114324536Y-113497159D01*
X114291318Y-113453868D01*
X114228282Y-113371717D01*
X114102840Y-113275463D01*
X113956762Y-113214956D01*
X113799999Y-113194317D01*
X113700938Y-113207359D01*
X113644894Y-113201839D01*
X113597072Y-113172101D01*
X113586820Y-113161849D01*
X113559940Y-113121621D01*
X113550501Y-113074168D01*
X113550501Y-112535844D01*
X113555841Y-112499848D01*
X113564695Y-112481126D01*
X113577501Y-112416749D01*
X113577501Y-112206884D01*
X113595774Y-112142094D01*
X113645206Y-112096399D01*
X113711230Y-112083266D01*
X113774387Y-112106566D01*
X113816062Y-112159432D01*
X113875463Y-112302840D01*
X113971717Y-112428282D01*
X114053171Y-112490783D01*
X114097159Y-112524536D01*
X114243238Y-112585044D01*
X114400000Y-112605682D01*
X114556762Y-112585044D01*
X114702841Y-112524536D01*
X114828282Y-112428282D01*
X114924536Y-112302841D01*
X114985044Y-112156762D01*
X115005682Y-112000000D01*
X114985044Y-111843238D01*
X114924536Y-111697159D01*
X114905817Y-111672764D01*
X114828282Y-111571717D01*
X114702840Y-111475463D01*
X114556762Y-111414956D01*
X114399999Y-111394317D01*
X114300938Y-111407359D01*
X114244894Y-111401839D01*
X114197072Y-111372101D01*
X114181211Y-111356240D01*
X114154900Y-111317364D01*
X114144927Y-111271493D01*
X114148551Y-111249961D01*
X114147633Y-111249863D01*
X114155700Y-111174824D01*
X114155700Y-111127000D01*
X113411400Y-111127000D01*
X113349400Y-111110387D01*
X113304013Y-111065000D01*
X113287400Y-111003000D01*
X113287400Y-110997000D01*
X113304013Y-110935000D01*
X113349400Y-110889613D01*
X113411400Y-110873000D01*
X114155700Y-110873000D01*
X114155700Y-110825169D01*
X114149043Y-110763256D01*
X114149043Y-110736744D01*
X114155700Y-110674832D01*
X114155700Y-110627001D01*
X112673100Y-110627001D01*
X112663882Y-110636218D01*
X112653680Y-110671221D01*
X112601504Y-110716978D01*
X112532915Y-110727534D01*
X112489745Y-110721851D01*
X112396093Y-110709521D01*
X112239331Y-110730160D01*
X112198852Y-110746927D01*
X112139245Y-110755769D01*
X112082509Y-110735468D01*
X112042042Y-110690819D01*
X112027400Y-110632366D01*
X112027400Y-110410100D01*
X112044013Y-110348100D01*
X112089400Y-110302713D01*
X112151400Y-110286100D01*
X112396747Y-110286100D01*
X112396748Y-110286100D01*
X112455231Y-110274467D01*
X112455232Y-110274465D01*
X112475807Y-110270373D01*
X112524195Y-110270373D01*
X112544766Y-110274465D01*
X112544769Y-110274467D01*
X112573295Y-110280141D01*
X112624588Y-110303384D01*
X112660313Y-110346915D01*
X112664356Y-110364257D01*
X112673100Y-110373001D01*
X114155700Y-110373001D01*
X114155700Y-110318527D01*
X114157163Y-110318527D01*
X114162617Y-110272913D01*
X114192675Y-110226143D01*
X114240147Y-110197207D01*
X114295490Y-110191923D01*
X114400000Y-110205682D01*
X114556762Y-110185044D01*
X114702841Y-110124536D01*
X114828282Y-110028282D01*
X114924536Y-109902841D01*
X114947432Y-109847563D01*
X114986507Y-109796639D01*
X115045809Y-109772076D01*
X115109444Y-109780453D01*
X115167456Y-109804483D01*
X115324218Y-109825121D01*
X115480980Y-109804483D01*
X115627059Y-109743975D01*
X115752500Y-109647721D01*
X115769199Y-109625958D01*
X115827122Y-109550472D01*
X115875063Y-109512678D01*
X115935227Y-109502340D01*
X115993033Y-109521963D01*
G37*
%TD.AperFunction*%
%TA.AperFunction,Conductor*%
G36*
X106604108Y-102196611D02*
G01*
X106648370Y-102232693D01*
X106680587Y-102274679D01*
X106717043Y-102322190D01*
X106721719Y-102328283D01*
X106811771Y-102397382D01*
X106847159Y-102424536D01*
X106993238Y-102485044D01*
X107150000Y-102505682D01*
X107306762Y-102485044D01*
X107339535Y-102471468D01*
X107403171Y-102463091D01*
X107462472Y-102487654D01*
X107501547Y-102538577D01*
X107509925Y-102602215D01*
X107485362Y-102661516D01*
X107400463Y-102772159D01*
X107339956Y-102918237D01*
X107319317Y-103074999D01*
X107339956Y-103231762D01*
X107400463Y-103377840D01*
X107496717Y-103503282D01*
X107613486Y-103592881D01*
X107649212Y-103636413D01*
X107662000Y-103691257D01*
X107662000Y-105086888D01*
X107659617Y-105111079D01*
X107656847Y-105124999D01*
X107662000Y-105150901D01*
X107677259Y-105227615D01*
X107677259Y-105227616D01*
X107677260Y-105227617D01*
X107735388Y-105314612D01*
X107747193Y-105322500D01*
X107765982Y-105337920D01*
X107900681Y-105472619D01*
X107927561Y-105512847D01*
X107937000Y-105560300D01*
X107937000Y-106845455D01*
X107922358Y-106903908D01*
X107881891Y-106948557D01*
X107825155Y-106968858D01*
X107765548Y-106960016D01*
X107656762Y-106914956D01*
X107500000Y-106894317D01*
X107343237Y-106914956D01*
X107197159Y-106975463D01*
X107071717Y-107071717D01*
X106975463Y-107197159D01*
X106914956Y-107343237D01*
X106894317Y-107499999D01*
X106914956Y-107656762D01*
X106975463Y-107802840D01*
X107081656Y-107941234D01*
X107079439Y-107942934D01*
X107102229Y-107972634D01*
X107110607Y-108036272D01*
X107086044Y-108095573D01*
X107035121Y-108134648D01*
X106971483Y-108143026D01*
X106816275Y-108122592D01*
X106659512Y-108143231D01*
X106513434Y-108203738D01*
X106387991Y-108299993D01*
X106292341Y-108424647D01*
X106259447Y-108454461D01*
X106218160Y-108470777D01*
X106169108Y-108480534D01*
X106143035Y-108497955D01*
X106104070Y-108523991D01*
X106104067Y-108523993D01*
X106099732Y-108526889D01*
X106082112Y-108538662D01*
X106074228Y-108550463D01*
X106058808Y-108569251D01*
X105467181Y-109160879D01*
X105448393Y-109176299D01*
X105436588Y-109184186D01*
X105411706Y-109221424D01*
X105411700Y-109221436D01*
X105387003Y-109258398D01*
X105378462Y-109271181D01*
X105363223Y-109347794D01*
X105361120Y-109358366D01*
X105358050Y-109373799D01*
X105359603Y-109381609D01*
X105360701Y-109387128D01*
X105360819Y-109387718D01*
X105363202Y-109411911D01*
X105363202Y-111213497D01*
X105353763Y-111260950D01*
X105326883Y-111301178D01*
X105142181Y-111485879D01*
X105123393Y-111501299D01*
X105111588Y-111509186D01*
X105086705Y-111546426D01*
X105086701Y-111546434D01*
X105069809Y-111571716D01*
X105069807Y-111571719D01*
X105053462Y-111596181D01*
X105038229Y-111672764D01*
X105033049Y-111698797D01*
X105035819Y-111712718D01*
X105038202Y-111736911D01*
X105038202Y-112516503D01*
X105019308Y-112582296D01*
X104968384Y-112628039D01*
X104900949Y-112639793D01*
X104876828Y-112637200D01*
X104829002Y-112637200D01*
X104829002Y-113368800D01*
X104812389Y-113430800D01*
X104767002Y-113476187D01*
X104705002Y-113492800D01*
X102647402Y-113492800D01*
X102585402Y-113476187D01*
X102540015Y-113430800D01*
X102523402Y-113368800D01*
X102523402Y-113261200D01*
X102540015Y-113199200D01*
X102585402Y-113153813D01*
X102647402Y-113137200D01*
X104473402Y-113137200D01*
X104473402Y-112987960D01*
X104480000Y-112954790D01*
X104480000Y-108020000D01*
X100690000Y-108020000D01*
X100690000Y-112380000D01*
X101079836Y-112380000D01*
X101090896Y-112382200D01*
X101864998Y-112382200D01*
X101926998Y-112398813D01*
X101972385Y-112444200D01*
X101988998Y-112506200D01*
X101988998Y-112621000D01*
X101972385Y-112683000D01*
X101926998Y-112728387D01*
X101864998Y-112745000D01*
X101691960Y-112745000D01*
X101655763Y-112737800D01*
X101111033Y-112737800D01*
X101074836Y-112745000D01*
X100474000Y-112745000D01*
X100412000Y-112728387D01*
X100366613Y-112683000D01*
X100350000Y-112621000D01*
X100350000Y-104874999D01*
X102544528Y-104874999D01*
X102564379Y-105114558D01*
X102564379Y-105114561D01*
X102564380Y-105114563D01*
X102623390Y-105347591D01*
X102719951Y-105567728D01*
X102851429Y-105768969D01*
X103014236Y-105945825D01*
X103075895Y-105993816D01*
X103203927Y-106093468D01*
X103203929Y-106093469D01*
X103203933Y-106093472D01*
X103415344Y-106207882D01*
X103642703Y-106285934D01*
X103879808Y-106325500D01*
X104120191Y-106325500D01*
X104120192Y-106325500D01*
X104357297Y-106285934D01*
X104584656Y-106207882D01*
X104796067Y-106093472D01*
X104985764Y-105945825D01*
X105148571Y-105768969D01*
X105280049Y-105567728D01*
X105376610Y-105347591D01*
X105435620Y-105114563D01*
X105455471Y-104875000D01*
X105435620Y-104635437D01*
X105376610Y-104402409D01*
X105280049Y-104182272D01*
X105148571Y-103981031D01*
X104985764Y-103804175D01*
X104894596Y-103733216D01*
X104796072Y-103656531D01*
X104796068Y-103656528D01*
X104796067Y-103656528D01*
X104584656Y-103542118D01*
X104584655Y-103542117D01*
X104584652Y-103542116D01*
X104357299Y-103464066D01*
X104132836Y-103426610D01*
X104120192Y-103424500D01*
X103879808Y-103424500D01*
X103867164Y-103426610D01*
X103642700Y-103464066D01*
X103415347Y-103542116D01*
X103203927Y-103656531D01*
X103014239Y-103804172D01*
X103014236Y-103804174D01*
X103014236Y-103804175D01*
X102851429Y-103981031D01*
X102719951Y-104182272D01*
X102623390Y-104402409D01*
X102579685Y-104575000D01*
X102564379Y-104635441D01*
X102544528Y-104874999D01*
X100350000Y-104874999D01*
X100350000Y-103499999D01*
X100994353Y-103499999D01*
X101014834Y-103642457D01*
X101074623Y-103773374D01*
X101168870Y-103882141D01*
X101168872Y-103882143D01*
X101289947Y-103959953D01*
X101428039Y-104000500D01*
X101571961Y-104000500D01*
X101710053Y-103959953D01*
X101831128Y-103882143D01*
X101925377Y-103773373D01*
X101985165Y-103642457D01*
X102005647Y-103500000D01*
X101985165Y-103357543D01*
X101925377Y-103226627D01*
X101925376Y-103226626D01*
X101925376Y-103226625D01*
X101831129Y-103117858D01*
X101831128Y-103117857D01*
X101710053Y-103040047D01*
X101571961Y-102999500D01*
X101428039Y-102999500D01*
X101289947Y-103040047D01*
X101168870Y-103117858D01*
X101074623Y-103226625D01*
X101014834Y-103357542D01*
X100994353Y-103499999D01*
X100350000Y-103499999D01*
X100350000Y-103045000D01*
X100324500Y-103045000D01*
X100262500Y-103028387D01*
X100217113Y-102983000D01*
X100200500Y-102921000D01*
X100200500Y-102824500D01*
X100217113Y-102762500D01*
X100262500Y-102717113D01*
X100324500Y-102700500D01*
X105594484Y-102700500D01*
X105781113Y-102670941D01*
X105781114Y-102670940D01*
X105781118Y-102670940D01*
X105960832Y-102612547D01*
X106129199Y-102526760D01*
X106282073Y-102415690D01*
X106415690Y-102282073D01*
X106449676Y-102235294D01*
X106492976Y-102198067D01*
X106548370Y-102184191D01*
X106604108Y-102196611D01*
G37*
%TD.AperFunction*%
%TA.AperFunction,Conductor*%
G36*
X111814999Y-112045313D02*
G01*
X111860386Y-112090700D01*
X111876999Y-112152700D01*
X111876999Y-112897000D01*
X111924823Y-112897000D01*
X111984374Y-112890597D01*
X112119088Y-112840352D01*
X112234189Y-112754187D01*
X112315091Y-112646116D01*
X112348252Y-112615517D01*
X112390166Y-112598809D01*
X112396746Y-112597500D01*
X112396748Y-112597500D01*
X112455231Y-112585867D01*
X112455232Y-112585865D01*
X112475808Y-112581773D01*
X112524193Y-112581773D01*
X112544767Y-112585865D01*
X112544769Y-112585867D01*
X112603252Y-112597500D01*
X112603253Y-112597500D01*
X112825501Y-112597500D01*
X112887501Y-112614113D01*
X112932888Y-112659500D01*
X112949501Y-112721500D01*
X112949501Y-113180758D01*
X112946757Y-113197578D01*
X112949369Y-113254080D01*
X112949501Y-113259806D01*
X112949501Y-113278818D01*
X112951180Y-113293280D01*
X112951248Y-113294743D01*
X112936637Y-113359146D01*
X112891037Y-113406914D01*
X112827382Y-113424500D01*
X110102057Y-113424500D01*
X110054604Y-113415061D01*
X110014375Y-113388181D01*
X109987496Y-113347952D01*
X109985544Y-113343240D01*
X109985544Y-113343238D01*
X109925036Y-113197159D01*
X109907117Y-113173806D01*
X109828782Y-113071717D01*
X109703340Y-112975463D01*
X109557262Y-112914956D01*
X109400500Y-112894317D01*
X109243737Y-112914956D01*
X109097659Y-112975463D01*
X108972215Y-113071719D01*
X108965084Y-113081013D01*
X108912656Y-113120697D01*
X108847310Y-113127996D01*
X108787418Y-113100858D01*
X108749823Y-113046913D01*
X108745094Y-112981335D01*
X108759565Y-112908587D01*
X108756796Y-112894666D01*
X108754413Y-112870475D01*
X108754413Y-112868887D01*
X108763852Y-112821434D01*
X108790732Y-112781206D01*
X109272620Y-112299319D01*
X109312848Y-112272439D01*
X109360301Y-112263000D01*
X110183743Y-112263000D01*
X110238587Y-112275788D01*
X110282119Y-112311514D01*
X110371717Y-112428282D01*
X110453171Y-112490783D01*
X110497159Y-112524536D01*
X110643238Y-112585044D01*
X110800000Y-112605682D01*
X110956762Y-112585044D01*
X111013637Y-112561485D01*
X111078731Y-112553309D01*
X111138890Y-112579494D01*
X111177267Y-112632711D01*
X111179645Y-112639087D01*
X111265810Y-112754188D01*
X111380909Y-112840352D01*
X111515623Y-112890597D01*
X111575175Y-112897000D01*
X111622999Y-112897000D01*
X111622999Y-112152700D01*
X111639612Y-112090700D01*
X111684999Y-112045313D01*
X111746999Y-112028700D01*
X111752999Y-112028700D01*
X111814999Y-112045313D01*
G37*
%TD.AperFunction*%
%TA.AperFunction,Conductor*%
G36*
X108543884Y-109375978D02*
G01*
X108581484Y-109420001D01*
X108595000Y-109476295D01*
X108595000Y-109538313D01*
X108605143Y-109637605D01*
X108658453Y-109798486D01*
X108747426Y-109942732D01*
X108867265Y-110062571D01*
X108967840Y-110124606D01*
X109007323Y-110163519D01*
X109025904Y-110215748D01*
X109019870Y-110270855D01*
X108990426Y-110317825D01*
X108971472Y-110336779D01*
X108910280Y-110456875D01*
X108894500Y-110556510D01*
X108894500Y-111073490D01*
X108910280Y-111173124D01*
X108971472Y-111293221D01*
X109066778Y-111388527D01*
X109066780Y-111388528D01*
X109186874Y-111449719D01*
X109218052Y-111454657D01*
X109286510Y-111465500D01*
X109286512Y-111465500D01*
X109853488Y-111465500D01*
X109853490Y-111465500D01*
X109921948Y-111454657D01*
X109953126Y-111449719D01*
X110073220Y-111388528D01*
X110124877Y-111336870D01*
X110185718Y-111303492D01*
X110254967Y-111308031D01*
X110310933Y-111349066D01*
X110368826Y-111424513D01*
X110391511Y-111473161D01*
X110391511Y-111526838D01*
X110368826Y-111575486D01*
X110282119Y-111688486D01*
X110238587Y-111724212D01*
X110183743Y-111737000D01*
X109238112Y-111737000D01*
X109213921Y-111734617D01*
X109200000Y-111731847D01*
X109097383Y-111752259D01*
X109097381Y-111752260D01*
X109097382Y-111752260D01*
X109032345Y-111795716D01*
X109032342Y-111795718D01*
X109028007Y-111798614D01*
X109010387Y-111810387D01*
X109002503Y-111822188D01*
X108987083Y-111840976D01*
X108940940Y-111887119D01*
X108889254Y-111918099D01*
X108829067Y-111921055D01*
X108774594Y-111895291D01*
X108738701Y-111846895D01*
X108695768Y-111743246D01*
X108695766Y-111743243D01*
X108599514Y-111617804D01*
X108474072Y-111521550D01*
X108327994Y-111461043D01*
X108171231Y-111440404D01*
X108062976Y-111454657D01*
X107999338Y-111446279D01*
X107948415Y-111407204D01*
X107923852Y-111347903D01*
X107932230Y-111284265D01*
X107932918Y-111282605D01*
X107985044Y-111156762D01*
X108005682Y-111000000D01*
X107985044Y-110843238D01*
X107924536Y-110697159D01*
X107885855Y-110646749D01*
X107828282Y-110571717D01*
X107702841Y-110475464D01*
X107586947Y-110427459D01*
X107538547Y-110391563D01*
X107512783Y-110337089D01*
X107515739Y-110276903D01*
X107546717Y-110225219D01*
X108383324Y-109388612D01*
X108432681Y-109358366D01*
X108490397Y-109353824D01*
X108543884Y-109375978D01*
G37*
%TD.AperFunction*%
%TA.AperFunction,Conductor*%
G36*
X110474057Y-104518339D02*
G01*
X110506952Y-104533898D01*
X110566769Y-104573867D01*
X110625251Y-104585500D01*
X110625252Y-104585500D01*
X111290500Y-104585500D01*
X111352500Y-104602113D01*
X111397887Y-104647500D01*
X111414500Y-104709500D01*
X111414500Y-105374749D01*
X111426132Y-105433230D01*
X111470447Y-105499552D01*
X111536769Y-105543867D01*
X111595251Y-105555500D01*
X111753368Y-105555500D01*
X111812536Y-105570527D01*
X111857363Y-105611965D01*
X111876986Y-105669771D01*
X111866647Y-105729936D01*
X111828854Y-105777876D01*
X111771717Y-105821717D01*
X111675463Y-105947159D01*
X111614956Y-106093237D01*
X111594317Y-106249999D01*
X111614956Y-106406762D01*
X111675463Y-106552840D01*
X111771717Y-106678282D01*
X111897159Y-106774536D01*
X111931276Y-106788668D01*
X111958549Y-106804274D01*
X111995395Y-106832098D01*
X112008351Y-106843372D01*
X113008673Y-107843694D01*
X113039653Y-107895380D01*
X113042609Y-107955566D01*
X113016845Y-108010040D01*
X112968445Y-108045936D01*
X112897158Y-108075463D01*
X112771717Y-108171717D01*
X112675463Y-108297159D01*
X112614956Y-108443237D01*
X112594317Y-108600000D01*
X112606896Y-108695543D01*
X112602265Y-108748865D01*
X112575593Y-108795268D01*
X112534524Y-108840317D01*
X112530573Y-108844454D01*
X112517141Y-108857886D01*
X112508087Y-108869317D01*
X112490083Y-108889067D01*
X112487578Y-108895534D01*
X112474259Y-108920802D01*
X112470343Y-108926518D01*
X112464228Y-108952517D01*
X112459151Y-108968913D01*
X112449500Y-108993827D01*
X112449500Y-109000751D01*
X112446206Y-109029140D01*
X112444621Y-109035881D01*
X112447830Y-109058888D01*
X112448311Y-109062332D01*
X112449500Y-109079465D01*
X112449500Y-109278500D01*
X112432887Y-109340500D01*
X112387500Y-109385887D01*
X112325500Y-109402500D01*
X112103252Y-109402500D01*
X112024186Y-109418226D01*
X111975806Y-109418225D01*
X111896749Y-109402500D01*
X111896747Y-109402500D01*
X111603251Y-109402500D01*
X111603250Y-109402500D01*
X111544768Y-109414132D01*
X111476040Y-109460056D01*
X111438496Y-109495218D01*
X111384607Y-109511565D01*
X111329046Y-109502391D01*
X111180259Y-109440762D01*
X111023497Y-109420123D01*
X110866734Y-109440762D01*
X110720656Y-109501269D01*
X110699766Y-109517298D01*
X110645812Y-109541037D01*
X110586993Y-109537181D01*
X110550441Y-109515000D01*
X109444000Y-109515000D01*
X109382000Y-109498387D01*
X109336613Y-109453000D01*
X109320000Y-109391000D01*
X109320000Y-108315001D01*
X109271685Y-108315001D01*
X109172394Y-108325143D01*
X109011516Y-108378452D01*
X108977097Y-108399683D01*
X108914705Y-108418115D01*
X108851568Y-108402421D01*
X108805066Y-108356923D01*
X108793670Y-108315000D01*
X109820000Y-108315000D01*
X109820000Y-109015000D01*
X110544999Y-109015000D01*
X110544999Y-108991685D01*
X110534856Y-108892394D01*
X110481546Y-108731513D01*
X110392573Y-108587267D01*
X110272732Y-108467426D01*
X110128486Y-108378453D01*
X109967606Y-108325143D01*
X109868315Y-108315000D01*
X109820000Y-108315000D01*
X108793670Y-108315000D01*
X108788000Y-108294144D01*
X108788000Y-105685404D01*
X108802642Y-105626951D01*
X108843109Y-105582302D01*
X108899846Y-105562001D01*
X108959451Y-105570842D01*
X108993736Y-105585044D01*
X109150498Y-105605682D01*
X109307260Y-105585044D01*
X109453339Y-105524536D01*
X109578780Y-105428282D01*
X109675034Y-105302841D01*
X109735542Y-105156762D01*
X109756180Y-105000000D01*
X109736627Y-104851480D01*
X109737357Y-104814298D01*
X109749082Y-104779002D01*
X109759719Y-104758126D01*
X109775500Y-104658488D01*
X109775500Y-104637000D01*
X109792113Y-104575000D01*
X109837500Y-104529613D01*
X109899500Y-104513000D01*
X110438061Y-104513000D01*
X110474057Y-104518339D01*
G37*
%TD.AperFunction*%
%TA.AperFunction,Conductor*%
G36*
X115111079Y-103515383D02*
G01*
X115125000Y-103518152D01*
X115138921Y-103515383D01*
X115163112Y-103513000D01*
X120027138Y-103513000D01*
X120086155Y-103527945D01*
X120130947Y-103569178D01*
X120150714Y-103626760D01*
X120140694Y-103686810D01*
X120103301Y-103734853D01*
X120014236Y-103804174D01*
X119870833Y-103959953D01*
X119851429Y-103981031D01*
X119719951Y-104182272D01*
X119623390Y-104402409D01*
X119579685Y-104575000D01*
X119564379Y-104635441D01*
X119544528Y-104874999D01*
X119564379Y-105114558D01*
X119564379Y-105114561D01*
X119564380Y-105114563D01*
X119623390Y-105347591D01*
X119719951Y-105567728D01*
X119750264Y-105614126D01*
X119770450Y-105680878D01*
X119751417Y-105747969D01*
X119699183Y-105794177D01*
X119630270Y-105804885D01*
X119549999Y-105794317D01*
X119461482Y-105805970D01*
X119394122Y-105795978D01*
X119353023Y-105761108D01*
X119278230Y-105711132D01*
X119219749Y-105699500D01*
X119219748Y-105699500D01*
X117780252Y-105699500D01*
X117780251Y-105699500D01*
X117721769Y-105711132D01*
X117655446Y-105755448D01*
X117597590Y-105842035D01*
X117556488Y-105880531D01*
X117502599Y-105896878D01*
X117447037Y-105887704D01*
X117331762Y-105839956D01*
X117175000Y-105819317D01*
X117018237Y-105839956D01*
X116872159Y-105900463D01*
X116746717Y-105996717D01*
X116657119Y-106113486D01*
X116613587Y-106149212D01*
X116558743Y-106162000D01*
X115924500Y-106162000D01*
X115862500Y-106145387D01*
X115817113Y-106100000D01*
X115800500Y-106038000D01*
X115800500Y-105880251D01*
X115788867Y-105821769D01*
X115744552Y-105755447D01*
X115678230Y-105711132D01*
X115619749Y-105699500D01*
X115619748Y-105699500D01*
X114180252Y-105699500D01*
X114180251Y-105699500D01*
X114121769Y-105711132D01*
X114055447Y-105755447D01*
X114011132Y-105821769D01*
X113999500Y-105880251D01*
X113999500Y-106813444D01*
X113986384Y-106868948D01*
X113949811Y-106912711D01*
X113842811Y-106992810D01*
X113756647Y-107107910D01*
X113706402Y-107242624D01*
X113700000Y-107302176D01*
X113700000Y-107385717D01*
X113686485Y-107442012D01*
X113648885Y-107486035D01*
X113595398Y-107508190D01*
X113537682Y-107503648D01*
X113488319Y-107473398D01*
X112733363Y-106718442D01*
X112702782Y-106668046D01*
X112698929Y-106609224D01*
X112722673Y-106555269D01*
X112722992Y-106554851D01*
X112724536Y-106552841D01*
X112785044Y-106406762D01*
X112805682Y-106250000D01*
X112785044Y-106093238D01*
X112757379Y-106026450D01*
X112748538Y-105966846D01*
X112768839Y-105910109D01*
X112813488Y-105869642D01*
X112871941Y-105855000D01*
X112932829Y-105855000D01*
X112986743Y-105849203D01*
X113013257Y-105849203D01*
X113067171Y-105855000D01*
X113115000Y-105855000D01*
X113115000Y-105070000D01*
X113385000Y-105070000D01*
X113385000Y-105855000D01*
X113432824Y-105855000D01*
X113492375Y-105848597D01*
X113627089Y-105798352D01*
X113742188Y-105712188D01*
X113828352Y-105597089D01*
X113878597Y-105462375D01*
X113885000Y-105402824D01*
X113885000Y-105070000D01*
X113385000Y-105070000D01*
X113115000Y-105070000D01*
X113115000Y-104924000D01*
X113131613Y-104862000D01*
X113177000Y-104816613D01*
X113239000Y-104800000D01*
X113800000Y-104800000D01*
X113800000Y-104385000D01*
X114070000Y-104385000D01*
X114070000Y-104885000D01*
X114402824Y-104885000D01*
X114462375Y-104878597D01*
X114597089Y-104828352D01*
X114712188Y-104742188D01*
X114798352Y-104627089D01*
X114848597Y-104492375D01*
X114855000Y-104432824D01*
X114855000Y-104385000D01*
X114070000Y-104385000D01*
X113800000Y-104385000D01*
X113800000Y-104239000D01*
X113816613Y-104177000D01*
X113862000Y-104131613D01*
X113924000Y-104115000D01*
X114855000Y-104115000D01*
X114855000Y-104067176D01*
X114848597Y-104007624D01*
X114798352Y-103872910D01*
X114712188Y-103757810D01*
X114683410Y-103736267D01*
X114644926Y-103688511D01*
X114634037Y-103628153D01*
X114653406Y-103569960D01*
X114698294Y-103528168D01*
X114757721Y-103513000D01*
X115086888Y-103513000D01*
X115111079Y-103515383D01*
G37*
%TD.AperFunction*%
%TA.AperFunction,Conductor*%
G36*
X110413375Y-101065640D02*
G01*
X110458024Y-101106107D01*
X110478325Y-101162843D01*
X110469483Y-101222450D01*
X110439956Y-101293735D01*
X110428146Y-101383437D01*
X110403582Y-101442738D01*
X110352659Y-101481812D01*
X110289022Y-101490190D01*
X110150498Y-101471952D01*
X109993735Y-101492591D01*
X109847657Y-101553098D01*
X109722215Y-101649352D01*
X109625961Y-101774793D01*
X109602290Y-101831942D01*
X109572385Y-101875095D01*
X109527303Y-101902005D01*
X109475127Y-101907847D01*
X109398315Y-101900000D01*
X109350000Y-101900000D01*
X109350000Y-102976000D01*
X109333387Y-103038000D01*
X109288000Y-103083387D01*
X109226000Y-103100000D01*
X108974000Y-103100000D01*
X108912000Y-103083387D01*
X108866613Y-103038000D01*
X108850000Y-102976000D01*
X108850000Y-101900001D01*
X108801685Y-101900001D01*
X108702394Y-101910143D01*
X108541513Y-101963453D01*
X108397267Y-102052426D01*
X108277426Y-102172267D01*
X108188453Y-102316513D01*
X108161171Y-102398848D01*
X108131570Y-102447099D01*
X108083608Y-102477166D01*
X108027280Y-102482783D01*
X107925000Y-102469317D01*
X107768237Y-102489956D01*
X107735463Y-102503531D01*
X107671826Y-102511908D01*
X107612525Y-102487344D01*
X107573451Y-102436421D01*
X107565074Y-102372783D01*
X107589635Y-102313485D01*
X107674536Y-102202841D01*
X107735044Y-102056762D01*
X107755682Y-101900000D01*
X107736470Y-101754072D01*
X107741990Y-101698032D01*
X107771726Y-101650211D01*
X108334621Y-101087317D01*
X108374850Y-101060437D01*
X108422303Y-101050998D01*
X110354922Y-101050998D01*
X110413375Y-101065640D01*
G37*
%TD.AperFunction*%
%TA.AperFunction,Conductor*%
G36*
X118237500Y-100717113D02*
G01*
X118282887Y-100762500D01*
X118299500Y-100824500D01*
X118299500Y-101594484D01*
X118329058Y-101781113D01*
X118370951Y-101910044D01*
X118387453Y-101960832D01*
X118473240Y-102129199D01*
X118504531Y-102172267D01*
X118584309Y-102282073D01*
X118717926Y-102415690D01*
X118789726Y-102467855D01*
X118870801Y-102526760D01*
X119039168Y-102612547D01*
X119218882Y-102670940D01*
X119218883Y-102670940D01*
X119218886Y-102670941D01*
X119405516Y-102700500D01*
X119405519Y-102700500D01*
X119477410Y-102700500D01*
X119500000Y-102700500D01*
X119539882Y-102700500D01*
X123187591Y-102700500D01*
X123252381Y-102718773D01*
X123298076Y-102768205D01*
X123311209Y-102834229D01*
X123287909Y-102897386D01*
X123235043Y-102939061D01*
X123142095Y-102977561D01*
X123094643Y-102987000D01*
X115512000Y-102987000D01*
X115450000Y-102970387D01*
X115404613Y-102925000D01*
X115388000Y-102863000D01*
X115388000Y-102538112D01*
X115390383Y-102513921D01*
X115393152Y-102500000D01*
X115375403Y-102410769D01*
X115372740Y-102397382D01*
X115329284Y-102332345D01*
X115329281Y-102332342D01*
X115326568Y-102328282D01*
X115322498Y-102322190D01*
X115322498Y-102322189D01*
X115322497Y-102322188D01*
X115314613Y-102310388D01*
X115302810Y-102302502D01*
X115284019Y-102287080D01*
X115247732Y-102250793D01*
X115214652Y-102191269D01*
X115217994Y-102123253D01*
X115256749Y-102067258D01*
X115319226Y-102040173D01*
X115358208Y-102035042D01*
X115504287Y-101974534D01*
X115629728Y-101878280D01*
X115667231Y-101829404D01*
X115718154Y-101790330D01*
X115781792Y-101781952D01*
X115841091Y-101806513D01*
X115897159Y-101849536D01*
X116043238Y-101910044D01*
X116200000Y-101930682D01*
X116356762Y-101910044D01*
X116502841Y-101849536D01*
X116628282Y-101753282D01*
X116724536Y-101627841D01*
X116785044Y-101481762D01*
X116805682Y-101325000D01*
X116785044Y-101168238D01*
X116724536Y-101022159D01*
X116630790Y-100899986D01*
X116605763Y-100836654D01*
X116617954Y-100769656D01*
X116663686Y-100719199D01*
X116729166Y-100700500D01*
X118175500Y-100700500D01*
X118237500Y-100717113D01*
G37*
%TD.AperFunction*%
%TD*%
M02*
