%TF.GenerationSoftware,KiCad,Pcbnew,7.0.1-3b83917a11~172~ubuntu22.04.1*%
%TF.CreationDate,2023-07-05T11:02:11+02:00*%
%TF.ProjectId,phyphox-newton,70687970-686f-4782-9d6e-6577746f6e2e,rev?*%
%TF.SameCoordinates,Original*%
%TF.FileFunction,Legend,Bot*%
%TF.FilePolarity,Positive*%
%FSLAX46Y46*%
G04 Gerber Fmt 4.6, Leading zero omitted, Abs format (unit mm)*
G04 Created by KiCad (PCBNEW 7.0.1-3b83917a11~172~ubuntu22.04.1) date 2023-07-05 11:02:11*
%MOMM*%
%LPD*%
G01*
G04 APERTURE LIST*
%ADD10C,0.250000*%
%ADD11C,0.120000*%
%ADD12C,0.150000*%
G04 APERTURE END LIST*
D10*
X111761904Y-129896666D02*
X111000000Y-129896666D01*
X111380952Y-130277619D02*
X111380952Y-129515714D01*
X120671904Y-109976190D02*
X122671904Y-109976190D01*
X120767142Y-109976190D02*
X120671904Y-110166666D01*
X120671904Y-110166666D02*
X120671904Y-110547619D01*
X120671904Y-110547619D02*
X120767142Y-110738095D01*
X120767142Y-110738095D02*
X120862380Y-110833333D01*
X120862380Y-110833333D02*
X121052857Y-110928571D01*
X121052857Y-110928571D02*
X121624285Y-110928571D01*
X121624285Y-110928571D02*
X121814761Y-110833333D01*
X121814761Y-110833333D02*
X121910000Y-110738095D01*
X121910000Y-110738095D02*
X122005238Y-110547619D01*
X122005238Y-110547619D02*
X122005238Y-110166666D01*
X122005238Y-110166666D02*
X121910000Y-109976190D01*
X122005238Y-111785714D02*
X120005238Y-111785714D01*
X122005238Y-112642857D02*
X120957619Y-112642857D01*
X120957619Y-112642857D02*
X120767142Y-112547619D01*
X120767142Y-112547619D02*
X120671904Y-112357143D01*
X120671904Y-112357143D02*
X120671904Y-112071428D01*
X120671904Y-112071428D02*
X120767142Y-111880952D01*
X120767142Y-111880952D02*
X120862380Y-111785714D01*
X120671904Y-113404762D02*
X122005238Y-113880952D01*
X120671904Y-114357143D02*
X122005238Y-113880952D01*
X122005238Y-113880952D02*
X122481428Y-113690476D01*
X122481428Y-113690476D02*
X122576666Y-113595238D01*
X122576666Y-113595238D02*
X122671904Y-113404762D01*
X120671904Y-115119048D02*
X122671904Y-115119048D01*
X120767142Y-115119048D02*
X120671904Y-115309524D01*
X120671904Y-115309524D02*
X120671904Y-115690477D01*
X120671904Y-115690477D02*
X120767142Y-115880953D01*
X120767142Y-115880953D02*
X120862380Y-115976191D01*
X120862380Y-115976191D02*
X121052857Y-116071429D01*
X121052857Y-116071429D02*
X121624285Y-116071429D01*
X121624285Y-116071429D02*
X121814761Y-115976191D01*
X121814761Y-115976191D02*
X121910000Y-115880953D01*
X121910000Y-115880953D02*
X122005238Y-115690477D01*
X122005238Y-115690477D02*
X122005238Y-115309524D01*
X122005238Y-115309524D02*
X121910000Y-115119048D01*
X122005238Y-116928572D02*
X120005238Y-116928572D01*
X122005238Y-117785715D02*
X120957619Y-117785715D01*
X120957619Y-117785715D02*
X120767142Y-117690477D01*
X120767142Y-117690477D02*
X120671904Y-117500001D01*
X120671904Y-117500001D02*
X120671904Y-117214286D01*
X120671904Y-117214286D02*
X120767142Y-117023810D01*
X120767142Y-117023810D02*
X120862380Y-116928572D01*
X122005238Y-119023810D02*
X121910000Y-118833334D01*
X121910000Y-118833334D02*
X121814761Y-118738096D01*
X121814761Y-118738096D02*
X121624285Y-118642858D01*
X121624285Y-118642858D02*
X121052857Y-118642858D01*
X121052857Y-118642858D02*
X120862380Y-118738096D01*
X120862380Y-118738096D02*
X120767142Y-118833334D01*
X120767142Y-118833334D02*
X120671904Y-119023810D01*
X120671904Y-119023810D02*
X120671904Y-119309525D01*
X120671904Y-119309525D02*
X120767142Y-119500001D01*
X120767142Y-119500001D02*
X120862380Y-119595239D01*
X120862380Y-119595239D02*
X121052857Y-119690477D01*
X121052857Y-119690477D02*
X121624285Y-119690477D01*
X121624285Y-119690477D02*
X121814761Y-119595239D01*
X121814761Y-119595239D02*
X121910000Y-119500001D01*
X121910000Y-119500001D02*
X122005238Y-119309525D01*
X122005238Y-119309525D02*
X122005238Y-119023810D01*
X122005238Y-120357144D02*
X120671904Y-121404763D01*
X120671904Y-120357144D02*
X122005238Y-121404763D01*
X121814761Y-122166668D02*
X121910000Y-122261906D01*
X121910000Y-122261906D02*
X122005238Y-122166668D01*
X122005238Y-122166668D02*
X121910000Y-122071430D01*
X121910000Y-122071430D02*
X121814761Y-122166668D01*
X121814761Y-122166668D02*
X122005238Y-122166668D01*
X120767142Y-122166668D02*
X120862380Y-122261906D01*
X120862380Y-122261906D02*
X120957619Y-122166668D01*
X120957619Y-122166668D02*
X120862380Y-122071430D01*
X120862380Y-122071430D02*
X120767142Y-122166668D01*
X120767142Y-122166668D02*
X120957619Y-122166668D01*
X120671904Y-123119049D02*
X122005238Y-123119049D01*
X120862380Y-123119049D02*
X120767142Y-123214287D01*
X120767142Y-123214287D02*
X120671904Y-123404763D01*
X120671904Y-123404763D02*
X120671904Y-123690478D01*
X120671904Y-123690478D02*
X120767142Y-123880954D01*
X120767142Y-123880954D02*
X120957619Y-123976192D01*
X120957619Y-123976192D02*
X122005238Y-123976192D01*
X121910000Y-125690478D02*
X122005238Y-125500002D01*
X122005238Y-125500002D02*
X122005238Y-125119049D01*
X122005238Y-125119049D02*
X121910000Y-124928573D01*
X121910000Y-124928573D02*
X121719523Y-124833335D01*
X121719523Y-124833335D02*
X120957619Y-124833335D01*
X120957619Y-124833335D02*
X120767142Y-124928573D01*
X120767142Y-124928573D02*
X120671904Y-125119049D01*
X120671904Y-125119049D02*
X120671904Y-125500002D01*
X120671904Y-125500002D02*
X120767142Y-125690478D01*
X120767142Y-125690478D02*
X120957619Y-125785716D01*
X120957619Y-125785716D02*
X121148095Y-125785716D01*
X121148095Y-125785716D02*
X121338571Y-124833335D01*
X120671904Y-126452383D02*
X122005238Y-126833335D01*
X122005238Y-126833335D02*
X121052857Y-127214288D01*
X121052857Y-127214288D02*
X122005238Y-127595240D01*
X122005238Y-127595240D02*
X120671904Y-127976192D01*
X120671904Y-128452383D02*
X120671904Y-129214287D01*
X120005238Y-128738097D02*
X121719523Y-128738097D01*
X121719523Y-128738097D02*
X121910000Y-128833335D01*
X121910000Y-128833335D02*
X122005238Y-129023811D01*
X122005238Y-129023811D02*
X122005238Y-129214287D01*
X122005238Y-130166668D02*
X121910000Y-129976192D01*
X121910000Y-129976192D02*
X121814761Y-129880954D01*
X121814761Y-129880954D02*
X121624285Y-129785716D01*
X121624285Y-129785716D02*
X121052857Y-129785716D01*
X121052857Y-129785716D02*
X120862380Y-129880954D01*
X120862380Y-129880954D02*
X120767142Y-129976192D01*
X120767142Y-129976192D02*
X120671904Y-130166668D01*
X120671904Y-130166668D02*
X120671904Y-130452383D01*
X120671904Y-130452383D02*
X120767142Y-130642859D01*
X120767142Y-130642859D02*
X120862380Y-130738097D01*
X120862380Y-130738097D02*
X121052857Y-130833335D01*
X121052857Y-130833335D02*
X121624285Y-130833335D01*
X121624285Y-130833335D02*
X121814761Y-130738097D01*
X121814761Y-130738097D02*
X121910000Y-130642859D01*
X121910000Y-130642859D02*
X122005238Y-130452383D01*
X122005238Y-130452383D02*
X122005238Y-130166668D01*
X120671904Y-131690478D02*
X122005238Y-131690478D01*
X120862380Y-131690478D02*
X120767142Y-131785716D01*
X120767142Y-131785716D02*
X120671904Y-131976192D01*
X120671904Y-131976192D02*
X120671904Y-132261907D01*
X120671904Y-132261907D02*
X120767142Y-132452383D01*
X120767142Y-132452383D02*
X120957619Y-132547621D01*
X120957619Y-132547621D02*
X122005238Y-132547621D01*
X115988095Y-129903333D02*
X116750000Y-129903333D01*
X114011904Y-129896666D02*
X113250000Y-129896666D01*
X113630952Y-130277619D02*
X113630952Y-129515714D01*
X108338095Y-129903333D02*
X109100000Y-129903333D01*
D11*
%TO.C,C13*%
X116125000Y-129500000D02*
X106125000Y-129500000D01*
X106125000Y-129500000D02*
X106125000Y-104500000D01*
X106125000Y-104500000D02*
X116125000Y-104500000D01*
X116125000Y-104500000D02*
X116125000Y-129500000D01*
%TO.C,J3*%
X116510000Y-105890000D02*
X116510000Y-104810000D01*
X108190000Y-104810000D02*
X108190000Y-103190000D01*
X109490000Y-104810000D02*
X108190000Y-104810000D01*
X111490000Y-104810000D02*
X110510000Y-104810000D01*
X113490000Y-104810000D02*
X112510000Y-104810000D01*
X115490000Y-104810000D02*
X114510000Y-104810000D01*
X116810000Y-104810000D02*
X116510000Y-104810000D01*
X116810000Y-104810000D02*
X116810000Y-103190000D01*
X108490000Y-103190000D02*
X108190000Y-103190000D01*
X110490000Y-103190000D02*
X109510000Y-103190000D01*
X112490000Y-103190000D02*
X111510000Y-103190000D01*
X114490000Y-103190000D02*
X113510000Y-103190000D01*
X116810000Y-103190000D02*
X115510000Y-103190000D01*
%TO.C,J1*%
X116865000Y-125885000D02*
X117500000Y-125885000D01*
X116865000Y-125250000D02*
X116865000Y-125885000D01*
%TO.C,Z1*%
G36*
X112091971Y-139378973D02*
G01*
X112112029Y-139381206D01*
X112136469Y-139384364D01*
X112162664Y-139388071D01*
X112187988Y-139391951D01*
X112209815Y-139395629D01*
X112225519Y-139398729D01*
X112232473Y-139400876D01*
X112232791Y-139401753D01*
X112232778Y-139411658D01*
X112231279Y-139431095D01*
X112228507Y-139458484D01*
X112224673Y-139492243D01*
X112219990Y-139530793D01*
X112214669Y-139572553D01*
X112208923Y-139615943D01*
X112202963Y-139659381D01*
X112197001Y-139701288D01*
X112191250Y-139740082D01*
X112185920Y-139774183D01*
X112181225Y-139802011D01*
X112177376Y-139821986D01*
X112174586Y-139832525D01*
X112171023Y-139839829D01*
X112157789Y-139856225D01*
X112137712Y-139869961D01*
X112109824Y-139881381D01*
X112073157Y-139890827D01*
X112026742Y-139898644D01*
X111969612Y-139905172D01*
X111943379Y-139907773D01*
X111914095Y-139910886D01*
X111889430Y-139913727D01*
X111872911Y-139915905D01*
X111846539Y-139919919D01*
X111905145Y-139942468D01*
X111917888Y-139947373D01*
X111985275Y-139973436D01*
X112042751Y-139995940D01*
X112091240Y-140015311D01*
X112131668Y-140031973D01*
X112164961Y-140046350D01*
X112192043Y-140058869D01*
X112213839Y-140069952D01*
X112231275Y-140080026D01*
X112245276Y-140089514D01*
X112256767Y-140098841D01*
X112266673Y-140108433D01*
X112273301Y-140115902D01*
X112285943Y-140133144D01*
X112293704Y-140147923D01*
X112296232Y-140156202D01*
X112299289Y-140189235D01*
X112291060Y-140220978D01*
X112271884Y-140250860D01*
X112242097Y-140278311D01*
X112202039Y-140302759D01*
X112201284Y-140303140D01*
X112165896Y-140320403D01*
X112128221Y-140337791D01*
X112090093Y-140354555D01*
X112053345Y-140369948D01*
X112019809Y-140383221D01*
X111991321Y-140393626D01*
X111969713Y-140400415D01*
X111956819Y-140402839D01*
X111953120Y-140402749D01*
X111925786Y-140396280D01*
X111903438Y-140381179D01*
X111887314Y-140359687D01*
X111878651Y-140334049D01*
X111878687Y-140306509D01*
X111888660Y-140279310D01*
X111891879Y-140274788D01*
X111903693Y-140263979D01*
X111922839Y-140251449D01*
X111950257Y-140236675D01*
X111986883Y-140219133D01*
X112033655Y-140198299D01*
X112044714Y-140192954D01*
X112055436Y-140185697D01*
X112057097Y-140180791D01*
X112053645Y-140178727D01*
X112039920Y-140172419D01*
X112017371Y-140162958D01*
X111987359Y-140150881D01*
X111951244Y-140136724D01*
X111910388Y-140121026D01*
X111866151Y-140104323D01*
X111819894Y-140087152D01*
X111806836Y-140082336D01*
X111737445Y-140056233D01*
X111678432Y-140032932D01*
X111629073Y-140011946D01*
X111588646Y-139992792D01*
X111556426Y-139974983D01*
X111531691Y-139958035D01*
X111513716Y-139941462D01*
X111501779Y-139924779D01*
X111495155Y-139907501D01*
X111493122Y-139889142D01*
X111494955Y-139869218D01*
X111495713Y-139865146D01*
X111502790Y-139843427D01*
X111515058Y-139824991D01*
X111533450Y-139809444D01*
X111558895Y-139796391D01*
X111592325Y-139785438D01*
X111634672Y-139776190D01*
X111686866Y-139768253D01*
X111749838Y-139761232D01*
X111761576Y-139760088D01*
X111823841Y-139753985D01*
X111875564Y-139748845D01*
X111917707Y-139744556D01*
X111951232Y-139741003D01*
X111977103Y-139738073D01*
X111996282Y-139735654D01*
X112009732Y-139733631D01*
X112018415Y-139731892D01*
X112023296Y-139730323D01*
X112025336Y-139728810D01*
X112025655Y-139727911D01*
X112027644Y-139717818D01*
X112030842Y-139698026D01*
X112035029Y-139670030D01*
X112039986Y-139635324D01*
X112045493Y-139595401D01*
X112051332Y-139551756D01*
X112053129Y-139538144D01*
X112058773Y-139495770D01*
X112063906Y-139457761D01*
X112068330Y-139425567D01*
X112071841Y-139400641D01*
X112074241Y-139384434D01*
X112075326Y-139378399D01*
X112078921Y-139378040D01*
X112091971Y-139378973D01*
G37*
G36*
X112682717Y-135597789D02*
G01*
X112696386Y-135602803D01*
X112718137Y-135612142D01*
X112746433Y-135625052D01*
X112779738Y-135640776D01*
X112816515Y-135658563D01*
X112855228Y-135677657D01*
X112894341Y-135697304D01*
X112932319Y-135716751D01*
X112967623Y-135735242D01*
X112998719Y-135752024D01*
X113024070Y-135766342D01*
X113035777Y-135773363D01*
X113082532Y-135805805D01*
X113119734Y-135839495D01*
X113146672Y-135873706D01*
X113162636Y-135907714D01*
X113167531Y-135933872D01*
X113164413Y-135967607D01*
X113150695Y-135998749D01*
X113126995Y-136026404D01*
X113093932Y-136049677D01*
X113052124Y-136067674D01*
X113027364Y-136075104D01*
X112999622Y-136082011D01*
X112968352Y-136088400D01*
X112932809Y-136094343D01*
X112892249Y-136099909D01*
X112845928Y-136105171D01*
X112793101Y-136110199D01*
X112733022Y-136115063D01*
X112664949Y-136119835D01*
X112588135Y-136124585D01*
X112501836Y-136129384D01*
X112405309Y-136134303D01*
X112297808Y-136139412D01*
X112268394Y-136140923D01*
X112233076Y-136143328D01*
X112208018Y-136145883D01*
X112193706Y-136148537D01*
X112190628Y-136151234D01*
X112192364Y-136152097D01*
X112203342Y-136156689D01*
X112223249Y-136164692D01*
X112250755Y-136175581D01*
X112284532Y-136188830D01*
X112323250Y-136203917D01*
X112365581Y-136220314D01*
X112391968Y-136230540D01*
X112450304Y-136253458D01*
X112498830Y-136273073D01*
X112538435Y-136289798D01*
X112570012Y-136304045D01*
X112594451Y-136316226D01*
X112612643Y-136326755D01*
X112625480Y-136336043D01*
X112633852Y-136344503D01*
X112647466Y-136366350D01*
X112655411Y-136396367D01*
X112653163Y-136430742D01*
X112652488Y-136434340D01*
X112648652Y-136456926D01*
X112644355Y-136484836D01*
X112640406Y-136512863D01*
X112639398Y-136520042D01*
X112635221Y-136543295D01*
X112630875Y-136558676D01*
X112626863Y-136564277D01*
X112626382Y-136564269D01*
X112616883Y-136563373D01*
X112598535Y-136561215D01*
X112573763Y-136558089D01*
X112544991Y-136554293D01*
X112469839Y-136544176D01*
X112472888Y-136526322D01*
X112474236Y-136517727D01*
X112477029Y-136497537D01*
X112479768Y-136475448D01*
X112483598Y-136442429D01*
X112399494Y-136409796D01*
X112386076Y-136404600D01*
X112351502Y-136391268D01*
X112310216Y-136375405D01*
X112265082Y-136358108D01*
X112218967Y-136340477D01*
X112174734Y-136323610D01*
X112150539Y-136314345D01*
X112082810Y-136287702D01*
X112025400Y-136263884D01*
X111977603Y-136242550D01*
X111938711Y-136223358D01*
X111908019Y-136205964D01*
X111884820Y-136190027D01*
X111868408Y-136175204D01*
X111855021Y-136159912D01*
X111847375Y-136147435D01*
X111844223Y-136133704D01*
X111843608Y-136113872D01*
X111844204Y-136097250D01*
X111848184Y-136076798D01*
X111856968Y-136059620D01*
X111861634Y-136053170D01*
X111871943Y-136041838D01*
X111884677Y-136031785D01*
X111900608Y-136022885D01*
X111920512Y-136015009D01*
X111945163Y-136008031D01*
X111975337Y-136001823D01*
X112011807Y-135996257D01*
X112055348Y-135991206D01*
X112106734Y-135986542D01*
X112166741Y-135982139D01*
X112236143Y-135977867D01*
X112315714Y-135973601D01*
X112406229Y-135969212D01*
X112426991Y-135968232D01*
X112521625Y-135963459D01*
X112607864Y-135958591D01*
X112685341Y-135953660D01*
X112753684Y-135948699D01*
X112812525Y-135943742D01*
X112861493Y-135938822D01*
X112900221Y-135933972D01*
X112928337Y-135929226D01*
X112945472Y-135924616D01*
X112951258Y-135920176D01*
X112951089Y-135919417D01*
X112945412Y-135913672D01*
X112931346Y-135904330D01*
X112908435Y-135891137D01*
X112876224Y-135873839D01*
X112834260Y-135852184D01*
X112782087Y-135825916D01*
X112737528Y-135803540D01*
X112699934Y-135784242D01*
X112670653Y-135768566D01*
X112648516Y-135755794D01*
X112632355Y-135745214D01*
X112621000Y-135736110D01*
X112613284Y-135727767D01*
X112608038Y-135719470D01*
X112605055Y-135712653D01*
X112600027Y-135686189D01*
X112602250Y-135657937D01*
X112611502Y-135633415D01*
X112628856Y-135614906D01*
X112653017Y-135601983D01*
X112679417Y-135597138D01*
X112682717Y-135597789D01*
G37*
G36*
X112407898Y-137058458D02*
G01*
X112422429Y-137060175D01*
X112443498Y-137063009D01*
X112468525Y-137066578D01*
X112494929Y-137070498D01*
X112520129Y-137074385D01*
X112541545Y-137077857D01*
X112556594Y-137080529D01*
X112562697Y-137082018D01*
X112562512Y-137087327D01*
X112560910Y-137102814D01*
X112558041Y-137126924D01*
X112554095Y-137158111D01*
X112549263Y-137194829D01*
X112543737Y-137235531D01*
X112542362Y-137245496D01*
X112535462Y-137294298D01*
X112529449Y-137333061D01*
X112523841Y-137363130D01*
X112518153Y-137385854D01*
X112511902Y-137402579D01*
X112504603Y-137414653D01*
X112495772Y-137423422D01*
X112484927Y-137430235D01*
X112471583Y-137436438D01*
X112458497Y-137441821D01*
X112432859Y-137451065D01*
X112404035Y-137459771D01*
X112371251Y-137468057D01*
X112333734Y-137476040D01*
X112290710Y-137483840D01*
X112241405Y-137491572D01*
X112185045Y-137499355D01*
X112120858Y-137507308D01*
X112048068Y-137515546D01*
X111965903Y-137524189D01*
X111873588Y-137533354D01*
X111770350Y-137543158D01*
X111739664Y-137546038D01*
X111684394Y-137551310D01*
X111631687Y-137556441D01*
X111583061Y-137561279D01*
X111540035Y-137565669D01*
X111504126Y-137569458D01*
X111476854Y-137572491D01*
X111459737Y-137574616D01*
X111406991Y-137582019D01*
X111427835Y-137591352D01*
X111432450Y-137593331D01*
X111453476Y-137601190D01*
X111483497Y-137611100D01*
X111522753Y-137623128D01*
X111571486Y-137637339D01*
X111629935Y-137653801D01*
X111698343Y-137672579D01*
X111776949Y-137693741D01*
X111865995Y-137717351D01*
X111965721Y-137743477D01*
X112076368Y-137772184D01*
X112198177Y-137803540D01*
X112289791Y-137827100D01*
X112399528Y-137855515D01*
X112498815Y-137881498D01*
X112588186Y-137905225D01*
X112668175Y-137926870D01*
X112739318Y-137946611D01*
X112802150Y-137964621D01*
X112857205Y-137981078D01*
X112905018Y-137996155D01*
X112946124Y-138010030D01*
X112981057Y-138022876D01*
X113010354Y-138034871D01*
X113034548Y-138046189D01*
X113054174Y-138057006D01*
X113069767Y-138067497D01*
X113081862Y-138077839D01*
X113090994Y-138088206D01*
X113097698Y-138098774D01*
X113102171Y-138109030D01*
X113108356Y-138138472D01*
X113107673Y-138169643D01*
X113099992Y-138197026D01*
X113094821Y-138206668D01*
X113086998Y-138217480D01*
X113076907Y-138227301D01*
X113063876Y-138236257D01*
X113047231Y-138244473D01*
X113026299Y-138252078D01*
X113000406Y-138259196D01*
X112968879Y-138265956D01*
X112931044Y-138272482D01*
X112886228Y-138278902D01*
X112833757Y-138285341D01*
X112772958Y-138291927D01*
X112703158Y-138298786D01*
X112623682Y-138306045D01*
X112533859Y-138313829D01*
X112433013Y-138322265D01*
X112423821Y-138323025D01*
X112335614Y-138330418D01*
X112256287Y-138337251D01*
X112186191Y-138343490D01*
X112125677Y-138349100D01*
X112075097Y-138354047D01*
X112034802Y-138358297D01*
X112005144Y-138361816D01*
X111986475Y-138364570D01*
X111979146Y-138366523D01*
X111979874Y-138368010D01*
X111988028Y-138373172D01*
X112002481Y-138380070D01*
X112067737Y-138408572D01*
X112123275Y-138433403D01*
X112169743Y-138454907D01*
X112208068Y-138473550D01*
X112239179Y-138489800D01*
X112264001Y-138504121D01*
X112283462Y-138516980D01*
X112298491Y-138528843D01*
X112303043Y-138533042D01*
X112323237Y-138557677D01*
X112336798Y-138584828D01*
X112341740Y-138610737D01*
X112341724Y-138611711D01*
X112340770Y-138624444D01*
X112338533Y-138645561D01*
X112335281Y-138673058D01*
X112331284Y-138704935D01*
X112326812Y-138739189D01*
X112322135Y-138773818D01*
X112317522Y-138806822D01*
X112313244Y-138836197D01*
X112309570Y-138859942D01*
X112306770Y-138876054D01*
X112305114Y-138882534D01*
X112303783Y-138882819D01*
X112293327Y-138882364D01*
X112274544Y-138880473D01*
X112249755Y-138877440D01*
X112221278Y-138873560D01*
X112191434Y-138869129D01*
X112162543Y-138864439D01*
X112144492Y-138861356D01*
X112154975Y-138783781D01*
X112155144Y-138782525D01*
X112159479Y-138750070D01*
X112163595Y-138718635D01*
X112167034Y-138691751D01*
X112169338Y-138672949D01*
X112173218Y-138639692D01*
X112136227Y-138621019D01*
X112134161Y-138619987D01*
X112115800Y-138611239D01*
X112089350Y-138599097D01*
X112057126Y-138584604D01*
X112021441Y-138568802D01*
X111984609Y-138552732D01*
X111940255Y-138533416D01*
X111885185Y-138508930D01*
X111839396Y-138487761D01*
X111801921Y-138469345D01*
X111771798Y-138453121D01*
X111748063Y-138438525D01*
X111729751Y-138424994D01*
X111715898Y-138411964D01*
X111705541Y-138398874D01*
X111697716Y-138385159D01*
X111696373Y-138382307D01*
X111686475Y-138349016D01*
X111687855Y-138318029D01*
X111700190Y-138290108D01*
X111723157Y-138266015D01*
X111756435Y-138246513D01*
X111775185Y-138238987D01*
X111797218Y-138231784D01*
X111822887Y-138224993D01*
X111852997Y-138218502D01*
X111888355Y-138212198D01*
X111929768Y-138205971D01*
X111978042Y-138199707D01*
X112033983Y-138193294D01*
X112098399Y-138186621D01*
X112172094Y-138179575D01*
X112255877Y-138172044D01*
X112350553Y-138163916D01*
X112402782Y-138159495D01*
X112459547Y-138154648D01*
X112513186Y-138150027D01*
X112562276Y-138145756D01*
X112605389Y-138141959D01*
X112641100Y-138138763D01*
X112667982Y-138136291D01*
X112684610Y-138134668D01*
X112695003Y-138133596D01*
X112718982Y-138131259D01*
X112738146Y-138129576D01*
X112749077Y-138128857D01*
X112752248Y-138128746D01*
X112757146Y-138127351D01*
X112751210Y-138122978D01*
X112745466Y-138120472D01*
X112728165Y-138114669D01*
X112700198Y-138106296D01*
X112661475Y-138095327D01*
X112611904Y-138081740D01*
X112551396Y-138065509D01*
X112479860Y-138046610D01*
X112397205Y-138025018D01*
X112303341Y-138000709D01*
X112198177Y-137973659D01*
X112197066Y-137973374D01*
X112067811Y-137940106D01*
X111949455Y-137909381D01*
X111841498Y-137881041D01*
X111743439Y-137854927D01*
X111654777Y-137830879D01*
X111575010Y-137808738D01*
X111503638Y-137788344D01*
X111440160Y-137769539D01*
X111384074Y-137752162D01*
X111334880Y-137736055D01*
X111292077Y-137721058D01*
X111255163Y-137707012D01*
X111223638Y-137693758D01*
X111197001Y-137681136D01*
X111174750Y-137668987D01*
X111156384Y-137657152D01*
X111141403Y-137645471D01*
X111129306Y-137633785D01*
X111119651Y-137622278D01*
X111102260Y-137591478D01*
X111095971Y-137560466D01*
X111100675Y-137530510D01*
X111116264Y-137502879D01*
X111142627Y-137478840D01*
X111152953Y-137472361D01*
X111174556Y-137461768D01*
X111201373Y-137451979D01*
X111234215Y-137442842D01*
X111273896Y-137434207D01*
X111321228Y-137425923D01*
X111377024Y-137417839D01*
X111442097Y-137409804D01*
X111517259Y-137401667D01*
X111603322Y-137393277D01*
X111648707Y-137389039D01*
X111729815Y-137381449D01*
X111800602Y-137374796D01*
X111861963Y-137368989D01*
X111914793Y-137363938D01*
X111959990Y-137359551D01*
X111998448Y-137355739D01*
X112031063Y-137352411D01*
X112058731Y-137349475D01*
X112082348Y-137346841D01*
X112102810Y-137344419D01*
X112121013Y-137342118D01*
X112137851Y-137339847D01*
X112154222Y-137337516D01*
X112176005Y-137334184D01*
X112212070Y-137328084D01*
X112248467Y-137321321D01*
X112283213Y-137314320D01*
X112314324Y-137307503D01*
X112339816Y-137301292D01*
X112357705Y-137296111D01*
X112366008Y-137292382D01*
X112366204Y-137292102D01*
X112368488Y-137283800D01*
X112371906Y-137265958D01*
X112376150Y-137240422D01*
X112380910Y-137209042D01*
X112385877Y-137173663D01*
X112386603Y-137168301D01*
X112391340Y-137133714D01*
X112395555Y-137103633D01*
X112398990Y-137079837D01*
X112401390Y-137064105D01*
X112402500Y-137058213D01*
X112407898Y-137058458D01*
G37*
G36*
X114141117Y-136894354D02*
G01*
X114191393Y-136901653D01*
X114251154Y-136910385D01*
X114302198Y-136917910D01*
X114343947Y-136924147D01*
X114375822Y-136929015D01*
X114397245Y-136932432D01*
X114407637Y-136934317D01*
X114490196Y-136957394D01*
X114575018Y-136990233D01*
X114652162Y-137030331D01*
X114720832Y-137077265D01*
X114780229Y-137130616D01*
X114814793Y-137169144D01*
X114860964Y-137232589D01*
X114897659Y-137300605D01*
X114925337Y-137374270D01*
X114944457Y-137454665D01*
X114955477Y-137542870D01*
X114956666Y-137559568D01*
X114957905Y-137584883D01*
X114958178Y-137609777D01*
X114957439Y-137637270D01*
X114955637Y-137670385D01*
X114952723Y-137712141D01*
X114952288Y-137716567D01*
X114950280Y-137733310D01*
X114946839Y-137760150D01*
X114942102Y-137796100D01*
X114936206Y-137840172D01*
X114929288Y-137891380D01*
X114921486Y-137948734D01*
X114912936Y-138011248D01*
X114903775Y-138077935D01*
X114894142Y-138147805D01*
X114884172Y-138219873D01*
X114874003Y-138293150D01*
X114863773Y-138366649D01*
X114853618Y-138439382D01*
X114843675Y-138510361D01*
X114834082Y-138578600D01*
X114824976Y-138643109D01*
X114816494Y-138702903D01*
X114808773Y-138756993D01*
X114801950Y-138804391D01*
X114796163Y-138844111D01*
X114791548Y-138875164D01*
X114788242Y-138896563D01*
X114771030Y-138984320D01*
X114743878Y-139079786D01*
X114709341Y-139166201D01*
X114667381Y-139243624D01*
X114617961Y-139312113D01*
X114561044Y-139371725D01*
X114496594Y-139422517D01*
X114424574Y-139464549D01*
X114398651Y-139476556D01*
X114326562Y-139502432D01*
X114247927Y-139521074D01*
X114164918Y-139532148D01*
X114079706Y-139535323D01*
X113994462Y-139530268D01*
X113986947Y-139529397D01*
X113963671Y-139526475D01*
X113930083Y-139522069D01*
X113886759Y-139516262D01*
X113834276Y-139509136D01*
X113773212Y-139500771D01*
X113704143Y-139491251D01*
X113627646Y-139480656D01*
X113544298Y-139469069D01*
X113454675Y-139456572D01*
X113359355Y-139443246D01*
X113258914Y-139429173D01*
X113153929Y-139414435D01*
X113044978Y-139399114D01*
X112932636Y-139383292D01*
X112817481Y-139367051D01*
X112700090Y-139350471D01*
X112581039Y-139333637D01*
X112460905Y-139316628D01*
X112340265Y-139299527D01*
X112219696Y-139282416D01*
X112099776Y-139265377D01*
X111981079Y-139248491D01*
X111864184Y-139231840D01*
X111749668Y-139215507D01*
X111638107Y-139199572D01*
X111530077Y-139184119D01*
X111426157Y-139169228D01*
X111326922Y-139154981D01*
X111232950Y-139141461D01*
X111144817Y-139128749D01*
X111063101Y-139116927D01*
X110988377Y-139106078D01*
X110921224Y-139096281D01*
X110862217Y-139087621D01*
X110811934Y-139080178D01*
X110770951Y-139074034D01*
X110739846Y-139069271D01*
X110719195Y-139065971D01*
X110709575Y-139064216D01*
X110624008Y-139039520D01*
X110537124Y-139005050D01*
X110459368Y-138963260D01*
X110390679Y-138914093D01*
X110330997Y-138857490D01*
X110280262Y-138793394D01*
X110238414Y-138721746D01*
X110205392Y-138642489D01*
X110181136Y-138555565D01*
X110179713Y-138548790D01*
X110176000Y-138526797D01*
X110173365Y-138502163D01*
X110171662Y-138472618D01*
X110170744Y-138435897D01*
X110170466Y-138389732D01*
X110170480Y-138373208D01*
X110170655Y-138345813D01*
X110171152Y-138321122D01*
X110172124Y-138297545D01*
X110173723Y-138273494D01*
X110176104Y-138247379D01*
X110179419Y-138217612D01*
X110183821Y-138182604D01*
X110189463Y-138140765D01*
X110196497Y-138090506D01*
X110205078Y-138030240D01*
X110208290Y-138007681D01*
X110216913Y-137945994D01*
X110223738Y-137895140D01*
X110228829Y-137854562D01*
X110232249Y-137823704D01*
X110234063Y-137802010D01*
X110234332Y-137788924D01*
X110233120Y-137783890D01*
X110232765Y-137783732D01*
X110224037Y-137781815D01*
X110205201Y-137778545D01*
X110177565Y-137774123D01*
X110142440Y-137768749D01*
X110101136Y-137762625D01*
X110054962Y-137755952D01*
X110005229Y-137748930D01*
X109996624Y-137747728D01*
X109947720Y-137740868D01*
X109902819Y-137734521D01*
X109863190Y-137728868D01*
X109830101Y-137724094D01*
X109804819Y-137720380D01*
X109788612Y-137717910D01*
X109782748Y-137716865D01*
X109782699Y-137715843D01*
X109783642Y-137706077D01*
X109785876Y-137687808D01*
X109789089Y-137663267D01*
X109792969Y-137634682D01*
X109797202Y-137604281D01*
X109801477Y-137574295D01*
X109805480Y-137546951D01*
X109808899Y-137524479D01*
X109811422Y-137509108D01*
X109812735Y-137503066D01*
X109812768Y-137503043D01*
X109819321Y-137503360D01*
X109835866Y-137505188D01*
X109860871Y-137508308D01*
X109892802Y-137512501D01*
X109930123Y-137517549D01*
X109971303Y-137523234D01*
X110014806Y-137529338D01*
X110059100Y-137535642D01*
X110102650Y-137541929D01*
X110143922Y-137547979D01*
X110181383Y-137553576D01*
X110213498Y-137558500D01*
X110238735Y-137562533D01*
X110255559Y-137565457D01*
X110262435Y-137567054D01*
X110264328Y-137571425D01*
X110264724Y-137583601D01*
X110263200Y-137604388D01*
X110259681Y-137634757D01*
X110254092Y-137675678D01*
X110249748Y-137706769D01*
X110245810Y-137736481D01*
X110242895Y-137760227D01*
X110241234Y-137776133D01*
X110241054Y-137782319D01*
X110243976Y-137783024D01*
X110257127Y-137785259D01*
X110279594Y-137788738D01*
X110310008Y-137793258D01*
X110347000Y-137798617D01*
X110389201Y-137804612D01*
X110435242Y-137811041D01*
X110466941Y-137815442D01*
X110510464Y-137821520D01*
X110549191Y-137826973D01*
X110581761Y-137831605D01*
X110606809Y-137835222D01*
X110622973Y-137837631D01*
X110628888Y-137838636D01*
X110628533Y-137843367D01*
X110626724Y-137858484D01*
X110623594Y-137882707D01*
X110619320Y-137914720D01*
X110614076Y-137953207D01*
X110608039Y-137996852D01*
X110601385Y-138044339D01*
X110599669Y-138056518D01*
X110591270Y-138116238D01*
X110582210Y-138180826D01*
X110572950Y-138246987D01*
X110563950Y-138311428D01*
X110555671Y-138370852D01*
X110548574Y-138421965D01*
X110546853Y-138434376D01*
X110540746Y-138478106D01*
X110535077Y-138518256D01*
X110530079Y-138553220D01*
X110525981Y-138581391D01*
X110523014Y-138601162D01*
X110521409Y-138610928D01*
X110521261Y-138611708D01*
X110521119Y-138621041D01*
X110525233Y-138630985D01*
X110535056Y-138643986D01*
X110552040Y-138662488D01*
X110574428Y-138683953D01*
X110619554Y-138717407D01*
X110672175Y-138744994D01*
X110733442Y-138767271D01*
X110804504Y-138784795D01*
X110813336Y-138786339D01*
X110833920Y-138789582D01*
X110864655Y-138794229D01*
X110904921Y-138800193D01*
X110954094Y-138807386D01*
X111011555Y-138815720D01*
X111076681Y-138825110D01*
X111148851Y-138835467D01*
X111227443Y-138846704D01*
X111311835Y-138858734D01*
X111401406Y-138871471D01*
X111495534Y-138884826D01*
X111593597Y-138898712D01*
X111694975Y-138913042D01*
X111799045Y-138927730D01*
X111905185Y-138942687D01*
X112012775Y-138957827D01*
X112121193Y-138973062D01*
X112229816Y-138988306D01*
X112338023Y-139003470D01*
X112445194Y-139018468D01*
X112550705Y-139033212D01*
X112653936Y-139047615D01*
X112754264Y-139061591D01*
X112851069Y-139075051D01*
X112943729Y-139087909D01*
X113031621Y-139100077D01*
X113114125Y-139111469D01*
X113190619Y-139121996D01*
X113260481Y-139131572D01*
X113323090Y-139140109D01*
X113377823Y-139147521D01*
X113424060Y-139153719D01*
X113461179Y-139158618D01*
X113488558Y-139162129D01*
X113505575Y-139164165D01*
X113511609Y-139164640D01*
X113512709Y-139158879D01*
X113515335Y-139142209D01*
X113519378Y-139115357D01*
X113524736Y-139079046D01*
X113531308Y-139033998D01*
X113538990Y-138980935D01*
X113547682Y-138920580D01*
X113557282Y-138853655D01*
X113567687Y-138780883D01*
X113578797Y-138702985D01*
X113590508Y-138620684D01*
X113602719Y-138534703D01*
X113611514Y-138472668D01*
X114070650Y-138472668D01*
X114070841Y-138474886D01*
X114072749Y-138478459D01*
X114077864Y-138481634D01*
X114087587Y-138484737D01*
X114103321Y-138488097D01*
X114126466Y-138492038D01*
X114158424Y-138496890D01*
X114200598Y-138502977D01*
X114219567Y-138505668D01*
X114255225Y-138510627D01*
X114285918Y-138514766D01*
X114309987Y-138517868D01*
X114325774Y-138519716D01*
X114331620Y-138520095D01*
X114331905Y-138518685D01*
X114333607Y-138507731D01*
X114336654Y-138486956D01*
X114340874Y-138457576D01*
X114346094Y-138420811D01*
X114352140Y-138377878D01*
X114358839Y-138329995D01*
X114366017Y-138278380D01*
X114369101Y-138256169D01*
X114376233Y-138205021D01*
X114382891Y-138157572D01*
X114388885Y-138115142D01*
X114394030Y-138079048D01*
X114398137Y-138050611D01*
X114401019Y-138031147D01*
X114402489Y-138021977D01*
X114404126Y-138010732D01*
X114403707Y-138005451D01*
X114402008Y-138005184D01*
X114390744Y-138003503D01*
X114370386Y-138000496D01*
X114342603Y-137996410D01*
X114309067Y-137991491D01*
X114271446Y-137985985D01*
X114141117Y-137966927D01*
X114138034Y-137984928D01*
X114136416Y-137995052D01*
X114133225Y-138016379D01*
X114128969Y-138045706D01*
X114123856Y-138081525D01*
X114118094Y-138122328D01*
X114111893Y-138166606D01*
X114105459Y-138212851D01*
X114099002Y-138259556D01*
X114092731Y-138305212D01*
X114086852Y-138348311D01*
X114081575Y-138387344D01*
X114077108Y-138420805D01*
X114073659Y-138447185D01*
X114071437Y-138464975D01*
X114070650Y-138472668D01*
X113611514Y-138472668D01*
X113615328Y-138445764D01*
X113628234Y-138354589D01*
X113641335Y-138261900D01*
X113654527Y-138168420D01*
X113667711Y-138074872D01*
X113680783Y-137981977D01*
X113693643Y-137890459D01*
X113706187Y-137801038D01*
X113718315Y-137714439D01*
X113729924Y-137631382D01*
X113740913Y-137552591D01*
X113751179Y-137478787D01*
X113760621Y-137410694D01*
X113769137Y-137349033D01*
X113776625Y-137294527D01*
X113782983Y-137247898D01*
X113788109Y-137209869D01*
X113791902Y-137181162D01*
X113794259Y-137162499D01*
X113795079Y-137154603D01*
X113794313Y-137143552D01*
X113792099Y-137138486D01*
X113789740Y-137138178D01*
X113776841Y-137136397D01*
X113753167Y-137133094D01*
X113719231Y-137128340D01*
X113675547Y-137122209D01*
X113622628Y-137114773D01*
X113560990Y-137106104D01*
X113491145Y-137096274D01*
X113413608Y-137085357D01*
X113328892Y-137073423D01*
X113237512Y-137060547D01*
X113139981Y-137046799D01*
X113036814Y-137032253D01*
X112928523Y-137016980D01*
X112815623Y-137001054D01*
X112698628Y-136984546D01*
X112578052Y-136967529D01*
X112454408Y-136950076D01*
X112376396Y-136939064D01*
X112234847Y-136919090D01*
X112104188Y-136900668D01*
X111983948Y-136883733D01*
X111873656Y-136868225D01*
X111772842Y-136854079D01*
X111681034Y-136841235D01*
X111597762Y-136829628D01*
X111522554Y-136819197D01*
X111454941Y-136809880D01*
X111394452Y-136801613D01*
X111340614Y-136794334D01*
X111292959Y-136787980D01*
X111251015Y-136782490D01*
X111214311Y-136777800D01*
X111182376Y-136773849D01*
X111154740Y-136770572D01*
X111130932Y-136767909D01*
X111110481Y-136765796D01*
X111092917Y-136764172D01*
X111077768Y-136762972D01*
X111064563Y-136762136D01*
X111052833Y-136761600D01*
X111042105Y-136761302D01*
X111031910Y-136761179D01*
X111016503Y-136761144D01*
X110979208Y-136761704D01*
X110950083Y-136763404D01*
X110926519Y-136766447D01*
X110905906Y-136771038D01*
X110889817Y-136775834D01*
X110858571Y-136787099D01*
X110828233Y-136800182D01*
X110802289Y-136813521D01*
X110784224Y-136825555D01*
X110782851Y-136826639D01*
X110780863Y-136828180D01*
X110779033Y-136830068D01*
X110777256Y-136832965D01*
X110775426Y-136837534D01*
X110773438Y-136844437D01*
X110771187Y-136854336D01*
X110768567Y-136867894D01*
X110765474Y-136885773D01*
X110761802Y-136908635D01*
X110757446Y-136937144D01*
X110752301Y-136971960D01*
X110746261Y-137013748D01*
X110739221Y-137063168D01*
X110731077Y-137120883D01*
X110721722Y-137187557D01*
X110711052Y-137263850D01*
X110698960Y-137350426D01*
X110685343Y-137447947D01*
X110684870Y-137451333D01*
X110678932Y-137493157D01*
X110673389Y-137531083D01*
X110668477Y-137563566D01*
X110664436Y-137589064D01*
X110661501Y-137606034D01*
X110659912Y-137612934D01*
X110654803Y-137613080D01*
X110639598Y-137611865D01*
X110615959Y-137609419D01*
X110585546Y-137605958D01*
X110550017Y-137601697D01*
X110511032Y-137596852D01*
X110470250Y-137591637D01*
X110429331Y-137586268D01*
X110389933Y-137580960D01*
X110353716Y-137575927D01*
X110322340Y-137571386D01*
X110297463Y-137567552D01*
X110280745Y-137564639D01*
X110273845Y-137562863D01*
X110273722Y-137560916D01*
X110274745Y-137549140D01*
X110277219Y-137527944D01*
X110280941Y-137498736D01*
X110285710Y-137462925D01*
X110291324Y-137421919D01*
X110297581Y-137377126D01*
X110304278Y-137329955D01*
X110311214Y-137281812D01*
X110318186Y-137234107D01*
X110324992Y-137188248D01*
X110331431Y-137145643D01*
X110337300Y-137107700D01*
X110342396Y-137075827D01*
X110346519Y-137051433D01*
X110349465Y-137035925D01*
X110355640Y-137009080D01*
X110382313Y-136918617D01*
X110416344Y-136835074D01*
X110457296Y-136759294D01*
X110504729Y-136692123D01*
X110558205Y-136634402D01*
X110610191Y-136591403D01*
X110678850Y-136548195D01*
X110754202Y-136513770D01*
X110835395Y-136488387D01*
X110921573Y-136472305D01*
X111011883Y-136465780D01*
X111105469Y-136469071D01*
X111116182Y-136470227D01*
X111138998Y-136473039D01*
X111172192Y-136477335D01*
X111215183Y-136483033D01*
X111267395Y-136490052D01*
X111328248Y-136498310D01*
X111397164Y-136507726D01*
X111473563Y-136518218D01*
X111556869Y-136529704D01*
X111646501Y-136542103D01*
X111741881Y-136555334D01*
X111842431Y-136569315D01*
X111947573Y-136583964D01*
X112056727Y-136599201D01*
X112169314Y-136614943D01*
X112284757Y-136631108D01*
X112402477Y-136647616D01*
X112521895Y-136664386D01*
X112642433Y-136681334D01*
X112763511Y-136698380D01*
X112884552Y-136715443D01*
X113004977Y-136732440D01*
X113124206Y-136749291D01*
X113241662Y-136765914D01*
X113356767Y-136782226D01*
X113468940Y-136798148D01*
X113577604Y-136813597D01*
X113682181Y-136828491D01*
X113782091Y-136842750D01*
X113876756Y-136856291D01*
X113965597Y-136869034D01*
X114048036Y-136880896D01*
X114123495Y-136891796D01*
X114141117Y-136894354D01*
G37*
D12*
%TO.C,H4*%
X106375000Y-140000000D02*
X106375000Y-135250000D01*
X106375000Y-135250000D02*
X101625000Y-135250000D01*
X101625000Y-140000000D02*
X106375000Y-140000000D01*
X101625000Y-135250000D02*
X101625000Y-140000000D01*
%TO.C,H2*%
X118625000Y-102500000D02*
X118625000Y-107250000D01*
X118625000Y-107250000D02*
X123375000Y-107250000D01*
X123375000Y-102500000D02*
X118625000Y-102500000D01*
X123375000Y-107250000D02*
X123375000Y-102500000D01*
%TD*%
M02*
