M48
; DRILL file {KiCad 7.0.1-3b83917a11~172~ubuntu22.04.1} date Mi 05 Jul 2023 11:02:15 CEST
; FORMAT={-:-/ absolute / inch / decimal}
; #@! TF.CreationDate,2023-07-05T11:02:15+02:00
; #@! TF.GenerationSoftware,Kicad,Pcbnew,7.0.1-3b83917a11~172~ubuntu22.04.1
; #@! TF.FileFunction,Plated,1,4,PTH
FMAT,2
INCH
; #@! TA.AperFunction,Plated,PTH,ViaDrill
T1C0.0079
; #@! TA.AperFunction,Plated,PTH,ViaDrill
T2C0.0157
; #@! TA.AperFunction,Plated,PTH,ComponentDrill
T3C0.0236
; #@! TA.AperFunction,Plated,PTH,ComponentDrill
T4C0.0300
; #@! TA.AperFunction,Plated,PTH,ComponentDrill
T5C0.0461
%
G90
G05
T1
X3.9642Y-4.2409
X3.9642Y-4.4929
X3.9642Y-4.5323
X3.9642Y-4.5717
X3.9642Y-4.611
X3.9642Y-4.6386
X3.9642Y-4.6661
X3.9799Y-4.4732
X3.9799Y-4.5126
X3.9799Y-4.552
X3.9799Y-4.5913
X3.9917Y-4.2409
X4.0193Y-4.2409
X4.0469Y-4.2409
X4.056Y-4.5522
X4.0606Y-4.5833
X4.0665Y-4.5165
X4.0744Y-4.2409
X4.102Y-4.2409
X4.1295Y-4.2409
X4.1295Y-4.2685
X4.1295Y-4.2961
X4.1295Y-4.3236
X4.1295Y-4.3512
X4.1295Y-4.3787
X4.1728Y-4.5165
T2
X3.9665Y-4.8031
X3.9698Y-4.7011
X3.9866Y-5.4271
X4.0123Y-5.1609
X4.0156Y-4.6731
X4.0158Y-5.3979
X4.0453Y-5.2854
X4.0473Y-5.1431
X4.0827Y-4.8701
X4.0837Y-5.05
X4.0868Y-4.9716
X4.0881Y-5.2003
X4.0943Y-5.2774
X4.0965Y-4.9252
X4.0984Y-5.2383
X4.1046Y-4.7712
X4.1142Y-5.1496
X4.1294Y-4.685
X4.1482Y-5.0606
X4.1535Y-4.9508
X4.1693Y-5.3819
X4.1732Y-4.6752
X4.1801Y-4.2037
X4.1912Y-5.1575
X4.1921Y-5.2858
X4.2054Y-4.2806
X4.2083Y-5.2156
X4.2087Y-4.064
X4.2185Y-4.0118
X4.2283Y-4.3701
X4.2323Y-4.2323
X4.249Y-4.0581
X4.2539Y-5.0527
X4.2559Y-5.0037
X4.2579Y-4.3425
X4.258Y-4.6462
X4.2587Y-4.4113
X4.2664Y-4.5041
X4.2677Y-5.3937
X4.2835Y-4.9449
X4.2972Y-3.9941
X4.2973Y-4.1339
X4.2973Y-4.6455
X4.2982Y-4.8229
X4.3052Y-5.4124
X4.3071Y-4.563
X4.3071Y-4.4685
X4.3071Y-4.5079
X4.3071Y-4.6074
X4.311Y-5.5512
X4.3117Y-5.0657
X4.3192Y-4.8771
X4.3366Y-4.0188
X4.3415Y-4.2371
X4.3445Y-5.4102
X4.3465Y-5.0472
X4.3622Y-4.3701
X4.3622Y-4.4094
X4.3681Y-4.1348
X4.371Y-4.3317
X4.3711Y-3.9941
X4.3837Y-5.4073
X4.3858Y-4.7194
X4.3858Y-4.4488
X4.3858Y-5.4961
X4.3898Y-4.7638
X4.3967Y-4.2913
X4.3975Y-4.5826
X4.4016Y-4.9055
X4.4087Y-5.0209
X4.4154Y-4.0709
X4.4173Y-4.1831
X4.4173Y-5.2677
X4.4219Y-4.7036
X4.425Y-4.3825
X4.4296Y-4.9876
X4.4425Y-5.4618
X4.4523Y-4.5534
X4.4567Y-4.2756
X4.4685Y-4.6727
X4.4708Y-5.4221
X4.4783Y-4.6161
X4.4803Y-4.4803
X4.4922Y-5.2593
X4.498Y-4.7504
X4.5039Y-4.315
X4.5039Y-4.3622
X4.5039Y-4.4094
X4.5039Y-5.1102
X4.5187Y-4.5701
X4.5325Y-5.2461
X4.5355Y-3.9941
X4.5403Y-4.3
X4.5472Y-4.5374
X4.5512Y-5.4016
X4.5571Y-4.8228
X4.5669Y-4.9311
X4.5748Y-3.9892
X4.5768Y-4.6358
X4.5768Y-4.7343
X4.5925Y-4.5264
X4.5965Y-4.248
X4.6132Y-4.19
X4.6142Y-4.128
X4.624Y-4.3976
X4.625Y-3.9882
X4.6378Y-5.0787
X4.6898Y-4.6276
X4.6922Y-5.0973
X4.7067Y-4.189
X4.7441Y-5.1772
X4.7539Y-4.7343
X4.7638Y-4.9311
X4.813Y-4.5866
X4.8228Y-4.6949
X4.8229Y-4.8228
X4.8306Y-4.9841
X4.8602Y-4.0748
X4.8622Y-4.4144
X4.8622Y-5.1378
X4.8622Y-5.3051
X4.8681Y-4.2589
T4
X4.2766Y-5.1772
X4.3848Y-5.1772
X4.4734Y-5.1772
X4.5817Y-5.1772
T5
X4.0945Y-4.1289
X4.0945Y-5.4183
X4.7638Y-4.1289
X4.7638Y-5.4183
T3
G00X4.2541Y-5.2931
M15
G01X4.2541Y-5.3325
M16
G05
G00X4.2541Y-5.4943
M15
G01X4.2541Y-5.5533
M16
G05
G00X4.5943Y-5.2931
M15
G01X4.5943Y-5.3325
M16
G05
G00X4.5943Y-5.4943
M15
G01X4.5943Y-5.5533
M16
G05
T0
M30
