%TF.GenerationSoftware,KiCad,Pcbnew,7.0.1-3b83917a11~172~ubuntu22.04.1*%
%TF.CreationDate,2023-07-05T11:02:10+02:00*%
%TF.ProjectId,phyphox-newton,70687970-686f-4782-9d6e-6577746f6e2e,rev?*%
%TF.SameCoordinates,Original*%
%TF.FileFunction,Copper,L3,Inr*%
%TF.FilePolarity,Positive*%
%FSLAX46Y46*%
G04 Gerber Fmt 4.6, Leading zero omitted, Abs format (unit mm)*
G04 Created by KiCad (PCBNEW 7.0.1-3b83917a11~172~ubuntu22.04.1) date 2023-07-05 11:02:10*
%MOMM*%
%LPD*%
G01*
G04 APERTURE LIST*
%TA.AperFunction,ComponentPad*%
%ADD10C,2.500000*%
%TD*%
%TA.AperFunction,ComponentPad*%
%ADD11O,1.100000X2.100000*%
%TD*%
%TA.AperFunction,ComponentPad*%
%ADD12O,1.100000X2.600000*%
%TD*%
%TA.AperFunction,ComponentPad*%
%ADD13C,1.524000*%
%TD*%
%TA.AperFunction,ViaPad*%
%ADD14C,0.800000*%
%TD*%
%TA.AperFunction,ViaPad*%
%ADD15C,0.600000*%
%TD*%
G04 APERTURE END LIST*
D10*
%TO.N,N/C*%
%TO.C,H3*%
X121000000Y-137625000D03*
%TD*%
D11*
%TO.N,GND*%
%TO.C,J2*%
X108055000Y-134945000D03*
D12*
X108055000Y-140305000D03*
D11*
X116695000Y-134945000D03*
D12*
X116695000Y-140305000D03*
%TD*%
D13*
%TO.N,SC*%
%TO.C,C1*%
X111375000Y-131500000D03*
%TO.N,GND*%
X116375000Y-131500000D03*
%TD*%
D10*
%TO.N,N/C*%
%TO.C,H1*%
X104000000Y-104875000D03*
%TD*%
D13*
%TO.N,SC*%
%TO.C,C13*%
X113625000Y-131500000D03*
%TO.N,GND*%
X108625000Y-131500000D03*
%TD*%
D10*
%TO.N,N/C*%
%TO.C,H4*%
X104000000Y-137625000D03*
%TD*%
%TO.N,N/C*%
%TO.C,H2*%
X121000000Y-104875000D03*
%TD*%
D14*
%TO.N,VL53_DRY*%
X106000000Y-118750000D03*
%TO.N,SWDIO*%
X109400500Y-114500000D03*
X106816275Y-108728275D03*
X114775500Y-116081637D03*
%TO.N,SWDCLK*%
X115500000Y-115250000D03*
X109400500Y-113500000D03*
X107500000Y-107500000D03*
%TO.N,/USB_N*%
X102001354Y-137105651D03*
X108171232Y-112046087D03*
%TO.N,/USB_P*%
X112200000Y-133800000D03*
X107400000Y-111000000D03*
X101258890Y-137848115D03*
X112840000Y-138730000D03*
%TO.N,SWO*%
X116250000Y-117750000D03*
%TO.N,RESET*%
X107150000Y-101900000D03*
X116200000Y-101325000D03*
D15*
X103022553Y-115624779D03*
D14*
X117175000Y-106425000D03*
X119550000Y-106400000D03*
%TO.N,SC*%
X122250000Y-116500000D03*
X117800000Y-129000000D03*
X123500000Y-112125000D03*
%TO.N,SDA*%
X104100499Y-133052417D03*
X112396094Y-111315204D03*
X110150498Y-102077635D03*
X106891344Y-132476443D03*
X110800000Y-112000000D03*
X112511746Y-126684003D03*
%TO.N,SCL*%
X111800000Y-124600000D03*
X104500000Y-130800000D03*
X111025000Y-101450498D03*
X110800000Y-111000000D03*
X108367339Y-114403050D03*
X102750000Y-134250000D03*
X106480500Y-134258375D03*
%TO.N,VBUS*%
X111400000Y-139600000D03*
X109706886Y-123878901D03*
D15*
X103138498Y-116415828D03*
D14*
X109500000Y-141000000D03*
X111346278Y-137346278D03*
X108049264Y-128338000D03*
X100833641Y-119407960D03*
D15*
%TO.N,GND*%
X100690000Y-107720000D03*
D14*
X122697119Y-126597234D03*
X114400000Y-110800000D03*
D15*
X105990000Y-114720000D03*
X101090000Y-113620000D03*
D14*
X112150498Y-103400498D03*
X109174645Y-122500500D03*
D15*
X104890000Y-111220000D03*
D14*
X111980707Y-127530763D03*
D15*
X100690000Y-114120000D03*
X101090000Y-116620000D03*
D14*
X119120000Y-117540000D03*
D15*
X103490000Y-107720000D03*
D14*
X121000000Y-125250000D03*
X110275367Y-107622922D03*
X120750000Y-120250000D03*
X104257765Y-121189441D03*
D15*
X100690000Y-118520000D03*
X102790000Y-107720000D03*
D14*
X108400000Y-137000000D03*
X108150000Y-110300000D03*
D15*
X101090000Y-115620000D03*
D14*
X116750000Y-107900000D03*
X100750000Y-122000000D03*
D15*
X100690000Y-115120000D03*
X102090000Y-107720000D03*
D14*
X110950000Y-105025000D03*
X123650000Y-108175000D03*
X111400000Y-113000000D03*
X114250000Y-120660000D03*
D15*
X104890000Y-107720000D03*
D14*
X115600000Y-137200000D03*
X117475000Y-101300000D03*
D15*
X104890000Y-108420000D03*
D14*
X111675000Y-109000000D03*
D15*
X101390000Y-107720000D03*
X100690000Y-117820000D03*
X104890000Y-110520000D03*
D14*
X122500000Y-119250000D03*
D15*
X101090000Y-114620000D03*
D14*
X115750000Y-122500000D03*
X103838000Y-132088000D03*
D15*
X103290000Y-114720000D03*
D14*
X123500000Y-134750000D03*
X101911897Y-131088103D03*
X109150000Y-101450498D03*
X117449999Y-111699999D03*
X103995085Y-134046345D03*
D15*
X104890000Y-109820000D03*
X100690000Y-117120000D03*
D14*
X122500500Y-122500000D03*
X105500000Y-125750000D03*
X111500000Y-121000000D03*
D15*
X104190000Y-107720000D03*
D14*
X106175000Y-106775000D03*
X123500000Y-130500000D03*
X116250000Y-120250000D03*
D15*
X100690000Y-116120000D03*
X104890000Y-109120000D03*
D14*
X119182069Y-129471389D03*
X105364689Y-128539481D03*
X106900000Y-103225000D03*
X117200000Y-104850000D03*
X120500000Y-131500000D03*
X104887979Y-119000000D03*
%TO.N,LED_G*%
X108153202Y-118013000D03*
X103804296Y-126278253D03*
%TO.N,LED_B*%
X104050500Y-125100000D03*
X109400500Y-117027345D03*
%TO.N,LED_R*%
X103725500Y-128270000D03*
X109152553Y-117995604D03*
%TO.N,VEML_INT*%
X107925000Y-103075000D03*
%TO.N,BMP581_INT*%
X109400000Y-115900000D03*
X102802165Y-130633760D03*
%TO.N,BMI_INT_2*%
X113200000Y-108600000D03*
X111399500Y-119872463D03*
X113088000Y-115656185D03*
%TO.N,BMI_INT_1*%
X113750000Y-117250000D03*
X112315055Y-119471510D03*
X113800000Y-113800000D03*
%TO.N,VCC_DAM*%
X110349356Y-137418043D03*
X114102755Y-133585833D03*
X108800000Y-125600000D03*
%TO.N,1Wire_DAM*%
X115125000Y-133250000D03*
X109351508Y-137475500D03*
X109516652Y-128667655D03*
%TO.N,1Wire*%
X113500000Y-118687000D03*
X115324218Y-109219439D03*
X112200000Y-106250000D03*
X110400000Y-128200000D03*
%TO.N,CC2*%
X114400000Y-129800000D03*
X113559312Y-137720688D03*
%TO.N,VCC*%
X123450000Y-103500000D03*
X116000000Y-125250000D03*
X101996296Y-118696431D03*
X115201446Y-101449998D03*
X111697367Y-116397247D03*
X109150498Y-105000000D03*
X114400000Y-109600000D03*
X106455500Y-131000000D03*
X105900000Y-136700000D03*
X103700000Y-123700000D03*
X114400000Y-112000000D03*
X111023497Y-110025806D03*
X116650000Y-114970000D03*
X108100500Y-127093750D03*
%TD*%
%TA.AperFunction,Conductor*%
%TO.N,VCC*%
G36*
X108834862Y-100715527D02*
G01*
X108879689Y-100756965D01*
X108899312Y-100814771D01*
X108888974Y-100874935D01*
X108851180Y-100922876D01*
X108721717Y-101022215D01*
X108625463Y-101147657D01*
X108564956Y-101293735D01*
X108544317Y-101450497D01*
X108564956Y-101607260D01*
X108625463Y-101753338D01*
X108721717Y-101878780D01*
X108847159Y-101975034D01*
X108993238Y-102035542D01*
X109150000Y-102056180D01*
X109306762Y-102035542D01*
X109377953Y-102006053D01*
X109433514Y-101996880D01*
X109487404Y-102013228D01*
X109528506Y-102051724D01*
X109548343Y-102104429D01*
X109565454Y-102234397D01*
X109625961Y-102380475D01*
X109722215Y-102505917D01*
X109808380Y-102572033D01*
X109847657Y-102602171D01*
X109993736Y-102662679D01*
X110150498Y-102683317D01*
X110307260Y-102662679D01*
X110453339Y-102602171D01*
X110578780Y-102505917D01*
X110675034Y-102380476D01*
X110735542Y-102234397D01*
X110747351Y-102144694D01*
X110771914Y-102085394D01*
X110822838Y-102046320D01*
X110886471Y-102037942D01*
X111025000Y-102056180D01*
X111181762Y-102035542D01*
X111327841Y-101975034D01*
X111453282Y-101878780D01*
X111549536Y-101753339D01*
X111610044Y-101607260D01*
X111630682Y-101450498D01*
X111610044Y-101293736D01*
X111549536Y-101147657D01*
X111546145Y-101143238D01*
X111453282Y-101022215D01*
X111323820Y-100922876D01*
X111286026Y-100874935D01*
X111275688Y-100814771D01*
X111295311Y-100756965D01*
X111340138Y-100715527D01*
X111399306Y-100700500D01*
X115670834Y-100700500D01*
X115736314Y-100719199D01*
X115782046Y-100769656D01*
X115794237Y-100836654D01*
X115769210Y-100899986D01*
X115675463Y-101022159D01*
X115614956Y-101168237D01*
X115594317Y-101325000D01*
X115614956Y-101481762D01*
X115675463Y-101627840D01*
X115771717Y-101753282D01*
X115864578Y-101824536D01*
X115897159Y-101849536D01*
X116043238Y-101910044D01*
X116200000Y-101930682D01*
X116356762Y-101910044D01*
X116502841Y-101849536D01*
X116628282Y-101753282D01*
X116724536Y-101627841D01*
X116728273Y-101618816D01*
X116767347Y-101567894D01*
X116826649Y-101543330D01*
X116890287Y-101551708D01*
X116941211Y-101590783D01*
X117046717Y-101728282D01*
X117147944Y-101805955D01*
X117172159Y-101824536D01*
X117318238Y-101885044D01*
X117475000Y-101905682D01*
X117631762Y-101885044D01*
X117777841Y-101824536D01*
X117903282Y-101728282D01*
X117999536Y-101602841D01*
X118060044Y-101456762D01*
X118060044Y-101456761D01*
X118060939Y-101454601D01*
X118102614Y-101401735D01*
X118165771Y-101378435D01*
X118231795Y-101391568D01*
X118281227Y-101437263D01*
X118299500Y-101502053D01*
X118299500Y-101594484D01*
X118329058Y-101781113D01*
X118370951Y-101910044D01*
X118387453Y-101960832D01*
X118473240Y-102129199D01*
X118506880Y-102175500D01*
X118584309Y-102282073D01*
X118717926Y-102415690D01*
X118770982Y-102454237D01*
X118870801Y-102526760D01*
X119039168Y-102612547D01*
X119218882Y-102670940D01*
X119218883Y-102670940D01*
X119218886Y-102670941D01*
X119405516Y-102700500D01*
X119405519Y-102700500D01*
X119477410Y-102700500D01*
X119500000Y-102700500D01*
X119539882Y-102700500D01*
X124675500Y-102700500D01*
X124737500Y-102717113D01*
X124782887Y-102762500D01*
X124799500Y-102824500D01*
X124799500Y-139675500D01*
X124782887Y-139737500D01*
X124737500Y-139782887D01*
X124675500Y-139799500D01*
X119405516Y-139799500D01*
X119218886Y-139829058D01*
X119039167Y-139887453D01*
X119008969Y-139902840D01*
X118870801Y-139973240D01*
X118870798Y-139973241D01*
X118870798Y-139973242D01*
X118717926Y-140084309D01*
X118584309Y-140217926D01*
X118473242Y-140370798D01*
X118387453Y-140539167D01*
X118329058Y-140718886D01*
X118299500Y-140905516D01*
X118299500Y-141675500D01*
X118282887Y-141737500D01*
X118237500Y-141782887D01*
X118175500Y-141799500D01*
X117315916Y-141799500D01*
X117249291Y-141780080D01*
X117203534Y-141727904D01*
X117192977Y-141659314D01*
X117220926Y-141595795D01*
X117326302Y-141470214D01*
X117405040Y-141313433D01*
X117420015Y-141250249D01*
X117445500Y-141142723D01*
X117445500Y-139511296D01*
X117445500Y-139511291D01*
X117430241Y-139380745D01*
X117370237Y-139215883D01*
X117273830Y-139069304D01*
X117216225Y-139014956D01*
X117146219Y-138948908D01*
X116994281Y-138861188D01*
X116994280Y-138861187D01*
X116826210Y-138810870D01*
X116800156Y-138809352D01*
X116651065Y-138800668D01*
X116504188Y-138826567D01*
X116478289Y-138831135D01*
X116408618Y-138861188D01*
X116317195Y-138900623D01*
X116176469Y-139005390D01*
X116063699Y-139139783D01*
X115984958Y-139296570D01*
X115944500Y-139467277D01*
X115944500Y-139467279D01*
X115944500Y-141098709D01*
X115949645Y-141142723D01*
X115959759Y-141229257D01*
X116019762Y-141394116D01*
X116019763Y-141394117D01*
X116116170Y-141540696D01*
X116163176Y-141585044D01*
X116163454Y-141585306D01*
X116195367Y-141634449D01*
X116201152Y-141692758D01*
X116179518Y-141747214D01*
X116135295Y-141785656D01*
X116078359Y-141799500D01*
X109762409Y-141799500D01*
X109697619Y-141781227D01*
X109651924Y-141731795D01*
X109638791Y-141665771D01*
X109662091Y-141602614D01*
X109714957Y-141560939D01*
X109763832Y-141540694D01*
X109802841Y-141524536D01*
X109928282Y-141428282D01*
X110024536Y-141302841D01*
X110085044Y-141156762D01*
X110105682Y-141000000D01*
X110085044Y-140843238D01*
X110024536Y-140697159D01*
X110009057Y-140676986D01*
X109928282Y-140571717D01*
X109802840Y-140475463D01*
X109656762Y-140414956D01*
X109500000Y-140394317D01*
X109343237Y-140414956D01*
X109197159Y-140475463D01*
X109071717Y-140571717D01*
X109027876Y-140628854D01*
X108979936Y-140666647D01*
X108919771Y-140676986D01*
X108861965Y-140657363D01*
X108820527Y-140612536D01*
X108805500Y-140553368D01*
X108805500Y-139600000D01*
X110794317Y-139600000D01*
X110814956Y-139756762D01*
X110875463Y-139902840D01*
X110971717Y-140028282D01*
X111074759Y-140107348D01*
X111097159Y-140124536D01*
X111243238Y-140185044D01*
X111400000Y-140205682D01*
X111556762Y-140185044D01*
X111702841Y-140124536D01*
X111828282Y-140028282D01*
X111924536Y-139902841D01*
X111985044Y-139756762D01*
X112005682Y-139600000D01*
X111985044Y-139443238D01*
X111924536Y-139297159D01*
X111924082Y-139296567D01*
X111828282Y-139171717D01*
X111702840Y-139075463D01*
X111556762Y-139014956D01*
X111399999Y-138994317D01*
X111243237Y-139014956D01*
X111097159Y-139075463D01*
X110971717Y-139171717D01*
X110875463Y-139297159D01*
X110814956Y-139443237D01*
X110794317Y-139600000D01*
X108805500Y-139600000D01*
X108805500Y-139511296D01*
X108805500Y-139511291D01*
X108790241Y-139380745D01*
X108730237Y-139215883D01*
X108633830Y-139069304D01*
X108576225Y-139014956D01*
X108506219Y-138948908D01*
X108354281Y-138861188D01*
X108354280Y-138861187D01*
X108186210Y-138810870D01*
X108160156Y-138809352D01*
X108011065Y-138800668D01*
X107864188Y-138826567D01*
X107838289Y-138831135D01*
X107768618Y-138861188D01*
X107677195Y-138900623D01*
X107536469Y-139005390D01*
X107423699Y-139139783D01*
X107344958Y-139296570D01*
X107304500Y-139467277D01*
X107304500Y-139467279D01*
X107304500Y-141098709D01*
X107309645Y-141142723D01*
X107319759Y-141229257D01*
X107379762Y-141394116D01*
X107379763Y-141394117D01*
X107476170Y-141540696D01*
X107523176Y-141585044D01*
X107523454Y-141585306D01*
X107555367Y-141634449D01*
X107561152Y-141692758D01*
X107539518Y-141747214D01*
X107495295Y-141785656D01*
X107438359Y-141799500D01*
X106824500Y-141799500D01*
X106762500Y-141782887D01*
X106717113Y-141737500D01*
X106700500Y-141675500D01*
X106700500Y-140905516D01*
X106670941Y-140718886D01*
X106666666Y-140705728D01*
X106612547Y-140539168D01*
X106526760Y-140370801D01*
X106451428Y-140267116D01*
X106415690Y-140217926D01*
X106282073Y-140084309D01*
X106183248Y-140012509D01*
X106129199Y-139973240D01*
X105960832Y-139887453D01*
X105781113Y-139829058D01*
X105594484Y-139799500D01*
X105594481Y-139799500D01*
X105522590Y-139799500D01*
X100324500Y-139799500D01*
X100262500Y-139782887D01*
X100217113Y-139737500D01*
X100200500Y-139675500D01*
X100200500Y-137848114D01*
X100653207Y-137848114D01*
X100673846Y-138004877D01*
X100734353Y-138150955D01*
X100830607Y-138276397D01*
X100895734Y-138326370D01*
X100956049Y-138372651D01*
X101102128Y-138433159D01*
X101238251Y-138451079D01*
X101258889Y-138453797D01*
X101258889Y-138453796D01*
X101258890Y-138453797D01*
X101415652Y-138433159D01*
X101561731Y-138372651D01*
X101687172Y-138276397D01*
X101783426Y-138150956D01*
X101843934Y-138004877D01*
X101864572Y-137848115D01*
X101864572Y-137848114D01*
X101866703Y-137831930D01*
X101866785Y-137831940D01*
X101870446Y-137794770D01*
X101900185Y-137746946D01*
X101948009Y-137717207D01*
X101985179Y-137713546D01*
X101985169Y-137713464D01*
X102015838Y-137709426D01*
X102158116Y-137690695D01*
X102304195Y-137630187D01*
X102350269Y-137594832D01*
X102411053Y-137570083D01*
X102475957Y-137579824D01*
X102526797Y-137621328D01*
X102549332Y-137682968D01*
X102564379Y-137864558D01*
X102564379Y-137864561D01*
X102564380Y-137864563D01*
X102623390Y-138097591D01*
X102719951Y-138317728D01*
X102851429Y-138518969D01*
X103014236Y-138695825D01*
X103014239Y-138695827D01*
X103203927Y-138843468D01*
X103203929Y-138843469D01*
X103203933Y-138843472D01*
X103415344Y-138957882D01*
X103642703Y-139035934D01*
X103879808Y-139075500D01*
X104120191Y-139075500D01*
X104120192Y-139075500D01*
X104357297Y-139035934D01*
X104584656Y-138957882D01*
X104796067Y-138843472D01*
X104941856Y-138730000D01*
X112234317Y-138730000D01*
X112254956Y-138886762D01*
X112315463Y-139032840D01*
X112411717Y-139158282D01*
X112486785Y-139215883D01*
X112537159Y-139254536D01*
X112683238Y-139315044D01*
X112819361Y-139332964D01*
X112839999Y-139335682D01*
X112839999Y-139335681D01*
X112840000Y-139335682D01*
X112996762Y-139315044D01*
X113142841Y-139254536D01*
X113268282Y-139158282D01*
X113364536Y-139032841D01*
X113425044Y-138886762D01*
X113445682Y-138730000D01*
X113425044Y-138573238D01*
X113391336Y-138491859D01*
X113382958Y-138428221D01*
X113407522Y-138368920D01*
X113458446Y-138329845D01*
X113522080Y-138321468D01*
X113559312Y-138326370D01*
X113716074Y-138305732D01*
X113862153Y-138245224D01*
X113987594Y-138148970D01*
X114083848Y-138023529D01*
X114144356Y-137877450D01*
X114164994Y-137720688D01*
X114144356Y-137563926D01*
X114083848Y-137417847D01*
X114036976Y-137356762D01*
X113987594Y-137292405D01*
X113867167Y-137199999D01*
X114994317Y-137199999D01*
X115014956Y-137356762D01*
X115075463Y-137502840D01*
X115171717Y-137628282D01*
X115287608Y-137717207D01*
X115297159Y-137724536D01*
X115443238Y-137785044D01*
X115600000Y-137805682D01*
X115756762Y-137785044D01*
X115902841Y-137724536D01*
X116028282Y-137628282D01*
X116030800Y-137625000D01*
X119544528Y-137625000D01*
X119564379Y-137864558D01*
X119564379Y-137864561D01*
X119564380Y-137864563D01*
X119623390Y-138097591D01*
X119719951Y-138317728D01*
X119851429Y-138518969D01*
X120014236Y-138695825D01*
X120014239Y-138695827D01*
X120203927Y-138843468D01*
X120203929Y-138843469D01*
X120203933Y-138843472D01*
X120415344Y-138957882D01*
X120642703Y-139035934D01*
X120879808Y-139075500D01*
X121120191Y-139075500D01*
X121120192Y-139075500D01*
X121357297Y-139035934D01*
X121584656Y-138957882D01*
X121796067Y-138843472D01*
X121985764Y-138695825D01*
X122148571Y-138518969D01*
X122280049Y-138317728D01*
X122376610Y-138097591D01*
X122435620Y-137864563D01*
X122455471Y-137625000D01*
X122435620Y-137385437D01*
X122376610Y-137152409D01*
X122280049Y-136932272D01*
X122148571Y-136731031D01*
X121985764Y-136554175D01*
X121916119Y-136499968D01*
X121796072Y-136406531D01*
X121796068Y-136406528D01*
X121796067Y-136406528D01*
X121584656Y-136292118D01*
X121584655Y-136292117D01*
X121584652Y-136292116D01*
X121357299Y-136214066D01*
X121199226Y-136187688D01*
X121120192Y-136174500D01*
X120879808Y-136174500D01*
X120820531Y-136184391D01*
X120642700Y-136214066D01*
X120415347Y-136292116D01*
X120203927Y-136406531D01*
X120014239Y-136554172D01*
X120014236Y-136554174D01*
X120014236Y-136554175D01*
X119851429Y-136731031D01*
X119742892Y-136897159D01*
X119719950Y-136932274D01*
X119712662Y-136948889D01*
X119623390Y-137152409D01*
X119574297Y-137346277D01*
X119564379Y-137385441D01*
X119544528Y-137625000D01*
X116030800Y-137625000D01*
X116124536Y-137502841D01*
X116185044Y-137356762D01*
X116205682Y-137200000D01*
X116205175Y-137196152D01*
X116200284Y-137158999D01*
X116185044Y-137043238D01*
X116124536Y-136897159D01*
X116101527Y-136867173D01*
X116028282Y-136771717D01*
X115902840Y-136675463D01*
X115756762Y-136614956D01*
X115600000Y-136594317D01*
X115443237Y-136614956D01*
X115297159Y-136675463D01*
X115171717Y-136771717D01*
X115075463Y-136897159D01*
X115014956Y-137043237D01*
X114994317Y-137199999D01*
X113867167Y-137199999D01*
X113862152Y-137196151D01*
X113716074Y-137135644D01*
X113559311Y-137115005D01*
X113402549Y-137135644D01*
X113256471Y-137196151D01*
X113131029Y-137292405D01*
X113034775Y-137417847D01*
X112974268Y-137563925D01*
X112953629Y-137720687D01*
X112974268Y-137877450D01*
X113007975Y-137958828D01*
X113016353Y-138022466D01*
X112991790Y-138081767D01*
X112940867Y-138120841D01*
X112877229Y-138129219D01*
X112840000Y-138124317D01*
X112683237Y-138144956D01*
X112537159Y-138205463D01*
X112411717Y-138301717D01*
X112315463Y-138427159D01*
X112254956Y-138573237D01*
X112234317Y-138730000D01*
X104941856Y-138730000D01*
X104985764Y-138695825D01*
X105148571Y-138518969D01*
X105280049Y-138317728D01*
X105376610Y-138097591D01*
X105435620Y-137864563D01*
X105455471Y-137625000D01*
X105435620Y-137385437D01*
X105376610Y-137152409D01*
X105309757Y-137000000D01*
X107794317Y-137000000D01*
X107814956Y-137156762D01*
X107875463Y-137302840D01*
X107971717Y-137428282D01*
X108068884Y-137502840D01*
X108097159Y-137524536D01*
X108243238Y-137585044D01*
X108400000Y-137605682D01*
X108556762Y-137585044D01*
X108604502Y-137565269D01*
X108668136Y-137556892D01*
X108727437Y-137581455D01*
X108766512Y-137632378D01*
X108826972Y-137778341D01*
X108923225Y-137903782D01*
X109048666Y-138000035D01*
X109048667Y-138000036D01*
X109194746Y-138060544D01*
X109351508Y-138081182D01*
X109508270Y-138060544D01*
X109654349Y-138000036D01*
X109779790Y-137903782D01*
X109784409Y-137897761D01*
X109835332Y-137858685D01*
X109898971Y-137850306D01*
X109958273Y-137874869D01*
X110046514Y-137942578D01*
X110046515Y-137942579D01*
X110192594Y-138003087D01*
X110349356Y-138023725D01*
X110506118Y-138003087D01*
X110652197Y-137942579D01*
X110777638Y-137846325D01*
X110788826Y-137831743D01*
X110839748Y-137792670D01*
X110903386Y-137784291D01*
X110962688Y-137808854D01*
X111043437Y-137870814D01*
X111189516Y-137931322D01*
X111325639Y-137949242D01*
X111346277Y-137951960D01*
X111346277Y-137951959D01*
X111346278Y-137951960D01*
X111503040Y-137931322D01*
X111649119Y-137870814D01*
X111774560Y-137774560D01*
X111870814Y-137649119D01*
X111931322Y-137503040D01*
X111951960Y-137346278D01*
X111931322Y-137189516D01*
X111870814Y-137043437D01*
X111826296Y-136985420D01*
X111774560Y-136917995D01*
X111649118Y-136821741D01*
X111503040Y-136761234D01*
X111346278Y-136740595D01*
X111189515Y-136761234D01*
X111043437Y-136821741D01*
X110917995Y-136917996D01*
X110906805Y-136932579D01*
X110855882Y-136971652D01*
X110792245Y-136980029D01*
X110732945Y-136955466D01*
X110652196Y-136893506D01*
X110506118Y-136832999D01*
X110349356Y-136812360D01*
X110192593Y-136832999D01*
X110046515Y-136893506D01*
X109921073Y-136989761D01*
X109916450Y-136995786D01*
X109865527Y-137034859D01*
X109801890Y-137043236D01*
X109742590Y-137018673D01*
X109654348Y-136950963D01*
X109508270Y-136890456D01*
X109351508Y-136869817D01*
X109212983Y-136888054D01*
X109194746Y-136890456D01*
X109161069Y-136904405D01*
X109147007Y-136910230D01*
X109083370Y-136918607D01*
X109024069Y-136894043D01*
X108984995Y-136843120D01*
X108938567Y-136731034D01*
X108924536Y-136697159D01*
X108907888Y-136675463D01*
X108828282Y-136571717D01*
X108702840Y-136475463D01*
X108556762Y-136414956D01*
X108399999Y-136394317D01*
X108347192Y-136401270D01*
X108288879Y-136394955D01*
X108265235Y-136379281D01*
X108258685Y-136392939D01*
X108210571Y-136428487D01*
X108097158Y-136475464D01*
X107971717Y-136571717D01*
X107875463Y-136697159D01*
X107814956Y-136843237D01*
X107794317Y-137000000D01*
X105309757Y-137000000D01*
X105280049Y-136932272D01*
X105148571Y-136731031D01*
X104985764Y-136554175D01*
X104916119Y-136499968D01*
X104796072Y-136406531D01*
X104796068Y-136406528D01*
X104796067Y-136406528D01*
X104584656Y-136292118D01*
X104584655Y-136292117D01*
X104584652Y-136292116D01*
X104357299Y-136214066D01*
X104199226Y-136187688D01*
X104120192Y-136174500D01*
X103879808Y-136174500D01*
X103820531Y-136184391D01*
X103642700Y-136214066D01*
X103415347Y-136292116D01*
X103203927Y-136406531D01*
X103014239Y-136554172D01*
X103014236Y-136554174D01*
X103014236Y-136554175D01*
X102998087Y-136571718D01*
X102851426Y-136731034D01*
X102762482Y-136867173D01*
X102712558Y-136911032D01*
X102647157Y-136922815D01*
X102585065Y-136899139D01*
X102544113Y-136846804D01*
X102529846Y-136812361D01*
X102525890Y-136802810D01*
X102478151Y-136740595D01*
X102429636Y-136677368D01*
X102304194Y-136581114D01*
X102158116Y-136520607D01*
X102001354Y-136499968D01*
X101844591Y-136520607D01*
X101698513Y-136581114D01*
X101573071Y-136677368D01*
X101476817Y-136802810D01*
X101416310Y-136948888D01*
X101393541Y-137121836D01*
X101393457Y-137121825D01*
X101389795Y-137158999D01*
X101360058Y-137206819D01*
X101312238Y-137236556D01*
X101275064Y-137240218D01*
X101275075Y-137240302D01*
X101102127Y-137263071D01*
X100956049Y-137323578D01*
X100830607Y-137419832D01*
X100734353Y-137545274D01*
X100673846Y-137691352D01*
X100653207Y-137848114D01*
X100200500Y-137848114D01*
X100200500Y-134249999D01*
X102144317Y-134249999D01*
X102164956Y-134406762D01*
X102225463Y-134552840D01*
X102321717Y-134678282D01*
X102415183Y-134750000D01*
X102447159Y-134774536D01*
X102593238Y-134835044D01*
X102729360Y-134852964D01*
X102749999Y-134855682D01*
X102749999Y-134855681D01*
X102750000Y-134855682D01*
X102906762Y-134835044D01*
X103052841Y-134774536D01*
X103178282Y-134678282D01*
X103274536Y-134552841D01*
X103315846Y-134453109D01*
X103354919Y-134402188D01*
X103414221Y-134377624D01*
X103477859Y-134386002D01*
X103528782Y-134425077D01*
X103566802Y-134474627D01*
X103668732Y-134552840D01*
X103692244Y-134570881D01*
X103838323Y-134631389D01*
X103974445Y-134649309D01*
X103995084Y-134652027D01*
X103995084Y-134652026D01*
X103995085Y-134652027D01*
X104151847Y-134631389D01*
X104297926Y-134570881D01*
X104423367Y-134474627D01*
X104519621Y-134349186D01*
X104557236Y-134258375D01*
X105874817Y-134258375D01*
X105895456Y-134415137D01*
X105955963Y-134561215D01*
X106052217Y-134686657D01*
X106134768Y-134750000D01*
X106177659Y-134782911D01*
X106323738Y-134843419D01*
X106459860Y-134861339D01*
X106480499Y-134864057D01*
X106480499Y-134864056D01*
X106480500Y-134864057D01*
X106637262Y-134843419D01*
X106783341Y-134782911D01*
X106908782Y-134686657D01*
X107005036Y-134561216D01*
X107065544Y-134415137D01*
X107065544Y-134415136D01*
X107065939Y-134414183D01*
X107107614Y-134361317D01*
X107138913Y-134349770D01*
X107229859Y-134349770D01*
X107236795Y-134351150D01*
X107286227Y-134396845D01*
X107304500Y-134461635D01*
X107304500Y-135488709D01*
X107309645Y-135532723D01*
X107319759Y-135619257D01*
X107379762Y-135784116D01*
X107476170Y-135930696D01*
X107603780Y-136051091D01*
X107603782Y-136051092D01*
X107755719Y-136138812D01*
X107923790Y-136189130D01*
X108075231Y-136197950D01*
X108098932Y-136199331D01*
X108098932Y-136199330D01*
X108098935Y-136199331D01*
X108141586Y-136191810D01*
X108201263Y-136195939D01*
X108228714Y-136213008D01*
X108235059Y-136199782D01*
X108281892Y-136164473D01*
X108432804Y-136099377D01*
X108573530Y-135994610D01*
X108686302Y-135860214D01*
X108765040Y-135703433D01*
X108765041Y-135703429D01*
X108805500Y-135532723D01*
X108805500Y-135488709D01*
X115944500Y-135488709D01*
X115949645Y-135532723D01*
X115959759Y-135619257D01*
X116019762Y-135784116D01*
X116116170Y-135930696D01*
X116243780Y-136051091D01*
X116243782Y-136051092D01*
X116395719Y-136138812D01*
X116563790Y-136189130D01*
X116730250Y-136198825D01*
X116738934Y-136199331D01*
X116738934Y-136199330D01*
X116738935Y-136199331D01*
X116911711Y-136168865D01*
X117072804Y-136099377D01*
X117213530Y-135994610D01*
X117326302Y-135860214D01*
X117405040Y-135703433D01*
X117405041Y-135703429D01*
X117445500Y-135532723D01*
X117445500Y-134750000D01*
X122894317Y-134750000D01*
X122914956Y-134906762D01*
X122975463Y-135052840D01*
X123071717Y-135178282D01*
X123197159Y-135274536D01*
X123343238Y-135335044D01*
X123500000Y-135355682D01*
X123656762Y-135335044D01*
X123802841Y-135274536D01*
X123928282Y-135178282D01*
X124024536Y-135052841D01*
X124085044Y-134906762D01*
X124105682Y-134750000D01*
X124085044Y-134593238D01*
X124024536Y-134447159D01*
X123999233Y-134414183D01*
X123928282Y-134321717D01*
X123802840Y-134225463D01*
X123656762Y-134164956D01*
X123500000Y-134144317D01*
X123343237Y-134164956D01*
X123197159Y-134225463D01*
X123071717Y-134321717D01*
X122975463Y-134447159D01*
X122914956Y-134593237D01*
X122894317Y-134750000D01*
X117445500Y-134750000D01*
X117445500Y-134401296D01*
X117445500Y-134401291D01*
X117430241Y-134270745D01*
X117370237Y-134105883D01*
X117273830Y-133959304D01*
X117230814Y-133918720D01*
X117146219Y-133838908D01*
X116994281Y-133751188D01*
X116968615Y-133743504D01*
X116826210Y-133700870D01*
X116800156Y-133699352D01*
X116651065Y-133690668D01*
X116504188Y-133716567D01*
X116478289Y-133721135D01*
X116408618Y-133751188D01*
X116317195Y-133790623D01*
X116176469Y-133895390D01*
X116063699Y-134029783D01*
X115984958Y-134186570D01*
X115944500Y-134357277D01*
X115944500Y-134357279D01*
X115944500Y-135488709D01*
X108805500Y-135488709D01*
X108805500Y-134401296D01*
X108805500Y-134401291D01*
X108790241Y-134270745D01*
X108730237Y-134105883D01*
X108633830Y-133959304D01*
X108590814Y-133918720D01*
X108506219Y-133838908D01*
X108438827Y-133800000D01*
X111594317Y-133800000D01*
X111614956Y-133956762D01*
X111675463Y-134102840D01*
X111771717Y-134228282D01*
X111897159Y-134324536D01*
X112043238Y-134385044D01*
X112179360Y-134402964D01*
X112199999Y-134405682D01*
X112199999Y-134405681D01*
X112200000Y-134405682D01*
X112356762Y-134385044D01*
X112502841Y-134324536D01*
X112628282Y-134228282D01*
X112724536Y-134102841D01*
X112785044Y-133956762D01*
X112805682Y-133800000D01*
X112785044Y-133643238D01*
X112761266Y-133585832D01*
X113497072Y-133585832D01*
X113517711Y-133742595D01*
X113578218Y-133888673D01*
X113674472Y-134014115D01*
X113777587Y-134093237D01*
X113799914Y-134110369D01*
X113945993Y-134170877D01*
X114082115Y-134188797D01*
X114102754Y-134191515D01*
X114102754Y-134191514D01*
X114102755Y-134191515D01*
X114259517Y-134170877D01*
X114405596Y-134110369D01*
X114531037Y-134014115D01*
X114627291Y-133888674D01*
X114648731Y-133836912D01*
X114687802Y-133785993D01*
X114747104Y-133761429D01*
X114810743Y-133769807D01*
X114822158Y-133774535D01*
X114822159Y-133774536D01*
X114968238Y-133835044D01*
X115125000Y-133855682D01*
X115281762Y-133835044D01*
X115427841Y-133774536D01*
X115553282Y-133678282D01*
X115649536Y-133552841D01*
X115710044Y-133406762D01*
X115730682Y-133250000D01*
X115710044Y-133093238D01*
X115649536Y-132947159D01*
X115649535Y-132947158D01*
X115553282Y-132821717D01*
X115427840Y-132725463D01*
X115281762Y-132664956D01*
X115125000Y-132644317D01*
X114968237Y-132664956D01*
X114822159Y-132725463D01*
X114696717Y-132821717D01*
X114600464Y-132947158D01*
X114579025Y-132998917D01*
X114539951Y-133049840D01*
X114480650Y-133074403D01*
X114417012Y-133066025D01*
X114259517Y-133000789D01*
X114102755Y-132980150D01*
X113945992Y-133000789D01*
X113799914Y-133061296D01*
X113674472Y-133157550D01*
X113578218Y-133282992D01*
X113517711Y-133429070D01*
X113497072Y-133585832D01*
X112761266Y-133585832D01*
X112724536Y-133497159D01*
X112709198Y-133477170D01*
X112628282Y-133371717D01*
X112502840Y-133275463D01*
X112356762Y-133214956D01*
X112200000Y-133194317D01*
X112043237Y-133214956D01*
X111897159Y-133275463D01*
X111771717Y-133371717D01*
X111675463Y-133497159D01*
X111614956Y-133643237D01*
X111594317Y-133800000D01*
X108438827Y-133800000D01*
X108354281Y-133751188D01*
X108328615Y-133743504D01*
X108186210Y-133700870D01*
X108160156Y-133699352D01*
X108011065Y-133690668D01*
X107864188Y-133716567D01*
X107838289Y-133721135D01*
X107768618Y-133751188D01*
X107677195Y-133790623D01*
X107536469Y-133895390D01*
X107423699Y-134029783D01*
X107344958Y-134186570D01*
X107328071Y-134257823D01*
X107294839Y-134317163D01*
X107235307Y-134350048D01*
X107229859Y-134349770D01*
X107138913Y-134349770D01*
X107160495Y-134341808D01*
X107111503Y-134307821D01*
X107084475Y-134245411D01*
X107081849Y-134225463D01*
X107065544Y-134101613D01*
X107005036Y-133955534D01*
X106957940Y-133894157D01*
X106908782Y-133830092D01*
X106783340Y-133733838D01*
X106637262Y-133673331D01*
X106480500Y-133652692D01*
X106323737Y-133673331D01*
X106177659Y-133733838D01*
X106052217Y-133830092D01*
X105955963Y-133955534D01*
X105895456Y-134101612D01*
X105874817Y-134258375D01*
X104557236Y-134258375D01*
X104580129Y-134203107D01*
X104600767Y-134046345D01*
X104580129Y-133889583D01*
X104519621Y-133743504D01*
X104512204Y-133733838D01*
X104471577Y-133680891D01*
X104447014Y-133621590D01*
X104455392Y-133557952D01*
X104494467Y-133507029D01*
X104494945Y-133506661D01*
X104528781Y-133480699D01*
X104625035Y-133355258D01*
X104685543Y-133209179D01*
X104706181Y-133052417D01*
X104685543Y-132895655D01*
X104625035Y-132749576D01*
X104606533Y-132725464D01*
X104528781Y-132624134D01*
X104404790Y-132528993D01*
X104370287Y-132487874D01*
X104367224Y-132476443D01*
X106285661Y-132476443D01*
X106306300Y-132633205D01*
X106366807Y-132779283D01*
X106463061Y-132904725D01*
X106518363Y-132947159D01*
X106588503Y-133000979D01*
X106734582Y-133061487D01*
X106891344Y-133082125D01*
X107048106Y-133061487D01*
X107194185Y-133000979D01*
X107319626Y-132904725D01*
X107415880Y-132779284D01*
X107476388Y-132633205D01*
X107497026Y-132476443D01*
X107476388Y-132319681D01*
X107415880Y-132173602D01*
X107415879Y-132173601D01*
X107319626Y-132048160D01*
X107194184Y-131951906D01*
X107048106Y-131891399D01*
X106891344Y-131870760D01*
X106734581Y-131891399D01*
X106588503Y-131951906D01*
X106463061Y-132048160D01*
X106366807Y-132173602D01*
X106306300Y-132319680D01*
X106285661Y-132476443D01*
X104367224Y-132476443D01*
X104356394Y-132436026D01*
X104365714Y-132383167D01*
X104423044Y-132244762D01*
X104443682Y-132088000D01*
X104423044Y-131931238D01*
X104362536Y-131785159D01*
X104266282Y-131659717D01*
X104145385Y-131566950D01*
X104125869Y-131542635D01*
X104069676Y-131533986D01*
X103994762Y-131502956D01*
X103972302Y-131499999D01*
X107657843Y-131499999D01*
X107676426Y-131688681D01*
X107731464Y-131870117D01*
X107762554Y-131928282D01*
X107820838Y-132037324D01*
X107941117Y-132183883D01*
X108087676Y-132304162D01*
X108254885Y-132393537D01*
X108436317Y-132448573D01*
X108625000Y-132467157D01*
X108813683Y-132448573D01*
X108995115Y-132393537D01*
X109162324Y-132304162D01*
X109308883Y-132183883D01*
X109429162Y-132037324D01*
X109518537Y-131870115D01*
X109573573Y-131688683D01*
X109592157Y-131500000D01*
X109592157Y-131499999D01*
X110407843Y-131499999D01*
X110426426Y-131688681D01*
X110481464Y-131870117D01*
X110512554Y-131928282D01*
X110570838Y-132037324D01*
X110691117Y-132183883D01*
X110837676Y-132304162D01*
X111004885Y-132393537D01*
X111186317Y-132448573D01*
X111375000Y-132467157D01*
X111563683Y-132448573D01*
X111745115Y-132393537D01*
X111912324Y-132304162D01*
X112058883Y-132183883D01*
X112179162Y-132037324D01*
X112268537Y-131870115D01*
X112323573Y-131688683D01*
X112342157Y-131500000D01*
X112342157Y-131499999D01*
X112657843Y-131499999D01*
X112676426Y-131688681D01*
X112731464Y-131870117D01*
X112762554Y-131928282D01*
X112820838Y-132037324D01*
X112941117Y-132183883D01*
X113087676Y-132304162D01*
X113254885Y-132393537D01*
X113436317Y-132448573D01*
X113625000Y-132467157D01*
X113813683Y-132448573D01*
X113995115Y-132393537D01*
X114162324Y-132304162D01*
X114308883Y-132183883D01*
X114429162Y-132037324D01*
X114518537Y-131870115D01*
X114573573Y-131688683D01*
X114592157Y-131500000D01*
X114592157Y-131499999D01*
X115407843Y-131499999D01*
X115426426Y-131688681D01*
X115481464Y-131870117D01*
X115512554Y-131928282D01*
X115570838Y-132037324D01*
X115691117Y-132183883D01*
X115837676Y-132304162D01*
X116004885Y-132393537D01*
X116186317Y-132448573D01*
X116375000Y-132467157D01*
X116563683Y-132448573D01*
X116745115Y-132393537D01*
X116912324Y-132304162D01*
X117058883Y-132183883D01*
X117179162Y-132037324D01*
X117268537Y-131870115D01*
X117323573Y-131688683D01*
X117342157Y-131500000D01*
X119894317Y-131500000D01*
X119914956Y-131656762D01*
X119975463Y-131802840D01*
X120071717Y-131928282D01*
X120197158Y-132024535D01*
X120197159Y-132024536D01*
X120343238Y-132085044D01*
X120500000Y-132105682D01*
X120656762Y-132085044D01*
X120802841Y-132024536D01*
X120928282Y-131928282D01*
X121024536Y-131802841D01*
X121085044Y-131656762D01*
X121105682Y-131500000D01*
X121085044Y-131343238D01*
X121024536Y-131197159D01*
X120997432Y-131161836D01*
X120928282Y-131071717D01*
X120802840Y-130975463D01*
X120656762Y-130914956D01*
X120500000Y-130894317D01*
X120343237Y-130914956D01*
X120197159Y-130975463D01*
X120071717Y-131071717D01*
X119975463Y-131197159D01*
X119914956Y-131343237D01*
X119894317Y-131500000D01*
X117342157Y-131500000D01*
X117323573Y-131311317D01*
X117268537Y-131129885D01*
X117179162Y-130962676D01*
X117058883Y-130816117D01*
X116912324Y-130695838D01*
X116745115Y-130606463D01*
X116654398Y-130578944D01*
X116563681Y-130551426D01*
X116375000Y-130532843D01*
X116186318Y-130551426D01*
X116004882Y-130606464D01*
X115837677Y-130695837D01*
X115691117Y-130816117D01*
X115570837Y-130962677D01*
X115481464Y-131129882D01*
X115426426Y-131311318D01*
X115407843Y-131499999D01*
X114592157Y-131499999D01*
X114573573Y-131311317D01*
X114518537Y-131129885D01*
X114429162Y-130962676D01*
X114308883Y-130816117D01*
X114162324Y-130695838D01*
X113995115Y-130606463D01*
X113904398Y-130578944D01*
X113813681Y-130551426D01*
X113625000Y-130532843D01*
X113436318Y-130551426D01*
X113254882Y-130606464D01*
X113087677Y-130695837D01*
X112941117Y-130816117D01*
X112820837Y-130962677D01*
X112731464Y-131129882D01*
X112676426Y-131311318D01*
X112657843Y-131499999D01*
X112342157Y-131499999D01*
X112323573Y-131311317D01*
X112268537Y-131129885D01*
X112179162Y-130962676D01*
X112058883Y-130816117D01*
X111912324Y-130695838D01*
X111745115Y-130606463D01*
X111654398Y-130578944D01*
X111563681Y-130551426D01*
X111375000Y-130532843D01*
X111186318Y-130551426D01*
X111004882Y-130606464D01*
X110837677Y-130695837D01*
X110691117Y-130816117D01*
X110570837Y-130962677D01*
X110481464Y-131129882D01*
X110426426Y-131311318D01*
X110407843Y-131499999D01*
X109592157Y-131499999D01*
X109573573Y-131311317D01*
X109518537Y-131129885D01*
X109429162Y-130962676D01*
X109308883Y-130816117D01*
X109162324Y-130695838D01*
X108995115Y-130606463D01*
X108904398Y-130578944D01*
X108813681Y-130551426D01*
X108625000Y-130532843D01*
X108436318Y-130551426D01*
X108254882Y-130606464D01*
X108087677Y-130695837D01*
X107941117Y-130816117D01*
X107820837Y-130962677D01*
X107731464Y-131129882D01*
X107676426Y-131311318D01*
X107657843Y-131499999D01*
X103972302Y-131499999D01*
X103838000Y-131482317D01*
X103681237Y-131502956D01*
X103535159Y-131563463D01*
X103409717Y-131659717D01*
X103313463Y-131785159D01*
X103252956Y-131931237D01*
X103232317Y-132087999D01*
X103252956Y-132244762D01*
X103313463Y-132390840D01*
X103409717Y-132516282D01*
X103533708Y-132611423D01*
X103568211Y-132652542D01*
X103582104Y-132704390D01*
X103572783Y-132757251D01*
X103515455Y-132895654D01*
X103494816Y-133052417D01*
X103515455Y-133209179D01*
X103575962Y-133355257D01*
X103624006Y-133417870D01*
X103648569Y-133477170D01*
X103640192Y-133540808D01*
X103601118Y-133591731D01*
X103566802Y-133618063D01*
X103470548Y-133743503D01*
X103429239Y-133843234D01*
X103390164Y-133894157D01*
X103330863Y-133918720D01*
X103267225Y-133910342D01*
X103216302Y-133871267D01*
X103191472Y-133838908D01*
X103178282Y-133821718D01*
X103149978Y-133800000D01*
X103052840Y-133725463D01*
X102906762Y-133664956D01*
X102750000Y-133644317D01*
X102593237Y-133664956D01*
X102447159Y-133725463D01*
X102321717Y-133821717D01*
X102225463Y-133947159D01*
X102164956Y-134093237D01*
X102144317Y-134249999D01*
X100200500Y-134249999D01*
X100200500Y-131088102D01*
X101306214Y-131088102D01*
X101326853Y-131244865D01*
X101387360Y-131390943D01*
X101483614Y-131516385D01*
X101609056Y-131612639D01*
X101755135Y-131673147D01*
X101891258Y-131691067D01*
X101911896Y-131693785D01*
X101911896Y-131693784D01*
X101911897Y-131693785D01*
X102068659Y-131673147D01*
X102214738Y-131612639D01*
X102340179Y-131516385D01*
X102436433Y-131390944D01*
X102480444Y-131284691D01*
X102519518Y-131233769D01*
X102578820Y-131209206D01*
X102642457Y-131217583D01*
X102645403Y-131218804D01*
X102783927Y-131237040D01*
X102802164Y-131239442D01*
X102802164Y-131239441D01*
X102802165Y-131239442D01*
X102958927Y-131218804D01*
X103105006Y-131158296D01*
X103230447Y-131062042D01*
X103326701Y-130936601D01*
X103383283Y-130799999D01*
X103894317Y-130799999D01*
X103914956Y-130956762D01*
X103975463Y-131102840D01*
X104071717Y-131228282D01*
X104192614Y-131321049D01*
X104212128Y-131345363D01*
X104268321Y-131354012D01*
X104343238Y-131385044D01*
X104500000Y-131405682D01*
X104656762Y-131385044D01*
X104802841Y-131324536D01*
X104928282Y-131228282D01*
X105024536Y-131102841D01*
X105085044Y-130956762D01*
X105105682Y-130800000D01*
X105085044Y-130643238D01*
X105025712Y-130499999D01*
X122894317Y-130499999D01*
X122914956Y-130656762D01*
X122975463Y-130802840D01*
X123071717Y-130928282D01*
X123197158Y-131024535D01*
X123197159Y-131024536D01*
X123343238Y-131085044D01*
X123500000Y-131105682D01*
X123656762Y-131085044D01*
X123802841Y-131024536D01*
X123928282Y-130928282D01*
X124024536Y-130802841D01*
X124085044Y-130656762D01*
X124105682Y-130500000D01*
X124085044Y-130343238D01*
X124024536Y-130197159D01*
X124022355Y-130194317D01*
X123928282Y-130071717D01*
X123802840Y-129975463D01*
X123656762Y-129914956D01*
X123499999Y-129894317D01*
X123343237Y-129914956D01*
X123197159Y-129975463D01*
X123071717Y-130071717D01*
X122975463Y-130197159D01*
X122914956Y-130343237D01*
X122894317Y-130499999D01*
X105025712Y-130499999D01*
X105024536Y-130497159D01*
X104978506Y-130437171D01*
X104928282Y-130371717D01*
X104802840Y-130275463D01*
X104656762Y-130214956D01*
X104500000Y-130194317D01*
X104343237Y-130214956D01*
X104197159Y-130275463D01*
X104071717Y-130371717D01*
X103975463Y-130497159D01*
X103914956Y-130643237D01*
X103894317Y-130799999D01*
X103383283Y-130799999D01*
X103387209Y-130790522D01*
X103407847Y-130633760D01*
X103387209Y-130476998D01*
X103326701Y-130330919D01*
X103284149Y-130275464D01*
X103230447Y-130205477D01*
X103105005Y-130109223D01*
X102958927Y-130048716D01*
X102802165Y-130028077D01*
X102645402Y-130048716D01*
X102499324Y-130109223D01*
X102373882Y-130205477D01*
X102277628Y-130330918D01*
X102233617Y-130437171D01*
X102194542Y-130488094D01*
X102135241Y-130512657D01*
X102071604Y-130504279D01*
X102068659Y-130503059D01*
X102035984Y-130498757D01*
X101911897Y-130482420D01*
X101755134Y-130503059D01*
X101609056Y-130563566D01*
X101483614Y-130659820D01*
X101387360Y-130785262D01*
X101326853Y-130931340D01*
X101306214Y-131088102D01*
X100200500Y-131088102D01*
X100200500Y-129800000D01*
X113794317Y-129800000D01*
X113814956Y-129956762D01*
X113875463Y-130102840D01*
X113971717Y-130228282D01*
X114097158Y-130324535D01*
X114097159Y-130324536D01*
X114243238Y-130385044D01*
X114400000Y-130405682D01*
X114556762Y-130385044D01*
X114702841Y-130324536D01*
X114828282Y-130228282D01*
X114924536Y-130102841D01*
X114985044Y-129956762D01*
X115005682Y-129800000D01*
X114985044Y-129643238D01*
X114924536Y-129497159D01*
X114871685Y-129428282D01*
X114828282Y-129371717D01*
X114702840Y-129275463D01*
X114556762Y-129214956D01*
X114400000Y-129194317D01*
X114243237Y-129214956D01*
X114097159Y-129275463D01*
X113971717Y-129371717D01*
X113875463Y-129497159D01*
X113814956Y-129643237D01*
X113794317Y-129800000D01*
X100200500Y-129800000D01*
X100200500Y-128270000D01*
X103119817Y-128270000D01*
X103140456Y-128426762D01*
X103200963Y-128572840D01*
X103297217Y-128698282D01*
X103410286Y-128785042D01*
X103422659Y-128794536D01*
X103568738Y-128855044D01*
X103725500Y-128875682D01*
X103882262Y-128855044D01*
X104028341Y-128794536D01*
X104153782Y-128698282D01*
X104250036Y-128572841D01*
X104263854Y-128539481D01*
X104759006Y-128539481D01*
X104779645Y-128696243D01*
X104840152Y-128842321D01*
X104936406Y-128967763D01*
X104978419Y-129000000D01*
X105061848Y-129064017D01*
X105207927Y-129124525D01*
X105364689Y-129145163D01*
X105521451Y-129124525D01*
X105667530Y-129064017D01*
X105792971Y-128967763D01*
X105889225Y-128842322D01*
X105949733Y-128696243D01*
X105970371Y-128539481D01*
X105949733Y-128382719D01*
X105931210Y-128338000D01*
X107443581Y-128338000D01*
X107464220Y-128494762D01*
X107524727Y-128640840D01*
X107620981Y-128766282D01*
X107721272Y-128843237D01*
X107746423Y-128862536D01*
X107892502Y-128923044D01*
X108049264Y-128943682D01*
X108206026Y-128923044D01*
X108352105Y-128862536D01*
X108477546Y-128766282D01*
X108553226Y-128667654D01*
X108910969Y-128667654D01*
X108931608Y-128824417D01*
X108992115Y-128970495D01*
X109088369Y-129095937D01*
X109167639Y-129156762D01*
X109213811Y-129192191D01*
X109359890Y-129252699D01*
X109516652Y-129273337D01*
X109673414Y-129252699D01*
X109819493Y-129192191D01*
X109944934Y-129095937D01*
X110018550Y-128999999D01*
X117194317Y-128999999D01*
X117214956Y-129156762D01*
X117275463Y-129302840D01*
X117371717Y-129428282D01*
X117497159Y-129524536D01*
X117643238Y-129585044D01*
X117800000Y-129605682D01*
X117956762Y-129585044D01*
X118102841Y-129524536D01*
X118172104Y-129471389D01*
X118576386Y-129471389D01*
X118597025Y-129628151D01*
X118657532Y-129774229D01*
X118753786Y-129899671D01*
X118879228Y-129995925D01*
X119025307Y-130056433D01*
X119182069Y-130077071D01*
X119338831Y-130056433D01*
X119484910Y-129995925D01*
X119610351Y-129899671D01*
X119706605Y-129774230D01*
X119767113Y-129628151D01*
X119787751Y-129471389D01*
X119767113Y-129314627D01*
X119706605Y-129168548D01*
X119672825Y-129124525D01*
X119610351Y-129043106D01*
X119484909Y-128946852D01*
X119338831Y-128886345D01*
X119182069Y-128865706D01*
X119025306Y-128886345D01*
X118879228Y-128946852D01*
X118753786Y-129043106D01*
X118657532Y-129168548D01*
X118597025Y-129314626D01*
X118576386Y-129471389D01*
X118172104Y-129471389D01*
X118228282Y-129428282D01*
X118324536Y-129302841D01*
X118385044Y-129156762D01*
X118405682Y-129000000D01*
X118385044Y-128843238D01*
X118324536Y-128697159D01*
X118229144Y-128572841D01*
X118228282Y-128571717D01*
X118102840Y-128475463D01*
X117956762Y-128414956D01*
X117800000Y-128394317D01*
X117643237Y-128414956D01*
X117497159Y-128475463D01*
X117371717Y-128571717D01*
X117275463Y-128697159D01*
X117214956Y-128843237D01*
X117194317Y-128999999D01*
X110018550Y-128999999D01*
X110041188Y-128970496D01*
X110088892Y-128855327D01*
X110127969Y-128804403D01*
X110187273Y-128779840D01*
X110226772Y-128785042D01*
X110227053Y-128782913D01*
X110243237Y-128785043D01*
X110243238Y-128785044D01*
X110400000Y-128805682D01*
X110556762Y-128785044D01*
X110702841Y-128724536D01*
X110828282Y-128628282D01*
X110924536Y-128502841D01*
X110985044Y-128356762D01*
X111005682Y-128200000D01*
X110985044Y-128043238D01*
X110924536Y-127897159D01*
X110860314Y-127813463D01*
X110828282Y-127771717D01*
X110702840Y-127675463D01*
X110556762Y-127614956D01*
X110399999Y-127594317D01*
X110243237Y-127614956D01*
X110097159Y-127675463D01*
X109971717Y-127771717D01*
X109875463Y-127897158D01*
X109827759Y-128012327D01*
X109788684Y-128063250D01*
X109729383Y-128087813D01*
X109689879Y-128082612D01*
X109689599Y-128084742D01*
X109673414Y-128082611D01*
X109658929Y-128080704D01*
X109516652Y-128061972D01*
X109359889Y-128082611D01*
X109213811Y-128143118D01*
X109088369Y-128239372D01*
X108992115Y-128364814D01*
X108931608Y-128510892D01*
X108910969Y-128667654D01*
X108553226Y-128667654D01*
X108573800Y-128640841D01*
X108634308Y-128494762D01*
X108654946Y-128338000D01*
X108634308Y-128181238D01*
X108573800Y-128035159D01*
X108558289Y-128014944D01*
X108477546Y-127909717D01*
X108352104Y-127813463D01*
X108206026Y-127752956D01*
X108049263Y-127732317D01*
X107892501Y-127752956D01*
X107746423Y-127813463D01*
X107620981Y-127909717D01*
X107524727Y-128035159D01*
X107464220Y-128181237D01*
X107443581Y-128338000D01*
X105931210Y-128338000D01*
X105889225Y-128236640D01*
X105846713Y-128181237D01*
X105792971Y-128111198D01*
X105667529Y-128014944D01*
X105521451Y-127954437D01*
X105364689Y-127933798D01*
X105207926Y-127954437D01*
X105061848Y-128014944D01*
X104936406Y-128111198D01*
X104840152Y-128236640D01*
X104779645Y-128382718D01*
X104759006Y-128539481D01*
X104263854Y-128539481D01*
X104310544Y-128426762D01*
X104331182Y-128270000D01*
X104310544Y-128113238D01*
X104250036Y-127967159D01*
X104205960Y-127909718D01*
X104153782Y-127841717D01*
X104028340Y-127745463D01*
X103882262Y-127684956D01*
X103725500Y-127664317D01*
X103568737Y-127684956D01*
X103422659Y-127745463D01*
X103297217Y-127841717D01*
X103200963Y-127967159D01*
X103140456Y-128113237D01*
X103119817Y-128270000D01*
X100200500Y-128270000D01*
X100200500Y-127530762D01*
X111375024Y-127530762D01*
X111395663Y-127687525D01*
X111456170Y-127833603D01*
X111552424Y-127959045D01*
X111625274Y-128014944D01*
X111677866Y-128055299D01*
X111823945Y-128115807D01*
X111960067Y-128133727D01*
X111980706Y-128136445D01*
X111980706Y-128136444D01*
X111980707Y-128136445D01*
X112137469Y-128115807D01*
X112283548Y-128055299D01*
X112408989Y-127959045D01*
X112505243Y-127833604D01*
X112565751Y-127687525D01*
X112586389Y-127530763D01*
X112570104Y-127407069D01*
X112578483Y-127343432D01*
X112617560Y-127292508D01*
X112654259Y-127277309D01*
X112653425Y-127275295D01*
X112700029Y-127255990D01*
X112814587Y-127208539D01*
X112940028Y-127112285D01*
X113036282Y-126986844D01*
X113096790Y-126840765D01*
X113117428Y-126684003D01*
X113101584Y-126563659D01*
X117385392Y-126563659D01*
X117391313Y-126597234D01*
X117415668Y-126735354D01*
X117484721Y-126895438D01*
X117588832Y-127035283D01*
X117722386Y-127147349D01*
X117878185Y-127225594D01*
X118047829Y-127265800D01*
X118178433Y-127265800D01*
X118178436Y-127265800D01*
X118308164Y-127250637D01*
X118471993Y-127191008D01*
X118617654Y-127095205D01*
X118737296Y-126968393D01*
X118824467Y-126817407D01*
X118874469Y-126650388D01*
X118877565Y-126597234D01*
X122091436Y-126597234D01*
X122112075Y-126753996D01*
X122172582Y-126900074D01*
X122268836Y-127025516D01*
X122369139Y-127102480D01*
X122394278Y-127121770D01*
X122540357Y-127182278D01*
X122697119Y-127202916D01*
X122853881Y-127182278D01*
X122999960Y-127121770D01*
X123125401Y-127025516D01*
X123221655Y-126900075D01*
X123282163Y-126753996D01*
X123302801Y-126597234D01*
X123282163Y-126440472D01*
X123221655Y-126294393D01*
X123191980Y-126255720D01*
X123125401Y-126168951D01*
X122999959Y-126072697D01*
X122853881Y-126012190D01*
X122697119Y-125991551D01*
X122540356Y-126012190D01*
X122394278Y-126072697D01*
X122268836Y-126168951D01*
X122172582Y-126294393D01*
X122112075Y-126440471D01*
X122091436Y-126597234D01*
X118877565Y-126597234D01*
X118884607Y-126476340D01*
X118854332Y-126304646D01*
X118785279Y-126144562D01*
X118681168Y-126004717D01*
X118665477Y-125991551D01*
X118547615Y-125892652D01*
X118547614Y-125892651D01*
X118391815Y-125814406D01*
X118222171Y-125774200D01*
X118091564Y-125774200D01*
X118013727Y-125783297D01*
X117961834Y-125789363D01*
X117798005Y-125848992D01*
X117652346Y-125944794D01*
X117532704Y-126071606D01*
X117445533Y-126222591D01*
X117395531Y-126389613D01*
X117385392Y-126563659D01*
X113101584Y-126563659D01*
X113096790Y-126527241D01*
X113036282Y-126381162D01*
X113000894Y-126335043D01*
X112940028Y-126255720D01*
X112814586Y-126159466D01*
X112668508Y-126098959D01*
X112511746Y-126078320D01*
X112354983Y-126098959D01*
X112208905Y-126159466D01*
X112083463Y-126255720D01*
X111987209Y-126381162D01*
X111926702Y-126527240D01*
X111906063Y-126684003D01*
X111922348Y-126807694D01*
X111913971Y-126871329D01*
X111874900Y-126922252D01*
X111838192Y-126937458D01*
X111839027Y-126939472D01*
X111677865Y-127006227D01*
X111552424Y-127102480D01*
X111456170Y-127227922D01*
X111395663Y-127374000D01*
X111375024Y-127530762D01*
X100200500Y-127530762D01*
X100200500Y-126278252D01*
X103198613Y-126278252D01*
X103219252Y-126435015D01*
X103279759Y-126581093D01*
X103376013Y-126706535D01*
X103501455Y-126802789D01*
X103647534Y-126863297D01*
X103804296Y-126883935D01*
X103961058Y-126863297D01*
X104107137Y-126802789D01*
X104232578Y-126706535D01*
X104328832Y-126581094D01*
X104389340Y-126435015D01*
X104409978Y-126278253D01*
X104389340Y-126121491D01*
X104328832Y-125975412D01*
X104276155Y-125906762D01*
X104228817Y-125845069D01*
X104205576Y-125793774D01*
X104207009Y-125749999D01*
X104894317Y-125749999D01*
X104914956Y-125906762D01*
X104975463Y-126052840D01*
X105071717Y-126178282D01*
X105129465Y-126222593D01*
X105197159Y-126274536D01*
X105343238Y-126335044D01*
X105500000Y-126355682D01*
X105656762Y-126335044D01*
X105802841Y-126274536D01*
X105928282Y-126178282D01*
X106024536Y-126052841D01*
X106085044Y-125906762D01*
X106105682Y-125750000D01*
X106085934Y-125599999D01*
X108194317Y-125599999D01*
X108214956Y-125756762D01*
X108275463Y-125902840D01*
X108371717Y-126028282D01*
X108436930Y-126078321D01*
X108497159Y-126124536D01*
X108643238Y-126185044D01*
X108800000Y-126205682D01*
X108956762Y-126185044D01*
X109102841Y-126124536D01*
X109228282Y-126028282D01*
X109324536Y-125902841D01*
X109385044Y-125756762D01*
X109405682Y-125600000D01*
X109385044Y-125443238D01*
X109324536Y-125297159D01*
X109324535Y-125297158D01*
X109288350Y-125250000D01*
X120394317Y-125250000D01*
X120414956Y-125406762D01*
X120475463Y-125552840D01*
X120571717Y-125678282D01*
X120665183Y-125750000D01*
X120697159Y-125774536D01*
X120843238Y-125835044D01*
X121000000Y-125855682D01*
X121156762Y-125835044D01*
X121302841Y-125774536D01*
X121428282Y-125678282D01*
X121524536Y-125552841D01*
X121585044Y-125406762D01*
X121605682Y-125250000D01*
X121585044Y-125093238D01*
X121524536Y-124947159D01*
X121490529Y-124902840D01*
X121428282Y-124821717D01*
X121302840Y-124725463D01*
X121156762Y-124664956D01*
X121000000Y-124644317D01*
X120843237Y-124664956D01*
X120697159Y-124725463D01*
X120571717Y-124821717D01*
X120475463Y-124947159D01*
X120414956Y-125093237D01*
X120394317Y-125250000D01*
X109288350Y-125250000D01*
X109228282Y-125171717D01*
X109102840Y-125075463D01*
X108956762Y-125014956D01*
X108800000Y-124994317D01*
X108643237Y-125014956D01*
X108497159Y-125075463D01*
X108371717Y-125171717D01*
X108275463Y-125297159D01*
X108214956Y-125443237D01*
X108194317Y-125599999D01*
X106085934Y-125599999D01*
X106085044Y-125593238D01*
X106024536Y-125447159D01*
X106021527Y-125443237D01*
X105928282Y-125321717D01*
X105802840Y-125225463D01*
X105656762Y-125164956D01*
X105500000Y-125144317D01*
X105343237Y-125164956D01*
X105197159Y-125225463D01*
X105071717Y-125321717D01*
X104975463Y-125447159D01*
X104914956Y-125593237D01*
X104894317Y-125749999D01*
X104207009Y-125749999D01*
X104207418Y-125737489D01*
X104233965Y-125687824D01*
X104279741Y-125655022D01*
X104353341Y-125624536D01*
X104478782Y-125528282D01*
X104575036Y-125402841D01*
X104635544Y-125256762D01*
X104656182Y-125100000D01*
X104635544Y-124943238D01*
X104575036Y-124797159D01*
X104478782Y-124671717D01*
X104385316Y-124599999D01*
X111194317Y-124599999D01*
X111214956Y-124756762D01*
X111275463Y-124902840D01*
X111371717Y-125028282D01*
X111465183Y-125100000D01*
X111497159Y-125124536D01*
X111643238Y-125185044D01*
X111800000Y-125205682D01*
X111956762Y-125185044D01*
X112102841Y-125124536D01*
X112228282Y-125028282D01*
X112324536Y-124902841D01*
X112385044Y-124756762D01*
X112405682Y-124600000D01*
X112385044Y-124443238D01*
X112324536Y-124297159D01*
X112235974Y-124181742D01*
X112228282Y-124171717D01*
X112102840Y-124075463D01*
X111956762Y-124014956D01*
X111800000Y-123994317D01*
X111643237Y-124014956D01*
X111497159Y-124075463D01*
X111371717Y-124171717D01*
X111275463Y-124297159D01*
X111214956Y-124443237D01*
X111194317Y-124599999D01*
X104385316Y-124599999D01*
X104353340Y-124575463D01*
X104207262Y-124514956D01*
X104050500Y-124494317D01*
X103893737Y-124514956D01*
X103747659Y-124575463D01*
X103622217Y-124671717D01*
X103525963Y-124797159D01*
X103465456Y-124943237D01*
X103444817Y-125099999D01*
X103465456Y-125256762D01*
X103525963Y-125402840D01*
X103625978Y-125533183D01*
X103649219Y-125584478D01*
X103647377Y-125640762D01*
X103620831Y-125690427D01*
X103575056Y-125723230D01*
X103501453Y-125753717D01*
X103376013Y-125849970D01*
X103279759Y-125975412D01*
X103219252Y-126121490D01*
X103198613Y-126278252D01*
X100200500Y-126278252D01*
X100200500Y-123878900D01*
X109101203Y-123878900D01*
X109121842Y-124035663D01*
X109182349Y-124181741D01*
X109278603Y-124307183D01*
X109404044Y-124403436D01*
X109404045Y-124403437D01*
X109550124Y-124463945D01*
X109706886Y-124484583D01*
X109863648Y-124463945D01*
X110009727Y-124403437D01*
X110135168Y-124307183D01*
X110231422Y-124181742D01*
X110291930Y-124035663D01*
X110312568Y-123878901D01*
X110291930Y-123722139D01*
X110231422Y-123576060D01*
X110231421Y-123576059D01*
X110135168Y-123450618D01*
X110009726Y-123354364D01*
X109863648Y-123293857D01*
X109706886Y-123273218D01*
X109550123Y-123293857D01*
X109404045Y-123354364D01*
X109278603Y-123450618D01*
X109182349Y-123576060D01*
X109121842Y-123722138D01*
X109101203Y-123878900D01*
X100200500Y-123878900D01*
X100200500Y-122586715D01*
X100219199Y-122521235D01*
X100269656Y-122475503D01*
X100336654Y-122463312D01*
X100399984Y-122488338D01*
X100447159Y-122524536D01*
X100593238Y-122585044D01*
X100750000Y-122605682D01*
X100906762Y-122585044D01*
X101052841Y-122524536D01*
X101084167Y-122500499D01*
X108568962Y-122500499D01*
X108589601Y-122657262D01*
X108650108Y-122803340D01*
X108746362Y-122928782D01*
X108871152Y-123024536D01*
X108871804Y-123025036D01*
X109017883Y-123085544D01*
X109174645Y-123106182D01*
X109331407Y-123085544D01*
X109477486Y-123025036D01*
X109602927Y-122928782D01*
X109699181Y-122803341D01*
X109759689Y-122657262D01*
X109780327Y-122500500D01*
X109780261Y-122499999D01*
X115144317Y-122499999D01*
X115164956Y-122656762D01*
X115225463Y-122802840D01*
X115321717Y-122928282D01*
X115447158Y-123024535D01*
X115447159Y-123024536D01*
X115593238Y-123085044D01*
X115750000Y-123105682D01*
X115906762Y-123085044D01*
X116052841Y-123024536D01*
X116178282Y-122928282D01*
X116274536Y-122802841D01*
X116335044Y-122656762D01*
X116355682Y-122500000D01*
X121894817Y-122500000D01*
X121915456Y-122656762D01*
X121975963Y-122802840D01*
X122072217Y-122928282D01*
X122197658Y-123024535D01*
X122197659Y-123024536D01*
X122343738Y-123085044D01*
X122500500Y-123105682D01*
X122657262Y-123085044D01*
X122803341Y-123024536D01*
X122928782Y-122928282D01*
X123025036Y-122802841D01*
X123085544Y-122656762D01*
X123106182Y-122500000D01*
X123085544Y-122343238D01*
X123025036Y-122197159D01*
X122928782Y-122071717D01*
X122803340Y-121975463D01*
X122657262Y-121914956D01*
X122500500Y-121894317D01*
X122343737Y-121914956D01*
X122197659Y-121975463D01*
X122072217Y-122071717D01*
X121975963Y-122197159D01*
X121915456Y-122343237D01*
X121894817Y-122500000D01*
X116355682Y-122500000D01*
X116335044Y-122343238D01*
X116274536Y-122197159D01*
X116178282Y-122071717D01*
X116052840Y-121975463D01*
X115906762Y-121914956D01*
X115750000Y-121894317D01*
X115593237Y-121914956D01*
X115447159Y-121975463D01*
X115321717Y-122071717D01*
X115225463Y-122197159D01*
X115164956Y-122343237D01*
X115144317Y-122499999D01*
X109780261Y-122499999D01*
X109759689Y-122343738D01*
X109699181Y-122197659D01*
X109667800Y-122156762D01*
X109602927Y-122072217D01*
X109477485Y-121975963D01*
X109331407Y-121915456D01*
X109174645Y-121894817D01*
X109017882Y-121915456D01*
X108871804Y-121975963D01*
X108746362Y-122072217D01*
X108650108Y-122197659D01*
X108589601Y-122343737D01*
X108568962Y-122500499D01*
X101084167Y-122500499D01*
X101178282Y-122428282D01*
X101274536Y-122302841D01*
X101335044Y-122156762D01*
X101355682Y-122000000D01*
X101335044Y-121843238D01*
X101274536Y-121697159D01*
X101213583Y-121617723D01*
X101178282Y-121571717D01*
X101052840Y-121475463D01*
X100906762Y-121414956D01*
X100750000Y-121394317D01*
X100593237Y-121414956D01*
X100447161Y-121475462D01*
X100442857Y-121478765D01*
X100399984Y-121511661D01*
X100336654Y-121536688D01*
X100269656Y-121524497D01*
X100219199Y-121478765D01*
X100200500Y-121413285D01*
X100200500Y-121189441D01*
X103652082Y-121189441D01*
X103672721Y-121346203D01*
X103733228Y-121492281D01*
X103829482Y-121617723D01*
X103933006Y-121697159D01*
X103954924Y-121713977D01*
X104101003Y-121774485D01*
X104257765Y-121795123D01*
X104414527Y-121774485D01*
X104560606Y-121713977D01*
X104686047Y-121617723D01*
X104782301Y-121492282D01*
X104842809Y-121346203D01*
X104863447Y-121189441D01*
X104842809Y-121032679D01*
X104782301Y-120886600D01*
X104758577Y-120855682D01*
X104686047Y-120761158D01*
X104560605Y-120664904D01*
X104414527Y-120604397D01*
X104257765Y-120583758D01*
X104101002Y-120604397D01*
X103954924Y-120664904D01*
X103829482Y-120761158D01*
X103733228Y-120886600D01*
X103672721Y-121032678D01*
X103652082Y-121189441D01*
X100200500Y-121189441D01*
X100200500Y-119930496D01*
X100219199Y-119865016D01*
X100269656Y-119819284D01*
X100336654Y-119807093D01*
X100399986Y-119832120D01*
X100452563Y-119872463D01*
X100530800Y-119932496D01*
X100676879Y-119993004D01*
X100833641Y-120013642D01*
X100990403Y-119993004D01*
X101136482Y-119932496D01*
X101214719Y-119872463D01*
X110793817Y-119872463D01*
X110814456Y-120029225D01*
X110874963Y-120175303D01*
X110971217Y-120300745D01*
X111069830Y-120376413D01*
X111105555Y-120419943D01*
X111118344Y-120474784D01*
X111105559Y-120529627D01*
X111081651Y-120558762D01*
X111081656Y-120558766D01*
X110975463Y-120697159D01*
X110914956Y-120843237D01*
X110894317Y-121000000D01*
X110914956Y-121156762D01*
X110975463Y-121302840D01*
X111071717Y-121428282D01*
X111180380Y-121511661D01*
X111197159Y-121524536D01*
X111343238Y-121585044D01*
X111500000Y-121605682D01*
X111656762Y-121585044D01*
X111802841Y-121524536D01*
X111928282Y-121428282D01*
X112024536Y-121302841D01*
X112085044Y-121156762D01*
X112105682Y-121000000D01*
X112085044Y-120843238D01*
X112024536Y-120697159D01*
X111996022Y-120659999D01*
X113644317Y-120659999D01*
X113664956Y-120816762D01*
X113725463Y-120962840D01*
X113821717Y-121088282D01*
X113910963Y-121156762D01*
X113947159Y-121184536D01*
X114093238Y-121245044D01*
X114250000Y-121265682D01*
X114406762Y-121245044D01*
X114552841Y-121184536D01*
X114678282Y-121088282D01*
X114774536Y-120962841D01*
X114835044Y-120816762D01*
X114855682Y-120660000D01*
X114835044Y-120503238D01*
X114774536Y-120357159D01*
X114731248Y-120300745D01*
X114692310Y-120249999D01*
X115644317Y-120249999D01*
X115664956Y-120406762D01*
X115725463Y-120552840D01*
X115821717Y-120678282D01*
X115929724Y-120761158D01*
X115947159Y-120774536D01*
X116093238Y-120835044D01*
X116250000Y-120855682D01*
X116406762Y-120835044D01*
X116552841Y-120774536D01*
X116678282Y-120678282D01*
X116774536Y-120552841D01*
X116835044Y-120406762D01*
X116855682Y-120250000D01*
X116855682Y-120249999D01*
X120144317Y-120249999D01*
X120164956Y-120406762D01*
X120225463Y-120552840D01*
X120321717Y-120678282D01*
X120429724Y-120761158D01*
X120447159Y-120774536D01*
X120593238Y-120835044D01*
X120750000Y-120855682D01*
X120906762Y-120835044D01*
X121052841Y-120774536D01*
X121178282Y-120678282D01*
X121274536Y-120552841D01*
X121335044Y-120406762D01*
X121355682Y-120250000D01*
X121335044Y-120093238D01*
X121274536Y-119947159D01*
X121211506Y-119865016D01*
X121178282Y-119821717D01*
X121052840Y-119725463D01*
X120906762Y-119664956D01*
X120750000Y-119644317D01*
X120593237Y-119664956D01*
X120447159Y-119725463D01*
X120321717Y-119821717D01*
X120225463Y-119947159D01*
X120164956Y-120093237D01*
X120144317Y-120249999D01*
X116855682Y-120249999D01*
X116835044Y-120093238D01*
X116774536Y-119947159D01*
X116711506Y-119865016D01*
X116678282Y-119821717D01*
X116552840Y-119725463D01*
X116406762Y-119664956D01*
X116250000Y-119644317D01*
X116093237Y-119664956D01*
X115947159Y-119725463D01*
X115821717Y-119821717D01*
X115725463Y-119947159D01*
X115664956Y-120093237D01*
X115644317Y-120249999D01*
X114692310Y-120249999D01*
X114678282Y-120231717D01*
X114552840Y-120135463D01*
X114406762Y-120074956D01*
X114250000Y-120054317D01*
X114093237Y-120074956D01*
X113947159Y-120135463D01*
X113821717Y-120231717D01*
X113725463Y-120357159D01*
X113664956Y-120503237D01*
X113644317Y-120659999D01*
X111996022Y-120659999D01*
X111928283Y-120571719D01*
X111911402Y-120558766D01*
X111829668Y-120496049D01*
X111793942Y-120452516D01*
X111781155Y-120397671D01*
X111793944Y-120342827D01*
X111817848Y-120313700D01*
X111817844Y-120313697D01*
X111866720Y-120250000D01*
X111924036Y-120175304D01*
X111952875Y-120105679D01*
X111991947Y-120054760D01*
X112051248Y-120030196D01*
X112114884Y-120038573D01*
X112158293Y-120056554D01*
X112315055Y-120077192D01*
X112471817Y-120056554D01*
X112617896Y-119996046D01*
X112743337Y-119899792D01*
X112839591Y-119774351D01*
X112900099Y-119628272D01*
X112920737Y-119471510D01*
X112900099Y-119314748D01*
X112876115Y-119256847D01*
X112867738Y-119193211D01*
X112892301Y-119133910D01*
X112943224Y-119094835D01*
X113006862Y-119086457D01*
X113066163Y-119111020D01*
X113125776Y-119156762D01*
X113197159Y-119211536D01*
X113343238Y-119272044D01*
X113500000Y-119292682D01*
X113656762Y-119272044D01*
X113802841Y-119211536D01*
X113928282Y-119115282D01*
X114024536Y-118989841D01*
X114085044Y-118843762D01*
X114105682Y-118687000D01*
X114085044Y-118530238D01*
X114024536Y-118384159D01*
X114000321Y-118352601D01*
X113928282Y-118258717D01*
X113802840Y-118162463D01*
X113656762Y-118101956D01*
X113500000Y-118081317D01*
X113343237Y-118101956D01*
X113197159Y-118162463D01*
X113071717Y-118258717D01*
X112975463Y-118384159D01*
X112914956Y-118530237D01*
X112894317Y-118687000D01*
X112914956Y-118843762D01*
X112938938Y-118901661D01*
X112947316Y-118965299D01*
X112922753Y-119024600D01*
X112871830Y-119063674D01*
X112808192Y-119072052D01*
X112748891Y-119047489D01*
X112617895Y-118946973D01*
X112471817Y-118886466D01*
X112315055Y-118865827D01*
X112158292Y-118886466D01*
X112012214Y-118946973D01*
X111886772Y-119043227D01*
X111790519Y-119168667D01*
X111761680Y-119238291D01*
X111722605Y-119289213D01*
X111663304Y-119313776D01*
X111599667Y-119305398D01*
X111556262Y-119287419D01*
X111523587Y-119283117D01*
X111399500Y-119266780D01*
X111242737Y-119287419D01*
X111096659Y-119347926D01*
X110971217Y-119444180D01*
X110874963Y-119569622D01*
X110814456Y-119715700D01*
X110793817Y-119872463D01*
X101214719Y-119872463D01*
X101261923Y-119836242D01*
X101358177Y-119710801D01*
X101418685Y-119564722D01*
X101439323Y-119407960D01*
X101418685Y-119251198D01*
X101358177Y-119105119D01*
X101313956Y-119047489D01*
X101277517Y-119000000D01*
X104282296Y-119000000D01*
X104302935Y-119156762D01*
X104363442Y-119302840D01*
X104459696Y-119428282D01*
X104520848Y-119475205D01*
X104585138Y-119524536D01*
X104731217Y-119585044D01*
X104887979Y-119605682D01*
X105044741Y-119585044D01*
X105190820Y-119524536D01*
X105316261Y-119428282D01*
X105412515Y-119302841D01*
X105428221Y-119264922D01*
X105461021Y-119219150D01*
X105510686Y-119192602D01*
X105566971Y-119190759D01*
X105618267Y-119214001D01*
X105684635Y-119264926D01*
X105697159Y-119274536D01*
X105843238Y-119335044D01*
X106000000Y-119355682D01*
X106156762Y-119335044D01*
X106302841Y-119274536D01*
X106428282Y-119178282D01*
X106524536Y-119052841D01*
X106585044Y-118906762D01*
X106605682Y-118750000D01*
X106585044Y-118593238D01*
X106524536Y-118447159D01*
X106471118Y-118377543D01*
X106428282Y-118321717D01*
X106302840Y-118225463D01*
X106156762Y-118164956D01*
X106000000Y-118144317D01*
X105843237Y-118164956D01*
X105697159Y-118225463D01*
X105571717Y-118321717D01*
X105475464Y-118447157D01*
X105459758Y-118485076D01*
X105426955Y-118530851D01*
X105377290Y-118557397D01*
X105321006Y-118559239D01*
X105269711Y-118535998D01*
X105190819Y-118475463D01*
X105044741Y-118414956D01*
X104887979Y-118394317D01*
X104731216Y-118414956D01*
X104585138Y-118475463D01*
X104459696Y-118571717D01*
X104363442Y-118697159D01*
X104302935Y-118843237D01*
X104282296Y-119000000D01*
X101277517Y-119000000D01*
X101261924Y-118979679D01*
X101168715Y-118908157D01*
X101133539Y-118865724D01*
X101120226Y-118812239D01*
X101131407Y-118758272D01*
X101175165Y-118662457D01*
X101195647Y-118520000D01*
X101177577Y-118394317D01*
X101175165Y-118377542D01*
X101107971Y-118230410D01*
X101108498Y-118230169D01*
X101092550Y-118199236D01*
X101092550Y-118140764D01*
X101108498Y-118109830D01*
X101107971Y-118109590D01*
X101152083Y-118012999D01*
X107547519Y-118012999D01*
X107568158Y-118169762D01*
X107628665Y-118315840D01*
X107724919Y-118441282D01*
X107833453Y-118524562D01*
X107850361Y-118537536D01*
X107996440Y-118598044D01*
X108153202Y-118618682D01*
X108309964Y-118598044D01*
X108456043Y-118537536D01*
X108581484Y-118441282D01*
X108581485Y-118441280D01*
X108588725Y-118435725D01*
X108637373Y-118413039D01*
X108691050Y-118413039D01*
X108739698Y-118435724D01*
X108849530Y-118520000D01*
X108849712Y-118520140D01*
X108995791Y-118580648D01*
X109152553Y-118601286D01*
X109309315Y-118580648D01*
X109455394Y-118520140D01*
X109580835Y-118423886D01*
X109677089Y-118298445D01*
X109737597Y-118152366D01*
X109758235Y-117995604D01*
X109737597Y-117838842D01*
X109684295Y-117710159D01*
X109675551Y-117689049D01*
X109666230Y-117636188D01*
X109680123Y-117584340D01*
X109714624Y-117543223D01*
X109828782Y-117455627D01*
X109925036Y-117330186D01*
X109958250Y-117250000D01*
X113144317Y-117250000D01*
X113164956Y-117406762D01*
X113225463Y-117552840D01*
X113321717Y-117678282D01*
X113415183Y-117750000D01*
X113447159Y-117774536D01*
X113593238Y-117835044D01*
X113750000Y-117855682D01*
X113906762Y-117835044D01*
X114052841Y-117774536D01*
X114084817Y-117750000D01*
X115644317Y-117750000D01*
X115664956Y-117906762D01*
X115725463Y-118052840D01*
X115821717Y-118178282D01*
X115944700Y-118272649D01*
X115947159Y-118274536D01*
X116093238Y-118335044D01*
X116226597Y-118352601D01*
X116249999Y-118355682D01*
X116249999Y-118355681D01*
X116250000Y-118355682D01*
X116349288Y-118342610D01*
X116416646Y-118352601D01*
X116468572Y-118396657D01*
X116489405Y-118461490D01*
X116472859Y-118527548D01*
X116429533Y-118602592D01*
X116411611Y-118662457D01*
X116385403Y-118750000D01*
X116379531Y-118769613D01*
X116369392Y-118943659D01*
X116388645Y-119052840D01*
X116399668Y-119115354D01*
X116468721Y-119275438D01*
X116572832Y-119415283D01*
X116706386Y-119527349D01*
X116862185Y-119605594D01*
X117031829Y-119645800D01*
X117162433Y-119645800D01*
X117162436Y-119645800D01*
X117292164Y-119630637D01*
X117455993Y-119571008D01*
X117601654Y-119475205D01*
X117721296Y-119348393D01*
X117808467Y-119197407D01*
X117858469Y-119030388D01*
X117863521Y-118943659D01*
X118401392Y-118943659D01*
X118420645Y-119052840D01*
X118431668Y-119115354D01*
X118500721Y-119275438D01*
X118604832Y-119415283D01*
X118738386Y-119527349D01*
X118894185Y-119605594D01*
X119063829Y-119645800D01*
X119194433Y-119645800D01*
X119194436Y-119645800D01*
X119324164Y-119630637D01*
X119487993Y-119571008D01*
X119633654Y-119475205D01*
X119753296Y-119348393D01*
X119810103Y-119250000D01*
X121894317Y-119250000D01*
X121914956Y-119406762D01*
X121975463Y-119552840D01*
X122071717Y-119678282D01*
X122196917Y-119774350D01*
X122197159Y-119774536D01*
X122343238Y-119835044D01*
X122500000Y-119855682D01*
X122656762Y-119835044D01*
X122802841Y-119774536D01*
X122928282Y-119678282D01*
X123024536Y-119552841D01*
X123085044Y-119406762D01*
X123105682Y-119250000D01*
X123104140Y-119238291D01*
X123102964Y-119229361D01*
X123085044Y-119093238D01*
X123024536Y-118947159D01*
X122994609Y-118908157D01*
X122928282Y-118821717D01*
X122802840Y-118725463D01*
X122656762Y-118664956D01*
X122500000Y-118644317D01*
X122343237Y-118664956D01*
X122197159Y-118725463D01*
X122071717Y-118821717D01*
X121975463Y-118947159D01*
X121914956Y-119093237D01*
X121894317Y-119250000D01*
X119810103Y-119250000D01*
X119840467Y-119197407D01*
X119890469Y-119030388D01*
X119900607Y-118856340D01*
X119870332Y-118684646D01*
X119801279Y-118524562D01*
X119697168Y-118384717D01*
X119696503Y-118384159D01*
X119563612Y-118272649D01*
X119491362Y-118236364D01*
X119444668Y-118195565D01*
X119423567Y-118137259D01*
X119433334Y-118076026D01*
X119471527Y-118027178D01*
X119490006Y-118012999D01*
X119548282Y-117968282D01*
X119644536Y-117842841D01*
X119705044Y-117696762D01*
X119725682Y-117540000D01*
X119724419Y-117530410D01*
X119712616Y-117440756D01*
X119705044Y-117383238D01*
X119644536Y-117237159D01*
X119589133Y-117164956D01*
X119548282Y-117111717D01*
X119422840Y-117015463D01*
X119276762Y-116954956D01*
X119120000Y-116934317D01*
X118963237Y-116954956D01*
X118817159Y-117015463D01*
X118691717Y-117111717D01*
X118595463Y-117237159D01*
X118534956Y-117383237D01*
X118514317Y-117539999D01*
X118534956Y-117696762D01*
X118595463Y-117842840D01*
X118691717Y-117968282D01*
X118792765Y-118045818D01*
X118829470Y-118091381D01*
X118841197Y-118148701D01*
X118825336Y-118205018D01*
X118785419Y-118247794D01*
X118668345Y-118324795D01*
X118548704Y-118451606D01*
X118461533Y-118602591D01*
X118443611Y-118662457D01*
X118417403Y-118750000D01*
X118411531Y-118769613D01*
X118401392Y-118943659D01*
X117863521Y-118943659D01*
X117868607Y-118856340D01*
X117838332Y-118684646D01*
X117769279Y-118524562D01*
X117665168Y-118384717D01*
X117656618Y-118377543D01*
X117531615Y-118272652D01*
X117531614Y-118272651D01*
X117375815Y-118194406D01*
X117206171Y-118154200D01*
X117075564Y-118154200D01*
X116945836Y-118169363D01*
X116945834Y-118169363D01*
X116931440Y-118171046D01*
X116931264Y-118169546D01*
X116895648Y-118173758D01*
X116842155Y-118154547D01*
X116802853Y-118113486D01*
X116786000Y-118059203D01*
X116795136Y-118003107D01*
X116835044Y-117906762D01*
X116855682Y-117750000D01*
X116835044Y-117593238D01*
X116774536Y-117447159D01*
X116745893Y-117409830D01*
X116678282Y-117321717D01*
X116552840Y-117225463D01*
X116406762Y-117164956D01*
X116250000Y-117144317D01*
X116093237Y-117164956D01*
X115947159Y-117225463D01*
X115821717Y-117321717D01*
X115725463Y-117447159D01*
X115664956Y-117593237D01*
X115644317Y-117750000D01*
X114084817Y-117750000D01*
X114178282Y-117678282D01*
X114274536Y-117552841D01*
X114335044Y-117406762D01*
X114355682Y-117250000D01*
X114335044Y-117093238D01*
X114274536Y-116947159D01*
X114250879Y-116916328D01*
X114178282Y-116821717D01*
X114052840Y-116725463D01*
X113906762Y-116664956D01*
X113750000Y-116644317D01*
X113593237Y-116664956D01*
X113447159Y-116725463D01*
X113321717Y-116821717D01*
X113225463Y-116947159D01*
X113164956Y-117093237D01*
X113144317Y-117250000D01*
X109958250Y-117250000D01*
X109985544Y-117184107D01*
X110006182Y-117027345D01*
X109985544Y-116870583D01*
X109925036Y-116724504D01*
X109880667Y-116666681D01*
X109828782Y-116599062D01*
X109780293Y-116561856D01*
X109744567Y-116518324D01*
X109731779Y-116463479D01*
X109744567Y-116408635D01*
X109780290Y-116365106D01*
X109828282Y-116328282D01*
X109924536Y-116202841D01*
X109985044Y-116056762D01*
X110005682Y-115900000D01*
X109985044Y-115743238D01*
X109948985Y-115656184D01*
X112482317Y-115656184D01*
X112502956Y-115812947D01*
X112563463Y-115959025D01*
X112659717Y-116084467D01*
X112735291Y-116142456D01*
X112785159Y-116180721D01*
X112931238Y-116241229D01*
X113088000Y-116261867D01*
X113244762Y-116241229D01*
X113390841Y-116180721D01*
X113516282Y-116084467D01*
X113518454Y-116081636D01*
X114169817Y-116081636D01*
X114190456Y-116238399D01*
X114250963Y-116384477D01*
X114347217Y-116509919D01*
X114438488Y-116579953D01*
X114472659Y-116606173D01*
X114618738Y-116666681D01*
X114775500Y-116687319D01*
X114932262Y-116666681D01*
X115078341Y-116606173D01*
X115203782Y-116509919D01*
X115211394Y-116499999D01*
X121644317Y-116499999D01*
X121664956Y-116656762D01*
X121725463Y-116802840D01*
X121821717Y-116928282D01*
X121856480Y-116954956D01*
X121947159Y-117024536D01*
X122093238Y-117085044D01*
X122250000Y-117105682D01*
X122406762Y-117085044D01*
X122552841Y-117024536D01*
X122678282Y-116928282D01*
X122774536Y-116802841D01*
X122835044Y-116656762D01*
X122855682Y-116500000D01*
X122835044Y-116343238D01*
X122774536Y-116197159D01*
X122732561Y-116142456D01*
X122678282Y-116071717D01*
X122552840Y-115975463D01*
X122406762Y-115914956D01*
X122250000Y-115894317D01*
X122093237Y-115914956D01*
X121947159Y-115975463D01*
X121821717Y-116071717D01*
X121725463Y-116197159D01*
X121664956Y-116343237D01*
X121644317Y-116499999D01*
X115211394Y-116499999D01*
X115300036Y-116384478D01*
X115360544Y-116238399D01*
X115381182Y-116081637D01*
X115369907Y-115995995D01*
X115375427Y-115939951D01*
X115405166Y-115892128D01*
X115452989Y-115862390D01*
X115484015Y-115859334D01*
X115483815Y-115857813D01*
X115514484Y-115853775D01*
X115656762Y-115835044D01*
X115802841Y-115774536D01*
X115928282Y-115678282D01*
X116024536Y-115552841D01*
X116085044Y-115406762D01*
X116105682Y-115250000D01*
X116085044Y-115093238D01*
X116024536Y-114947159D01*
X116009517Y-114927586D01*
X115928282Y-114821717D01*
X115802840Y-114725463D01*
X115656762Y-114664956D01*
X115500000Y-114644317D01*
X115343237Y-114664956D01*
X115197159Y-114725463D01*
X115071717Y-114821717D01*
X114975463Y-114947159D01*
X114914956Y-115093237D01*
X114894317Y-115250000D01*
X114905592Y-115335642D01*
X114900073Y-115391682D01*
X114870338Y-115439503D01*
X114822520Y-115469242D01*
X114791484Y-115472301D01*
X114791685Y-115473824D01*
X114618737Y-115496593D01*
X114472659Y-115557100D01*
X114347217Y-115653354D01*
X114250963Y-115778796D01*
X114190456Y-115924874D01*
X114169817Y-116081636D01*
X113518454Y-116081636D01*
X113612536Y-115959026D01*
X113673044Y-115812947D01*
X113693682Y-115656185D01*
X113693309Y-115653355D01*
X113680637Y-115557100D01*
X113673044Y-115499423D01*
X113612536Y-115353344D01*
X113533238Y-115250000D01*
X113516282Y-115227902D01*
X113390840Y-115131648D01*
X113244762Y-115071141D01*
X113088000Y-115050502D01*
X112931237Y-115071141D01*
X112785159Y-115131648D01*
X112659717Y-115227902D01*
X112563463Y-115353344D01*
X112502956Y-115499422D01*
X112482317Y-115656184D01*
X109948985Y-115656184D01*
X109924536Y-115597159D01*
X109924535Y-115597158D01*
X109828282Y-115471717D01*
X109702841Y-115375464D01*
X109556057Y-115314664D01*
X109509220Y-115280634D01*
X109482936Y-115229050D01*
X109482936Y-115171155D01*
X109509220Y-115119571D01*
X109556058Y-115085542D01*
X109557259Y-115085044D01*
X109557262Y-115085044D01*
X109703341Y-115024536D01*
X109828782Y-114928282D01*
X109925036Y-114802841D01*
X109985544Y-114656762D01*
X110006182Y-114500000D01*
X109985544Y-114343238D01*
X109925036Y-114197159D01*
X109858916Y-114110989D01*
X109831673Y-114075485D01*
X109808988Y-114026837D01*
X109808988Y-113973160D01*
X109831672Y-113924514D01*
X109925036Y-113802841D01*
X109926213Y-113799999D01*
X113194317Y-113799999D01*
X113214956Y-113956762D01*
X113275463Y-114102840D01*
X113371717Y-114228282D01*
X113497158Y-114324535D01*
X113497159Y-114324536D01*
X113643238Y-114385044D01*
X113800000Y-114405682D01*
X113956762Y-114385044D01*
X114102841Y-114324536D01*
X114228282Y-114228282D01*
X114324536Y-114102841D01*
X114385044Y-113956762D01*
X114405682Y-113800000D01*
X114405335Y-113797368D01*
X114398849Y-113748096D01*
X114385044Y-113643238D01*
X114324536Y-113497159D01*
X114309484Y-113477543D01*
X114228282Y-113371717D01*
X114102840Y-113275463D01*
X113956762Y-113214956D01*
X113800000Y-113194317D01*
X113643237Y-113214956D01*
X113497159Y-113275463D01*
X113371717Y-113371717D01*
X113275463Y-113497159D01*
X113214956Y-113643237D01*
X113194317Y-113799999D01*
X109926213Y-113799999D01*
X109985544Y-113656762D01*
X110006182Y-113500000D01*
X109985544Y-113343238D01*
X109925036Y-113197159D01*
X109896559Y-113160047D01*
X109828782Y-113071717D01*
X109703340Y-112975463D01*
X109557262Y-112914956D01*
X109400500Y-112894317D01*
X109243737Y-112914956D01*
X109097659Y-112975463D01*
X108972217Y-113071717D01*
X108875963Y-113197159D01*
X108815456Y-113343237D01*
X108794817Y-113499999D01*
X108815455Y-113656759D01*
X108841859Y-113720504D01*
X108850915Y-113777686D01*
X108833024Y-113832746D01*
X108792087Y-113873684D01*
X108737026Y-113891574D01*
X108679845Y-113882517D01*
X108524101Y-113818006D01*
X108367339Y-113797367D01*
X108210576Y-113818006D01*
X108064498Y-113878513D01*
X107939056Y-113974767D01*
X107842802Y-114100209D01*
X107782295Y-114246287D01*
X107761656Y-114403050D01*
X107782295Y-114559812D01*
X107842802Y-114705890D01*
X107939056Y-114831332D01*
X108019912Y-114893374D01*
X108064498Y-114927586D01*
X108210577Y-114988094D01*
X108367339Y-115008732D01*
X108524101Y-114988094D01*
X108670180Y-114927586D01*
X108761575Y-114857455D01*
X108820875Y-114832894D01*
X108884513Y-114841272D01*
X108935436Y-114880347D01*
X108972217Y-114928282D01*
X109068473Y-115002141D01*
X109097659Y-115024536D01*
X109231447Y-115079953D01*
X109244441Y-115085335D01*
X109291279Y-115119364D01*
X109317563Y-115170948D01*
X109317563Y-115228843D01*
X109291279Y-115280427D01*
X109244442Y-115314457D01*
X109097158Y-115375464D01*
X108971717Y-115471717D01*
X108875463Y-115597159D01*
X108814956Y-115743237D01*
X108794317Y-115900000D01*
X108814956Y-116056762D01*
X108875463Y-116202840D01*
X108929582Y-116273370D01*
X108971718Y-116328282D01*
X108991208Y-116343237D01*
X109020206Y-116365488D01*
X109055931Y-116409020D01*
X109068719Y-116463864D01*
X109055932Y-116518707D01*
X109020206Y-116562239D01*
X108972218Y-116599061D01*
X108875963Y-116724504D01*
X108815456Y-116870582D01*
X108794817Y-117027345D01*
X108815456Y-117184107D01*
X108877501Y-117333899D01*
X108886822Y-117386760D01*
X108872929Y-117438608D01*
X108838426Y-117479727D01*
X108717028Y-117572879D01*
X108668381Y-117595564D01*
X108614704Y-117595564D01*
X108566056Y-117572879D01*
X108456042Y-117488463D01*
X108309964Y-117427956D01*
X108153202Y-117407317D01*
X107996439Y-117427956D01*
X107850361Y-117488463D01*
X107724919Y-117584717D01*
X107628665Y-117710159D01*
X107568158Y-117856237D01*
X107547519Y-118012999D01*
X101152083Y-118012999D01*
X101175165Y-117962457D01*
X101175164Y-117962457D01*
X101195647Y-117820000D01*
X101175165Y-117677543D01*
X101136663Y-117593237D01*
X101107971Y-117530410D01*
X101108498Y-117530169D01*
X101092548Y-117499229D01*
X101092552Y-117440756D01*
X101108498Y-117409830D01*
X101107971Y-117409590D01*
X101175165Y-117262457D01*
X101185716Y-117189074D01*
X101201067Y-117144720D01*
X101231803Y-117109250D01*
X101273519Y-117087743D01*
X101300053Y-117079953D01*
X101386284Y-117024536D01*
X101421127Y-117002144D01*
X101468771Y-116947159D01*
X101515377Y-116893373D01*
X101575165Y-116762457D01*
X101595647Y-116620000D01*
X101575165Y-116477543D01*
X101568742Y-116463479D01*
X101515376Y-116346625D01*
X101421129Y-116237858D01*
X101421128Y-116237857D01*
X101400058Y-116224316D01*
X101358265Y-116179427D01*
X101343097Y-116120000D01*
X101358265Y-116060573D01*
X101400058Y-116015684D01*
X101409101Y-116009872D01*
X101421128Y-116002143D01*
X101515377Y-115893373D01*
X101575165Y-115762457D01*
X101594960Y-115624778D01*
X102516906Y-115624778D01*
X102537387Y-115767236D01*
X102597176Y-115898153D01*
X102693980Y-116009872D01*
X102723005Y-116073428D01*
X102713061Y-116142586D01*
X102653332Y-116273370D01*
X102632851Y-116415827D01*
X102653332Y-116558285D01*
X102713121Y-116689202D01*
X102755281Y-116737857D01*
X102807370Y-116797971D01*
X102928445Y-116875781D01*
X103066537Y-116916328D01*
X103210459Y-116916328D01*
X103348551Y-116875781D01*
X103469626Y-116797971D01*
X103563875Y-116689201D01*
X103623663Y-116558285D01*
X103644145Y-116415828D01*
X103623663Y-116273371D01*
X103618409Y-116261867D01*
X103571909Y-116160047D01*
X103563875Y-116142455D01*
X103469626Y-116033685D01*
X103469624Y-116033683D01*
X103467070Y-116030736D01*
X103443603Y-115990089D01*
X103436923Y-115943632D01*
X103447987Y-115898025D01*
X103507718Y-115767236D01*
X103528200Y-115624779D01*
X103507718Y-115482322D01*
X103505535Y-115477543D01*
X103443858Y-115342489D01*
X103432792Y-115285077D01*
X103449265Y-115228977D01*
X103489613Y-115186661D01*
X103500049Y-115179954D01*
X103500053Y-115179953D01*
X103621128Y-115102143D01*
X103715377Y-114993373D01*
X103775165Y-114862457D01*
X103795647Y-114720000D01*
X105484353Y-114720000D01*
X105485139Y-114725464D01*
X105504834Y-114862457D01*
X105564623Y-114993374D01*
X105644308Y-115085335D01*
X105658872Y-115102143D01*
X105779947Y-115179953D01*
X105918039Y-115220500D01*
X106061961Y-115220500D01*
X106200053Y-115179953D01*
X106321128Y-115102143D01*
X106415377Y-114993373D01*
X106475165Y-114862457D01*
X106495647Y-114720000D01*
X106475165Y-114577543D01*
X106467067Y-114559812D01*
X106415376Y-114446625D01*
X106321129Y-114337858D01*
X106321128Y-114337857D01*
X106200053Y-114260047D01*
X106061961Y-114219500D01*
X105918039Y-114219500D01*
X105779947Y-114260047D01*
X105658870Y-114337858D01*
X105564623Y-114446625D01*
X105504834Y-114577542D01*
X105484353Y-114719999D01*
X105484353Y-114720000D01*
X103795647Y-114720000D01*
X103775165Y-114577543D01*
X103767067Y-114559812D01*
X103715376Y-114446625D01*
X103621129Y-114337858D01*
X103621128Y-114337857D01*
X103500053Y-114260047D01*
X103361961Y-114219500D01*
X103218039Y-114219500D01*
X103079947Y-114260047D01*
X102958870Y-114337858D01*
X102864623Y-114446625D01*
X102804834Y-114577542D01*
X102784353Y-114719999D01*
X102784353Y-114720000D01*
X102785139Y-114725464D01*
X102804834Y-114862457D01*
X102868694Y-115002289D01*
X102879760Y-115059701D01*
X102863287Y-115115801D01*
X102822939Y-115158116D01*
X102691425Y-115242634D01*
X102597176Y-115351404D01*
X102537387Y-115482321D01*
X102516906Y-115624778D01*
X101594960Y-115624778D01*
X101595647Y-115620000D01*
X101575165Y-115477543D01*
X101572504Y-115471717D01*
X101518445Y-115353344D01*
X101515377Y-115346627D01*
X101515376Y-115346626D01*
X101515376Y-115346625D01*
X101421129Y-115237858D01*
X101421128Y-115237857D01*
X101400058Y-115224316D01*
X101358265Y-115179427D01*
X101343097Y-115120000D01*
X101358265Y-115060573D01*
X101400058Y-115015684D01*
X101402331Y-115014222D01*
X101421128Y-115002143D01*
X101515377Y-114893373D01*
X101575165Y-114762457D01*
X101595647Y-114620000D01*
X101575165Y-114477543D01*
X101515377Y-114346627D01*
X101515376Y-114346626D01*
X101515376Y-114346625D01*
X101421129Y-114237858D01*
X101421128Y-114237857D01*
X101400058Y-114224316D01*
X101358265Y-114179427D01*
X101343097Y-114120000D01*
X101358265Y-114060573D01*
X101400058Y-114015684D01*
X101402331Y-114014222D01*
X101421128Y-114002143D01*
X101515377Y-113893373D01*
X101575165Y-113762457D01*
X101595647Y-113620000D01*
X101575165Y-113477543D01*
X101526835Y-113371717D01*
X101507971Y-113330410D01*
X101510879Y-113329081D01*
X101493783Y-113291646D01*
X101503727Y-113222488D01*
X101549482Y-113169684D01*
X101616521Y-113150000D01*
X102220000Y-113150000D01*
X102220000Y-113054000D01*
X102236613Y-112992000D01*
X102282000Y-112946613D01*
X102344000Y-112930000D01*
X104480000Y-112930000D01*
X104480000Y-111778544D01*
X104497358Y-111715271D01*
X104544572Y-111669712D01*
X104608425Y-111654623D01*
X104671038Y-111674228D01*
X104679945Y-111679952D01*
X104679947Y-111679953D01*
X104818039Y-111720500D01*
X104961961Y-111720500D01*
X105100053Y-111679953D01*
X105221128Y-111602143D01*
X105315377Y-111493373D01*
X105375165Y-111362457D01*
X105395647Y-111220000D01*
X105375165Y-111077543D01*
X105339752Y-111000000D01*
X106794317Y-111000000D01*
X106814956Y-111156762D01*
X106875463Y-111302840D01*
X106971717Y-111428282D01*
X107090357Y-111519317D01*
X107097159Y-111524536D01*
X107243238Y-111585044D01*
X107379361Y-111602964D01*
X107399999Y-111605682D01*
X107399999Y-111605681D01*
X107400000Y-111605682D01*
X107508258Y-111591429D01*
X107571892Y-111599807D01*
X107622815Y-111638881D01*
X107647379Y-111698182D01*
X107639001Y-111761820D01*
X107586188Y-111889324D01*
X107565549Y-112046086D01*
X107586188Y-112202849D01*
X107646695Y-112348927D01*
X107742949Y-112474369D01*
X107808329Y-112524536D01*
X107868391Y-112570623D01*
X108014470Y-112631131D01*
X108171232Y-112651769D01*
X108327994Y-112631131D01*
X108474073Y-112570623D01*
X108599514Y-112474369D01*
X108695768Y-112348928D01*
X108756276Y-112202849D01*
X108776914Y-112046087D01*
X108770847Y-112000000D01*
X110194317Y-112000000D01*
X110214956Y-112156762D01*
X110275463Y-112302840D01*
X110371717Y-112428282D01*
X110470396Y-112504000D01*
X110497159Y-112524536D01*
X110643238Y-112585044D01*
X110747277Y-112598741D01*
X110799980Y-112618576D01*
X110838477Y-112659678D01*
X110854824Y-112713568D01*
X110845652Y-112769130D01*
X110827643Y-112812606D01*
X110814957Y-112843237D01*
X110814956Y-112843239D01*
X110794317Y-113000000D01*
X110814956Y-113156762D01*
X110875463Y-113302840D01*
X110971717Y-113428282D01*
X111065183Y-113500000D01*
X111097159Y-113524536D01*
X111243238Y-113585044D01*
X111400000Y-113605682D01*
X111556762Y-113585044D01*
X111702841Y-113524536D01*
X111828282Y-113428282D01*
X111924536Y-113302841D01*
X111985044Y-113156762D01*
X112005682Y-113000000D01*
X111985044Y-112843238D01*
X111924536Y-112697159D01*
X111828282Y-112571717D01*
X111702840Y-112475463D01*
X111556762Y-112414956D01*
X111452723Y-112401259D01*
X111400018Y-112381422D01*
X111361522Y-112340320D01*
X111345174Y-112286430D01*
X111354347Y-112230869D01*
X111385044Y-112156762D01*
X111405682Y-112000000D01*
X111385044Y-111843238D01*
X111332038Y-111715271D01*
X111324537Y-111697161D01*
X111324536Y-111697160D01*
X111324536Y-111697159D01*
X111231171Y-111575483D01*
X111208488Y-111526839D01*
X111208488Y-111473161D01*
X111231173Y-111424514D01*
X111315050Y-111315204D01*
X111790411Y-111315204D01*
X111811050Y-111471966D01*
X111871557Y-111618044D01*
X111967811Y-111743486D01*
X112070341Y-111822159D01*
X112093253Y-111839740D01*
X112239332Y-111900248D01*
X112396094Y-111920886D01*
X112552856Y-111900248D01*
X112698935Y-111839740D01*
X112824376Y-111743486D01*
X112857745Y-111699998D01*
X116844316Y-111699998D01*
X116864955Y-111856761D01*
X116925462Y-112002839D01*
X117021716Y-112128281D01*
X117058834Y-112156762D01*
X117147158Y-112224535D01*
X117293237Y-112285043D01*
X117449999Y-112305681D01*
X117606761Y-112285043D01*
X117752840Y-112224535D01*
X117878281Y-112128281D01*
X117880799Y-112124999D01*
X122894317Y-112124999D01*
X122914956Y-112281762D01*
X122975463Y-112427840D01*
X123071717Y-112553282D01*
X123130960Y-112598740D01*
X123197159Y-112649536D01*
X123343238Y-112710044D01*
X123500000Y-112730682D01*
X123656762Y-112710044D01*
X123802841Y-112649536D01*
X123928282Y-112553282D01*
X124024536Y-112427841D01*
X124085044Y-112281762D01*
X124105682Y-112125000D01*
X124085044Y-111968238D01*
X124024536Y-111822159D01*
X123991069Y-111778544D01*
X123928282Y-111696717D01*
X123802840Y-111600463D01*
X123656762Y-111539956D01*
X123500000Y-111519317D01*
X123343237Y-111539956D01*
X123197159Y-111600463D01*
X123071717Y-111696717D01*
X122975463Y-111822159D01*
X122914956Y-111968237D01*
X122894317Y-112124999D01*
X117880799Y-112124999D01*
X117974535Y-112002840D01*
X118035043Y-111856761D01*
X118055681Y-111699999D01*
X118035043Y-111543237D01*
X117974535Y-111397158D01*
X117947908Y-111362457D01*
X117878281Y-111271716D01*
X117752839Y-111175462D01*
X117606761Y-111114955D01*
X117449999Y-111094316D01*
X117293236Y-111114955D01*
X117147158Y-111175462D01*
X117021716Y-111271716D01*
X116925462Y-111397158D01*
X116864955Y-111543236D01*
X116844316Y-111699998D01*
X112857745Y-111699998D01*
X112920630Y-111618045D01*
X112981138Y-111471966D01*
X113001776Y-111315204D01*
X112981138Y-111158442D01*
X112920630Y-111012363D01*
X112874504Y-110952250D01*
X112824376Y-110886921D01*
X112711097Y-110800000D01*
X113794317Y-110800000D01*
X113814956Y-110956762D01*
X113875463Y-111102840D01*
X113971717Y-111228282D01*
X114068884Y-111302840D01*
X114097159Y-111324536D01*
X114243238Y-111385044D01*
X114400000Y-111405682D01*
X114556762Y-111385044D01*
X114702841Y-111324536D01*
X114828282Y-111228282D01*
X114924536Y-111102841D01*
X114985044Y-110956762D01*
X115005682Y-110800000D01*
X114985044Y-110643238D01*
X114924536Y-110497159D01*
X114907888Y-110475463D01*
X114828282Y-110371717D01*
X114702840Y-110275463D01*
X114556762Y-110214956D01*
X114400000Y-110194317D01*
X114243237Y-110214956D01*
X114097159Y-110275463D01*
X113971717Y-110371717D01*
X113875463Y-110497159D01*
X113814956Y-110643237D01*
X113794317Y-110800000D01*
X112711097Y-110800000D01*
X112698934Y-110790667D01*
X112552856Y-110730160D01*
X112396094Y-110709521D01*
X112239331Y-110730160D01*
X112093253Y-110790667D01*
X111967811Y-110886921D01*
X111871557Y-111012363D01*
X111811050Y-111158441D01*
X111790411Y-111315204D01*
X111315050Y-111315204D01*
X111324536Y-111302841D01*
X111385044Y-111156762D01*
X111405682Y-111000000D01*
X111385044Y-110843238D01*
X111324536Y-110697159D01*
X111324535Y-110697158D01*
X111228282Y-110571717D01*
X111102840Y-110475463D01*
X110956762Y-110414956D01*
X110800000Y-110394317D01*
X110643237Y-110414956D01*
X110497159Y-110475463D01*
X110371717Y-110571717D01*
X110275463Y-110697159D01*
X110214956Y-110843237D01*
X110194317Y-111000000D01*
X110214956Y-111156762D01*
X110275463Y-111302840D01*
X110368826Y-111424514D01*
X110391511Y-111473162D01*
X110391511Y-111526838D01*
X110368826Y-111575486D01*
X110275463Y-111697159D01*
X110214956Y-111843237D01*
X110194317Y-112000000D01*
X108770847Y-112000000D01*
X108756276Y-111889325D01*
X108695768Y-111743246D01*
X108599514Y-111617804D01*
X108474072Y-111521550D01*
X108327994Y-111461043D01*
X108171231Y-111440404D01*
X108062976Y-111454657D01*
X107999338Y-111446279D01*
X107948415Y-111407204D01*
X107923852Y-111347903D01*
X107932230Y-111284265D01*
X107985044Y-111156762D01*
X108004161Y-111011551D01*
X108028724Y-110952250D01*
X108079648Y-110913176D01*
X108143285Y-110904798D01*
X108150000Y-110905682D01*
X108306762Y-110885044D01*
X108452841Y-110824536D01*
X108578282Y-110728282D01*
X108674536Y-110602841D01*
X108735044Y-110456762D01*
X108755682Y-110300000D01*
X108735044Y-110143238D01*
X108674536Y-109997159D01*
X108674535Y-109997158D01*
X108578282Y-109871717D01*
X108452840Y-109775463D01*
X108306762Y-109714956D01*
X108150000Y-109694317D01*
X107993237Y-109714956D01*
X107847159Y-109775463D01*
X107721717Y-109871717D01*
X107625463Y-109997159D01*
X107564956Y-110143237D01*
X107545838Y-110288448D01*
X107521275Y-110347748D01*
X107470354Y-110386822D01*
X107406718Y-110395202D01*
X107400000Y-110394317D01*
X107243237Y-110414956D01*
X107097159Y-110475463D01*
X106971717Y-110571717D01*
X106875463Y-110697159D01*
X106814956Y-110843237D01*
X106794317Y-111000000D01*
X105339752Y-111000000D01*
X105315377Y-110946627D01*
X105307971Y-110930410D01*
X105308498Y-110930169D01*
X105292550Y-110899236D01*
X105292550Y-110840764D01*
X105308498Y-110809830D01*
X105307971Y-110809590D01*
X105375165Y-110662457D01*
X105383736Y-110602841D01*
X105395647Y-110520000D01*
X105375165Y-110377543D01*
X105372504Y-110371717D01*
X105307971Y-110230410D01*
X105308498Y-110230169D01*
X105292550Y-110199231D01*
X105292551Y-110140762D01*
X105308498Y-110109831D01*
X105307971Y-110109591D01*
X105375165Y-109962457D01*
X105388211Y-109871717D01*
X105395647Y-109820000D01*
X105375165Y-109677543D01*
X105315377Y-109546627D01*
X105307971Y-109530410D01*
X105308498Y-109530169D01*
X105292550Y-109499231D01*
X105292551Y-109440762D01*
X105308498Y-109409831D01*
X105307971Y-109409591D01*
X105375165Y-109262457D01*
X105390361Y-109156762D01*
X105395647Y-109120000D01*
X105375165Y-108977543D01*
X105341049Y-108902841D01*
X105307971Y-108830410D01*
X105308498Y-108830169D01*
X105292550Y-108799236D01*
X105292550Y-108740764D01*
X105298989Y-108728275D01*
X106210592Y-108728275D01*
X106231231Y-108885037D01*
X106291738Y-109031115D01*
X106387992Y-109156557D01*
X106513433Y-109252810D01*
X106513434Y-109252811D01*
X106659513Y-109313319D01*
X106816275Y-109333957D01*
X106973037Y-109313319D01*
X107119116Y-109252811D01*
X107244557Y-109156557D01*
X107340811Y-109031116D01*
X107353700Y-108999999D01*
X111069317Y-108999999D01*
X111089956Y-109156762D01*
X111150463Y-109302840D01*
X111246717Y-109428282D01*
X111339181Y-109499231D01*
X111372159Y-109524536D01*
X111518238Y-109585044D01*
X111675000Y-109605682D01*
X111831762Y-109585044D01*
X111977841Y-109524536D01*
X112103282Y-109428282D01*
X112199536Y-109302841D01*
X112234082Y-109219439D01*
X114718535Y-109219439D01*
X114739174Y-109376201D01*
X114799681Y-109522279D01*
X114895935Y-109647721D01*
X115021376Y-109743974D01*
X115021377Y-109743975D01*
X115167456Y-109804483D01*
X115324218Y-109825121D01*
X115480980Y-109804483D01*
X115627059Y-109743975D01*
X115752500Y-109647721D01*
X115848754Y-109522280D01*
X115909262Y-109376201D01*
X115929900Y-109219439D01*
X115909262Y-109062677D01*
X115848754Y-108916598D01*
X115838197Y-108902840D01*
X115752500Y-108791156D01*
X115627058Y-108694902D01*
X115480980Y-108634395D01*
X115324218Y-108613756D01*
X115167455Y-108634395D01*
X115021377Y-108694902D01*
X114895935Y-108791156D01*
X114799681Y-108916598D01*
X114739174Y-109062676D01*
X114718535Y-109219439D01*
X112234082Y-109219439D01*
X112260044Y-109156762D01*
X112280682Y-109000000D01*
X112260044Y-108843238D01*
X112199536Y-108697159D01*
X112127502Y-108603282D01*
X112124984Y-108600000D01*
X112594317Y-108600000D01*
X112614956Y-108756762D01*
X112675463Y-108902840D01*
X112771717Y-109028282D01*
X112891248Y-109120000D01*
X112897159Y-109124536D01*
X113043238Y-109185044D01*
X113200000Y-109205682D01*
X113356762Y-109185044D01*
X113502841Y-109124536D01*
X113628282Y-109028282D01*
X113724536Y-108902841D01*
X113785044Y-108756762D01*
X113805682Y-108600000D01*
X113785044Y-108443238D01*
X113724536Y-108297159D01*
X113709484Y-108277543D01*
X113628282Y-108171717D01*
X113502840Y-108075463D01*
X113356762Y-108014956D01*
X113200000Y-107994317D01*
X113043237Y-108014956D01*
X112897159Y-108075463D01*
X112771717Y-108171717D01*
X112675463Y-108297159D01*
X112614956Y-108443237D01*
X112594317Y-108600000D01*
X112124984Y-108600000D01*
X112103282Y-108571717D01*
X111977840Y-108475463D01*
X111831762Y-108414956D01*
X111675000Y-108394317D01*
X111518237Y-108414956D01*
X111372159Y-108475463D01*
X111246717Y-108571717D01*
X111150463Y-108697159D01*
X111089956Y-108843237D01*
X111069317Y-108999999D01*
X107353700Y-108999999D01*
X107401319Y-108885037D01*
X107421957Y-108728275D01*
X107401319Y-108571513D01*
X107340811Y-108425434D01*
X107244557Y-108299993D01*
X107234619Y-108287041D01*
X107236835Y-108285340D01*
X107214044Y-108255637D01*
X107205667Y-108191999D01*
X107230231Y-108132699D01*
X107281154Y-108093626D01*
X107344789Y-108085248D01*
X107500000Y-108105682D01*
X107656762Y-108085044D01*
X107802841Y-108024536D01*
X107928282Y-107928282D01*
X108024536Y-107802841D01*
X108085044Y-107656762D01*
X108089499Y-107622921D01*
X109669684Y-107622921D01*
X109690323Y-107779684D01*
X109750830Y-107925762D01*
X109847084Y-108051204D01*
X109955832Y-108134648D01*
X109972526Y-108147458D01*
X110118605Y-108207966D01*
X110275367Y-108228604D01*
X110432129Y-108207966D01*
X110578208Y-108147458D01*
X110703649Y-108051204D01*
X110799903Y-107925763D01*
X110810575Y-107899999D01*
X116144317Y-107899999D01*
X116164956Y-108056762D01*
X116225463Y-108202840D01*
X116321717Y-108328282D01*
X116407778Y-108394318D01*
X116447159Y-108424536D01*
X116593238Y-108485044D01*
X116750000Y-108505682D01*
X116906762Y-108485044D01*
X117052841Y-108424536D01*
X117178282Y-108328282D01*
X117274536Y-108202841D01*
X117286068Y-108175000D01*
X123044317Y-108175000D01*
X123064956Y-108331762D01*
X123125463Y-108477840D01*
X123221717Y-108603282D01*
X123262265Y-108634395D01*
X123347159Y-108699536D01*
X123493238Y-108760044D01*
X123650000Y-108780682D01*
X123806762Y-108760044D01*
X123952841Y-108699536D01*
X124078282Y-108603282D01*
X124174536Y-108477841D01*
X124235044Y-108331762D01*
X124255682Y-108175000D01*
X124235044Y-108018238D01*
X124174536Y-107872159D01*
X124103578Y-107779684D01*
X124078282Y-107746717D01*
X123952840Y-107650463D01*
X123806762Y-107589956D01*
X123650000Y-107569317D01*
X123493237Y-107589956D01*
X123347159Y-107650463D01*
X123221717Y-107746717D01*
X123125463Y-107872159D01*
X123064956Y-108018237D01*
X123044317Y-108175000D01*
X117286068Y-108175000D01*
X117335044Y-108056762D01*
X117355682Y-107900000D01*
X117335044Y-107743238D01*
X117274536Y-107597159D01*
X117259484Y-107577543D01*
X117178282Y-107471717D01*
X117052840Y-107375463D01*
X116906762Y-107314956D01*
X116750000Y-107294317D01*
X116593237Y-107314956D01*
X116447159Y-107375463D01*
X116321717Y-107471717D01*
X116225463Y-107597159D01*
X116164956Y-107743237D01*
X116144317Y-107899999D01*
X110810575Y-107899999D01*
X110860411Y-107779684D01*
X110881049Y-107622922D01*
X110860411Y-107466160D01*
X110799903Y-107320081D01*
X110795782Y-107314710D01*
X110703649Y-107194639D01*
X110578207Y-107098385D01*
X110432129Y-107037878D01*
X110275367Y-107017239D01*
X110118604Y-107037878D01*
X109972526Y-107098385D01*
X109847084Y-107194639D01*
X109750830Y-107320081D01*
X109690323Y-107466159D01*
X109669684Y-107622921D01*
X108089499Y-107622921D01*
X108105682Y-107500000D01*
X108085044Y-107343238D01*
X108024536Y-107197159D01*
X107974967Y-107132559D01*
X107928282Y-107071717D01*
X107802840Y-106975463D01*
X107656762Y-106914956D01*
X107500000Y-106894317D01*
X107343237Y-106914956D01*
X107197159Y-106975463D01*
X107071717Y-107071717D01*
X106975463Y-107197159D01*
X106914956Y-107343237D01*
X106894317Y-107499999D01*
X106914956Y-107656762D01*
X106975463Y-107802840D01*
X107081656Y-107941234D01*
X107079439Y-107942934D01*
X107102229Y-107972634D01*
X107110607Y-108036272D01*
X107086044Y-108095573D01*
X107035121Y-108134648D01*
X106971483Y-108143026D01*
X106816275Y-108122592D01*
X106659512Y-108143231D01*
X106513434Y-108203738D01*
X106387992Y-108299992D01*
X106291738Y-108425434D01*
X106231231Y-108571512D01*
X106210592Y-108728275D01*
X105298989Y-108728275D01*
X105308498Y-108709830D01*
X105307971Y-108709590D01*
X105375165Y-108562457D01*
X105375165Y-108562456D01*
X105395647Y-108420000D01*
X105375165Y-108277543D01*
X105343389Y-108207965D01*
X105307971Y-108130410D01*
X105308498Y-108130169D01*
X105292550Y-108099236D01*
X105292550Y-108040764D01*
X105308498Y-108009830D01*
X105307971Y-108009590D01*
X105375165Y-107862457D01*
X105383736Y-107802841D01*
X105395647Y-107720000D01*
X105375165Y-107577543D01*
X105371408Y-107569317D01*
X105315376Y-107446625D01*
X105221129Y-107337858D01*
X105221128Y-107337857D01*
X105100053Y-107260047D01*
X104961961Y-107219500D01*
X104818039Y-107219500D01*
X104679945Y-107260047D01*
X104607037Y-107306902D01*
X104539998Y-107326586D01*
X104472960Y-107306901D01*
X104400054Y-107260047D01*
X104261961Y-107219500D01*
X104118039Y-107219500D01*
X103979945Y-107260047D01*
X103907037Y-107306902D01*
X103839998Y-107326586D01*
X103772960Y-107306901D01*
X103700054Y-107260047D01*
X103561961Y-107219500D01*
X103418039Y-107219500D01*
X103279945Y-107260047D01*
X103207037Y-107306902D01*
X103139998Y-107326586D01*
X103072960Y-107306901D01*
X103000054Y-107260047D01*
X102861961Y-107219500D01*
X102718039Y-107219500D01*
X102579945Y-107260047D01*
X102507037Y-107306902D01*
X102439998Y-107326586D01*
X102372960Y-107306901D01*
X102300054Y-107260047D01*
X102161961Y-107219500D01*
X102018039Y-107219500D01*
X101879945Y-107260047D01*
X101807037Y-107306902D01*
X101739998Y-107326586D01*
X101672960Y-107306901D01*
X101600054Y-107260047D01*
X101461961Y-107219500D01*
X101318039Y-107219500D01*
X101179947Y-107260047D01*
X101107039Y-107306902D01*
X101040000Y-107326586D01*
X100972961Y-107306902D01*
X100953378Y-107294317D01*
X100900053Y-107260047D01*
X100761961Y-107219500D01*
X100618039Y-107219500D01*
X100508932Y-107251536D01*
X100451983Y-107254589D01*
X100399690Y-107231826D01*
X100363116Y-107188064D01*
X100350000Y-107132559D01*
X100350000Y-106774999D01*
X105569317Y-106774999D01*
X105589956Y-106931762D01*
X105650463Y-107077840D01*
X105746717Y-107203282D01*
X105865357Y-107294317D01*
X105872159Y-107299536D01*
X106018238Y-107360044D01*
X106175000Y-107380682D01*
X106331762Y-107360044D01*
X106477841Y-107299536D01*
X106603282Y-107203282D01*
X106699536Y-107077841D01*
X106760044Y-106931762D01*
X106780682Y-106775000D01*
X106760044Y-106618238D01*
X106699536Y-106472159D01*
X106663350Y-106425000D01*
X106603282Y-106346717D01*
X106477840Y-106250463D01*
X106476720Y-106249999D01*
X111594317Y-106249999D01*
X111614956Y-106406762D01*
X111675463Y-106552840D01*
X111771717Y-106678282D01*
X111897158Y-106774535D01*
X111897159Y-106774536D01*
X112043238Y-106835044D01*
X112200000Y-106855682D01*
X112356762Y-106835044D01*
X112502841Y-106774536D01*
X112628282Y-106678282D01*
X112724536Y-106552841D01*
X112777490Y-106425000D01*
X116569317Y-106425000D01*
X116589956Y-106581762D01*
X116650463Y-106727840D01*
X116746717Y-106853282D01*
X116800197Y-106894318D01*
X116872159Y-106949536D01*
X117018238Y-107010044D01*
X117175000Y-107030682D01*
X117331762Y-107010044D01*
X117477841Y-106949536D01*
X117603282Y-106853282D01*
X117699536Y-106727841D01*
X117760044Y-106581762D01*
X117780682Y-106425000D01*
X117777391Y-106399999D01*
X118944317Y-106399999D01*
X118964956Y-106556762D01*
X119025463Y-106702840D01*
X119121717Y-106828282D01*
X119207778Y-106894318D01*
X119247159Y-106924536D01*
X119393238Y-106985044D01*
X119550000Y-107005682D01*
X119706762Y-106985044D01*
X119852841Y-106924536D01*
X119978282Y-106828282D01*
X120074536Y-106702841D01*
X120135044Y-106556762D01*
X120155682Y-106400000D01*
X120140240Y-106282710D01*
X120149882Y-106216132D01*
X120192874Y-106164385D01*
X120256561Y-106142705D01*
X120322196Y-106157473D01*
X120344082Y-106169317D01*
X120415344Y-106207882D01*
X120642703Y-106285934D01*
X120879808Y-106325500D01*
X121120191Y-106325500D01*
X121120192Y-106325500D01*
X121357297Y-106285934D01*
X121584656Y-106207882D01*
X121796067Y-106093472D01*
X121985764Y-105945825D01*
X122148571Y-105768969D01*
X122280049Y-105567728D01*
X122376610Y-105347591D01*
X122435620Y-105114563D01*
X122455471Y-104875000D01*
X122435620Y-104635437D01*
X122376610Y-104402409D01*
X122280049Y-104182272D01*
X122148571Y-103981031D01*
X121985764Y-103804175D01*
X121915564Y-103749536D01*
X121796072Y-103656531D01*
X121796068Y-103656528D01*
X121796067Y-103656528D01*
X121584656Y-103542118D01*
X121584655Y-103542117D01*
X121584652Y-103542116D01*
X121357299Y-103464066D01*
X121199227Y-103437688D01*
X121120192Y-103424500D01*
X120879808Y-103424500D01*
X120820531Y-103434391D01*
X120642700Y-103464066D01*
X120415347Y-103542116D01*
X120203927Y-103656531D01*
X120014239Y-103804172D01*
X120014236Y-103804174D01*
X120014236Y-103804175D01*
X119851429Y-103981031D01*
X119719951Y-104182272D01*
X119719950Y-104182274D01*
X119692735Y-104244318D01*
X119623390Y-104402409D01*
X119586735Y-104547159D01*
X119564379Y-104635441D01*
X119544528Y-104874999D01*
X119564379Y-105114558D01*
X119564379Y-105114561D01*
X119564380Y-105114563D01*
X119623390Y-105347591D01*
X119719951Y-105567728D01*
X119750264Y-105614126D01*
X119770450Y-105680878D01*
X119751417Y-105747969D01*
X119699183Y-105794177D01*
X119630270Y-105804885D01*
X119550000Y-105794317D01*
X119393237Y-105814956D01*
X119247159Y-105875463D01*
X119121717Y-105971717D01*
X119025463Y-106097159D01*
X118964956Y-106243237D01*
X118944317Y-106399999D01*
X117777391Y-106399999D01*
X117760044Y-106268238D01*
X117699536Y-106122159D01*
X117677344Y-106093238D01*
X117603282Y-105996717D01*
X117477840Y-105900463D01*
X117331762Y-105839956D01*
X117175000Y-105819317D01*
X117018237Y-105839956D01*
X116872159Y-105900463D01*
X116746717Y-105996717D01*
X116650463Y-106122159D01*
X116589956Y-106268237D01*
X116569317Y-106425000D01*
X112777490Y-106425000D01*
X112785044Y-106406762D01*
X112805682Y-106250000D01*
X112785044Y-106093238D01*
X112724536Y-105947159D01*
X112669522Y-105875463D01*
X112628282Y-105821717D01*
X112502840Y-105725463D01*
X112356762Y-105664956D01*
X112200000Y-105644317D01*
X112043237Y-105664956D01*
X111897159Y-105725463D01*
X111771717Y-105821717D01*
X111675463Y-105947159D01*
X111614956Y-106093237D01*
X111594317Y-106249999D01*
X106476720Y-106249999D01*
X106331762Y-106189956D01*
X106175000Y-106169317D01*
X106018237Y-106189956D01*
X105872159Y-106250463D01*
X105746717Y-106346717D01*
X105650463Y-106472159D01*
X105589956Y-106618237D01*
X105569317Y-106774999D01*
X100350000Y-106774999D01*
X100350000Y-104874999D01*
X102544528Y-104874999D01*
X102564379Y-105114558D01*
X102564379Y-105114561D01*
X102564380Y-105114563D01*
X102623390Y-105347591D01*
X102719951Y-105567728D01*
X102851429Y-105768969D01*
X103014236Y-105945825D01*
X103077468Y-105995040D01*
X103203927Y-106093468D01*
X103203929Y-106093469D01*
X103203933Y-106093472D01*
X103415344Y-106207882D01*
X103642703Y-106285934D01*
X103879808Y-106325500D01*
X104120191Y-106325500D01*
X104120192Y-106325500D01*
X104357297Y-106285934D01*
X104584656Y-106207882D01*
X104796067Y-106093472D01*
X104985764Y-105945825D01*
X105148571Y-105768969D01*
X105280049Y-105567728D01*
X105376610Y-105347591D01*
X105435620Y-105114563D01*
X105443041Y-105025000D01*
X110344317Y-105025000D01*
X110364956Y-105181762D01*
X110425463Y-105327840D01*
X110521717Y-105453282D01*
X110647158Y-105549535D01*
X110647159Y-105549536D01*
X110793238Y-105610044D01*
X110950000Y-105630682D01*
X111106762Y-105610044D01*
X111252841Y-105549536D01*
X111378282Y-105453282D01*
X111474536Y-105327841D01*
X111535044Y-105181762D01*
X111555682Y-105025000D01*
X111535044Y-104868238D01*
X111527490Y-104850000D01*
X116594317Y-104850000D01*
X116614956Y-105006762D01*
X116675463Y-105152840D01*
X116771717Y-105278282D01*
X116862043Y-105347591D01*
X116897159Y-105374536D01*
X117043238Y-105435044D01*
X117200000Y-105455682D01*
X117356762Y-105435044D01*
X117502841Y-105374536D01*
X117628282Y-105278282D01*
X117724536Y-105152841D01*
X117785044Y-105006762D01*
X117805682Y-104850000D01*
X117785044Y-104693238D01*
X117724536Y-104547159D01*
X117688705Y-104500463D01*
X117628282Y-104421717D01*
X117502840Y-104325463D01*
X117356762Y-104264956D01*
X117200000Y-104244317D01*
X117043237Y-104264956D01*
X116897159Y-104325463D01*
X116771717Y-104421717D01*
X116675463Y-104547159D01*
X116614956Y-104693237D01*
X116594317Y-104850000D01*
X111527490Y-104850000D01*
X111474536Y-104722159D01*
X111452344Y-104693238D01*
X111378282Y-104596717D01*
X111252840Y-104500463D01*
X111106762Y-104439956D01*
X110950000Y-104419317D01*
X110793237Y-104439956D01*
X110647159Y-104500463D01*
X110521717Y-104596717D01*
X110425463Y-104722159D01*
X110364956Y-104868237D01*
X110344317Y-105025000D01*
X105443041Y-105025000D01*
X105455471Y-104875000D01*
X105435620Y-104635437D01*
X105376610Y-104402409D01*
X105280049Y-104182272D01*
X105148571Y-103981031D01*
X104985764Y-103804175D01*
X104915564Y-103749536D01*
X104796072Y-103656531D01*
X104796068Y-103656528D01*
X104796067Y-103656528D01*
X104584656Y-103542118D01*
X104584655Y-103542117D01*
X104584652Y-103542116D01*
X104357299Y-103464066D01*
X104199227Y-103437688D01*
X104120192Y-103424500D01*
X103879808Y-103424500D01*
X103820531Y-103434391D01*
X103642700Y-103464066D01*
X103415347Y-103542116D01*
X103203927Y-103656531D01*
X103014239Y-103804172D01*
X103014236Y-103804174D01*
X103014236Y-103804175D01*
X102851429Y-103981031D01*
X102719951Y-104182272D01*
X102719950Y-104182274D01*
X102692735Y-104244318D01*
X102623390Y-104402409D01*
X102586735Y-104547159D01*
X102564379Y-104635441D01*
X102544528Y-104874999D01*
X100350000Y-104874999D01*
X100350000Y-103045000D01*
X100324500Y-103045000D01*
X100262500Y-103028387D01*
X100217113Y-102983000D01*
X100200500Y-102921000D01*
X100200500Y-102824500D01*
X100217113Y-102762500D01*
X100262500Y-102717113D01*
X100324500Y-102700500D01*
X105594484Y-102700500D01*
X105781113Y-102670941D01*
X105781114Y-102670940D01*
X105781118Y-102670940D01*
X105960832Y-102612547D01*
X106129199Y-102526760D01*
X106282073Y-102415690D01*
X106415690Y-102282073D01*
X106449676Y-102235294D01*
X106492976Y-102198067D01*
X106548370Y-102184191D01*
X106604108Y-102196611D01*
X106648370Y-102232693D01*
X106721719Y-102328283D01*
X106834066Y-102414490D01*
X106870500Y-102459482D01*
X106882538Y-102516111D01*
X106867554Y-102572033D01*
X106828815Y-102615057D01*
X106774767Y-102635805D01*
X106743237Y-102639956D01*
X106597159Y-102700463D01*
X106471717Y-102796717D01*
X106375463Y-102922159D01*
X106314956Y-103068237D01*
X106294317Y-103225000D01*
X106314956Y-103381762D01*
X106375463Y-103527840D01*
X106471717Y-103653282D01*
X106597158Y-103749535D01*
X106597159Y-103749536D01*
X106743238Y-103810044D01*
X106900000Y-103830682D01*
X107056762Y-103810044D01*
X107202841Y-103749536D01*
X107328282Y-103653282D01*
X107387661Y-103575896D01*
X107438583Y-103536823D01*
X107502221Y-103528445D01*
X107561522Y-103553008D01*
X107591353Y-103575898D01*
X107622159Y-103599536D01*
X107768238Y-103660044D01*
X107925000Y-103680682D01*
X108081762Y-103660044D01*
X108227841Y-103599536D01*
X108353282Y-103503282D01*
X108432151Y-103400498D01*
X111544815Y-103400498D01*
X111565454Y-103557260D01*
X111625961Y-103703338D01*
X111722215Y-103828780D01*
X111847656Y-103925033D01*
X111847657Y-103925034D01*
X111993736Y-103985542D01*
X112150498Y-104006180D01*
X112307260Y-103985542D01*
X112453339Y-103925034D01*
X112578780Y-103828780D01*
X112675034Y-103703339D01*
X112735542Y-103557260D01*
X112756180Y-103400498D01*
X112735542Y-103243736D01*
X112675034Y-103097657D01*
X112634629Y-103045000D01*
X112578780Y-102972215D01*
X112453338Y-102875961D01*
X112307260Y-102815454D01*
X112150498Y-102794815D01*
X111993735Y-102815454D01*
X111847657Y-102875961D01*
X111722215Y-102972215D01*
X111625961Y-103097657D01*
X111565454Y-103243735D01*
X111544815Y-103400498D01*
X108432151Y-103400498D01*
X108449536Y-103377841D01*
X108510044Y-103231762D01*
X108530682Y-103075000D01*
X108510044Y-102918238D01*
X108449536Y-102772159D01*
X108407298Y-102717113D01*
X108353282Y-102646717D01*
X108227840Y-102550463D01*
X108081762Y-102489956D01*
X107925000Y-102469317D01*
X107768237Y-102489956D01*
X107735463Y-102503531D01*
X107671826Y-102511908D01*
X107612525Y-102487344D01*
X107573451Y-102436421D01*
X107565074Y-102372783D01*
X107589635Y-102313485D01*
X107674536Y-102202841D01*
X107735044Y-102056762D01*
X107755682Y-101900000D01*
X107735044Y-101743238D01*
X107674536Y-101597159D01*
X107640728Y-101553099D01*
X107578282Y-101471717D01*
X107452840Y-101375463D01*
X107306762Y-101314956D01*
X107150000Y-101294317D01*
X106993237Y-101314956D01*
X106871952Y-101365194D01*
X106812346Y-101374036D01*
X106755609Y-101353735D01*
X106715142Y-101309086D01*
X106700500Y-101250633D01*
X106700500Y-100824500D01*
X106717113Y-100762500D01*
X106762500Y-100717113D01*
X106824500Y-100700500D01*
X108775694Y-100700500D01*
X108834862Y-100715527D01*
G37*
%TD.AperFunction*%
%TD*%
M02*
