%TF.GenerationSoftware,KiCad,Pcbnew,7.0.1-3b83917a11~172~ubuntu22.04.1*%
%TF.CreationDate,2023-07-05T11:02:11+02:00*%
%TF.ProjectId,phyphox-newton,70687970-686f-4782-9d6e-6577746f6e2e,rev?*%
%TF.SameCoordinates,Original*%
%TF.FileFunction,Copper,L4,Bot*%
%TF.FilePolarity,Positive*%
%FSLAX46Y46*%
G04 Gerber Fmt 4.6, Leading zero omitted, Abs format (unit mm)*
G04 Created by KiCad (PCBNEW 7.0.1-3b83917a11~172~ubuntu22.04.1) date 2023-07-05 11:02:11*
%MOMM*%
%LPD*%
G01*
G04 APERTURE LIST*
G04 Aperture macros list*
%AMFreePoly0*
4,1,21,-0.600000,0.250000,-0.580970,0.345671,-0.526777,0.426777,-0.445671,0.480970,-0.350000,0.500000,0.350000,0.500000,0.445671,0.480970,0.526777,0.426777,0.580970,0.345671,0.600000,0.250000,0.600000,-0.250000,0.580970,-0.345671,0.526777,-0.426777,0.445671,-0.480970,0.350000,-0.500000,-0.350000,-0.500000,-0.445671,-0.480970,-0.526777,-0.426777,-0.580970,-0.345671,-0.600000,-0.250000,
-0.600000,0.250000,-0.600000,0.250000,$1*%
G04 Aperture macros list end*
%TA.AperFunction,ComponentPad*%
%ADD10C,2.500000*%
%TD*%
%TA.AperFunction,ComponentPad*%
%ADD11O,1.100000X2.100000*%
%TD*%
%TA.AperFunction,ComponentPad*%
%ADD12O,1.100000X2.600000*%
%TD*%
%TA.AperFunction,ComponentPad*%
%ADD13C,1.524000*%
%TD*%
%TA.AperFunction,SMDPad,CuDef*%
%ADD14FreePoly0,0.000000*%
%TD*%
%TA.AperFunction,SMDPad,CuDef*%
%ADD15C,0.500000*%
%TD*%
%TA.AperFunction,SMDPad,CuDef*%
%ADD16FreePoly0,180.000000*%
%TD*%
%TA.AperFunction,SMDPad,CuDef*%
%ADD17R,0.500000X1.950000*%
%TD*%
%TA.AperFunction,ConnectorPad*%
%ADD18C,0.787400*%
%TD*%
%TA.AperFunction,ViaPad*%
%ADD19C,0.800000*%
%TD*%
%TA.AperFunction,ViaPad*%
%ADD20C,0.600000*%
%TD*%
%TA.AperFunction,Conductor*%
%ADD21C,0.125000*%
%TD*%
%TA.AperFunction,Conductor*%
%ADD22C,0.250000*%
%TD*%
%TA.AperFunction,Conductor*%
%ADD23C,0.200000*%
%TD*%
%TA.AperFunction,Conductor*%
%ADD24C,0.500000*%
%TD*%
G04 APERTURE END LIST*
D10*
%TO.P,H3,1*%
%TO.N,N/C*%
X121000000Y-137625000D03*
%TD*%
D11*
%TO.P,J2,S1,SHIELD*%
%TO.N,GND*%
X108055000Y-134945000D03*
D12*
X108055000Y-140305000D03*
D11*
X116695000Y-134945000D03*
D12*
X116695000Y-140305000D03*
%TD*%
D13*
%TO.P,C1,1*%
%TO.N,SC*%
X111375000Y-131500000D03*
D14*
X111375000Y-132500000D03*
D13*
%TO.P,C1,2*%
%TO.N,GND*%
X116375000Y-131500000D03*
D14*
X116375000Y-132500000D03*
%TD*%
D10*
%TO.P,H1,1*%
%TO.N,N/C*%
X104000000Y-104875000D03*
%TD*%
D15*
%TO.P,FID4,*%
%TO.N,*%
X101500000Y-103500000D03*
%TD*%
D16*
%TO.P,C13,1*%
%TO.N,SC*%
X113625000Y-132500000D03*
D13*
X113625000Y-131500000D03*
D16*
%TO.P,C13,2*%
%TO.N,GND*%
X108625000Y-132500000D03*
D13*
X108625000Y-131500000D03*
%TD*%
D17*
%TO.P,J3,1,Pin_1*%
%TO.N,GND*%
X116000000Y-104975000D03*
%TO.P,J3,2,Pin_2*%
%TO.N,VCC*%
X115000000Y-103025000D03*
%TO.P,J3,3,Pin_3*%
%TO.N,SDA*%
X114000000Y-104975000D03*
%TO.P,J3,4,Pin_4*%
%TO.N,SCL*%
X113000000Y-103025000D03*
%TO.P,J3,5,Pin_5*%
%TO.N,1Wire*%
X112000000Y-104975000D03*
%TO.P,J3,6,Pin_6*%
%TO.N,VL53_XSHUT*%
X111000000Y-103025000D03*
%TO.P,J3,7,Pin_7*%
%TO.N,VL53_DRY*%
X110000000Y-104975000D03*
%TO.P,J3,8,Pin_8*%
%TO.N,VEML_INT*%
X109000000Y-103025000D03*
%TD*%
D18*
%TO.P,J1,1,VTref*%
%TO.N,VCC*%
X117500000Y-125250000D03*
%TO.P,J1,2,SWDIO/TMS*%
%TO.N,SWDIO*%
X117500000Y-123980000D03*
%TO.P,J1,3,GND*%
%TO.N,GND*%
X117500000Y-122710000D03*
%TO.P,J1,4,SWDCLK/TCK*%
%TO.N,SWDCLK*%
X117500000Y-121440000D03*
%TO.P,J1,5,GND*%
%TO.N,GND*%
X117500000Y-120170000D03*
%TO.P,J1,6,SWO/TDO*%
%TO.N,SWO*%
X118770000Y-120170000D03*
%TO.P,J1,7,KEY*%
%TO.N,unconnected-(J1-KEY-Pad7)*%
X118770000Y-121440000D03*
%TO.P,J1,8,NC/TDI*%
%TO.N,unconnected-(J1-NC{slash}TDI-Pad8)*%
X118770000Y-122710000D03*
%TO.P,J1,9,GNDDetect*%
%TO.N,GND*%
X118770000Y-123980000D03*
%TO.P,J1,10,~{RESET}*%
%TO.N,RESET*%
X118770000Y-125250000D03*
%TD*%
D10*
%TO.P,H4,1*%
%TO.N,N/C*%
X104000000Y-137625000D03*
%TD*%
%TO.P,H2,1*%
%TO.N,N/C*%
X121000000Y-104875000D03*
%TD*%
D15*
%TO.P,FID5,*%
%TO.N,*%
X123500000Y-138500000D03*
%TD*%
D19*
%TO.N,VL53_DRY*%
X106000000Y-118750000D03*
%TO.N,SWDIO*%
X109400500Y-114500000D03*
X106816275Y-108728275D03*
X114775500Y-116081637D03*
%TO.N,SWDCLK*%
X115500000Y-115250000D03*
X109400500Y-113500000D03*
X107500000Y-107500000D03*
%TO.N,/USB_N*%
X102001354Y-137105651D03*
X108171232Y-112046087D03*
%TO.N,/USB_P*%
X112200000Y-133800000D03*
X107400000Y-111000000D03*
X101258890Y-137848115D03*
X112840000Y-138730000D03*
%TO.N,SWO*%
X116250000Y-117750000D03*
%TO.N,RESET*%
X107150000Y-101900000D03*
X116200000Y-101325000D03*
D20*
X103022553Y-115624779D03*
D19*
X117175000Y-106425000D03*
X119550000Y-106400000D03*
%TO.N,SC*%
X122250000Y-116500000D03*
X117800000Y-129000000D03*
X123500000Y-112125000D03*
%TO.N,SDA*%
X104100499Y-133052417D03*
X112396094Y-111315204D03*
X110150498Y-102077635D03*
X106891344Y-132476443D03*
X110800000Y-112000000D03*
X112511746Y-126684003D03*
%TO.N,SCL*%
X111800000Y-124600000D03*
X104500000Y-130800000D03*
X111025000Y-101450498D03*
X110800000Y-111000000D03*
X108367339Y-114403050D03*
X102750000Y-134250000D03*
X106480500Y-134258375D03*
%TO.N,VBUS*%
X111400000Y-139600000D03*
X109706886Y-123878901D03*
D20*
X103138498Y-116415828D03*
D19*
X109500000Y-141000000D03*
X111346278Y-137346278D03*
X108049264Y-128338000D03*
X100833641Y-119407960D03*
D20*
%TO.N,GND*%
X100690000Y-107720000D03*
D19*
X122697119Y-126597234D03*
X114400000Y-110800000D03*
D20*
X105990000Y-114720000D03*
X101090000Y-113620000D03*
D19*
X112150498Y-103400498D03*
X109174645Y-122500500D03*
D20*
X104890000Y-111220000D03*
D19*
X111980707Y-127530763D03*
D20*
X100690000Y-114120000D03*
X101090000Y-116620000D03*
D19*
X119120000Y-117540000D03*
D20*
X103490000Y-107720000D03*
D19*
X121000000Y-125250000D03*
X110275367Y-107622922D03*
X120750000Y-120250000D03*
X104257765Y-121189441D03*
D20*
X100690000Y-118520000D03*
X102790000Y-107720000D03*
D19*
X108400000Y-137000000D03*
X108150000Y-110300000D03*
D20*
X101090000Y-115620000D03*
D19*
X116750000Y-107900000D03*
X100750000Y-122000000D03*
D20*
X100690000Y-115120000D03*
X102090000Y-107720000D03*
D19*
X110950000Y-105025000D03*
X123650000Y-108175000D03*
X111400000Y-113000000D03*
X114250000Y-120660000D03*
D20*
X104890000Y-107720000D03*
D19*
X115600000Y-137200000D03*
X117475000Y-101300000D03*
D20*
X104890000Y-108420000D03*
D19*
X111675000Y-109000000D03*
D20*
X101390000Y-107720000D03*
X100690000Y-117820000D03*
X104890000Y-110520000D03*
D19*
X122500000Y-119250000D03*
D20*
X101090000Y-114620000D03*
D19*
X115750000Y-122500000D03*
X103838000Y-132088000D03*
D20*
X103290000Y-114720000D03*
D19*
X123500000Y-134750000D03*
X101911897Y-131088103D03*
X109150000Y-101450498D03*
X117449999Y-111699999D03*
X103995085Y-134046345D03*
D20*
X104890000Y-109820000D03*
X100690000Y-117120000D03*
D19*
X122500500Y-122500000D03*
X105500000Y-125750000D03*
X111500000Y-121000000D03*
D20*
X104190000Y-107720000D03*
D19*
X106175000Y-106775000D03*
X123500000Y-130500000D03*
X116250000Y-120250000D03*
D20*
X100690000Y-116120000D03*
X104890000Y-109120000D03*
D19*
X119182069Y-129471389D03*
X105364689Y-128539481D03*
X106900000Y-103225000D03*
X117200000Y-104850000D03*
X120500000Y-131500000D03*
X104887979Y-119000000D03*
%TO.N,LED_G*%
X108153202Y-118013000D03*
X103804296Y-126278253D03*
%TO.N,LED_B*%
X104050500Y-125100000D03*
X109400500Y-117027345D03*
%TO.N,LED_R*%
X103725500Y-128270000D03*
X109152553Y-117995604D03*
%TO.N,VEML_INT*%
X107925000Y-103075000D03*
%TO.N,BMP581_INT*%
X109400000Y-115900000D03*
X102802165Y-130633760D03*
%TO.N,BMI_INT_2*%
X113200000Y-108600000D03*
X111399500Y-119872463D03*
X113088000Y-115656185D03*
%TO.N,BMI_INT_1*%
X113750000Y-117250000D03*
X112315055Y-119471510D03*
X113800000Y-113800000D03*
%TO.N,VCC_DAM*%
X110349356Y-137418043D03*
X114102755Y-133585833D03*
X108800000Y-125600000D03*
%TO.N,1Wire_DAM*%
X115125000Y-133250000D03*
X109351508Y-137475500D03*
X109516652Y-128667655D03*
%TO.N,1Wire*%
X113500000Y-118687000D03*
X115324218Y-109219439D03*
X112200000Y-106250000D03*
X110400000Y-128200000D03*
%TO.N,CC2*%
X114400000Y-129800000D03*
X113559312Y-137720688D03*
%TO.N,VCC*%
X123450000Y-103500000D03*
X116000000Y-125250000D03*
X101996296Y-118696431D03*
X115201446Y-101449998D03*
X111697367Y-116397247D03*
X109150498Y-105000000D03*
X114400000Y-109600000D03*
X106455500Y-131000000D03*
X105900000Y-136700000D03*
X103700000Y-123700000D03*
X114400000Y-112000000D03*
X111023497Y-110025806D03*
X116650000Y-114970000D03*
X108100500Y-127093750D03*
%TD*%
D21*
%TO.N,VL53_DRY*%
X106153775Y-109002692D02*
X106153775Y-107846225D01*
X106552500Y-114697500D02*
X108833732Y-112416268D01*
X109725000Y-105675000D02*
X110000000Y-105400000D01*
X108833732Y-109858732D02*
X108375000Y-109400000D01*
X106000000Y-118750000D02*
X106552500Y-118197500D01*
X108375000Y-109400000D02*
X106551083Y-109400000D01*
X106551083Y-109400000D02*
X106153775Y-109002692D01*
X108833732Y-112416268D02*
X108833732Y-109858732D01*
X108325000Y-105675000D02*
X109725000Y-105675000D01*
X106153775Y-107846225D02*
X108325000Y-105675000D01*
X106552500Y-118197500D02*
X106552500Y-114697500D01*
X110000000Y-105400000D02*
X110000000Y-104975000D01*
%TO.N,SWDIO*%
X109400500Y-114500000D02*
X108738000Y-113837500D01*
X109412500Y-109872120D02*
X108290380Y-108750000D01*
X116293083Y-123980000D02*
X115000000Y-122686917D01*
X109412500Y-112551083D02*
X109412500Y-109872120D01*
X106838000Y-108750000D02*
X106816275Y-108728275D01*
X115000000Y-122686917D02*
X115000000Y-116306137D01*
X115000000Y-116306137D02*
X114775500Y-116081637D01*
X108738000Y-113225583D02*
X109412500Y-112551083D01*
X108290380Y-108750000D02*
X106838000Y-108750000D01*
X108738000Y-113837500D02*
X108738000Y-113225583D01*
X117500000Y-123980000D02*
X116293083Y-123980000D01*
D22*
%TO.N,SWDCLK*%
X117500000Y-121440000D02*
X116190000Y-121440000D01*
D21*
X109737500Y-113163000D02*
X109737500Y-109737500D01*
D22*
X115500000Y-120750000D02*
X115500000Y-115250000D01*
X116190000Y-121440000D02*
X115500000Y-120750000D01*
D21*
X109400500Y-113500000D02*
X109737500Y-113163000D01*
X109737500Y-109737500D02*
X107500000Y-107500000D01*
D23*
%TO.N,/USB_N*%
X102949981Y-119476338D02*
X102949981Y-119368219D01*
X101425000Y-136953562D02*
X101577089Y-137105651D01*
X101425000Y-130409551D02*
X101425000Y-129493200D01*
X102125000Y-128793200D02*
X102125000Y-120301320D01*
X101124501Y-134710050D02*
X101425000Y-134409551D01*
X101124501Y-135289950D02*
X101124501Y-134710050D01*
X104188479Y-116506435D02*
X105225000Y-115469914D01*
X102949981Y-119368219D02*
X104188479Y-118129721D01*
X102125000Y-120301320D02*
X102949981Y-119476338D01*
X105225000Y-114568054D02*
X107746967Y-112046087D01*
X101577089Y-137105651D02*
X102001354Y-137105651D01*
X107746967Y-112046087D02*
X108171232Y-112046087D01*
X101425000Y-129493200D02*
X102125000Y-128793200D01*
X104188479Y-118129721D02*
X104188479Y-116506435D01*
X105225000Y-115469914D02*
X105225000Y-114568054D01*
X101425000Y-135590449D02*
X101124501Y-135289950D01*
X101425000Y-134409551D02*
X101425000Y-131590449D01*
X101124501Y-130710050D02*
X101425000Y-130409551D01*
X101124501Y-131289950D02*
X101124501Y-130710050D01*
X101425000Y-131590449D02*
X101124501Y-131289950D01*
X101425000Y-135590449D02*
X101425000Y-136953562D01*
%TO.N,/USB_P*%
X100975000Y-135776819D02*
X100975000Y-137139960D01*
X104775000Y-115283514D02*
X104775000Y-114381656D01*
X100674520Y-131476338D02*
X100674520Y-130523661D01*
X102500000Y-119181800D02*
X103738498Y-117943302D01*
X100674520Y-135476338D02*
X100674520Y-134523661D01*
X103738498Y-116320016D02*
X104775000Y-115283514D01*
X100674520Y-134523661D02*
X100975000Y-134223181D01*
X112200000Y-138090000D02*
X112840000Y-138730000D01*
X103738498Y-117943302D02*
X103738498Y-116320016D01*
X100975000Y-137139960D02*
X101258890Y-137423850D01*
X100975000Y-129306800D02*
X101675000Y-128606800D01*
X100975000Y-131776819D02*
X100674520Y-131476338D01*
X107428768Y-111727888D02*
X107428768Y-111303623D01*
X104775000Y-114381656D02*
X107428768Y-111727888D01*
X101675000Y-128606800D02*
X101675000Y-120114950D01*
X100975000Y-130223181D02*
X100975000Y-129306800D01*
X100674520Y-130523661D02*
X100975000Y-130223181D01*
X102500000Y-119289950D02*
X102500000Y-119181800D01*
X101675000Y-120114950D02*
X102500000Y-119289950D01*
X100975000Y-134223181D02*
X100975000Y-131776819D01*
X112200000Y-133800000D02*
X112200000Y-138090000D01*
X101258890Y-137423850D02*
X101258890Y-137848115D01*
X100975000Y-135776819D02*
X100674520Y-135476338D01*
D21*
%TO.N,SWO*%
X117250000Y-117750000D02*
X116250000Y-117750000D01*
X117926800Y-119326800D02*
X117926800Y-118426800D01*
X117926800Y-118426800D02*
X117250000Y-117750000D01*
X118770000Y-120170000D02*
X117926800Y-119326800D01*
%TO.N,RESET*%
X105500000Y-107750000D02*
X105512500Y-107737500D01*
X121412500Y-118812500D02*
X119550000Y-116950000D01*
X119550000Y-105563999D02*
X119550000Y-106400000D01*
X119950000Y-125250000D02*
X121412500Y-123787500D01*
X118770000Y-125250000D02*
X119950000Y-125250000D01*
X119325000Y-106400000D02*
X118650000Y-105725000D01*
X103022553Y-115624779D02*
X102727500Y-115329726D01*
X102727500Y-115329726D02*
X102727500Y-114487004D01*
X119550000Y-106400000D02*
X119550000Y-116950000D01*
X118650000Y-104275000D02*
X117862500Y-103487500D01*
X121412500Y-123787500D02*
X121412500Y-118812500D01*
X105512500Y-107737500D02*
X105512500Y-103537500D01*
X105500000Y-112600000D02*
X105500000Y-107750000D01*
X102727500Y-114487004D02*
X103057004Y-114157500D01*
X117862500Y-103487500D02*
X117862500Y-102987500D01*
X103057004Y-114157500D02*
X103942500Y-114157500D01*
X105512500Y-103537500D02*
X107150000Y-101900000D01*
X118650000Y-105725000D02*
X118650000Y-104275000D01*
X117862500Y-102987500D02*
X116200000Y-101325000D01*
X119550000Y-106400000D02*
X119325000Y-106400000D01*
X103942500Y-114157500D02*
X105500000Y-112600000D01*
D24*
%TO.N,SC*%
X123350000Y-124102082D02*
X118452082Y-129000000D01*
X122250000Y-113375000D02*
X123500000Y-112125000D01*
X122250000Y-116500000D02*
X122250000Y-113375000D01*
X123350000Y-117600000D02*
X123350000Y-124102082D01*
X117800000Y-129000000D02*
X118452082Y-129000000D01*
X122250000Y-116500000D02*
X123350000Y-117600000D01*
D23*
%TO.N,SDA*%
X114000000Y-104975000D02*
X114000000Y-106750000D01*
X112780025Y-123780025D02*
X113137500Y-124137500D01*
X110825500Y-116159814D02*
X110825500Y-118374500D01*
X113137500Y-126362500D02*
X112815997Y-126684003D01*
X113350498Y-100750498D02*
X114000000Y-101400000D01*
X106579787Y-132788000D02*
X104364916Y-132788000D01*
X110500000Y-112300000D02*
X110500000Y-115834314D01*
X111969975Y-123780025D02*
X112780025Y-123780025D01*
X104364916Y-132788000D02*
X104100499Y-133052417D01*
X110700000Y-122510050D02*
X111969975Y-123780025D01*
X114000000Y-101400000D02*
X114000000Y-104975000D01*
X110800000Y-112000000D02*
X110500000Y-112300000D01*
X110735050Y-100750498D02*
X113350498Y-100750498D01*
X114000000Y-106750000D02*
X112396094Y-108353906D01*
X113137500Y-124137500D02*
X113137500Y-126362500D01*
X110500000Y-115834314D02*
X110825500Y-116159814D01*
X110150498Y-102077635D02*
X110150498Y-101335050D01*
X110700000Y-122510050D02*
X110700000Y-118500000D01*
X106891344Y-132476443D02*
X106579787Y-132788000D01*
X110150498Y-101335050D02*
X110735050Y-100750498D01*
X110700000Y-118500000D02*
X110825500Y-118374500D01*
X112396094Y-108353906D02*
X112396094Y-111315204D01*
X112815997Y-126684003D02*
X112511746Y-126684003D01*
%TO.N,SCL*%
X110100000Y-115200000D02*
X110100000Y-111700000D01*
X110100000Y-118500000D02*
X110425500Y-118174500D01*
X111124502Y-101550000D02*
X111025000Y-101450498D01*
D21*
X103500000Y-131250000D02*
X102750000Y-132000000D01*
D23*
X110100000Y-111700000D02*
X110800000Y-111000000D01*
D21*
X106480500Y-134258375D02*
X106030030Y-134708845D01*
D23*
X110323497Y-110523497D02*
X110800000Y-111000000D01*
D21*
X102750000Y-134250000D02*
X102750000Y-132000000D01*
D23*
X110425500Y-116325500D02*
X110100000Y-116000000D01*
D21*
X103208845Y-134708845D02*
X102750000Y-134250000D01*
D23*
X113000000Y-106550000D02*
X110323497Y-109226503D01*
D21*
X108367339Y-114403050D02*
X109164289Y-115200000D01*
X106030030Y-134708845D02*
X103208845Y-134708845D01*
X107100000Y-128200000D02*
X107100000Y-125503463D01*
D23*
X111800000Y-124600000D02*
X110100000Y-122900000D01*
X113000000Y-101925000D02*
X112625000Y-101550000D01*
D21*
X103500000Y-131250000D02*
X104050000Y-131250000D01*
D23*
X110425500Y-118174500D02*
X110425500Y-116325500D01*
X110100000Y-122900000D02*
X110100000Y-118500000D01*
D21*
X104050000Y-131250000D02*
X104500000Y-130800000D01*
X109164289Y-115200000D02*
X110100000Y-115200000D01*
X109891914Y-123108086D02*
X110100000Y-122900000D01*
X107100000Y-125503463D02*
X109495377Y-123108086D01*
X109495377Y-123108086D02*
X109891914Y-123108086D01*
D23*
X110100000Y-116000000D02*
X110100000Y-115200000D01*
X113000000Y-103025000D02*
X113000000Y-106550000D01*
D21*
X104500000Y-130800000D02*
X107100000Y-128200000D01*
D23*
X112625000Y-101550000D02*
X111124502Y-101550000D01*
X110323497Y-109226503D02*
X110323497Y-110523497D01*
X113000000Y-103025000D02*
X113000000Y-101925000D01*
%TO.N,VBUS*%
X107598959Y-132194108D02*
X107598959Y-133698959D01*
X107180000Y-134117918D02*
X107180000Y-136805305D01*
D21*
X109292497Y-123770586D02*
X107438000Y-125625083D01*
X107438000Y-127726736D02*
X108049264Y-128338000D01*
D22*
X108926508Y-139327549D02*
X108926508Y-138551813D01*
D21*
X100833641Y-119407960D02*
X101300000Y-118941601D01*
X109706886Y-123878901D02*
X109400812Y-123878901D01*
D23*
X107180000Y-134117918D02*
X107598959Y-133698959D01*
D21*
X107438000Y-125625083D02*
X107438000Y-127726736D01*
D23*
X107193632Y-131788781D02*
X107598959Y-132194108D01*
D22*
X109500000Y-141000000D02*
X109500000Y-139901040D01*
D21*
X102584172Y-116415828D02*
X103138498Y-116415828D01*
D23*
X107193632Y-129193632D02*
X107193632Y-131788781D01*
D24*
X111346278Y-137346278D02*
X111346278Y-139546278D01*
D23*
X107180000Y-136805305D02*
X108926508Y-138551813D01*
D21*
X109400812Y-123878901D02*
X109292497Y-123770586D01*
X101300000Y-118941601D02*
X101300000Y-117700000D01*
D23*
X111346278Y-139546278D02*
X111400000Y-139600000D01*
D21*
X101300000Y-117700000D02*
X102584172Y-116415828D01*
D23*
X107193632Y-129193632D02*
X108049264Y-128338000D01*
D22*
X109500000Y-139901040D02*
X108926508Y-139327549D01*
D21*
%TO.N,GND*%
X103290000Y-114720000D02*
X103839619Y-114720000D01*
X115960000Y-122710000D02*
X115750000Y-122500000D01*
X103839619Y-114720000D02*
X106400000Y-112159619D01*
X106400000Y-112159619D02*
X106400000Y-110400000D01*
X118770000Y-123980000D02*
X120270000Y-123980000D01*
X117500000Y-120170000D02*
X116330000Y-120170000D01*
X120270000Y-123980000D02*
X120750000Y-123500000D01*
X107950000Y-110100000D02*
X108150000Y-110300000D01*
X117075000Y-104975000D02*
X116000000Y-104975000D01*
X117500000Y-122710000D02*
X115960000Y-122710000D01*
X120750000Y-123500000D02*
X120750000Y-120250000D01*
X106400000Y-110400000D02*
X106700000Y-110100000D01*
X117200000Y-104850000D02*
X117075000Y-104975000D01*
X116330000Y-120170000D02*
X116250000Y-120250000D01*
X106700000Y-110100000D02*
X107950000Y-110100000D01*
%TO.N,LED_G*%
X105400780Y-124912303D02*
X106312302Y-124912303D01*
X106312302Y-124912303D02*
X107525000Y-123699605D01*
X108153202Y-119662178D02*
X108153202Y-118013000D01*
X107525000Y-120290381D02*
X108153202Y-119662178D01*
X103804296Y-126278253D02*
X104034830Y-126278253D01*
X107525000Y-123699605D02*
X107525000Y-120290381D01*
X104034830Y-126278253D02*
X105400780Y-124912303D01*
%TO.N,LED_B*%
X104050500Y-125100000D02*
X104850500Y-124300000D01*
X104850500Y-124300000D02*
X106464985Y-124300000D01*
X107200000Y-123564985D02*
X107200000Y-117600000D01*
X107200000Y-117600000D02*
X107772655Y-117027345D01*
X107772655Y-117027345D02*
X109400500Y-117027345D01*
X106464985Y-124300000D02*
X107200000Y-123564985D01*
%TO.N,LED_R*%
X107850000Y-120425000D02*
X108775000Y-119500000D01*
X105774417Y-127662500D02*
X106450000Y-126986917D01*
X106450000Y-125234225D02*
X107850000Y-123834223D01*
X104333000Y-127662500D02*
X105774417Y-127662500D01*
X108775000Y-119500000D02*
X108775000Y-118373157D01*
X108775000Y-118373157D02*
X109152553Y-117995604D01*
X106450000Y-126986917D02*
X106450000Y-125234225D01*
X103725500Y-128270000D02*
X104333000Y-127662500D01*
X107850000Y-123834223D02*
X107850000Y-120425000D01*
%TO.N,VEML_INT*%
X109000000Y-103025000D02*
X107975000Y-103025000D01*
X107975000Y-103025000D02*
X107925000Y-103075000D01*
%TO.N,BMP581_INT*%
X108175000Y-123968843D02*
X106775000Y-125368844D01*
X110063000Y-118022074D02*
X109100000Y-118985074D01*
X106775000Y-125368844D02*
X106775000Y-128065380D01*
X109100000Y-118985074D02*
X109100000Y-119777297D01*
X108175000Y-120702297D02*
X108175000Y-123968843D01*
X109400000Y-115900000D02*
X110063000Y-116563000D01*
X105040380Y-129800000D02*
X103635925Y-129800000D01*
X106775000Y-128065380D02*
X105040380Y-129800000D01*
X110063000Y-116563000D02*
X110063000Y-118022074D01*
X103635925Y-129800000D02*
X102802165Y-130633760D01*
X109100000Y-119777297D02*
X108175000Y-120702297D01*
%TO.N,BMI_INT_2*%
X111399500Y-119000500D02*
X111800000Y-118600000D01*
X113088000Y-108712000D02*
X113200000Y-108600000D01*
X113088000Y-115656185D02*
X113088000Y-108712000D01*
X113100000Y-116700000D02*
X113100000Y-115668185D01*
X111800000Y-117990380D02*
X113090380Y-116700000D01*
X111399500Y-119872463D02*
X111399500Y-119000500D01*
X113090380Y-116700000D02*
X113100000Y-116700000D01*
X111800000Y-118600000D02*
X111800000Y-117990380D01*
X113100000Y-115668185D02*
X113088000Y-115656185D01*
%TO.N,BMI_INT_1*%
X113800000Y-113800000D02*
X113750000Y-113850000D01*
X112315055Y-117934945D02*
X113000000Y-117250000D01*
X113000000Y-117250000D02*
X113750000Y-117250000D01*
X113750000Y-113850000D02*
X113750000Y-117250000D01*
X112315055Y-119471510D02*
X112315055Y-117934945D01*
D23*
%TO.N,VCC_DAM*%
X114340000Y-133940000D02*
X114340000Y-138210000D01*
D21*
X114102755Y-133585833D02*
X114102755Y-133702755D01*
D23*
X110349356Y-139549356D02*
X110349356Y-137418043D01*
X110313000Y-137381687D02*
X110349356Y-137418043D01*
X114340000Y-138210000D02*
X114770000Y-138640000D01*
X114770000Y-140110000D02*
X114000000Y-140880000D01*
D21*
X114102755Y-133702755D02*
X114340000Y-133940000D01*
D23*
X110349356Y-139549356D02*
X111680000Y-140880000D01*
X110313000Y-131686105D02*
X110313000Y-137381687D01*
X114770000Y-138640000D02*
X114770000Y-140110000D01*
X114000000Y-140880000D02*
X111680000Y-140880000D01*
X108800000Y-125600000D02*
X108800000Y-130173105D01*
X108800000Y-130173105D02*
X110313000Y-131686105D01*
%TO.N,1Wire_DAM*%
X114100000Y-129100000D02*
X114713000Y-129100000D01*
D21*
X115125000Y-133250000D02*
X115125000Y-132707141D01*
D23*
X114713000Y-129100000D02*
X115313000Y-129700000D01*
D21*
X113637000Y-129563000D02*
X110349490Y-129563000D01*
X115125000Y-133250000D02*
X115125000Y-133500505D01*
D23*
X115313000Y-132519141D02*
X115313000Y-129700000D01*
X114270000Y-141400000D02*
X115310000Y-140360000D01*
X109351508Y-137475500D02*
X109351508Y-139151508D01*
D21*
X110349490Y-129563000D02*
X109516652Y-128730162D01*
X109516652Y-128730162D02*
X109516652Y-128667655D01*
D23*
X113700000Y-129500000D02*
X114100000Y-129100000D01*
X109351508Y-139151508D02*
X111600000Y-141400000D01*
X115310000Y-138450000D02*
X114748211Y-137888211D01*
X111600000Y-141400000D02*
X114270000Y-141400000D01*
D21*
X115125000Y-132707141D02*
X115313000Y-132519141D01*
X113700000Y-129500000D02*
X113637000Y-129563000D01*
D23*
X115310000Y-140360000D02*
X115310000Y-138450000D01*
D21*
X115125000Y-133500505D02*
X114748211Y-133877294D01*
X114748211Y-133877294D02*
X114748211Y-137888211D01*
%TO.N,1Wire*%
X110438000Y-128238000D02*
X111387370Y-128238000D01*
D23*
X112000000Y-106050000D02*
X112200000Y-106250000D01*
D21*
X115250000Y-114500000D02*
X114113000Y-115637000D01*
X113099370Y-128650630D02*
X113500000Y-128250000D01*
X115250000Y-109145221D02*
X115250000Y-114500000D01*
X113500000Y-118687000D02*
X113500000Y-128250000D01*
X115324218Y-109219439D02*
X115250000Y-109145221D01*
X113500000Y-118687000D02*
X113500000Y-118436917D01*
X111387370Y-128238000D02*
X111800000Y-128650630D01*
D23*
X112000000Y-104975000D02*
X112000000Y-106050000D01*
D21*
X110400000Y-128200000D02*
X110438000Y-128238000D01*
X114412500Y-116655554D02*
X114412500Y-117524417D01*
X113500000Y-118436917D02*
X114412500Y-117524417D01*
X114113000Y-116356054D02*
X114412500Y-116655554D01*
X111800000Y-128650630D02*
X113099370Y-128650630D01*
X114113000Y-115637000D02*
X114113000Y-116356054D01*
%TO.N,CC2*%
X112575000Y-133250000D02*
X112575000Y-130225000D01*
X112575000Y-130225000D02*
X112912000Y-129888000D01*
X112862500Y-137023876D02*
X112862500Y-133525583D01*
X113762501Y-129862499D02*
X114337501Y-129862499D01*
D23*
X113285003Y-137720688D02*
X113559312Y-137720688D01*
D21*
X112912000Y-129888000D02*
X113737000Y-129888000D01*
X112862500Y-133525583D02*
X112580958Y-133244041D01*
X114337501Y-129862499D02*
X114400000Y-129800000D01*
X113559312Y-137720688D02*
X112862500Y-137023876D01*
X113737000Y-129888000D02*
X113762501Y-129862499D01*
%TO.N,VCC*%
X117500000Y-125250000D02*
X116000000Y-125250000D01*
X115000000Y-103025000D02*
X115000000Y-101651444D01*
X115000000Y-101651444D02*
X115201446Y-101449998D01*
%TD*%
%TA.AperFunction,Conductor*%
%TO.N,GND*%
G36*
X118237500Y-100717113D02*
G01*
X118282887Y-100762500D01*
X118299500Y-100824500D01*
X118299500Y-101594484D01*
X118329058Y-101781113D01*
X118373208Y-101916990D01*
X118387453Y-101960832D01*
X118473240Y-102129199D01*
X118506880Y-102175500D01*
X118584309Y-102282073D01*
X118717926Y-102415690D01*
X118789726Y-102467855D01*
X118870801Y-102526760D01*
X119039168Y-102612547D01*
X119218882Y-102670940D01*
X119218883Y-102670940D01*
X119218886Y-102670941D01*
X119405516Y-102700500D01*
X119405519Y-102700500D01*
X119477410Y-102700500D01*
X119500000Y-102700500D01*
X119539882Y-102700500D01*
X123187591Y-102700500D01*
X123252381Y-102718773D01*
X123298076Y-102768205D01*
X123311209Y-102834229D01*
X123287909Y-102897386D01*
X123235043Y-102939061D01*
X123147159Y-102975463D01*
X123021717Y-103071717D01*
X122925463Y-103197159D01*
X122864956Y-103343237D01*
X122844317Y-103500000D01*
X122864956Y-103656762D01*
X122925463Y-103802840D01*
X123021717Y-103928282D01*
X123140919Y-104019748D01*
X123147159Y-104024536D01*
X123293238Y-104085044D01*
X123450000Y-104105682D01*
X123606762Y-104085044D01*
X123752841Y-104024536D01*
X123878282Y-103928282D01*
X123974536Y-103802841D01*
X124035044Y-103656762D01*
X124055682Y-103500000D01*
X124035044Y-103343238D01*
X123974536Y-103197159D01*
X123936662Y-103147800D01*
X123878282Y-103071717D01*
X123752840Y-102975463D01*
X123664957Y-102939061D01*
X123612091Y-102897386D01*
X123588791Y-102834229D01*
X123601924Y-102768205D01*
X123647619Y-102718773D01*
X123712409Y-102700500D01*
X124675500Y-102700500D01*
X124737500Y-102717113D01*
X124782887Y-102762500D01*
X124799500Y-102824500D01*
X124799500Y-139675500D01*
X124782887Y-139737500D01*
X124737500Y-139782887D01*
X124675500Y-139799500D01*
X119405516Y-139799500D01*
X119218886Y-139829058D01*
X119039167Y-139887453D01*
X119008969Y-139902840D01*
X118870801Y-139973240D01*
X118870798Y-139973241D01*
X118870798Y-139973242D01*
X118717926Y-140084309D01*
X118584309Y-140217926D01*
X118496240Y-140339144D01*
X118473240Y-140370801D01*
X118450122Y-140416173D01*
X118387453Y-140539167D01*
X118329058Y-140718886D01*
X118299500Y-140905516D01*
X118299500Y-141675500D01*
X118282887Y-141737500D01*
X118237500Y-141782887D01*
X118175500Y-141799500D01*
X117694521Y-141799500D01*
X117633402Y-141783391D01*
X117588163Y-141739249D01*
X117570558Y-141678543D01*
X117585163Y-141617047D01*
X117669766Y-141458764D01*
X117729808Y-141260834D01*
X117745000Y-141106588D01*
X117745000Y-140555000D01*
X116569000Y-140555000D01*
X116507000Y-140538387D01*
X116461613Y-140493000D01*
X116445000Y-140431000D01*
X116445000Y-138533590D01*
X116945000Y-138533590D01*
X116945000Y-140055000D01*
X117745000Y-140055000D01*
X117745000Y-139503412D01*
X117729808Y-139349165D01*
X117669766Y-139151235D01*
X117572268Y-138968828D01*
X117441054Y-138808945D01*
X117281171Y-138677731D01*
X117098764Y-138580233D01*
X116945000Y-138533590D01*
X116445000Y-138533590D01*
X116291235Y-138580233D01*
X116108828Y-138677731D01*
X115948945Y-138808945D01*
X115830353Y-138953450D01*
X115781953Y-138989346D01*
X115722346Y-138998188D01*
X115665609Y-138977887D01*
X115625142Y-138933238D01*
X115610500Y-138874785D01*
X115610500Y-138519244D01*
X115613243Y-138502423D01*
X115612772Y-138492237D01*
X115612773Y-138492236D01*
X115610631Y-138445920D01*
X115610500Y-138440196D01*
X115610500Y-138421178D01*
X115608817Y-138406680D01*
X115608531Y-138400486D01*
X115607585Y-138380009D01*
X115604786Y-138373671D01*
X115596332Y-138346367D01*
X115595061Y-138339568D01*
X115595061Y-138339567D01*
X115580997Y-138316853D01*
X115572994Y-138301669D01*
X115569246Y-138293180D01*
X115562206Y-138277235D01*
X115557310Y-138272339D01*
X115539563Y-138249933D01*
X115535919Y-138244048D01*
X115514602Y-138227950D01*
X115501648Y-138216677D01*
X115047530Y-137762559D01*
X115020650Y-137722331D01*
X115011211Y-137674878D01*
X115011211Y-137625000D01*
X119544528Y-137625000D01*
X119564379Y-137864558D01*
X119564379Y-137864561D01*
X119564380Y-137864563D01*
X119623390Y-138097591D01*
X119719951Y-138317728D01*
X119851429Y-138518969D01*
X120014236Y-138695825D01*
X120014239Y-138695827D01*
X120203927Y-138843468D01*
X120203929Y-138843469D01*
X120203933Y-138843472D01*
X120415344Y-138957882D01*
X120642703Y-139035934D01*
X120879808Y-139075500D01*
X121120191Y-139075500D01*
X121120192Y-139075500D01*
X121357297Y-139035934D01*
X121584656Y-138957882D01*
X121796067Y-138843472D01*
X121985764Y-138695825D01*
X122148571Y-138518969D01*
X122160964Y-138500000D01*
X122994353Y-138500000D01*
X123014834Y-138642457D01*
X123074623Y-138773374D01*
X123162496Y-138874785D01*
X123168872Y-138882143D01*
X123289947Y-138959953D01*
X123428039Y-139000500D01*
X123571961Y-139000500D01*
X123710053Y-138959953D01*
X123831128Y-138882143D01*
X123925377Y-138773373D01*
X123985165Y-138642457D01*
X124005647Y-138500000D01*
X123985165Y-138357543D01*
X123978587Y-138343140D01*
X123925376Y-138226625D01*
X123831129Y-138117858D01*
X123831128Y-138117857D01*
X123710053Y-138040047D01*
X123571961Y-137999500D01*
X123428039Y-137999500D01*
X123289947Y-138040047D01*
X123168870Y-138117858D01*
X123074623Y-138226625D01*
X123014834Y-138357542D01*
X122994353Y-138500000D01*
X122160964Y-138500000D01*
X122280049Y-138317728D01*
X122376610Y-138097591D01*
X122435620Y-137864563D01*
X122455471Y-137625000D01*
X122435620Y-137385437D01*
X122376610Y-137152409D01*
X122280049Y-136932272D01*
X122148571Y-136731031D01*
X121985764Y-136554175D01*
X121939068Y-136517830D01*
X121796072Y-136406531D01*
X121796068Y-136406528D01*
X121796067Y-136406528D01*
X121584656Y-136292118D01*
X121584655Y-136292117D01*
X121584652Y-136292116D01*
X121357299Y-136214066D01*
X121199226Y-136187688D01*
X121120192Y-136174500D01*
X120879808Y-136174500D01*
X120820531Y-136184391D01*
X120642700Y-136214066D01*
X120415347Y-136292116D01*
X120203927Y-136406531D01*
X120014239Y-136554172D01*
X120014236Y-136554174D01*
X120014236Y-136554175D01*
X119851429Y-136731031D01*
X119719951Y-136932272D01*
X119623390Y-137152409D01*
X119574389Y-137345912D01*
X119564379Y-137385441D01*
X119544528Y-137625000D01*
X115011211Y-137625000D01*
X115011211Y-135195000D01*
X115645000Y-135195000D01*
X115645000Y-135496588D01*
X115660191Y-135650834D01*
X115720233Y-135848764D01*
X115817731Y-136031171D01*
X115948945Y-136191054D01*
X116108828Y-136322268D01*
X116291235Y-136419766D01*
X116445000Y-136466410D01*
X116445000Y-135195000D01*
X116945000Y-135195000D01*
X116945000Y-136466410D01*
X117098764Y-136419766D01*
X117281171Y-136322268D01*
X117441054Y-136191054D01*
X117572268Y-136031171D01*
X117669766Y-135848764D01*
X117729808Y-135650834D01*
X117745000Y-135496588D01*
X117745000Y-135195000D01*
X116945000Y-135195000D01*
X116445000Y-135195000D01*
X115645000Y-135195000D01*
X115011211Y-135195000D01*
X115011211Y-134037595D01*
X115020650Y-133990143D01*
X115047528Y-133949915D01*
X115091719Y-133905723D01*
X115114541Y-133882900D01*
X115147376Y-133859372D01*
X115186030Y-133847646D01*
X115281762Y-133835044D01*
X115427841Y-133774536D01*
X115553282Y-133678282D01*
X115649536Y-133552841D01*
X115655367Y-133538762D01*
X115692079Y-133489697D01*
X115747805Y-133464203D01*
X115808933Y-133468507D01*
X115885195Y-133493778D01*
X115884934Y-133494564D01*
X115933351Y-133513414D01*
X115973864Y-133565565D01*
X115981861Y-133631118D01*
X115955072Y-133691479D01*
X115817731Y-133858828D01*
X115720233Y-134041235D01*
X115660191Y-134239165D01*
X115645000Y-134393412D01*
X115645000Y-134695000D01*
X117745000Y-134695000D01*
X117745000Y-134393412D01*
X117729808Y-134239165D01*
X117669766Y-134041235D01*
X117572268Y-133858828D01*
X117441054Y-133698945D01*
X117281171Y-133567731D01*
X117224492Y-133537436D01*
X117181565Y-133499478D01*
X117160287Y-133446273D01*
X117165204Y-133389181D01*
X117195264Y-133340396D01*
X117317318Y-133218342D01*
X117409357Y-133069122D01*
X117464506Y-132902696D01*
X117475000Y-132799979D01*
X117475000Y-132750000D01*
X116249000Y-132750000D01*
X116187000Y-132733387D01*
X116141613Y-132688000D01*
X116125000Y-132626000D01*
X116125000Y-132374000D01*
X116141613Y-132312000D01*
X116187000Y-132266613D01*
X116249000Y-132250000D01*
X117474999Y-132250000D01*
X117474999Y-132200028D01*
X117472370Y-132174301D01*
X117483346Y-132109290D01*
X117565421Y-131933278D01*
X117622575Y-131719978D01*
X117641821Y-131500000D01*
X117622575Y-131280021D01*
X117565421Y-131066720D01*
X117472098Y-130866589D01*
X117426740Y-130801811D01*
X116462680Y-131765871D01*
X116407093Y-131797965D01*
X116342905Y-131797965D01*
X116287318Y-131765871D01*
X116109127Y-131587680D01*
X116077033Y-131532093D01*
X116077033Y-131467905D01*
X116109127Y-131412318D01*
X117073187Y-130448258D01*
X117008406Y-130402898D01*
X116808281Y-130309579D01*
X116594978Y-130252424D01*
X116375000Y-130233178D01*
X116155021Y-130252424D01*
X115941719Y-130309578D01*
X115789905Y-130380371D01*
X115729390Y-130391724D01*
X115670875Y-130372570D01*
X115628786Y-130327632D01*
X115613500Y-130267989D01*
X115613500Y-129769243D01*
X115616243Y-129752422D01*
X115615772Y-129742236D01*
X115615773Y-129742235D01*
X115613631Y-129695919D01*
X115613500Y-129690195D01*
X115613500Y-129671178D01*
X115611817Y-129656680D01*
X115610585Y-129630008D01*
X115607786Y-129623670D01*
X115599332Y-129596367D01*
X115598061Y-129589567D01*
X115584002Y-129566860D01*
X115575995Y-129551670D01*
X115565206Y-129527235D01*
X115560310Y-129522339D01*
X115542563Y-129499933D01*
X115538919Y-129494048D01*
X115517602Y-129477950D01*
X115504648Y-129466677D01*
X115037970Y-128999999D01*
X117194317Y-128999999D01*
X117214956Y-129156762D01*
X117275463Y-129302840D01*
X117371717Y-129428282D01*
X117466070Y-129500681D01*
X117497159Y-129524536D01*
X117643238Y-129585044D01*
X117800000Y-129605682D01*
X117956762Y-129585044D01*
X118102841Y-129524536D01*
X118165935Y-129476122D01*
X118201560Y-129457081D01*
X118241419Y-129450500D01*
X118419820Y-129450500D01*
X118433704Y-129451280D01*
X118469115Y-129455270D01*
X118469115Y-129455269D01*
X118469117Y-129455270D01*
X118525310Y-129444636D01*
X118529808Y-129443872D01*
X118586369Y-129435348D01*
X118586370Y-129435347D01*
X118592350Y-129434446D01*
X118597210Y-129432846D01*
X118602549Y-129430023D01*
X118602554Y-129430023D01*
X118653127Y-129403292D01*
X118657218Y-129401227D01*
X118708724Y-129376425D01*
X118708726Y-129376422D01*
X118714160Y-129373806D01*
X118718353Y-129370831D01*
X118722615Y-129366568D01*
X118722620Y-129366566D01*
X118763084Y-129326100D01*
X118766342Y-129322962D01*
X118808276Y-129284055D01*
X118808277Y-129284053D01*
X118812695Y-129279954D01*
X118824115Y-129265069D01*
X123645744Y-124443439D01*
X123656093Y-124434191D01*
X123683970Y-124411961D01*
X123716191Y-124364700D01*
X123718859Y-124360941D01*
X123752793Y-124314964D01*
X123752794Y-124314959D01*
X123756381Y-124310100D01*
X123758692Y-124305523D01*
X123760470Y-124299757D01*
X123760472Y-124299755D01*
X123777330Y-124245096D01*
X123778775Y-124240708D01*
X123780075Y-124236995D01*
X123797646Y-124186781D01*
X123797646Y-124186779D01*
X123799637Y-124181090D01*
X123800500Y-124176012D01*
X123800500Y-124112820D01*
X123800587Y-124108183D01*
X123801811Y-124075464D01*
X123802724Y-124051072D01*
X123802723Y-124051071D01*
X123802949Y-124045052D01*
X123800500Y-124026447D01*
X123800500Y-117632262D01*
X123801280Y-117618378D01*
X123805270Y-117582966D01*
X123805270Y-117582965D01*
X123794632Y-117526741D01*
X123793871Y-117522262D01*
X123785348Y-117465713D01*
X123785347Y-117465711D01*
X123784448Y-117459744D01*
X123782838Y-117454852D01*
X123753306Y-117398977D01*
X123751214Y-117394835D01*
X123747480Y-117387081D01*
X123726425Y-117343358D01*
X123726423Y-117343355D01*
X123723812Y-117337934D01*
X123720818Y-117333714D01*
X123676152Y-117289048D01*
X123672934Y-117285708D01*
X123629958Y-117239391D01*
X123615070Y-117227966D01*
X122880681Y-116493577D01*
X122857150Y-116460739D01*
X122845424Y-116422083D01*
X122835044Y-116343238D01*
X122780495Y-116211546D01*
X122774537Y-116197161D01*
X122774536Y-116197160D01*
X122774536Y-116197159D01*
X122726122Y-116134064D01*
X122707081Y-116098440D01*
X122700500Y-116058581D01*
X122700500Y-113612966D01*
X122709939Y-113565513D01*
X122736819Y-113525285D01*
X122916123Y-113345981D01*
X123506424Y-112755678D01*
X123539259Y-112732150D01*
X123577913Y-112720424D01*
X123656762Y-112710044D01*
X123802841Y-112649536D01*
X123928282Y-112553282D01*
X124024536Y-112427841D01*
X124085044Y-112281762D01*
X124105682Y-112125000D01*
X124085044Y-111968238D01*
X124024536Y-111822159D01*
X124024535Y-111822158D01*
X123928282Y-111696717D01*
X123802840Y-111600463D01*
X123656762Y-111539956D01*
X123500000Y-111519317D01*
X123343237Y-111539956D01*
X123197159Y-111600463D01*
X123071717Y-111696717D01*
X122975464Y-111822158D01*
X122914956Y-111968238D01*
X122904575Y-112047083D01*
X122892848Y-112085740D01*
X122869317Y-112118577D01*
X121954264Y-113033631D01*
X121943898Y-113042895D01*
X121916031Y-113065118D01*
X121883824Y-113112356D01*
X121881144Y-113116132D01*
X121843633Y-113166959D01*
X121841301Y-113171578D01*
X121822674Y-113231966D01*
X121821225Y-113236369D01*
X121800369Y-113295973D01*
X121799500Y-113301090D01*
X121799500Y-113364262D01*
X121799413Y-113368899D01*
X121797050Y-113432029D01*
X121799500Y-113450635D01*
X121799500Y-116058581D01*
X121792919Y-116098440D01*
X121773877Y-116134064D01*
X121747772Y-116168087D01*
X121725462Y-116197161D01*
X121664956Y-116343237D01*
X121644317Y-116499999D01*
X121664956Y-116656762D01*
X121725463Y-116802840D01*
X121821717Y-116928282D01*
X121892104Y-116982291D01*
X121947159Y-117024536D01*
X122093238Y-117085044D01*
X122172083Y-117095424D01*
X122210739Y-117107150D01*
X122243577Y-117130681D01*
X122863181Y-117750284D01*
X122890061Y-117790512D01*
X122899500Y-117837965D01*
X122899500Y-123864116D01*
X122890061Y-123911569D01*
X122863181Y-123951797D01*
X118313651Y-128501327D01*
X118263257Y-128531907D01*
X118204437Y-128535762D01*
X118150483Y-128512021D01*
X118138519Y-128502841D01*
X118127991Y-128494762D01*
X118102840Y-128475463D01*
X117956762Y-128414956D01*
X117800000Y-128394317D01*
X117643237Y-128414956D01*
X117497159Y-128475463D01*
X117371717Y-128571717D01*
X117275463Y-128697159D01*
X117214956Y-128843237D01*
X117194317Y-128999999D01*
X115037970Y-128999999D01*
X114974450Y-128936479D01*
X114964497Y-128922645D01*
X114922681Y-128884524D01*
X114918540Y-128880569D01*
X114905110Y-128867139D01*
X114893678Y-128858083D01*
X114873934Y-128840084D01*
X114867468Y-128837579D01*
X114842192Y-128824256D01*
X114836481Y-128820344D01*
X114836480Y-128820343D01*
X114836478Y-128820342D01*
X114810484Y-128814228D01*
X114794087Y-128809151D01*
X114769173Y-128799500D01*
X114762249Y-128799500D01*
X114733859Y-128796206D01*
X114727119Y-128794621D01*
X114727118Y-128794621D01*
X114715757Y-128796206D01*
X114700666Y-128798311D01*
X114683535Y-128799500D01*
X114169243Y-128799500D01*
X114152422Y-128796756D01*
X114109308Y-128798749D01*
X114095919Y-128799368D01*
X114090195Y-128799500D01*
X114071183Y-128799500D01*
X114056695Y-128801181D01*
X114030006Y-128802415D01*
X114023662Y-128805216D01*
X113996382Y-128813664D01*
X113989565Y-128814938D01*
X113966855Y-128828999D01*
X113951672Y-128837002D01*
X113927232Y-128847793D01*
X113922331Y-128852695D01*
X113899937Y-128870434D01*
X113894047Y-128874081D01*
X113877948Y-128895398D01*
X113866678Y-128908348D01*
X113511345Y-129263683D01*
X113471120Y-129290561D01*
X113423667Y-129300000D01*
X110509790Y-129300000D01*
X110462337Y-129290561D01*
X110422109Y-129263681D01*
X110156323Y-128997895D01*
X110125110Y-128945432D01*
X110122714Y-128884433D01*
X110149714Y-128829682D01*
X110199567Y-128794450D01*
X110260186Y-128787275D01*
X110400000Y-128805682D01*
X110556762Y-128785044D01*
X110702841Y-128724536D01*
X110828282Y-128628282D01*
X110828282Y-128628281D01*
X110888723Y-128549514D01*
X110932255Y-128513788D01*
X110987099Y-128501000D01*
X111227070Y-128501000D01*
X111274523Y-128510439D01*
X111314751Y-128537319D01*
X111587078Y-128809646D01*
X111602500Y-128828437D01*
X111610388Y-128840243D01*
X111632344Y-128854913D01*
X111632346Y-128854914D01*
X111657577Y-128871773D01*
X111657578Y-128871773D01*
X111657579Y-128871774D01*
X111692935Y-128895398D01*
X111697383Y-128898370D01*
X111723841Y-128903633D01*
X111800000Y-128918782D01*
X111813921Y-128916013D01*
X111838112Y-128913630D01*
X113061258Y-128913630D01*
X113085449Y-128916013D01*
X113099369Y-128918782D01*
X113099369Y-128918781D01*
X113099370Y-128918782D01*
X113175529Y-128903633D01*
X113201987Y-128898370D01*
X113241791Y-128871774D01*
X113267024Y-128854914D01*
X113284281Y-128843383D01*
X113284281Y-128843382D01*
X113288982Y-128840242D01*
X113296866Y-128828441D01*
X113312286Y-128809650D01*
X113659023Y-128462914D01*
X113677815Y-128447494D01*
X113689612Y-128439612D01*
X113690538Y-128438225D01*
X113690544Y-128438220D01*
X113690543Y-128438220D01*
X113706087Y-128414956D01*
X113747740Y-128352618D01*
X113768152Y-128250000D01*
X113765383Y-128236079D01*
X113763000Y-128211888D01*
X113763000Y-119303257D01*
X113775788Y-119248413D01*
X113811514Y-119204881D01*
X113928282Y-119115282D01*
X113932907Y-119109255D01*
X114024536Y-118989841D01*
X114085044Y-118843762D01*
X114105682Y-118687000D01*
X114085044Y-118530238D01*
X114052474Y-118451606D01*
X114027000Y-118390106D01*
X114017561Y-118342654D01*
X114027000Y-118295201D01*
X114053877Y-118254976D01*
X114525319Y-117783535D01*
X114574682Y-117753285D01*
X114632398Y-117748743D01*
X114685885Y-117770898D01*
X114723485Y-117814921D01*
X114737000Y-117871216D01*
X114737000Y-122648805D01*
X114734616Y-122672996D01*
X114731848Y-122686917D01*
X114738645Y-122721086D01*
X114752260Y-122789534D01*
X114787785Y-122842703D01*
X114789378Y-122845086D01*
X114810388Y-122876529D01*
X114822192Y-122884416D01*
X114840983Y-122899838D01*
X116080161Y-124139016D01*
X116095583Y-124157807D01*
X116103471Y-124169613D01*
X116125427Y-124184283D01*
X116125429Y-124184284D01*
X116185669Y-124224535D01*
X116185671Y-124224536D01*
X116190466Y-124227740D01*
X116236993Y-124236995D01*
X116293083Y-124248152D01*
X116307004Y-124245383D01*
X116331195Y-124243000D01*
X116891685Y-124243000D01*
X116946529Y-124255788D01*
X116990060Y-124291513D01*
X116996681Y-124300141D01*
X117075942Y-124403437D01*
X117076212Y-124403788D01*
X117200336Y-124499032D01*
X117203731Y-124500438D01*
X117250569Y-124534467D01*
X117276854Y-124586052D01*
X117276854Y-124643946D01*
X117250571Y-124695531D01*
X117203734Y-124729560D01*
X117203416Y-124729692D01*
X117200335Y-124730968D01*
X117076212Y-124826211D01*
X116990062Y-124938486D01*
X116946530Y-124974212D01*
X116891686Y-124987000D01*
X116616257Y-124987000D01*
X116561413Y-124974212D01*
X116517881Y-124938486D01*
X116428282Y-124821717D01*
X116302840Y-124725463D01*
X116156762Y-124664956D01*
X116000000Y-124644317D01*
X115843237Y-124664956D01*
X115697159Y-124725463D01*
X115571717Y-124821717D01*
X115475463Y-124947159D01*
X115414956Y-125093237D01*
X115394317Y-125250000D01*
X115414956Y-125406762D01*
X115475463Y-125552840D01*
X115571717Y-125678282D01*
X115649453Y-125737930D01*
X115697159Y-125774536D01*
X115843238Y-125835044D01*
X116000000Y-125855682D01*
X116156762Y-125835044D01*
X116302841Y-125774536D01*
X116428282Y-125678282D01*
X116517880Y-125561514D01*
X116561413Y-125525788D01*
X116616257Y-125513000D01*
X116891685Y-125513000D01*
X116946529Y-125525788D01*
X116990061Y-125561514D01*
X117019591Y-125599999D01*
X117076212Y-125673788D01*
X117200336Y-125769032D01*
X117200337Y-125769032D01*
X117200338Y-125769033D01*
X117213624Y-125774536D01*
X117344883Y-125828905D01*
X117462364Y-125844372D01*
X117475215Y-125846064D01*
X117536995Y-125872580D01*
X117575856Y-125927440D01*
X117580375Y-125994518D01*
X117549224Y-126054096D01*
X117532704Y-126071605D01*
X117445533Y-126222591D01*
X117395531Y-126389613D01*
X117385392Y-126563659D01*
X117400685Y-126650386D01*
X117415668Y-126735354D01*
X117484721Y-126895438D01*
X117588832Y-127035283D01*
X117722386Y-127147349D01*
X117878185Y-127225594D01*
X118047829Y-127265800D01*
X118178433Y-127265800D01*
X118178436Y-127265800D01*
X118308164Y-127250637D01*
X118471993Y-127191008D01*
X118617654Y-127095205D01*
X118737296Y-126968393D01*
X118824467Y-126817407D01*
X118874469Y-126650388D01*
X118884607Y-126476340D01*
X118854332Y-126304646D01*
X118785279Y-126144562D01*
X118785278Y-126144561D01*
X118785277Y-126144558D01*
X118709867Y-126043265D01*
X118686222Y-125984061D01*
X118695117Y-125920933D01*
X118734202Y-125870568D01*
X118793142Y-125846280D01*
X118925117Y-125828905D01*
X119069664Y-125769032D01*
X119193788Y-125673788D01*
X119279939Y-125561513D01*
X119323471Y-125525788D01*
X119378315Y-125513000D01*
X119911888Y-125513000D01*
X119936079Y-125515383D01*
X119949999Y-125518152D01*
X119949999Y-125518151D01*
X119950000Y-125518152D01*
X120029306Y-125502377D01*
X120052617Y-125497740D01*
X120139612Y-125439612D01*
X120147503Y-125427800D01*
X120162915Y-125409021D01*
X121571523Y-124000414D01*
X121590315Y-123984994D01*
X121602112Y-123977112D01*
X121603038Y-123975725D01*
X121603044Y-123975720D01*
X121603043Y-123975720D01*
X121616784Y-123955155D01*
X121660240Y-123890118D01*
X121680652Y-123787500D01*
X121677883Y-123773579D01*
X121675500Y-123749388D01*
X121675500Y-118850612D01*
X121677883Y-118826421D01*
X121680652Y-118812499D01*
X121671732Y-118767656D01*
X121660240Y-118709883D01*
X121650495Y-118695299D01*
X121650493Y-118695295D01*
X121614146Y-118640897D01*
X121614145Y-118640896D01*
X121602113Y-118622888D01*
X121590307Y-118615000D01*
X121571516Y-118599578D01*
X119849319Y-116877381D01*
X119822439Y-116837153D01*
X119813000Y-116789700D01*
X119813000Y-107016257D01*
X119825788Y-106961413D01*
X119861514Y-106917881D01*
X119978282Y-106828282D01*
X119995248Y-106806171D01*
X120074536Y-106702841D01*
X120135044Y-106556762D01*
X120155682Y-106400000D01*
X120140240Y-106282710D01*
X120149882Y-106216132D01*
X120192874Y-106164385D01*
X120256561Y-106142705D01*
X120322196Y-106157473D01*
X120336515Y-106165222D01*
X120415344Y-106207882D01*
X120642703Y-106285934D01*
X120879808Y-106325500D01*
X121120191Y-106325500D01*
X121120192Y-106325500D01*
X121357297Y-106285934D01*
X121584656Y-106207882D01*
X121796067Y-106093472D01*
X121985764Y-105945825D01*
X122148571Y-105768969D01*
X122280049Y-105567728D01*
X122376610Y-105347591D01*
X122435620Y-105114563D01*
X122455471Y-104875000D01*
X122435620Y-104635437D01*
X122376610Y-104402409D01*
X122280049Y-104182272D01*
X122148571Y-103981031D01*
X121985764Y-103804175D01*
X121926323Y-103757910D01*
X121796072Y-103656531D01*
X121796068Y-103656528D01*
X121796067Y-103656528D01*
X121584656Y-103542118D01*
X121584655Y-103542117D01*
X121584652Y-103542116D01*
X121357299Y-103464066D01*
X121199227Y-103437688D01*
X121120192Y-103424500D01*
X120879808Y-103424500D01*
X120820531Y-103434391D01*
X120642700Y-103464066D01*
X120415347Y-103542116D01*
X120203927Y-103656531D01*
X120014239Y-103804172D01*
X120014236Y-103804174D01*
X120014236Y-103804175D01*
X119851429Y-103981031D01*
X119719951Y-104182272D01*
X119623390Y-104402409D01*
X119586205Y-104549251D01*
X119564379Y-104635441D01*
X119544528Y-104874999D01*
X119564379Y-105114559D01*
X119575341Y-105157849D01*
X119573857Y-105224080D01*
X119538487Y-105280094D01*
X119479327Y-105309904D01*
X119475107Y-105310744D01*
X119447384Y-105316258D01*
X119360388Y-105374387D01*
X119302259Y-105461383D01*
X119287000Y-105538097D01*
X119287000Y-105690700D01*
X119273485Y-105746995D01*
X119235885Y-105791018D01*
X119182398Y-105813173D01*
X119124682Y-105808631D01*
X119075319Y-105778381D01*
X118949319Y-105652381D01*
X118922439Y-105612153D01*
X118913000Y-105564700D01*
X118913000Y-104313112D01*
X118915383Y-104288921D01*
X118918152Y-104274999D01*
X118897740Y-104172382D01*
X118847499Y-104097191D01*
X118847499Y-104097190D01*
X118847497Y-104097188D01*
X118839613Y-104085388D01*
X118827807Y-104077500D01*
X118809016Y-104062078D01*
X118161819Y-103414881D01*
X118134939Y-103374653D01*
X118125500Y-103327200D01*
X118125500Y-103025612D01*
X118127883Y-103001421D01*
X118128265Y-102999500D01*
X118130652Y-102987500D01*
X118110240Y-102884883D01*
X118066784Y-102819846D01*
X118066783Y-102819845D01*
X118066783Y-102819844D01*
X118052113Y-102797888D01*
X118040307Y-102790000D01*
X118021516Y-102774578D01*
X116821728Y-101574790D01*
X116791990Y-101526967D01*
X116786470Y-101470927D01*
X116805682Y-101325000D01*
X116785044Y-101168238D01*
X116724536Y-101022159D01*
X116630790Y-100899986D01*
X116605763Y-100836654D01*
X116617954Y-100769656D01*
X116663686Y-100719199D01*
X116729166Y-100700500D01*
X118175500Y-100700500D01*
X118237500Y-100717113D01*
G37*
%TD.AperFunction*%
%TA.AperFunction,Conductor*%
G36*
X107829620Y-112540873D02*
G01*
X107868391Y-112570623D01*
X108007393Y-112628199D01*
X108055792Y-112664094D01*
X108081556Y-112718567D01*
X108078600Y-112778754D01*
X108047620Y-112830440D01*
X106393479Y-114484581D01*
X106374691Y-114500001D01*
X106362886Y-114507888D01*
X106338002Y-114545130D01*
X106332125Y-114553927D01*
X106332119Y-114553933D01*
X106332120Y-114553934D01*
X106304759Y-114594883D01*
X106297006Y-114633858D01*
X106297007Y-114633862D01*
X106284348Y-114697499D01*
X106287117Y-114711421D01*
X106289500Y-114735612D01*
X106289500Y-118037199D01*
X106280058Y-118084660D01*
X106253168Y-118124893D01*
X106249776Y-118128284D01*
X106201958Y-118158012D01*
X106145923Y-118163529D01*
X106000000Y-118144317D01*
X105843237Y-118164956D01*
X105697159Y-118225463D01*
X105571717Y-118321717D01*
X105475463Y-118447159D01*
X105414956Y-118593237D01*
X105394317Y-118750000D01*
X105414956Y-118906762D01*
X105475463Y-119052840D01*
X105571717Y-119178282D01*
X105665183Y-119250000D01*
X105697159Y-119274536D01*
X105843238Y-119335044D01*
X106000000Y-119355682D01*
X106156762Y-119335044D01*
X106302841Y-119274536D01*
X106428282Y-119178282D01*
X106524536Y-119052841D01*
X106585044Y-118906762D01*
X106605682Y-118750000D01*
X106586470Y-118604071D01*
X106591990Y-118548031D01*
X106621726Y-118500210D01*
X106711521Y-118410415D01*
X106730306Y-118394999D01*
X106742112Y-118387112D01*
X106742112Y-118387111D01*
X106744114Y-118385774D01*
X106806920Y-118365028D01*
X106871456Y-118379522D01*
X106919359Y-118425131D01*
X106937000Y-118488879D01*
X106937000Y-123404685D01*
X106927561Y-123452138D01*
X106900681Y-123492366D01*
X106392366Y-124000681D01*
X106352138Y-124027561D01*
X106304685Y-124037000D01*
X104888612Y-124037000D01*
X104864421Y-124034617D01*
X104850500Y-124031847D01*
X104747883Y-124052259D01*
X104713155Y-124075464D01*
X104713156Y-124075464D01*
X104660888Y-124110388D01*
X104652997Y-124122196D01*
X104637582Y-124140978D01*
X104300289Y-124478271D01*
X104252466Y-124508009D01*
X104196423Y-124513529D01*
X104050499Y-124494317D01*
X103959675Y-124506275D01*
X103901079Y-124499858D01*
X103899070Y-124498515D01*
X103854462Y-124531224D01*
X103747658Y-124575463D01*
X103622217Y-124671717D01*
X103525963Y-124797159D01*
X103465456Y-124943237D01*
X103444817Y-125099999D01*
X103465456Y-125256762D01*
X103525963Y-125402840D01*
X103625978Y-125533183D01*
X103649219Y-125584478D01*
X103647377Y-125640762D01*
X103620831Y-125690427D01*
X103575056Y-125723230D01*
X103501453Y-125753717D01*
X103376013Y-125849970D01*
X103279759Y-125975412D01*
X103219252Y-126121490D01*
X103198613Y-126278252D01*
X103219252Y-126435015D01*
X103279759Y-126581093D01*
X103376013Y-126706535D01*
X103501455Y-126802789D01*
X103647534Y-126863297D01*
X103804296Y-126883935D01*
X103961058Y-126863297D01*
X104107137Y-126802789D01*
X104232578Y-126706535D01*
X104328832Y-126581094D01*
X104389340Y-126435015D01*
X104404971Y-126316282D01*
X104416697Y-126277628D01*
X104440225Y-126244794D01*
X105473398Y-125211622D01*
X105513627Y-125184742D01*
X105561080Y-125175303D01*
X106063000Y-125175303D01*
X106125000Y-125191916D01*
X106170387Y-125237303D01*
X106187000Y-125299303D01*
X106187000Y-126826617D01*
X106177561Y-126874070D01*
X106150681Y-126914298D01*
X105701798Y-127363181D01*
X105661570Y-127390061D01*
X105614117Y-127399500D01*
X104371112Y-127399500D01*
X104346921Y-127397117D01*
X104333000Y-127394347D01*
X104307099Y-127399500D01*
X104230384Y-127414759D01*
X104143387Y-127472888D01*
X104135501Y-127484691D01*
X104120081Y-127503479D01*
X103975289Y-127648271D01*
X103927466Y-127678009D01*
X103871423Y-127683529D01*
X103725500Y-127664317D01*
X103568737Y-127684956D01*
X103422659Y-127745463D01*
X103297217Y-127841717D01*
X103200963Y-127967159D01*
X103140456Y-128113237D01*
X103119817Y-128270000D01*
X103140456Y-128426762D01*
X103200963Y-128572840D01*
X103297217Y-128698282D01*
X103393738Y-128772344D01*
X103422659Y-128794536D01*
X103568738Y-128855044D01*
X103725500Y-128875682D01*
X103882262Y-128855044D01*
X104028341Y-128794536D01*
X104153782Y-128698282D01*
X104250036Y-128572841D01*
X104310544Y-128426762D01*
X104331182Y-128270000D01*
X104311970Y-128124072D01*
X104317490Y-128068031D01*
X104347226Y-128020210D01*
X104405620Y-127961817D01*
X104445849Y-127934939D01*
X104493301Y-127925500D01*
X105736305Y-127925500D01*
X105760496Y-127927883D01*
X105774417Y-127930652D01*
X105877034Y-127910240D01*
X105942071Y-127866784D01*
X105942071Y-127866783D01*
X105964029Y-127852112D01*
X105971913Y-127840311D01*
X105987328Y-127821525D01*
X106300320Y-127508534D01*
X106349682Y-127478286D01*
X106407398Y-127473744D01*
X106460885Y-127495899D01*
X106498485Y-127539922D01*
X106512000Y-127596217D01*
X106512000Y-127905080D01*
X106502561Y-127952533D01*
X106475681Y-127992761D01*
X104967761Y-129500681D01*
X104927533Y-129527561D01*
X104880080Y-129537000D01*
X103674037Y-129537000D01*
X103649846Y-129534617D01*
X103635925Y-129531847D01*
X103533308Y-129552259D01*
X103489769Y-129581352D01*
X103476301Y-129590351D01*
X103446313Y-129610388D01*
X103438422Y-129622196D01*
X103423007Y-129640978D01*
X103051954Y-130012031D01*
X103004131Y-130041769D01*
X102948088Y-130047289D01*
X102802165Y-130028077D01*
X102645402Y-130048716D01*
X102499324Y-130109223D01*
X102373882Y-130205477D01*
X102277628Y-130330919D01*
X102217121Y-130476997D01*
X102196482Y-130633760D01*
X102217121Y-130790522D01*
X102277628Y-130936600D01*
X102373882Y-131062042D01*
X102462298Y-131129885D01*
X102499324Y-131158296D01*
X102645403Y-131218804D01*
X102802165Y-131239442D01*
X102827463Y-131236111D01*
X102888084Y-131243285D01*
X102937938Y-131278518D01*
X102964938Y-131333268D01*
X102962542Y-131394268D01*
X102931329Y-131446731D01*
X102590979Y-131787081D01*
X102572191Y-131802501D01*
X102560387Y-131810388D01*
X102502260Y-131897381D01*
X102502259Y-131897383D01*
X102502260Y-131897383D01*
X102489009Y-131964002D01*
X102489009Y-131964004D01*
X102481848Y-132000001D01*
X102484617Y-132013921D01*
X102487000Y-132038112D01*
X102487000Y-133633743D01*
X102474212Y-133688587D01*
X102438486Y-133732119D01*
X102321717Y-133821717D01*
X102225463Y-133947159D01*
X102164956Y-134093237D01*
X102144317Y-134249999D01*
X102164956Y-134406762D01*
X102225463Y-134552840D01*
X102321717Y-134678282D01*
X102447159Y-134774536D01*
X102593238Y-134835044D01*
X102729360Y-134852964D01*
X102749999Y-134855682D01*
X102749999Y-134855681D01*
X102750000Y-134855682D01*
X102894748Y-134836625D01*
X102962106Y-134846617D01*
X103014032Y-134890673D01*
X103019233Y-134898457D01*
X103019234Y-134898457D01*
X103019235Y-134898459D01*
X103041187Y-134913126D01*
X103041190Y-134913128D01*
X103041191Y-134913129D01*
X103106228Y-134956585D01*
X103208845Y-134976997D01*
X103222765Y-134974228D01*
X103246957Y-134971845D01*
X105991918Y-134971845D01*
X106016109Y-134974228D01*
X106030030Y-134976997D01*
X106132647Y-134956585D01*
X106197684Y-134913129D01*
X106197684Y-134913128D01*
X106219642Y-134898457D01*
X106219643Y-134898455D01*
X106221884Y-134896958D01*
X106270945Y-134855330D01*
X106338308Y-134845337D01*
X106480500Y-134864057D01*
X106637262Y-134843419D01*
X106696215Y-134819000D01*
X106708048Y-134814099D01*
X106767655Y-134805257D01*
X106824391Y-134825558D01*
X106864858Y-134870207D01*
X106879500Y-134928660D01*
X106879500Y-136736062D01*
X106876756Y-136752882D01*
X106879368Y-136809384D01*
X106879500Y-136815110D01*
X106879500Y-136834124D01*
X106881181Y-136848612D01*
X106882415Y-136875298D01*
X106885213Y-136881635D01*
X106893666Y-136908931D01*
X106894938Y-136915739D01*
X106908997Y-136938445D01*
X106917002Y-136953632D01*
X106927792Y-136978068D01*
X106932688Y-136982964D01*
X106950434Y-137005368D01*
X106954081Y-137011257D01*
X106970791Y-137023876D01*
X106975396Y-137027353D01*
X106988351Y-137038627D01*
X108305734Y-138356010D01*
X108334283Y-138400486D01*
X108341717Y-138452811D01*
X108326687Y-138503479D01*
X108305000Y-138528313D01*
X108305000Y-140431000D01*
X108288387Y-140493000D01*
X108243000Y-140538387D01*
X108181000Y-140555000D01*
X107005000Y-140555000D01*
X107005000Y-141106588D01*
X107020191Y-141260834D01*
X107080233Y-141458764D01*
X107164837Y-141617047D01*
X107179442Y-141678543D01*
X107161837Y-141739249D01*
X107116598Y-141783391D01*
X107055479Y-141799500D01*
X106824500Y-141799500D01*
X106762500Y-141782887D01*
X106717113Y-141737500D01*
X106700500Y-141675500D01*
X106700500Y-140905516D01*
X106670941Y-140718886D01*
X106666666Y-140705728D01*
X106612547Y-140539168D01*
X106526760Y-140370801D01*
X106451428Y-140267116D01*
X106415690Y-140217926D01*
X106282073Y-140084309D01*
X106241732Y-140055000D01*
X107005000Y-140055000D01*
X107805000Y-140055000D01*
X107805000Y-138533590D01*
X107651235Y-138580233D01*
X107468828Y-138677731D01*
X107308945Y-138808945D01*
X107177731Y-138968828D01*
X107080233Y-139151235D01*
X107020191Y-139349165D01*
X107005000Y-139503412D01*
X107005000Y-140055000D01*
X106241732Y-140055000D01*
X106183248Y-140012509D01*
X106129199Y-139973240D01*
X105960832Y-139887453D01*
X105781113Y-139829058D01*
X105594484Y-139799500D01*
X105594481Y-139799500D01*
X105522590Y-139799500D01*
X100324500Y-139799500D01*
X100262500Y-139782887D01*
X100217113Y-139737500D01*
X100200500Y-139675500D01*
X100200500Y-135726650D01*
X100214016Y-135670354D01*
X100251616Y-135626331D01*
X100305105Y-135604176D01*
X100362821Y-135608720D01*
X100412184Y-135638972D01*
X100427211Y-135654000D01*
X100444953Y-135676398D01*
X100448601Y-135682290D01*
X100469916Y-135698386D01*
X100482864Y-135709653D01*
X100638183Y-135864973D01*
X100665061Y-135905199D01*
X100674500Y-135952652D01*
X100674500Y-137070717D01*
X100671756Y-137087537D01*
X100674368Y-137144039D01*
X100674500Y-137149765D01*
X100674500Y-137168779D01*
X100676181Y-137183267D01*
X100677415Y-137209953D01*
X100680213Y-137216290D01*
X100688666Y-137243586D01*
X100689938Y-137250394D01*
X100703997Y-137273100D01*
X100712002Y-137288287D01*
X100722792Y-137312723D01*
X100727688Y-137317619D01*
X100745434Y-137340023D01*
X100749081Y-137345912D01*
X100761285Y-137365622D01*
X100759995Y-137366420D01*
X100776477Y-137387613D01*
X100785145Y-137451525D01*
X100760541Y-137511145D01*
X100734353Y-137545274D01*
X100673846Y-137691352D01*
X100653207Y-137848114D01*
X100673846Y-138004877D01*
X100734353Y-138150955D01*
X100830607Y-138276397D01*
X100940229Y-138360512D01*
X100956049Y-138372651D01*
X101102128Y-138433159D01*
X101238251Y-138451079D01*
X101258889Y-138453797D01*
X101258889Y-138453796D01*
X101258890Y-138453797D01*
X101415652Y-138433159D01*
X101561731Y-138372651D01*
X101687172Y-138276397D01*
X101783426Y-138150956D01*
X101843934Y-138004877D01*
X101864572Y-137848115D01*
X101864572Y-137848114D01*
X101866703Y-137831930D01*
X101866785Y-137831940D01*
X101870446Y-137794770D01*
X101900185Y-137746946D01*
X101948009Y-137717207D01*
X101985179Y-137713546D01*
X101985169Y-137713464D01*
X102015838Y-137709426D01*
X102158116Y-137690695D01*
X102304195Y-137630187D01*
X102350269Y-137594832D01*
X102411053Y-137570083D01*
X102475957Y-137579824D01*
X102526797Y-137621328D01*
X102549332Y-137682968D01*
X102564379Y-137864558D01*
X102564379Y-137864561D01*
X102564380Y-137864563D01*
X102623390Y-138097591D01*
X102719951Y-138317728D01*
X102851429Y-138518969D01*
X103014236Y-138695825D01*
X103014239Y-138695827D01*
X103203927Y-138843468D01*
X103203929Y-138843469D01*
X103203933Y-138843472D01*
X103415344Y-138957882D01*
X103642703Y-139035934D01*
X103879808Y-139075500D01*
X104120191Y-139075500D01*
X104120192Y-139075500D01*
X104357297Y-139035934D01*
X104584656Y-138957882D01*
X104796067Y-138843472D01*
X104985764Y-138695825D01*
X105148571Y-138518969D01*
X105280049Y-138317728D01*
X105376610Y-138097591D01*
X105435620Y-137864563D01*
X105455471Y-137625000D01*
X105435620Y-137385437D01*
X105431839Y-137370506D01*
X105433761Y-137302847D01*
X105470928Y-137246277D01*
X105532266Y-137217652D01*
X105599495Y-137225503D01*
X105743238Y-137285044D01*
X105900000Y-137305682D01*
X106056762Y-137285044D01*
X106202841Y-137224536D01*
X106328282Y-137128282D01*
X106424536Y-137002841D01*
X106485044Y-136856762D01*
X106505682Y-136700000D01*
X106485044Y-136543238D01*
X106424536Y-136397159D01*
X106405059Y-136371776D01*
X106328282Y-136271717D01*
X106202840Y-136175463D01*
X106056762Y-136114956D01*
X105899999Y-136094317D01*
X105743237Y-136114956D01*
X105597159Y-136175463D01*
X105471717Y-136271717D01*
X105375463Y-136397159D01*
X105314956Y-136543237D01*
X105307113Y-136602809D01*
X105279209Y-136666274D01*
X105221596Y-136704840D01*
X105152286Y-136706452D01*
X105092946Y-136670606D01*
X104985764Y-136554175D01*
X104985762Y-136554174D01*
X104985760Y-136554171D01*
X104796072Y-136406531D01*
X104796068Y-136406528D01*
X104796067Y-136406528D01*
X104584656Y-136292118D01*
X104584655Y-136292117D01*
X104584652Y-136292116D01*
X104357299Y-136214066D01*
X104199226Y-136187688D01*
X104120192Y-136174500D01*
X103879808Y-136174500D01*
X103820531Y-136184391D01*
X103642700Y-136214066D01*
X103415347Y-136292116D01*
X103203927Y-136406531D01*
X103014239Y-136554172D01*
X102851426Y-136731034D01*
X102762482Y-136867173D01*
X102712558Y-136911032D01*
X102647157Y-136922815D01*
X102585065Y-136899139D01*
X102544113Y-136846804D01*
X102533731Y-136821740D01*
X102525890Y-136802810D01*
X102474673Y-136736062D01*
X102429636Y-136677368D01*
X102304194Y-136581114D01*
X102158116Y-136520607D01*
X102001353Y-136499968D01*
X101865685Y-136517830D01*
X101797095Y-136507273D01*
X101744919Y-136461516D01*
X101725500Y-136394891D01*
X101725500Y-135659693D01*
X101728243Y-135642872D01*
X101727772Y-135632686D01*
X101727773Y-135632685D01*
X101725631Y-135586369D01*
X101725500Y-135580645D01*
X101725500Y-135561627D01*
X101723817Y-135547129D01*
X101723780Y-135546329D01*
X101722585Y-135520458D01*
X101719786Y-135514120D01*
X101711332Y-135486816D01*
X101710061Y-135480016D01*
X101695997Y-135457302D01*
X101687994Y-135442118D01*
X101684455Y-135434102D01*
X101677206Y-135417684D01*
X101672309Y-135412787D01*
X101654563Y-135390382D01*
X101650919Y-135384497D01*
X101629602Y-135368399D01*
X101616648Y-135357126D01*
X101461320Y-135201798D01*
X101434440Y-135161570D01*
X101425001Y-135114117D01*
X101425001Y-134885883D01*
X101434440Y-134838431D01*
X101461317Y-134798204D01*
X101588521Y-134670999D01*
X101602354Y-134661048D01*
X101609225Y-134653510D01*
X101609228Y-134653509D01*
X101640488Y-134619217D01*
X101644379Y-134615141D01*
X101657174Y-134602348D01*
X101657178Y-134602341D01*
X101657868Y-134601652D01*
X101666922Y-134590222D01*
X101684915Y-134570485D01*
X101684914Y-134570485D01*
X101684916Y-134570484D01*
X101687417Y-134564025D01*
X101700748Y-134538737D01*
X101704656Y-134533032D01*
X101704655Y-134533032D01*
X101704657Y-134533031D01*
X101710775Y-134507018D01*
X101715845Y-134490644D01*
X101725500Y-134465724D01*
X101725500Y-134458799D01*
X101728794Y-134430409D01*
X101728819Y-134430300D01*
X101730379Y-134423670D01*
X101726689Y-134397218D01*
X101725500Y-134380087D01*
X101725500Y-131659693D01*
X101728243Y-131642872D01*
X101727772Y-131632686D01*
X101727773Y-131632685D01*
X101725631Y-131586369D01*
X101725500Y-131580645D01*
X101725500Y-131561627D01*
X101723817Y-131547129D01*
X101723475Y-131539722D01*
X101722585Y-131520458D01*
X101719786Y-131514120D01*
X101711332Y-131486816D01*
X101710061Y-131480016D01*
X101695997Y-131457302D01*
X101687994Y-131442118D01*
X101686888Y-131439612D01*
X101677206Y-131417684D01*
X101672310Y-131412788D01*
X101654563Y-131390382D01*
X101650919Y-131384497D01*
X101629602Y-131368399D01*
X101616648Y-131357126D01*
X101461320Y-131201798D01*
X101434440Y-131161570D01*
X101425001Y-131114117D01*
X101425001Y-130885883D01*
X101434440Y-130838431D01*
X101461317Y-130798204D01*
X101588521Y-130670999D01*
X101602354Y-130661048D01*
X101609225Y-130653510D01*
X101609228Y-130653509D01*
X101640488Y-130619217D01*
X101644379Y-130615141D01*
X101657174Y-130602348D01*
X101657178Y-130602341D01*
X101657868Y-130601652D01*
X101666922Y-130590222D01*
X101684915Y-130570485D01*
X101684914Y-130570485D01*
X101684916Y-130570484D01*
X101687417Y-130564025D01*
X101700748Y-130538737D01*
X101704656Y-130533032D01*
X101704655Y-130533032D01*
X101704657Y-130533031D01*
X101710775Y-130507018D01*
X101715845Y-130490644D01*
X101725500Y-130465724D01*
X101725500Y-130458799D01*
X101728794Y-130430409D01*
X101728819Y-130430300D01*
X101730379Y-130423670D01*
X101726689Y-130397218D01*
X101725500Y-130380087D01*
X101725500Y-129669033D01*
X101734939Y-129621580D01*
X101761819Y-129581352D01*
X101892671Y-129450500D01*
X102288518Y-129054651D01*
X102302353Y-129044698D01*
X102309225Y-129037159D01*
X102309228Y-129037158D01*
X102340488Y-129002866D01*
X102344379Y-128998790D01*
X102357174Y-128985997D01*
X102357178Y-128985990D01*
X102357868Y-128985301D01*
X102366922Y-128973871D01*
X102384914Y-128954135D01*
X102384913Y-128954135D01*
X102384916Y-128954133D01*
X102387419Y-128947670D01*
X102400743Y-128922391D01*
X102404656Y-128916681D01*
X102410770Y-128890681D01*
X102415846Y-128874289D01*
X102425500Y-128849373D01*
X102425500Y-128842449D01*
X102428794Y-128814056D01*
X102430379Y-128807319D01*
X102426688Y-128780866D01*
X102425500Y-128763735D01*
X102425500Y-123700000D01*
X103094317Y-123700000D01*
X103114956Y-123856762D01*
X103175463Y-124002840D01*
X103271717Y-124128282D01*
X103386921Y-124216680D01*
X103397159Y-124224536D01*
X103543238Y-124285044D01*
X103679361Y-124302964D01*
X103699999Y-124305682D01*
X103699999Y-124305681D01*
X103700000Y-124305682D01*
X103790827Y-124293724D01*
X103849419Y-124300141D01*
X103851428Y-124301483D01*
X103896036Y-124268775D01*
X104002841Y-124224536D01*
X104128282Y-124128282D01*
X104224536Y-124002841D01*
X104285044Y-123856762D01*
X104305682Y-123700000D01*
X104285044Y-123543238D01*
X104224536Y-123397159D01*
X104189146Y-123351038D01*
X104128282Y-123271717D01*
X104002840Y-123175463D01*
X103856762Y-123114956D01*
X103700000Y-123094317D01*
X103543237Y-123114956D01*
X103397159Y-123175463D01*
X103271717Y-123271717D01*
X103175463Y-123397159D01*
X103114956Y-123543237D01*
X103094317Y-123700000D01*
X102425500Y-123700000D01*
X102425500Y-120477153D01*
X102434939Y-120429700D01*
X102461819Y-120389472D01*
X102785589Y-120065701D01*
X103113499Y-119737789D01*
X103127334Y-119727836D01*
X103134206Y-119720297D01*
X103134209Y-119720296D01*
X103165469Y-119686004D01*
X103169360Y-119681928D01*
X103182155Y-119669135D01*
X103182159Y-119669128D01*
X103182849Y-119668439D01*
X103191903Y-119657009D01*
X103207256Y-119640168D01*
X103209897Y-119637271D01*
X103212398Y-119630812D01*
X103225729Y-119605524D01*
X103229637Y-119599819D01*
X103229636Y-119599819D01*
X103229638Y-119599818D01*
X103235756Y-119573805D01*
X103240826Y-119557431D01*
X103250481Y-119532511D01*
X103250481Y-119532508D01*
X103255199Y-119520330D01*
X103259920Y-119496599D01*
X103286800Y-119456371D01*
X103817824Y-118925347D01*
X104351999Y-118391171D01*
X104365831Y-118381220D01*
X104372704Y-118373680D01*
X104372707Y-118373679D01*
X104403957Y-118339398D01*
X104407848Y-118335322D01*
X104420654Y-118322518D01*
X104420658Y-118322511D01*
X104421349Y-118321821D01*
X104430405Y-118310386D01*
X104448395Y-118290654D01*
X104450895Y-118284197D01*
X104464226Y-118258907D01*
X104468136Y-118253201D01*
X104474253Y-118227192D01*
X104479324Y-118210814D01*
X104488979Y-118185894D01*
X104488979Y-118178969D01*
X104492273Y-118150579D01*
X104492298Y-118150470D01*
X104493858Y-118143840D01*
X104490168Y-118117388D01*
X104488979Y-118100257D01*
X104488979Y-116682268D01*
X104498418Y-116634815D01*
X104525298Y-116594587D01*
X104722638Y-116397247D01*
X105388518Y-115731365D01*
X105402353Y-115721412D01*
X105409225Y-115713873D01*
X105409228Y-115713872D01*
X105440488Y-115679580D01*
X105444379Y-115675504D01*
X105457174Y-115662711D01*
X105457178Y-115662704D01*
X105457868Y-115662015D01*
X105466922Y-115650585D01*
X105484914Y-115630849D01*
X105484913Y-115630849D01*
X105484916Y-115630847D01*
X105487419Y-115624384D01*
X105500743Y-115599105D01*
X105504656Y-115593395D01*
X105510770Y-115567395D01*
X105515846Y-115551003D01*
X105525500Y-115526087D01*
X105525500Y-115519163D01*
X105528794Y-115490770D01*
X105530379Y-115484033D01*
X105526688Y-115457580D01*
X105525500Y-115440449D01*
X105525500Y-114743887D01*
X105534939Y-114696434D01*
X105561819Y-114656206D01*
X106083516Y-114134509D01*
X107666456Y-112551567D01*
X107716847Y-112520989D01*
X107775667Y-112517134D01*
X107829620Y-112540873D01*
G37*
%TD.AperFunction*%
%TA.AperFunction,Conductor*%
G36*
X109946715Y-131960486D02*
G01*
X109994789Y-132006106D01*
X110012500Y-132069971D01*
X110012500Y-136858458D01*
X109999712Y-136913302D01*
X109963986Y-136956834D01*
X109921070Y-136989763D01*
X109916447Y-136995789D01*
X109865524Y-137034860D01*
X109801889Y-137043236D01*
X109742590Y-137018673D01*
X109654348Y-136950963D01*
X109508270Y-136890456D01*
X109351508Y-136869817D01*
X109194745Y-136890456D01*
X109048667Y-136950963D01*
X108923225Y-137047217D01*
X108826971Y-137172659D01*
X108766464Y-137318737D01*
X108745825Y-137475500D01*
X108768595Y-137648447D01*
X108766971Y-137648660D01*
X108772368Y-137694269D01*
X108744183Y-137755401D01*
X108688211Y-137792799D01*
X108620947Y-137795441D01*
X108562214Y-137762548D01*
X107516819Y-136717153D01*
X107489939Y-136676925D01*
X107480500Y-136629472D01*
X107480500Y-136535169D01*
X107493740Y-136479417D01*
X107530633Y-136435571D01*
X107583301Y-136412995D01*
X107640495Y-136416508D01*
X107805000Y-136466410D01*
X107805000Y-135195000D01*
X108305000Y-135195000D01*
X108305000Y-136466410D01*
X108458764Y-136419766D01*
X108641171Y-136322268D01*
X108801054Y-136191054D01*
X108932268Y-136031171D01*
X109029766Y-135848764D01*
X109089808Y-135650834D01*
X109105000Y-135496588D01*
X109105000Y-135195000D01*
X108305000Y-135195000D01*
X107805000Y-135195000D01*
X107805000Y-134819000D01*
X107821613Y-134757000D01*
X107867000Y-134711613D01*
X107929000Y-134695000D01*
X109105000Y-134695000D01*
X109105000Y-134393412D01*
X109089808Y-134239165D01*
X109029766Y-134041235D01*
X108932268Y-133858829D01*
X108804106Y-133702664D01*
X108776892Y-133639178D01*
X108787864Y-133570982D01*
X108833619Y-133519237D01*
X108899959Y-133499999D01*
X109024979Y-133499999D01*
X109127695Y-133489506D01*
X109294122Y-133434357D01*
X109443345Y-133342316D01*
X109567316Y-133218345D01*
X109659357Y-133069122D01*
X109714506Y-132902696D01*
X109725000Y-132799979D01*
X109725000Y-132750000D01*
X108499000Y-132750000D01*
X108437000Y-132733387D01*
X108391613Y-132688000D01*
X108375000Y-132626000D01*
X108375000Y-132374000D01*
X108391613Y-132312000D01*
X108437000Y-132266613D01*
X108499000Y-132250000D01*
X109724999Y-132250000D01*
X109724999Y-132200028D01*
X109722370Y-132174301D01*
X109733346Y-132109290D01*
X109776118Y-132017566D01*
X109819160Y-131967170D01*
X109882011Y-131946141D01*
X109946715Y-131960486D01*
G37*
%TD.AperFunction*%
%TA.AperFunction,Conductor*%
G36*
X106875544Y-128968517D02*
G01*
X106908445Y-129022770D01*
X106910201Y-129086195D01*
X106907860Y-129096147D01*
X106902783Y-129112545D01*
X106893132Y-129137459D01*
X106893132Y-129144383D01*
X106889838Y-129172772D01*
X106888253Y-129179512D01*
X106888253Y-129179513D01*
X106891943Y-129205964D01*
X106893132Y-129223097D01*
X106893132Y-130345717D01*
X106878490Y-130404170D01*
X106838023Y-130448819D01*
X106781286Y-130469120D01*
X106721680Y-130460278D01*
X106612262Y-130414956D01*
X106455499Y-130394317D01*
X106298737Y-130414956D01*
X106152659Y-130475463D01*
X106027217Y-130571717D01*
X105930963Y-130697159D01*
X105870456Y-130843237D01*
X105849817Y-130999999D01*
X105870456Y-131156762D01*
X105930963Y-131302840D01*
X106027217Y-131428282D01*
X106144339Y-131518152D01*
X106152659Y-131524536D01*
X106298738Y-131585044D01*
X106455500Y-131605682D01*
X106612262Y-131585044D01*
X106685586Y-131554671D01*
X106721680Y-131539722D01*
X106781286Y-131530880D01*
X106838023Y-131551181D01*
X106878490Y-131595830D01*
X106893132Y-131654283D01*
X106893132Y-131719538D01*
X106890388Y-131736358D01*
X106891309Y-131756278D01*
X106879141Y-131815846D01*
X106840120Y-131862471D01*
X106783627Y-131884942D01*
X106734581Y-131891399D01*
X106588503Y-131951906D01*
X106463061Y-132048160D01*
X106366807Y-132173602D01*
X106306300Y-132319680D01*
X106306300Y-132319681D01*
X106298400Y-132379685D01*
X106277037Y-132434623D01*
X106232719Y-132473489D01*
X106175462Y-132487500D01*
X104434159Y-132487500D01*
X104417338Y-132484756D01*
X104374224Y-132486749D01*
X104360835Y-132487368D01*
X104355111Y-132487500D01*
X104330518Y-132487500D01*
X104283068Y-132478062D01*
X104257261Y-132467373D01*
X104100498Y-132446734D01*
X103943736Y-132467373D01*
X103797658Y-132527880D01*
X103672216Y-132624134D01*
X103575962Y-132749576D01*
X103515455Y-132895654D01*
X103494816Y-133052417D01*
X103515455Y-133209179D01*
X103575962Y-133355257D01*
X103672216Y-133480699D01*
X103780380Y-133563695D01*
X103797658Y-133576953D01*
X103943737Y-133637461D01*
X104100499Y-133658099D01*
X104257261Y-133637461D01*
X104403340Y-133576953D01*
X104528781Y-133480699D01*
X104625035Y-133355258D01*
X104685543Y-133209179D01*
X104687236Y-133196313D01*
X104708602Y-133141375D01*
X104752920Y-133102510D01*
X104810176Y-133088500D01*
X106510544Y-133088500D01*
X106527364Y-133091243D01*
X106537549Y-133090772D01*
X106537552Y-133090773D01*
X106583867Y-133088631D01*
X106589592Y-133088500D01*
X106608611Y-133088500D01*
X106623105Y-133086817D01*
X106649779Y-133085585D01*
X106656117Y-133082786D01*
X106683414Y-133074333D01*
X106690220Y-133073061D01*
X106690222Y-133073059D01*
X106704638Y-133070365D01*
X106715014Y-133066183D01*
X106757264Y-133064473D01*
X106891344Y-133082125D01*
X107048106Y-133061487D01*
X107127007Y-133028804D01*
X107186613Y-133019963D01*
X107243350Y-133040264D01*
X107283817Y-133084913D01*
X107298459Y-133143366D01*
X107298459Y-133523125D01*
X107289020Y-133570578D01*
X107262140Y-133610806D01*
X107061537Y-133811408D01*
X107011143Y-133841988D01*
X106952324Y-133845843D01*
X106898370Y-133822103D01*
X106783340Y-133733838D01*
X106637262Y-133673331D01*
X106480500Y-133652692D01*
X106323737Y-133673331D01*
X106177659Y-133733838D01*
X106052217Y-133830092D01*
X105955963Y-133955534D01*
X105895456Y-134101612D01*
X105874817Y-134258375D01*
X105881043Y-134305660D01*
X105870486Y-134374250D01*
X105824729Y-134426426D01*
X105758104Y-134445845D01*
X103471293Y-134445845D01*
X103404668Y-134426425D01*
X103358911Y-134374249D01*
X103348354Y-134305659D01*
X103350162Y-134291932D01*
X103355682Y-134250000D01*
X103335044Y-134093238D01*
X103274536Y-133947159D01*
X103229659Y-133888674D01*
X103178282Y-133821717D01*
X103061514Y-133732119D01*
X103025788Y-133688587D01*
X103013000Y-133633743D01*
X103013000Y-132160300D01*
X103022439Y-132112847D01*
X103049319Y-132072619D01*
X103572619Y-131549319D01*
X103612847Y-131522439D01*
X103660300Y-131513000D01*
X104011888Y-131513000D01*
X104036079Y-131515383D01*
X104050000Y-131518152D01*
X104095382Y-131509125D01*
X104152617Y-131497740D01*
X104239612Y-131439612D01*
X104239613Y-131439609D01*
X104243021Y-131437333D01*
X104290586Y-131396974D01*
X104357947Y-131386980D01*
X104500000Y-131405682D01*
X104656762Y-131385044D01*
X104802841Y-131324536D01*
X104928282Y-131228282D01*
X105024536Y-131102841D01*
X105085044Y-130956762D01*
X105105682Y-130800000D01*
X105086470Y-130654071D01*
X105091990Y-130598031D01*
X105121726Y-130550210D01*
X106701817Y-128970119D01*
X106756666Y-128938227D01*
X106820113Y-128937641D01*
X106875544Y-128968517D01*
G37*
%TD.AperFunction*%
%TA.AperFunction,Conductor*%
G36*
X108444391Y-128883960D02*
G01*
X108484858Y-128928609D01*
X108499500Y-128987062D01*
X108499500Y-130103862D01*
X108496755Y-130120686D01*
X108497041Y-130126864D01*
X108487114Y-130181507D01*
X108454330Y-130226336D01*
X108405267Y-130252359D01*
X108191719Y-130309578D01*
X107991589Y-130402900D01*
X107926812Y-130448258D01*
X108890872Y-131412318D01*
X108922966Y-131467905D01*
X108922966Y-131532093D01*
X108890872Y-131587680D01*
X108712680Y-131765872D01*
X108657093Y-131797966D01*
X108592905Y-131797966D01*
X108537318Y-131765872D01*
X107532371Y-130760925D01*
X107534611Y-130758684D01*
X107512594Y-130738509D01*
X107494132Y-130673412D01*
X107494132Y-129369465D01*
X107503571Y-129322012D01*
X107530448Y-129281786D01*
X107846339Y-128965894D01*
X107894157Y-128936160D01*
X107950200Y-128930640D01*
X108049264Y-128943682D01*
X108206026Y-128923044D01*
X108328047Y-128872500D01*
X108387654Y-128863659D01*
X108444391Y-128883960D01*
G37*
%TD.AperFunction*%
%TA.AperFunction,Conductor*%
G36*
X100399986Y-119832120D02*
G01*
X100517128Y-119922005D01*
X100530800Y-119932496D01*
X100676879Y-119993004D01*
X100833641Y-120013642D01*
X100990403Y-119993004D01*
X101136482Y-119932496D01*
X101193494Y-119888748D01*
X101248826Y-119864773D01*
X101308926Y-119869734D01*
X101359578Y-119902459D01*
X101388803Y-119955207D01*
X101389690Y-120015504D01*
X101389232Y-120017452D01*
X101384151Y-120033863D01*
X101374500Y-120058777D01*
X101374500Y-120065701D01*
X101371206Y-120094094D01*
X101369621Y-120100831D01*
X101373311Y-120127282D01*
X101374500Y-120144415D01*
X101374500Y-128430966D01*
X101365061Y-128478419D01*
X101338181Y-128518647D01*
X100811475Y-129045352D01*
X100797639Y-129055308D01*
X100759523Y-129097118D01*
X100755573Y-129101254D01*
X100742141Y-129114686D01*
X100733087Y-129126117D01*
X100715083Y-129145867D01*
X100712578Y-129152334D01*
X100699259Y-129177602D01*
X100695343Y-129183318D01*
X100689228Y-129209317D01*
X100684151Y-129225713D01*
X100674500Y-129250627D01*
X100674500Y-129257551D01*
X100671206Y-129285944D01*
X100669621Y-129292681D01*
X100673311Y-129319132D01*
X100674500Y-129336265D01*
X100674500Y-130047348D01*
X100665061Y-130094801D01*
X100638183Y-130135026D01*
X100541751Y-130231458D01*
X100510995Y-130262214D01*
X100497158Y-130272170D01*
X100459043Y-130313979D01*
X100455093Y-130318115D01*
X100441661Y-130331547D01*
X100432607Y-130342978D01*
X100416141Y-130361042D01*
X100367154Y-130393941D01*
X100308507Y-130400472D01*
X100253483Y-130379157D01*
X100214541Y-130334822D01*
X100200500Y-130277508D01*
X100200500Y-119930496D01*
X100219199Y-119865016D01*
X100269656Y-119819284D01*
X100336654Y-119807093D01*
X100399986Y-119832120D01*
G37*
%TD.AperFunction*%
%TA.AperFunction,Conductor*%
G36*
X110466650Y-123712871D02*
G01*
X110519113Y-123744084D01*
X111172101Y-124397072D01*
X111201839Y-124444894D01*
X111207359Y-124500938D01*
X111194317Y-124599999D01*
X111214956Y-124756762D01*
X111275463Y-124902840D01*
X111371717Y-125028282D01*
X111465183Y-125100000D01*
X111497159Y-125124536D01*
X111643238Y-125185044D01*
X111800000Y-125205682D01*
X111956762Y-125185044D01*
X112102841Y-125124536D01*
X112228282Y-125028282D01*
X112324536Y-124902841D01*
X112385044Y-124756762D01*
X112405682Y-124600000D01*
X112385044Y-124443238D01*
X112324536Y-124297159D01*
X112321900Y-124293724D01*
X112311379Y-124280012D01*
X112286351Y-124216680D01*
X112298542Y-124149681D01*
X112344273Y-124099224D01*
X112409754Y-124080525D01*
X112604192Y-124080525D01*
X112651645Y-124089964D01*
X112691873Y-124116844D01*
X112800681Y-124225652D01*
X112827561Y-124265880D01*
X112837000Y-124313333D01*
X112837000Y-125983172D01*
X112822358Y-126041625D01*
X112781891Y-126086274D01*
X112725155Y-126106575D01*
X112684759Y-126100582D01*
X112684693Y-126101090D01*
X112668508Y-126098959D01*
X112654023Y-126097052D01*
X112511746Y-126078320D01*
X112354983Y-126098959D01*
X112208905Y-126159466D01*
X112083463Y-126255720D01*
X111987209Y-126381162D01*
X111926702Y-126527240D01*
X111906063Y-126684003D01*
X111926702Y-126840765D01*
X111987209Y-126986843D01*
X112083463Y-127112285D01*
X112129160Y-127147349D01*
X112208905Y-127208539D01*
X112354984Y-127269047D01*
X112491106Y-127286967D01*
X112511745Y-127289685D01*
X112511745Y-127289684D01*
X112511746Y-127289685D01*
X112668508Y-127269047D01*
X112814587Y-127208539D01*
X112940028Y-127112285D01*
X112999114Y-127035283D01*
X113014624Y-127015070D01*
X113062565Y-126977276D01*
X113122729Y-126966938D01*
X113180535Y-126986561D01*
X113221973Y-127031388D01*
X113237000Y-127090556D01*
X113237000Y-128089699D01*
X113227561Y-128137152D01*
X113200681Y-128177380D01*
X113026751Y-128351311D01*
X112986523Y-128378191D01*
X112939070Y-128387630D01*
X111960300Y-128387630D01*
X111912847Y-128378191D01*
X111872619Y-128351311D01*
X111600290Y-128078982D01*
X111584868Y-128060191D01*
X111576982Y-128048388D01*
X111540388Y-128023937D01*
X111500139Y-127997043D01*
X111495394Y-127993149D01*
X111489986Y-127990258D01*
X111413274Y-127974999D01*
X111413271Y-127975000D01*
X111387369Y-127969847D01*
X111373449Y-127972617D01*
X111349258Y-127975000D01*
X111039633Y-127975000D01*
X110992180Y-127965561D01*
X110951951Y-127938681D01*
X110925072Y-127898452D01*
X110924536Y-127897159D01*
X110828282Y-127771717D01*
X110702840Y-127675463D01*
X110556762Y-127614956D01*
X110399999Y-127594317D01*
X110243237Y-127614956D01*
X110097159Y-127675463D01*
X109971717Y-127771717D01*
X109875463Y-127897158D01*
X109827759Y-128012327D01*
X109788684Y-128063250D01*
X109729383Y-128087813D01*
X109689879Y-128082612D01*
X109689599Y-128084742D01*
X109673414Y-128082611D01*
X109658929Y-128080704D01*
X109516652Y-128061972D01*
X109359889Y-128082611D01*
X109271952Y-128119036D01*
X109212346Y-128127878D01*
X109155609Y-128107577D01*
X109115142Y-128062928D01*
X109100500Y-128004475D01*
X109100500Y-126187482D01*
X109113288Y-126132638D01*
X109149014Y-126089106D01*
X109152705Y-126086274D01*
X109228282Y-126028282D01*
X109324536Y-125902841D01*
X109385044Y-125756762D01*
X109405682Y-125600000D01*
X109385044Y-125443238D01*
X109324536Y-125297159D01*
X109296120Y-125260126D01*
X109228282Y-125171717D01*
X109102840Y-125075463D01*
X108956762Y-125014956D01*
X108799998Y-124994317D01*
X108748393Y-125001111D01*
X108687770Y-124993936D01*
X108637918Y-124958703D01*
X108610919Y-124903952D01*
X108613315Y-124842954D01*
X108644525Y-124790494D01*
X109116403Y-124318616D01*
X109166794Y-124288038D01*
X109225614Y-124284183D01*
X109279568Y-124307923D01*
X109288744Y-124314964D01*
X109404045Y-124403437D01*
X109550124Y-124463945D01*
X109706886Y-124484583D01*
X109863648Y-124463945D01*
X110009727Y-124403437D01*
X110135168Y-124307183D01*
X110231422Y-124181742D01*
X110291930Y-124035663D01*
X110312568Y-123878901D01*
X110308493Y-123847949D01*
X110315668Y-123787328D01*
X110350900Y-123737475D01*
X110405651Y-123710475D01*
X110466650Y-123712871D01*
G37*
%TD.AperFunction*%
%TA.AperFunction,Conductor*%
G36*
X115841091Y-101806513D02*
G01*
X115897159Y-101849536D01*
X115897160Y-101849536D01*
X115897161Y-101849537D01*
X115919133Y-101858638D01*
X116043238Y-101910044D01*
X116179361Y-101927964D01*
X116199999Y-101930682D01*
X116199999Y-101930681D01*
X116200000Y-101930682D01*
X116345927Y-101911470D01*
X116401967Y-101916990D01*
X116449790Y-101946728D01*
X117563181Y-103060119D01*
X117590061Y-103100347D01*
X117599500Y-103147800D01*
X117599500Y-103449388D01*
X117597117Y-103473579D01*
X117594347Y-103487500D01*
X117614758Y-103590115D01*
X117640222Y-103628225D01*
X117640223Y-103628226D01*
X117672888Y-103677112D01*
X117684692Y-103684999D01*
X117703483Y-103700421D01*
X118350681Y-104347619D01*
X118377561Y-104387847D01*
X118387000Y-104435300D01*
X118387000Y-105686888D01*
X118384617Y-105711079D01*
X118381847Y-105724999D01*
X118387000Y-105750901D01*
X118402259Y-105827615D01*
X118402259Y-105827616D01*
X118402260Y-105827617D01*
X118460388Y-105914612D01*
X118472193Y-105922500D01*
X118490982Y-105937920D01*
X118913228Y-106360166D01*
X118936759Y-106393003D01*
X118948486Y-106431661D01*
X118964956Y-106556762D01*
X119025463Y-106702840D01*
X119121717Y-106828282D01*
X119238486Y-106917881D01*
X119274212Y-106961413D01*
X119287000Y-107016257D01*
X119287000Y-116911888D01*
X119284617Y-116936079D01*
X119281847Y-116949999D01*
X119287000Y-116975901D01*
X119302259Y-117052615D01*
X119302259Y-117052616D01*
X119302260Y-117052617D01*
X119360388Y-117139612D01*
X119372193Y-117147500D01*
X119390982Y-117162920D01*
X121113181Y-118885119D01*
X121140061Y-118925347D01*
X121149500Y-118972800D01*
X121149500Y-123627199D01*
X121140061Y-123674652D01*
X121113181Y-123714880D01*
X119877381Y-124950681D01*
X119837153Y-124977561D01*
X119789700Y-124987000D01*
X119378314Y-124987000D01*
X119323470Y-124974212D01*
X119279938Y-124938486D01*
X119253439Y-124903952D01*
X119225208Y-124867160D01*
X119203011Y-124820621D01*
X119201662Y-124769076D01*
X119202265Y-124765817D01*
X118770001Y-124333553D01*
X118770000Y-124333553D01*
X118337732Y-124765818D01*
X118338337Y-124769079D01*
X118336987Y-124820623D01*
X118314789Y-124867162D01*
X118250968Y-124950335D01*
X118249561Y-124953734D01*
X118215531Y-125000571D01*
X118163947Y-125026854D01*
X118106053Y-125026854D01*
X118054469Y-125000571D01*
X118020439Y-124953734D01*
X118019031Y-124950335D01*
X117923789Y-124826213D01*
X117923786Y-124826211D01*
X117799664Y-124730968D01*
X117799663Y-124730967D01*
X117797276Y-124729979D01*
X117796268Y-124729561D01*
X117749430Y-124695532D01*
X117723146Y-124643948D01*
X117723146Y-124586052D01*
X117749430Y-124534468D01*
X117796268Y-124500438D01*
X117799664Y-124499032D01*
X117885193Y-124433402D01*
X117928584Y-124412004D01*
X117976864Y-124408840D01*
X117986357Y-124410089D01*
X118416447Y-123980001D01*
X119123553Y-123980001D01*
X119553642Y-124410090D01*
X119590933Y-124345501D01*
X119648985Y-124166835D01*
X119668622Y-123980000D01*
X119648985Y-123793164D01*
X119590933Y-123614496D01*
X119553642Y-123549908D01*
X119123553Y-123980000D01*
X119123553Y-123980001D01*
X118416447Y-123980001D01*
X118416447Y-123980000D01*
X117943117Y-123506669D01*
X117500001Y-123063553D01*
X117500000Y-123063553D01*
X117067732Y-123495818D01*
X117068337Y-123499079D01*
X117066987Y-123550622D01*
X117044790Y-123597161D01*
X117040924Y-123602200D01*
X116990061Y-123668486D01*
X116946531Y-123704212D01*
X116891686Y-123717000D01*
X116453383Y-123717000D01*
X116405930Y-123707561D01*
X116365702Y-123680681D01*
X115395021Y-122710000D01*
X116601377Y-122710000D01*
X116621014Y-122896835D01*
X116679066Y-123075503D01*
X116716355Y-123140089D01*
X116716356Y-123140090D01*
X117146447Y-122710001D01*
X117146447Y-122710000D01*
X116716356Y-122279909D01*
X116679066Y-122344497D01*
X116621014Y-122523164D01*
X116601377Y-122710000D01*
X115395021Y-122710000D01*
X115299319Y-122614298D01*
X115272439Y-122574070D01*
X115263000Y-122526617D01*
X115263000Y-121272688D01*
X115276515Y-121216393D01*
X115314115Y-121172370D01*
X115367602Y-121150215D01*
X115425318Y-121154757D01*
X115474681Y-121185007D01*
X115945955Y-121656282D01*
X115953263Y-121664256D01*
X115977544Y-121693193D01*
X115977545Y-121693194D01*
X116010266Y-121712085D01*
X116019360Y-121717878D01*
X116050316Y-121739554D01*
X116050317Y-121739554D01*
X116051201Y-121740173D01*
X116075891Y-121750400D01*
X116076954Y-121750587D01*
X116076955Y-121750588D01*
X116114146Y-121757145D01*
X116124704Y-121759486D01*
X116161191Y-121769263D01*
X116161192Y-121769262D01*
X116161193Y-121769263D01*
X116198811Y-121765971D01*
X116209618Y-121765500D01*
X116939643Y-121765500D01*
X116994486Y-121778288D01*
X117038018Y-121814013D01*
X117044789Y-121822837D01*
X117066988Y-121869375D01*
X117068338Y-121920919D01*
X117067733Y-121924180D01*
X117500000Y-122356447D01*
X117500001Y-122356447D01*
X117932265Y-121924181D01*
X117931662Y-121920923D01*
X117933011Y-121869377D01*
X117955207Y-121822841D01*
X118019032Y-121739664D01*
X118020438Y-121736268D01*
X118054468Y-121689430D01*
X118106052Y-121663146D01*
X118163948Y-121663146D01*
X118215532Y-121689430D01*
X118249562Y-121736269D01*
X118250967Y-121739663D01*
X118253771Y-121743317D01*
X118346212Y-121863788D01*
X118470336Y-121959032D01*
X118473731Y-121960438D01*
X118520569Y-121994467D01*
X118546854Y-122046052D01*
X118546854Y-122103946D01*
X118520571Y-122155531D01*
X118473734Y-122189560D01*
X118473416Y-122189692D01*
X118470335Y-122190968D01*
X118384809Y-122256595D01*
X118341417Y-122277994D01*
X118293139Y-122281158D01*
X118283643Y-122279907D01*
X117853553Y-122710000D01*
X118326879Y-123183327D01*
X118326882Y-123183329D01*
X118770000Y-123626447D01*
X118770001Y-123626447D01*
X119202265Y-123194181D01*
X119201662Y-123190923D01*
X119203011Y-123139377D01*
X119225207Y-123092841D01*
X119289032Y-123009664D01*
X119348905Y-122865117D01*
X119369327Y-122710000D01*
X119348905Y-122554883D01*
X119289032Y-122410337D01*
X119193788Y-122286212D01*
X119069664Y-122190968D01*
X119069663Y-122190967D01*
X119067276Y-122189979D01*
X119066268Y-122189561D01*
X119019430Y-122155532D01*
X118993146Y-122103948D01*
X118993146Y-122046052D01*
X119019430Y-121994468D01*
X119066268Y-121960438D01*
X119069664Y-121959032D01*
X119193788Y-121863788D01*
X119289032Y-121739664D01*
X119348905Y-121595117D01*
X119369327Y-121440000D01*
X119348905Y-121284883D01*
X119289032Y-121140337D01*
X119193788Y-121016212D01*
X119069664Y-120920968D01*
X119069663Y-120920967D01*
X119067276Y-120919979D01*
X119066268Y-120919561D01*
X119019430Y-120885532D01*
X118993146Y-120833948D01*
X118993146Y-120776052D01*
X119019430Y-120724468D01*
X119066268Y-120690438D01*
X119069664Y-120689032D01*
X119193788Y-120593788D01*
X119289032Y-120469664D01*
X119348905Y-120325117D01*
X119369327Y-120170000D01*
X119348905Y-120014883D01*
X119289032Y-119870337D01*
X119262870Y-119836242D01*
X119255878Y-119827129D01*
X119232380Y-119774506D01*
X119235208Y-119716944D01*
X119263751Y-119666877D01*
X119311844Y-119635121D01*
X119324164Y-119630637D01*
X119487993Y-119571008D01*
X119633654Y-119475205D01*
X119753296Y-119348393D01*
X119840467Y-119197407D01*
X119890469Y-119030388D01*
X119900607Y-118856340D01*
X119870332Y-118684646D01*
X119801279Y-118524562D01*
X119697168Y-118384717D01*
X119693000Y-118381220D01*
X119596346Y-118300117D01*
X119563614Y-118272651D01*
X119407815Y-118194406D01*
X119238171Y-118154200D01*
X119107564Y-118154200D01*
X119036861Y-118162464D01*
X118977834Y-118169363D01*
X118814005Y-118228992D01*
X118668346Y-118324794D01*
X118548704Y-118451606D01*
X118461533Y-118602591D01*
X118448884Y-118644845D01*
X118436264Y-118687000D01*
X118432591Y-118699268D01*
X118394606Y-118757760D01*
X118331058Y-118786498D01*
X118262050Y-118776390D01*
X118209414Y-118730634D01*
X118189800Y-118663705D01*
X118189800Y-118464912D01*
X118192183Y-118440721D01*
X118192678Y-118438229D01*
X118194952Y-118426800D01*
X118191483Y-118409363D01*
X118187057Y-118387111D01*
X118187057Y-118387107D01*
X118174541Y-118324183D01*
X118158049Y-118299502D01*
X118158047Y-118299499D01*
X118124299Y-118248990D01*
X118124298Y-118248990D01*
X118124297Y-118248988D01*
X118116413Y-118237188D01*
X118104607Y-118229300D01*
X118085816Y-118213878D01*
X117462920Y-117590982D01*
X117447498Y-117572191D01*
X117444245Y-117567322D01*
X117439612Y-117560388D01*
X117439610Y-117560387D01*
X117439610Y-117560386D01*
X117385778Y-117524417D01*
X117385777Y-117524417D01*
X117352616Y-117502259D01*
X117249999Y-117481847D01*
X117236079Y-117484617D01*
X117211888Y-117487000D01*
X116866257Y-117487000D01*
X116811413Y-117474212D01*
X116767881Y-117438486D01*
X116678282Y-117321717D01*
X116552840Y-117225463D01*
X116406762Y-117164956D01*
X116250000Y-117144317D01*
X116093239Y-117164955D01*
X116035030Y-117189066D01*
X115996951Y-117204839D01*
X115937346Y-117213681D01*
X115880609Y-117193380D01*
X115840142Y-117148731D01*
X115825500Y-117090278D01*
X115825500Y-115818299D01*
X115838288Y-115763455D01*
X115874014Y-115719923D01*
X115881900Y-115713872D01*
X115928282Y-115678282D01*
X116024536Y-115552841D01*
X116058832Y-115470042D01*
X116091631Y-115424271D01*
X116141297Y-115397723D01*
X116197582Y-115395881D01*
X116248877Y-115419122D01*
X116266107Y-115432343D01*
X116347159Y-115494536D01*
X116493238Y-115555044D01*
X116650000Y-115575682D01*
X116806762Y-115555044D01*
X116952841Y-115494536D01*
X117078282Y-115398282D01*
X117174536Y-115272841D01*
X117235044Y-115126762D01*
X117255682Y-114970000D01*
X117235044Y-114813238D01*
X117174536Y-114667159D01*
X117169230Y-114660244D01*
X117078282Y-114541717D01*
X116952840Y-114445463D01*
X116806762Y-114384956D01*
X116650000Y-114364317D01*
X116493237Y-114384956D01*
X116347159Y-114445463D01*
X116221717Y-114541717D01*
X116125464Y-114667158D01*
X116091169Y-114749954D01*
X116058367Y-114795729D01*
X116008702Y-114822276D01*
X115952417Y-114824118D01*
X115901122Y-114800877D01*
X115802840Y-114725463D01*
X115656762Y-114664956D01*
X115620973Y-114660244D01*
X115559544Y-114634010D01*
X115520637Y-114579714D01*
X115515543Y-114513115D01*
X115518152Y-114500000D01*
X115515383Y-114486079D01*
X115513000Y-114461888D01*
X115513000Y-109874074D01*
X115522439Y-109826621D01*
X115549319Y-109786393D01*
X115589548Y-109759513D01*
X115607099Y-109752242D01*
X115627059Y-109743975D01*
X115752500Y-109647721D01*
X115848754Y-109522280D01*
X115909262Y-109376201D01*
X115929900Y-109219439D01*
X115909262Y-109062677D01*
X115848754Y-108916598D01*
X115838197Y-108902840D01*
X115752500Y-108791156D01*
X115627058Y-108694902D01*
X115480980Y-108634395D01*
X115324218Y-108613756D01*
X115167455Y-108634395D01*
X115021377Y-108694902D01*
X114895935Y-108791156D01*
X114799682Y-108916596D01*
X114776784Y-108971877D01*
X114737709Y-109022799D01*
X114678408Y-109047362D01*
X114614771Y-109038984D01*
X114556762Y-109014956D01*
X114400000Y-108994317D01*
X114243237Y-109014956D01*
X114097159Y-109075463D01*
X113971717Y-109171717D01*
X113875463Y-109297159D01*
X113814956Y-109443237D01*
X113794317Y-109599999D01*
X113814956Y-109756762D01*
X113875463Y-109902840D01*
X113971717Y-110028282D01*
X114055358Y-110092461D01*
X114097159Y-110124536D01*
X114243238Y-110185044D01*
X114400000Y-110205682D01*
X114556762Y-110185044D01*
X114702841Y-110124536D01*
X114747138Y-110090545D01*
X114787514Y-110059565D01*
X114850846Y-110034538D01*
X114917844Y-110046729D01*
X114968301Y-110092461D01*
X114987000Y-110157941D01*
X114987000Y-111442059D01*
X114968301Y-111507539D01*
X114917844Y-111553271D01*
X114850846Y-111565462D01*
X114787514Y-111540435D01*
X114702840Y-111475463D01*
X114556762Y-111414956D01*
X114400000Y-111394317D01*
X114243237Y-111414956D01*
X114097159Y-111475463D01*
X113971717Y-111571717D01*
X113875463Y-111697159D01*
X113814956Y-111843237D01*
X113794317Y-112000000D01*
X113814956Y-112156762D01*
X113875463Y-112302840D01*
X113971717Y-112428282D01*
X114087512Y-112517134D01*
X114097159Y-112524536D01*
X114243238Y-112585044D01*
X114400000Y-112605682D01*
X114556762Y-112585044D01*
X114702841Y-112524536D01*
X114751560Y-112487153D01*
X114787514Y-112459565D01*
X114850846Y-112434538D01*
X114917844Y-112446729D01*
X114968301Y-112492461D01*
X114987000Y-112557941D01*
X114987000Y-114339700D01*
X114977561Y-114387153D01*
X114950681Y-114427381D01*
X114224681Y-115153381D01*
X114175318Y-115183631D01*
X114117602Y-115188173D01*
X114064115Y-115166018D01*
X114026515Y-115121995D01*
X114013000Y-115065700D01*
X114013000Y-114444603D01*
X114022439Y-114397149D01*
X114049320Y-114356920D01*
X114089548Y-114330041D01*
X114102841Y-114324536D01*
X114228282Y-114228282D01*
X114324536Y-114102841D01*
X114385044Y-113956762D01*
X114405682Y-113800000D01*
X114405335Y-113797368D01*
X114402964Y-113779360D01*
X114385044Y-113643238D01*
X114324536Y-113497159D01*
X114285510Y-113446299D01*
X114228282Y-113371717D01*
X114102840Y-113275463D01*
X113956762Y-113214956D01*
X113800000Y-113194317D01*
X113643237Y-113214956D01*
X113522452Y-113264987D01*
X113462846Y-113273829D01*
X113406109Y-113253528D01*
X113365642Y-113208879D01*
X113351000Y-113150426D01*
X113351000Y-109270285D01*
X113360439Y-109222832D01*
X113387319Y-109182604D01*
X113427547Y-109155724D01*
X113452432Y-109145416D01*
X113502841Y-109124536D01*
X113628282Y-109028282D01*
X113724536Y-108902841D01*
X113785044Y-108756762D01*
X113805682Y-108600000D01*
X113785044Y-108443238D01*
X113724536Y-108297159D01*
X113699704Y-108264797D01*
X113628282Y-108171717D01*
X113502840Y-108075463D01*
X113389093Y-108028348D01*
X113340692Y-107992452D01*
X113314928Y-107937978D01*
X113317884Y-107877792D01*
X113348862Y-107826108D01*
X114163520Y-107011450D01*
X114177352Y-107001499D01*
X114184225Y-106993959D01*
X114184228Y-106993958D01*
X114215478Y-106959677D01*
X114219369Y-106955601D01*
X114232175Y-106942797D01*
X114232179Y-106942790D01*
X114232870Y-106942100D01*
X114241926Y-106930665D01*
X114259916Y-106910933D01*
X114262416Y-106904476D01*
X114275747Y-106879186D01*
X114279657Y-106873480D01*
X114285774Y-106847471D01*
X114290845Y-106831093D01*
X114300500Y-106806173D01*
X114300500Y-106799248D01*
X114303794Y-106770858D01*
X114303819Y-106770749D01*
X114305379Y-106764119D01*
X114301689Y-106737667D01*
X114300500Y-106720536D01*
X114300500Y-106223675D01*
X114315142Y-106165222D01*
X114355609Y-106120573D01*
X114394552Y-106094552D01*
X114438867Y-106028231D01*
X114447165Y-105986513D01*
X114450500Y-105969749D01*
X114450500Y-105225000D01*
X115250000Y-105225000D01*
X115250000Y-105997824D01*
X115256402Y-106057375D01*
X115306647Y-106192089D01*
X115392811Y-106307188D01*
X115507910Y-106393352D01*
X115642624Y-106443597D01*
X115702176Y-106450000D01*
X115750000Y-106450000D01*
X115750000Y-105225000D01*
X116250000Y-105225000D01*
X116250000Y-106450000D01*
X116297824Y-106450000D01*
X116357377Y-106443597D01*
X116415788Y-106421811D01*
X116470541Y-106414519D01*
X116523029Y-106431728D01*
X116562835Y-106470023D01*
X116582062Y-106521805D01*
X116589956Y-106581762D01*
X116650463Y-106727840D01*
X116746717Y-106853282D01*
X116872159Y-106949536D01*
X117018238Y-107010044D01*
X117175000Y-107030682D01*
X117331762Y-107010044D01*
X117477841Y-106949536D01*
X117603282Y-106853282D01*
X117699536Y-106727841D01*
X117760044Y-106581762D01*
X117780682Y-106425000D01*
X117760044Y-106268238D01*
X117699536Y-106122159D01*
X117680353Y-106097159D01*
X117603282Y-105996717D01*
X117477840Y-105900463D01*
X117331762Y-105839956D01*
X117175000Y-105819317D01*
X117036475Y-105837554D01*
X117018238Y-105839956D01*
X116921451Y-105880046D01*
X116861846Y-105888888D01*
X116805109Y-105868587D01*
X116764642Y-105823938D01*
X116750000Y-105765485D01*
X116750000Y-105225000D01*
X116250000Y-105225000D01*
X115750000Y-105225000D01*
X115250000Y-105225000D01*
X114450500Y-105225000D01*
X114450500Y-104273007D01*
X114468142Y-104209258D01*
X114516047Y-104163649D01*
X114580585Y-104149156D01*
X114643391Y-104169905D01*
X114671769Y-104188867D01*
X114730251Y-104200500D01*
X115126000Y-104200500D01*
X115188000Y-104217113D01*
X115233387Y-104262500D01*
X115250000Y-104324500D01*
X115250000Y-104725000D01*
X115750000Y-104725000D01*
X115750000Y-103500000D01*
X116250000Y-103500000D01*
X116250000Y-104725000D01*
X116750000Y-104725000D01*
X116750000Y-103952176D01*
X116743597Y-103892624D01*
X116693352Y-103757910D01*
X116607188Y-103642811D01*
X116492089Y-103556647D01*
X116357375Y-103506402D01*
X116297824Y-103500000D01*
X116250000Y-103500000D01*
X115750000Y-103500000D01*
X115702176Y-103500000D01*
X115642620Y-103506402D01*
X115617832Y-103515648D01*
X115559046Y-103522499D01*
X115503779Y-103501322D01*
X115464624Y-103456941D01*
X115450500Y-103399466D01*
X115450500Y-102076956D01*
X115463288Y-102022112D01*
X115499014Y-101978580D01*
X115540525Y-101946728D01*
X115629728Y-101878280D01*
X115667231Y-101829404D01*
X115718154Y-101790330D01*
X115781792Y-101781952D01*
X115841091Y-101806513D01*
G37*
%TD.AperFunction*%
%TA.AperFunction,Conductor*%
G36*
X113066163Y-119111020D02*
G01*
X113188486Y-119204881D01*
X113224212Y-119248413D01*
X113237000Y-119303257D01*
X113237000Y-123509155D01*
X113224000Y-123564427D01*
X113187726Y-123608110D01*
X113135783Y-123631044D01*
X113079064Y-123628421D01*
X113029460Y-123600790D01*
X112989706Y-123564548D01*
X112985565Y-123560594D01*
X112972135Y-123547164D01*
X112960703Y-123538108D01*
X112940959Y-123520109D01*
X112934493Y-123517604D01*
X112909217Y-123504281D01*
X112903506Y-123500369D01*
X112903505Y-123500368D01*
X112903503Y-123500367D01*
X112877509Y-123494253D01*
X112861112Y-123489176D01*
X112836198Y-123479525D01*
X112829274Y-123479525D01*
X112800884Y-123476231D01*
X112794144Y-123474646D01*
X112794143Y-123474646D01*
X112782782Y-123476231D01*
X112767691Y-123478336D01*
X112750560Y-123479525D01*
X112145808Y-123479525D01*
X112098355Y-123470086D01*
X112058127Y-123443206D01*
X111036819Y-122421898D01*
X111009939Y-122381670D01*
X111000500Y-122334217D01*
X111000500Y-120542748D01*
X111015142Y-120484295D01*
X111055609Y-120439646D01*
X111112345Y-120419345D01*
X111171952Y-120428187D01*
X111199618Y-120439646D01*
X111242738Y-120457507D01*
X111399500Y-120478145D01*
X111556262Y-120457507D01*
X111702341Y-120396999D01*
X111827782Y-120300745D01*
X111924036Y-120175304D01*
X111952875Y-120105679D01*
X111991947Y-120054760D01*
X112051248Y-120030196D01*
X112114884Y-120038573D01*
X112158293Y-120056554D01*
X112315055Y-120077192D01*
X112471817Y-120056554D01*
X112617896Y-119996046D01*
X112743337Y-119899792D01*
X112839591Y-119774351D01*
X112900099Y-119628272D01*
X112920737Y-119471510D01*
X112900099Y-119314748D01*
X112876115Y-119256847D01*
X112867738Y-119193211D01*
X112892301Y-119133910D01*
X112943224Y-119094835D01*
X113006862Y-119086457D01*
X113066163Y-119111020D01*
G37*
%TD.AperFunction*%
%TA.AperFunction,Conductor*%
G36*
X109748385Y-118856556D02*
G01*
X109785985Y-118900579D01*
X109799500Y-118956874D01*
X109799500Y-122721086D01*
X109782887Y-122783086D01*
X109737500Y-122828473D01*
X109675500Y-122845086D01*
X109533489Y-122845086D01*
X109509298Y-122842703D01*
X109495377Y-122839933D01*
X109469476Y-122845086D01*
X109392761Y-122860345D01*
X109305764Y-122918474D01*
X109297878Y-122930277D01*
X109282458Y-122949065D01*
X108649681Y-123581844D01*
X108600318Y-123612094D01*
X108542602Y-123616636D01*
X108489115Y-123594481D01*
X108451515Y-123550458D01*
X108438000Y-123494163D01*
X108438000Y-120862597D01*
X108447439Y-120815144D01*
X108474319Y-120774916D01*
X108655448Y-120593787D01*
X109259020Y-119990213D01*
X109277806Y-119974796D01*
X109289612Y-119966909D01*
X109319613Y-119922010D01*
X109347740Y-119879914D01*
X109359476Y-119820915D01*
X109363000Y-119803198D01*
X109368152Y-119777297D01*
X109365383Y-119763376D01*
X109363000Y-119739185D01*
X109363000Y-119145374D01*
X109372439Y-119097921D01*
X109399319Y-119057693D01*
X109587819Y-118869193D01*
X109637182Y-118838943D01*
X109694898Y-118834401D01*
X109748385Y-118856556D01*
G37*
%TD.AperFunction*%
%TA.AperFunction,Conductor*%
G36*
X115996951Y-118295160D02*
G01*
X116093238Y-118335044D01*
X116143158Y-118341616D01*
X116249999Y-118355682D01*
X116249999Y-118355681D01*
X116250000Y-118355682D01*
X116349288Y-118342610D01*
X116416646Y-118352601D01*
X116468572Y-118396657D01*
X116489405Y-118461490D01*
X116472859Y-118527548D01*
X116429533Y-118602592D01*
X116416883Y-118644846D01*
X116385403Y-118750000D01*
X116379531Y-118769613D01*
X116369392Y-118943659D01*
X116388645Y-119052840D01*
X116399668Y-119115354D01*
X116445225Y-119220967D01*
X116468721Y-119275438D01*
X116572832Y-119415283D01*
X116716068Y-119535474D01*
X116750221Y-119581350D01*
X116760152Y-119637673D01*
X116743749Y-119692463D01*
X116679066Y-119804496D01*
X116621014Y-119983164D01*
X116601377Y-120169999D01*
X116621014Y-120356835D01*
X116679066Y-120535503D01*
X116716355Y-120600089D01*
X116716356Y-120600090D01*
X117412318Y-119904128D01*
X117467905Y-119872034D01*
X117532093Y-119872034D01*
X117587680Y-119904128D01*
X118283641Y-120600089D01*
X118293135Y-120598840D01*
X118341414Y-120602004D01*
X118384804Y-120623401D01*
X118470336Y-120689032D01*
X118473731Y-120690438D01*
X118520569Y-120724467D01*
X118546854Y-120776052D01*
X118546854Y-120833946D01*
X118520571Y-120885531D01*
X118473734Y-120919560D01*
X118473416Y-120919692D01*
X118470335Y-120920968D01*
X118346211Y-121016211D01*
X118250968Y-121140335D01*
X118249561Y-121143734D01*
X118215531Y-121190571D01*
X118163947Y-121216854D01*
X118106053Y-121216854D01*
X118054469Y-121190571D01*
X118020439Y-121143734D01*
X118019032Y-121140337D01*
X118019030Y-121140335D01*
X117955207Y-121057158D01*
X117933011Y-121010621D01*
X117931662Y-120959076D01*
X117932265Y-120955817D01*
X117500001Y-120523553D01*
X117500000Y-120523553D01*
X117067732Y-120955818D01*
X117068337Y-120959079D01*
X117066988Y-121010620D01*
X117044794Y-121057156D01*
X117038024Y-121065980D01*
X116994490Y-121101710D01*
X116939643Y-121114500D01*
X116376189Y-121114500D01*
X116328736Y-121105061D01*
X116288508Y-121078181D01*
X115861819Y-120651493D01*
X115834939Y-120611265D01*
X115825500Y-120563812D01*
X115825500Y-118409722D01*
X115840142Y-118351269D01*
X115880609Y-118306620D01*
X115937346Y-118286319D01*
X115996951Y-118295160D01*
G37*
%TD.AperFunction*%
%TA.AperFunction,Conductor*%
G36*
X105734120Y-102693912D02*
G01*
X105785130Y-102728578D01*
X105813131Y-102783531D01*
X105811193Y-102845176D01*
X105779798Y-102898262D01*
X105353479Y-103324581D01*
X105334691Y-103340001D01*
X105322887Y-103347888D01*
X105264760Y-103434881D01*
X105253995Y-103489005D01*
X105253994Y-103489005D01*
X105244347Y-103537499D01*
X105247117Y-103551421D01*
X105249500Y-103575612D01*
X105249500Y-103772884D01*
X105235516Y-103830090D01*
X105196717Y-103874393D01*
X105141855Y-103895801D01*
X105083304Y-103889484D01*
X105034270Y-103856867D01*
X105032964Y-103855448D01*
X104985764Y-103804175D01*
X104926323Y-103757910D01*
X104796072Y-103656531D01*
X104796068Y-103656528D01*
X104796067Y-103656528D01*
X104584656Y-103542118D01*
X104584655Y-103542117D01*
X104584652Y-103542116D01*
X104357299Y-103464066D01*
X104199227Y-103437688D01*
X104120192Y-103424500D01*
X103879808Y-103424500D01*
X103820531Y-103434391D01*
X103642700Y-103464066D01*
X103415347Y-103542116D01*
X103203927Y-103656531D01*
X103014239Y-103804172D01*
X103014236Y-103804174D01*
X103014236Y-103804175D01*
X102851429Y-103981031D01*
X102719951Y-104182272D01*
X102623390Y-104402409D01*
X102586205Y-104549251D01*
X102564379Y-104635441D01*
X102544528Y-104874999D01*
X102564379Y-105114558D01*
X102564379Y-105114561D01*
X102564380Y-105114563D01*
X102623390Y-105347591D01*
X102719951Y-105567728D01*
X102851429Y-105768969D01*
X103014236Y-105945825D01*
X103050845Y-105974319D01*
X103203927Y-106093468D01*
X103203929Y-106093469D01*
X103203933Y-106093472D01*
X103415344Y-106207882D01*
X103642703Y-106285934D01*
X103879808Y-106325500D01*
X104120191Y-106325500D01*
X104120192Y-106325500D01*
X104357297Y-106285934D01*
X104584656Y-106207882D01*
X104796067Y-106093472D01*
X104985764Y-105945825D01*
X105034270Y-105893132D01*
X105083304Y-105860516D01*
X105141855Y-105854199D01*
X105196717Y-105875607D01*
X105235516Y-105919910D01*
X105249500Y-105977116D01*
X105249500Y-107649047D01*
X105247117Y-107673238D01*
X105231847Y-107750000D01*
X105234617Y-107763921D01*
X105237000Y-107788112D01*
X105237000Y-112439700D01*
X105227561Y-112487153D01*
X105200681Y-112527381D01*
X104691681Y-113036381D01*
X104642318Y-113066631D01*
X104618504Y-113068504D01*
X104616631Y-113092318D01*
X104586381Y-113141681D01*
X103869881Y-113858181D01*
X103829653Y-113885061D01*
X103782200Y-113894500D01*
X103095116Y-113894500D01*
X103070925Y-113892117D01*
X103057004Y-113889347D01*
X102954387Y-113909759D01*
X102893040Y-113950751D01*
X102890247Y-113952617D01*
X102867392Y-113967888D01*
X102859501Y-113979696D01*
X102844086Y-113998478D01*
X102568479Y-114274085D01*
X102549691Y-114289505D01*
X102537886Y-114297392D01*
X102513001Y-114334635D01*
X102512997Y-114334643D01*
X102479760Y-114384386D01*
X102459348Y-114487004D01*
X102462117Y-114500925D01*
X102464500Y-114525116D01*
X102464500Y-115291614D01*
X102462117Y-115315805D01*
X102459347Y-115329725D01*
X102464500Y-115355627D01*
X102467130Y-115368848D01*
X102467130Y-115368850D01*
X102479758Y-115432341D01*
X102506699Y-115472661D01*
X102524522Y-115514112D01*
X102526334Y-115559196D01*
X102516905Y-115624778D01*
X102537387Y-115767236D01*
X102584073Y-115869461D01*
X102597176Y-115898152D01*
X102640004Y-115947578D01*
X102667994Y-116005025D01*
X102663662Y-116068782D01*
X102628158Y-116121914D01*
X102570912Y-116150312D01*
X102570680Y-116150359D01*
X102570240Y-116150403D01*
X102570249Y-116150445D01*
X102481556Y-116168087D01*
X102463328Y-116180266D01*
X102416517Y-116211544D01*
X102394560Y-116226214D01*
X102386675Y-116238016D01*
X102371255Y-116256804D01*
X101140979Y-117487081D01*
X101122191Y-117502501D01*
X101110386Y-117510388D01*
X101085501Y-117547631D01*
X101085497Y-117547639D01*
X101052260Y-117597382D01*
X101031848Y-117700000D01*
X101034617Y-117713921D01*
X101037000Y-117738112D01*
X101037000Y-118687656D01*
X101017580Y-118754281D01*
X100965404Y-118800038D01*
X100896814Y-118810594D01*
X100886952Y-118809296D01*
X100833640Y-118802277D01*
X100676880Y-118822915D01*
X100596186Y-118856340D01*
X100530800Y-118883424D01*
X100530799Y-118883424D01*
X100521453Y-118887296D01*
X100461846Y-118896138D01*
X100405109Y-118875837D01*
X100364642Y-118831188D01*
X100350000Y-118772735D01*
X100350000Y-113274000D01*
X100366613Y-113212000D01*
X100412000Y-113166613D01*
X100474000Y-113150000D01*
X102220000Y-113150000D01*
X102220000Y-113054000D01*
X102236613Y-112992000D01*
X102282000Y-112946613D01*
X102344000Y-112930000D01*
X104480000Y-112930000D01*
X104480000Y-108020000D01*
X100690000Y-108020000D01*
X100673894Y-108036105D01*
X100673387Y-108038000D01*
X100628000Y-108083387D01*
X100566000Y-108100000D01*
X100474000Y-108100000D01*
X100412000Y-108083387D01*
X100366613Y-108038000D01*
X100350000Y-107976000D01*
X100350000Y-103500000D01*
X100994353Y-103500000D01*
X100996603Y-103515648D01*
X101014834Y-103642457D01*
X101074623Y-103773374D01*
X101168870Y-103882141D01*
X101168872Y-103882143D01*
X101289947Y-103959953D01*
X101428039Y-104000500D01*
X101571961Y-104000500D01*
X101710053Y-103959953D01*
X101831128Y-103882143D01*
X101925377Y-103773373D01*
X101985165Y-103642457D01*
X102005647Y-103500000D01*
X101985165Y-103357543D01*
X101953405Y-103288000D01*
X101925376Y-103226625D01*
X101831129Y-103117858D01*
X101831128Y-103117857D01*
X101710053Y-103040047D01*
X101571961Y-102999500D01*
X101428039Y-102999500D01*
X101289947Y-103040047D01*
X101168870Y-103117858D01*
X101074623Y-103226625D01*
X101014834Y-103357542D01*
X100997119Y-103480763D01*
X100994353Y-103500000D01*
X100350000Y-103500000D01*
X100350000Y-103045000D01*
X100324500Y-103045000D01*
X100262500Y-103028387D01*
X100217113Y-102983000D01*
X100200500Y-102921000D01*
X100200500Y-102824500D01*
X100217113Y-102762500D01*
X100262500Y-102717113D01*
X100324500Y-102700500D01*
X105594482Y-102700500D01*
X105609946Y-102698050D01*
X105672720Y-102688108D01*
X105734120Y-102693912D01*
G37*
%TD.AperFunction*%
%TA.AperFunction,Conductor*%
G36*
X112145891Y-107988267D02*
G01*
X112181596Y-108037098D01*
X112189949Y-108097011D01*
X112168964Y-108153746D01*
X112164834Y-108159774D01*
X112154181Y-108173223D01*
X112136177Y-108192973D01*
X112133672Y-108199440D01*
X112120353Y-108224708D01*
X112116437Y-108230424D01*
X112110322Y-108256423D01*
X112105245Y-108272819D01*
X112095594Y-108297733D01*
X112095594Y-108304657D01*
X112092300Y-108333050D01*
X112090715Y-108339787D01*
X112094405Y-108366238D01*
X112095594Y-108383371D01*
X112095594Y-110727722D01*
X112082806Y-110782566D01*
X112047080Y-110826098D01*
X111967811Y-110886922D01*
X111871557Y-111012363D01*
X111811050Y-111158441D01*
X111790411Y-111315204D01*
X111811050Y-111471966D01*
X111871557Y-111618044D01*
X111967811Y-111743486D01*
X112070341Y-111822159D01*
X112093253Y-111839740D01*
X112239332Y-111900248D01*
X112396094Y-111920886D01*
X112552856Y-111900248D01*
X112653548Y-111858539D01*
X112713154Y-111849698D01*
X112769891Y-111869999D01*
X112810358Y-111914648D01*
X112825000Y-111973101D01*
X112825000Y-115039928D01*
X112812212Y-115094772D01*
X112776486Y-115138304D01*
X112659717Y-115227902D01*
X112563463Y-115353344D01*
X112502956Y-115499422D01*
X112482317Y-115656184D01*
X112502956Y-115812947D01*
X112563463Y-115959025D01*
X112659717Y-116084467D01*
X112788486Y-116183274D01*
X112824212Y-116226806D01*
X112837000Y-116281650D01*
X112837000Y-116530080D01*
X112827561Y-116577533D01*
X112800681Y-116617761D01*
X111640979Y-117777461D01*
X111622191Y-117792881D01*
X111610386Y-117800768D01*
X111585501Y-117838011D01*
X111585497Y-117838019D01*
X111552260Y-117887762D01*
X111531848Y-117990380D01*
X111534617Y-118004301D01*
X111537000Y-118028492D01*
X111537000Y-118439700D01*
X111527561Y-118487153D01*
X111500683Y-118527378D01*
X111297427Y-118730634D01*
X111240479Y-118787582D01*
X111221691Y-118803001D01*
X111193393Y-118821910D01*
X111130586Y-118842660D01*
X111066048Y-118828168D01*
X111018142Y-118782558D01*
X111000500Y-118718809D01*
X111000500Y-118676618D01*
X111008871Y-118631830D01*
X111032855Y-118593089D01*
X111036094Y-118589534D01*
X111040973Y-118584182D01*
X111044880Y-118580089D01*
X111057674Y-118567297D01*
X111057678Y-118567290D01*
X111058367Y-118566602D01*
X111067422Y-118555171D01*
X111073931Y-118548031D01*
X111085416Y-118535433D01*
X111087915Y-118528979D01*
X111101243Y-118503692D01*
X111105157Y-118497981D01*
X111105158Y-118497977D01*
X111111273Y-118471979D01*
X111116350Y-118455581D01*
X111126000Y-118430673D01*
X111126000Y-118423748D01*
X111129294Y-118395358D01*
X111129710Y-118393590D01*
X111130879Y-118388619D01*
X111127189Y-118362167D01*
X111126000Y-118345036D01*
X111126000Y-116967183D01*
X111144699Y-116901703D01*
X111195156Y-116855971D01*
X111262154Y-116843780D01*
X111325486Y-116868807D01*
X111334575Y-116875781D01*
X111394526Y-116921783D01*
X111540605Y-116982291D01*
X111697367Y-117002929D01*
X111854129Y-116982291D01*
X112000208Y-116921783D01*
X112125649Y-116825529D01*
X112221903Y-116700088D01*
X112282411Y-116554009D01*
X112303049Y-116397247D01*
X112282411Y-116240485D01*
X112221903Y-116094406D01*
X112187354Y-116049381D01*
X112125649Y-115968964D01*
X112000207Y-115872710D01*
X111854129Y-115812203D01*
X111697367Y-115791564D01*
X111540604Y-115812203D01*
X111394526Y-115872710D01*
X111269085Y-115968964D01*
X111264216Y-115975310D01*
X111208250Y-116016344D01*
X111139002Y-116020883D01*
X111078160Y-115987503D01*
X111072810Y-115982153D01*
X111055063Y-115959747D01*
X111051419Y-115953862D01*
X111030102Y-115937764D01*
X111017148Y-115926491D01*
X110836819Y-115746162D01*
X110809939Y-115705934D01*
X110800500Y-115658481D01*
X110800500Y-112714361D01*
X110814511Y-112657104D01*
X110853376Y-112612786D01*
X110908314Y-112591422D01*
X110956762Y-112585044D01*
X111102841Y-112524536D01*
X111228282Y-112428282D01*
X111324536Y-112302841D01*
X111385044Y-112156762D01*
X111405682Y-112000000D01*
X111385044Y-111843238D01*
X111324536Y-111697159D01*
X111231171Y-111575483D01*
X111208488Y-111526839D01*
X111208488Y-111473161D01*
X111231171Y-111424516D01*
X111324536Y-111302841D01*
X111385044Y-111156762D01*
X111405682Y-111000000D01*
X111385044Y-110843238D01*
X111324536Y-110697159D01*
X111318289Y-110682076D01*
X111320349Y-110681222D01*
X111305219Y-110644700D01*
X111313596Y-110581059D01*
X111352670Y-110530136D01*
X111451779Y-110454088D01*
X111548033Y-110328647D01*
X111608541Y-110182568D01*
X111629179Y-110025806D01*
X111608541Y-109869044D01*
X111548033Y-109722965D01*
X111503849Y-109665383D01*
X111451779Y-109597523D01*
X111326337Y-109501269D01*
X111180259Y-109440762D01*
X111023497Y-109420123D01*
X110881219Y-109438855D01*
X110866735Y-109440762D01*
X110866734Y-109440762D01*
X110850550Y-109442893D01*
X110850204Y-109440270D01*
X110808153Y-109445244D01*
X110747023Y-109417058D01*
X110709628Y-109361086D01*
X110706987Y-109293823D01*
X110739877Y-109235093D01*
X111978992Y-107995977D01*
X112030905Y-107964931D01*
X112091333Y-107962138D01*
X112145891Y-107988267D01*
G37*
%TD.AperFunction*%
%TA.AperFunction,Conductor*%
G36*
X104391205Y-114175036D02*
G01*
X104447143Y-114211483D01*
X104476074Y-114271654D01*
X104473092Y-114302304D01*
X104474500Y-114302304D01*
X104474500Y-114332407D01*
X104471206Y-114360796D01*
X104470378Y-114364318D01*
X104469621Y-114367537D01*
X104473311Y-114393988D01*
X104474500Y-114411121D01*
X104474500Y-115107681D01*
X104465061Y-115155134D01*
X104438181Y-115195362D01*
X103692289Y-115941252D01*
X103632693Y-115974349D01*
X103564609Y-115970942D01*
X103508613Y-115932063D01*
X103481630Y-115869461D01*
X103491814Y-115802058D01*
X103507718Y-115767236D01*
X103528200Y-115624779D01*
X103507718Y-115482322D01*
X103504810Y-115475955D01*
X103447929Y-115351404D01*
X103353682Y-115242637D01*
X103353681Y-115242636D01*
X103232606Y-115164826D01*
X103232605Y-115164825D01*
X103232604Y-115164825D01*
X103079566Y-115119890D01*
X103033297Y-115094626D01*
X103001706Y-115052425D01*
X102990500Y-115000913D01*
X102990500Y-114647304D01*
X102999939Y-114599851D01*
X103026819Y-114559623D01*
X103129623Y-114456819D01*
X103169851Y-114429939D01*
X103217304Y-114420500D01*
X103904388Y-114420500D01*
X103928579Y-114422883D01*
X103942500Y-114425652D01*
X104045117Y-114405240D01*
X104110154Y-114361784D01*
X104110154Y-114361783D01*
X104132112Y-114347112D01*
X104132325Y-114346794D01*
X104139996Y-114335312D01*
X104155416Y-114316520D01*
X104266302Y-114205634D01*
X104324476Y-114172878D01*
X104391205Y-114175036D01*
G37*
%TD.AperFunction*%
%TA.AperFunction,Conductor*%
G36*
X105955891Y-109186777D02*
G01*
X105975968Y-109200192D01*
X105994758Y-109215613D01*
X106338163Y-109559019D01*
X106353585Y-109577810D01*
X106361471Y-109589613D01*
X106373271Y-109597497D01*
X106373272Y-109597498D01*
X106383427Y-109604283D01*
X106383428Y-109604284D01*
X106448465Y-109647740D01*
X106551083Y-109668152D01*
X106565004Y-109665383D01*
X106589195Y-109663000D01*
X108214700Y-109663000D01*
X108262153Y-109672439D01*
X108302381Y-109699319D01*
X108534413Y-109931351D01*
X108561293Y-109971579D01*
X108570732Y-110019032D01*
X108570732Y-111376009D01*
X108556090Y-111434462D01*
X108515623Y-111479111D01*
X108458887Y-111499412D01*
X108399280Y-111490570D01*
X108327994Y-111461043D01*
X108171231Y-111440404D01*
X108062976Y-111454657D01*
X107999338Y-111446279D01*
X107948415Y-111407204D01*
X107923852Y-111347903D01*
X107932230Y-111284265D01*
X107985044Y-111156762D01*
X108005682Y-111000000D01*
X107985044Y-110843238D01*
X107924536Y-110697159D01*
X107923848Y-110696262D01*
X107828282Y-110571717D01*
X107702840Y-110475463D01*
X107556762Y-110414956D01*
X107400000Y-110394317D01*
X107243237Y-110414956D01*
X107097159Y-110475463D01*
X106971717Y-110571717D01*
X106875463Y-110697159D01*
X106814956Y-110843237D01*
X106794317Y-111000000D01*
X106814956Y-111156762D01*
X106875463Y-111302840D01*
X106968825Y-111424513D01*
X106971718Y-111428282D01*
X107006091Y-111454657D01*
X107047218Y-111486215D01*
X107088253Y-111542181D01*
X107092792Y-111611430D01*
X107059412Y-111672272D01*
X105966931Y-112764753D01*
X105912908Y-112796417D01*
X105850302Y-112797646D01*
X105795078Y-112768127D01*
X105761318Y-112715388D01*
X105757633Y-112652881D01*
X105763000Y-112625901D01*
X105768152Y-112600000D01*
X105765383Y-112586079D01*
X105763000Y-112561888D01*
X105763000Y-109289879D01*
X105780642Y-109226130D01*
X105828547Y-109180521D01*
X105893084Y-109166028D01*
X105955891Y-109186777D01*
G37*
%TD.AperFunction*%
%TA.AperFunction,Conductor*%
G36*
X111483953Y-104163649D02*
G01*
X111531858Y-104209258D01*
X111549500Y-104273007D01*
X111549500Y-105969749D01*
X111552835Y-105986513D01*
X111561133Y-106028231D01*
X111578411Y-106054089D01*
X111587317Y-106067418D01*
X111604976Y-106108151D01*
X111607154Y-106152493D01*
X111594317Y-106249999D01*
X111614956Y-106406762D01*
X111675463Y-106552840D01*
X111771717Y-106678282D01*
X111838003Y-106729144D01*
X111897159Y-106774536D01*
X112043238Y-106835044D01*
X112046261Y-106836296D01*
X112094661Y-106872192D01*
X112120425Y-106926666D01*
X112117469Y-106986852D01*
X112086489Y-107038538D01*
X110159972Y-108965055D01*
X110146136Y-108975011D01*
X110108020Y-109016821D01*
X110104070Y-109020957D01*
X110090638Y-109034389D01*
X110081584Y-109045820D01*
X110063580Y-109065570D01*
X110061075Y-109072037D01*
X110047756Y-109097305D01*
X110043840Y-109103021D01*
X110037725Y-109129020D01*
X110032648Y-109145416D01*
X110022997Y-109170330D01*
X110022997Y-109177254D01*
X110019703Y-109205643D01*
X110018118Y-109212384D01*
X110019575Y-109222832D01*
X110021808Y-109238835D01*
X110022997Y-109255968D01*
X110022997Y-109351697D01*
X110009482Y-109407992D01*
X109971882Y-109452015D01*
X109918395Y-109474170D01*
X109860679Y-109469628D01*
X109811316Y-109439378D01*
X108121728Y-107749790D01*
X108091990Y-107701967D01*
X108086470Y-107645927D01*
X108105682Y-107500000D01*
X108085044Y-107343238D01*
X108024536Y-107197159D01*
X107928282Y-107071717D01*
X107802841Y-106975464D01*
X107686947Y-106927459D01*
X107638547Y-106891563D01*
X107612783Y-106837089D01*
X107615739Y-106776903D01*
X107646717Y-106725219D01*
X108397618Y-105974319D01*
X108437847Y-105947439D01*
X108485300Y-105938000D01*
X109441421Y-105938000D01*
X109496265Y-105950788D01*
X109539797Y-105986513D01*
X109553571Y-106016913D01*
X109605447Y-106094552D01*
X109671769Y-106138867D01*
X109730251Y-106150500D01*
X109730252Y-106150500D01*
X110269748Y-106150500D01*
X110269749Y-106150500D01*
X110308936Y-106142705D01*
X110328231Y-106138867D01*
X110394552Y-106094552D01*
X110438867Y-106028231D01*
X110447165Y-105986513D01*
X110450500Y-105969749D01*
X110450500Y-104273007D01*
X110468142Y-104209258D01*
X110516047Y-104163649D01*
X110580585Y-104149156D01*
X110643391Y-104169905D01*
X110671769Y-104188867D01*
X110730251Y-104200500D01*
X110730252Y-104200500D01*
X111269748Y-104200500D01*
X111269749Y-104200500D01*
X111300500Y-104194383D01*
X111328231Y-104188867D01*
X111356609Y-104169904D01*
X111419415Y-104149156D01*
X111483953Y-104163649D01*
G37*
%TD.AperFunction*%
%TA.AperFunction,Conductor*%
G36*
X107462472Y-102487654D02*
G01*
X107501547Y-102538577D01*
X107509925Y-102602215D01*
X107485362Y-102661516D01*
X107400463Y-102772159D01*
X107339956Y-102918237D01*
X107319317Y-103074999D01*
X107339956Y-103231762D01*
X107400463Y-103377840D01*
X107496717Y-103503282D01*
X107609881Y-103590115D01*
X107622159Y-103599536D01*
X107768238Y-103660044D01*
X107925000Y-103680682D01*
X108081762Y-103660044D01*
X108227841Y-103599536D01*
X108328238Y-103522499D01*
X108350014Y-103505790D01*
X108413346Y-103480763D01*
X108480344Y-103492954D01*
X108530801Y-103538686D01*
X108549500Y-103604166D01*
X108549500Y-104019749D01*
X108561132Y-104078230D01*
X108605447Y-104144552D01*
X108671769Y-104188867D01*
X108730251Y-104200500D01*
X108888089Y-104200500D01*
X108952879Y-104218773D01*
X108998574Y-104268205D01*
X109011707Y-104334229D01*
X108988407Y-104397386D01*
X108935541Y-104439061D01*
X108847657Y-104475463D01*
X108722215Y-104571717D01*
X108625961Y-104697159D01*
X108565454Y-104843237D01*
X108544815Y-105000000D01*
X108565454Y-105156762D01*
X108600159Y-105240548D01*
X108609001Y-105300154D01*
X108588700Y-105356891D01*
X108544051Y-105397358D01*
X108485598Y-105412000D01*
X108363112Y-105412000D01*
X108338921Y-105409617D01*
X108325000Y-105406847D01*
X108299098Y-105411999D01*
X108299099Y-105412000D01*
X108263501Y-105419081D01*
X108222383Y-105427260D01*
X108171316Y-105461382D01*
X108135388Y-105485388D01*
X108127497Y-105497196D01*
X108112082Y-105515978D01*
X105994754Y-107633306D01*
X105975971Y-107648722D01*
X105968397Y-107653783D01*
X105905592Y-107674536D01*
X105841051Y-107660047D01*
X105793143Y-107614437D01*
X105775500Y-107550686D01*
X105775500Y-103697800D01*
X105784939Y-103650347D01*
X105811819Y-103610119D01*
X106081937Y-103340001D01*
X106900210Y-102521726D01*
X106948031Y-102491990D01*
X107004071Y-102486470D01*
X107150000Y-102505682D01*
X107306762Y-102485044D01*
X107339535Y-102471468D01*
X107403171Y-102463091D01*
X107462472Y-102487654D01*
G37*
%TD.AperFunction*%
%TA.AperFunction,Conductor*%
G36*
X112487178Y-101862405D02*
G01*
X112530015Y-101895836D01*
X112554445Y-101944372D01*
X112555777Y-101998690D01*
X112551119Y-102022112D01*
X112549500Y-102030253D01*
X112549500Y-103726993D01*
X112531858Y-103790742D01*
X112483953Y-103836351D01*
X112419415Y-103850844D01*
X112356609Y-103830095D01*
X112328230Y-103811132D01*
X112269749Y-103799500D01*
X112269748Y-103799500D01*
X111730252Y-103799500D01*
X111730251Y-103799500D01*
X111671769Y-103811132D01*
X111643391Y-103830095D01*
X111580585Y-103850844D01*
X111516047Y-103836351D01*
X111468142Y-103790742D01*
X111450500Y-103726993D01*
X111450500Y-102030253D01*
X111448881Y-102022112D01*
X111444222Y-101998690D01*
X111445555Y-101944372D01*
X111469985Y-101895836D01*
X111512822Y-101862405D01*
X111565839Y-101850500D01*
X112434161Y-101850500D01*
X112487178Y-101862405D01*
G37*
%TD.AperFunction*%
%TA.AperFunction,Conductor*%
G36*
X110117009Y-100714015D02*
G01*
X110161032Y-100751615D01*
X110183187Y-100805102D01*
X110178645Y-100862818D01*
X110148396Y-100912179D01*
X110038861Y-101021715D01*
X109986973Y-101073603D01*
X109973136Y-101083559D01*
X109935021Y-101125368D01*
X109931071Y-101129504D01*
X109917639Y-101142936D01*
X109908585Y-101154367D01*
X109890581Y-101174117D01*
X109888076Y-101180584D01*
X109874757Y-101205852D01*
X109870841Y-101211568D01*
X109864726Y-101237567D01*
X109859649Y-101253963D01*
X109849998Y-101278877D01*
X109849998Y-101285801D01*
X109846704Y-101314190D01*
X109845119Y-101320931D01*
X109846463Y-101330569D01*
X109848809Y-101347382D01*
X109849998Y-101364515D01*
X109849998Y-101490153D01*
X109837210Y-101544997D01*
X109801484Y-101588529D01*
X109722215Y-101649353D01*
X109625961Y-101774793D01*
X109591232Y-101858638D01*
X109559944Y-101903063D01*
X109512666Y-101929846D01*
X109458476Y-101933843D01*
X109407780Y-101914287D01*
X109394550Y-101905447D01*
X109328231Y-101861133D01*
X109328230Y-101861132D01*
X109269749Y-101849500D01*
X109269748Y-101849500D01*
X108730252Y-101849500D01*
X108730251Y-101849500D01*
X108671769Y-101861132D01*
X108605447Y-101905447D01*
X108561132Y-101971769D01*
X108549500Y-102030251D01*
X108549500Y-102545834D01*
X108530801Y-102611314D01*
X108480344Y-102657046D01*
X108413346Y-102669237D01*
X108350014Y-102644210D01*
X108227840Y-102550463D01*
X108081762Y-102489956D01*
X107925000Y-102469317D01*
X107768237Y-102489956D01*
X107735463Y-102503531D01*
X107671826Y-102511908D01*
X107612525Y-102487344D01*
X107573451Y-102436421D01*
X107565074Y-102372783D01*
X107589635Y-102313485D01*
X107674536Y-102202841D01*
X107735044Y-102056762D01*
X107755682Y-101900000D01*
X107735044Y-101743238D01*
X107674536Y-101597159D01*
X107640728Y-101553099D01*
X107578282Y-101471717D01*
X107452840Y-101375463D01*
X107306762Y-101314956D01*
X107150000Y-101294317D01*
X106993237Y-101314956D01*
X106871952Y-101365194D01*
X106812346Y-101374036D01*
X106755609Y-101353735D01*
X106715142Y-101309086D01*
X106700500Y-101250633D01*
X106700500Y-100824500D01*
X106717113Y-100762500D01*
X106762500Y-100717113D01*
X106824500Y-100700500D01*
X110060714Y-100700500D01*
X110117009Y-100714015D01*
G37*
%TD.AperFunction*%
%TD*%
M02*
