%TF.GenerationSoftware,KiCad,Pcbnew,7.0.1-3b83917a11~172~ubuntu22.04.1*%
%TF.CreationDate,2023-07-05T11:02:11+02:00*%
%TF.ProjectId,phyphox-newton,70687970-686f-4782-9d6e-6577746f6e2e,rev?*%
%TF.SameCoordinates,Original*%
%TF.FileFunction,Profile,NP*%
%FSLAX46Y46*%
G04 Gerber Fmt 4.6, Leading zero omitted, Abs format (unit mm)*
G04 Created by KiCad (PCBNEW 7.0.1-3b83917a11~172~ubuntu22.04.1) date 2023-07-05 11:02:11*
%MOMM*%
%LPD*%
G01*
G04 APERTURE LIST*
%TA.AperFunction,Profile*%
%ADD10C,0.100000*%
%TD*%
%TA.AperFunction,Profile*%
%ADD11C,0.055880*%
%TD*%
G04 APERTURE END LIST*
D10*
X106500000Y-100500000D02*
X106500000Y-101500000D01*
X118500000Y-101500000D02*
G75*
G03*
X119500000Y-102500000I1000000J0D01*
G01*
X100000000Y-102500000D02*
X100000000Y-140000000D01*
X105500000Y-140000000D02*
X100000000Y-140000000D01*
X119500000Y-140000000D02*
G75*
G03*
X118500000Y-141000000I0J-1000000D01*
G01*
X106500000Y-142000000D02*
X106500000Y-141000000D01*
D11*
X94000000Y-136500000D02*
X99900000Y-136500000D01*
D10*
X118500000Y-101500000D02*
X118500000Y-100500000D01*
D11*
X131000000Y-136500000D02*
X125100000Y-136500000D01*
D10*
X118500000Y-141000000D02*
X118500000Y-142000000D01*
X105500000Y-102500000D02*
G75*
G03*
X106500000Y-101500000I0J1000000D01*
G01*
X125000000Y-102500000D02*
X119500000Y-102500000D01*
X125000000Y-140000000D02*
X119500000Y-140000000D01*
D11*
X94000000Y-106500000D02*
X99900000Y-106500000D01*
D10*
X105500000Y-102500000D02*
X100000000Y-102500000D01*
X125000000Y-140000000D02*
X125000000Y-102500000D01*
X106500000Y-100500000D02*
X118500000Y-100500000D01*
X106500000Y-142000000D02*
X118500000Y-142000000D01*
D11*
X131000000Y-107500000D02*
X125100000Y-107500000D01*
D10*
X106500000Y-141000000D02*
G75*
G03*
X105500000Y-140000000I-1000000J0D01*
G01*
M02*
