%TF.GenerationSoftware,KiCad,Pcbnew,7.0.1-3b83917a11~172~ubuntu22.04.1*%
%TF.CreationDate,2023-07-05T11:02:11+02:00*%
%TF.ProjectId,phyphox-newton,70687970-686f-4782-9d6e-6577746f6e2e,rev?*%
%TF.SameCoordinates,Original*%
%TF.FileFunction,Paste,Top*%
%TF.FilePolarity,Positive*%
%FSLAX46Y46*%
G04 Gerber Fmt 4.6, Leading zero omitted, Abs format (unit mm)*
G04 Created by KiCad (PCBNEW 7.0.1-3b83917a11~172~ubuntu22.04.1) date 2023-07-05 11:02:11*
%MOMM*%
%LPD*%
G01*
G04 APERTURE LIST*
G04 Aperture macros list*
%AMRoundRect*
0 Rectangle with rounded corners*
0 $1 Rounding radius*
0 $2 $3 $4 $5 $6 $7 $8 $9 X,Y pos of 4 corners*
0 Add a 4 corners polygon primitive as box body*
4,1,4,$2,$3,$4,$5,$6,$7,$8,$9,$2,$3,0*
0 Add four circle primitives for the rounded corners*
1,1,$1+$1,$2,$3*
1,1,$1+$1,$4,$5*
1,1,$1+$1,$6,$7*
1,1,$1+$1,$8,$9*
0 Add four rect primitives between the rounded corners*
20,1,$1+$1,$2,$3,$4,$5,0*
20,1,$1+$1,$4,$5,$6,$7,0*
20,1,$1+$1,$6,$7,$8,$9,0*
20,1,$1+$1,$8,$9,$2,$3,0*%
G04 Aperture macros list end*
%ADD10C,0.010000*%
%ADD11R,0.350000X0.550000*%
%ADD12R,1.600000X0.700000*%
%ADD13RoundRect,0.250000X0.475000X-0.250000X0.475000X0.250000X-0.475000X0.250000X-0.475000X-0.250000X0*%
%ADD14R,0.400000X0.650000*%
%ADD15R,0.270000X0.840000*%
%ADD16R,0.840000X0.270000*%
%ADD17R,1.400000X1.050000*%
%ADD18R,4.100000X1.850000*%
%ADD19RoundRect,0.200000X-0.200000X-0.275000X0.200000X-0.275000X0.200000X0.275000X-0.200000X0.275000X0*%
%ADD20R,0.850000X0.200000*%
%ADD21R,0.200000X0.850000*%
%ADD22RoundRect,0.225000X0.250000X-0.225000X0.250000X0.225000X-0.250000X0.225000X-0.250000X-0.225000X0*%
%ADD23RoundRect,0.200000X0.275000X-0.200000X0.275000X0.200000X-0.275000X0.200000X-0.275000X-0.200000X0*%
%ADD24R,0.300000X0.700000*%
%ADD25R,1.000000X0.700000*%
%ADD26RoundRect,0.200000X0.200000X0.275000X-0.200000X0.275000X-0.200000X-0.275000X0.200000X-0.275000X0*%
%ADD27RoundRect,0.225000X-0.250000X0.225000X-0.250000X-0.225000X0.250000X-0.225000X0.250000X0.225000X0*%
%ADD28RoundRect,0.250000X-0.250000X-0.475000X0.250000X-0.475000X0.250000X0.475000X-0.250000X0.475000X0*%
%ADD29RoundRect,0.200000X-0.275000X0.200000X-0.275000X-0.200000X0.275000X-0.200000X0.275000X0.200000X0*%
%ADD30RoundRect,0.225000X0.225000X0.250000X-0.225000X0.250000X-0.225000X-0.250000X0.225000X-0.250000X0*%
%ADD31R,0.558800X0.952500*%
%ADD32RoundRect,0.250000X-0.475000X0.250000X-0.475000X-0.250000X0.475000X-0.250000X0.475000X0.250000X0*%
%ADD33RoundRect,0.218750X0.218750X0.381250X-0.218750X0.381250X-0.218750X-0.381250X0.218750X-0.381250X0*%
%ADD34RoundRect,0.225000X-0.225000X-0.250000X0.225000X-0.250000X0.225000X0.250000X-0.225000X0.250000X0*%
%ADD35R,0.400000X0.800000*%
%ADD36R,2.500000X1.750000*%
%ADD37R,0.355600X0.355600*%
%ADD38R,0.431800X0.431800*%
%ADD39RoundRect,0.125000X0.537500X0.125000X-0.537500X0.125000X-0.537500X-0.125000X0.537500X-0.125000X0*%
%ADD40R,0.254000X0.482600*%
%ADD41R,0.482600X0.254000*%
%ADD42R,0.250000X0.650000*%
%ADD43R,1.450000X1.050000*%
%ADD44R,0.400000X0.400000*%
%ADD45R,0.254000X0.279400*%
%ADD46R,0.254000X0.254000*%
G04 APERTURE END LIST*
%TO.C,U4*%
D10*
X112850000Y-103850000D02*
X112150000Y-103850000D01*
X112150000Y-103150000D01*
X112850000Y-103150000D01*
X112850000Y-103850000D01*
G36*
X112850000Y-103850000D02*
G01*
X112150000Y-103850000D01*
X112150000Y-103150000D01*
X112850000Y-103150000D01*
X112850000Y-103850000D01*
G37*
%TD*%
D11*
%TO.C,IC2*%
X104950000Y-133900000D03*
X105950000Y-133900000D03*
X105950000Y-132050000D03*
X104950000Y-132050000D03*
D12*
X105450000Y-132975000D03*
%TD*%
D13*
%TO.C,C3*%
X123600000Y-129500000D03*
X123600000Y-127600000D03*
%TD*%
D14*
%TO.C,U7*%
X107600000Y-126250000D03*
X106950000Y-126250000D03*
X106300000Y-126250000D03*
X106300000Y-128150000D03*
X107600000Y-128150000D03*
%TD*%
D15*
%TO.C,U4*%
X113250000Y-102065000D03*
X112750000Y-102065000D03*
X112250000Y-102065000D03*
X111750000Y-102065000D03*
D16*
X111065000Y-102750000D03*
X111065000Y-103250000D03*
X111065000Y-103750000D03*
X111065000Y-104250000D03*
D15*
X111750000Y-104935000D03*
X112250000Y-104935000D03*
X112750000Y-104935000D03*
X113250000Y-104935000D03*
D16*
X113935000Y-104250000D03*
X113935000Y-103750000D03*
X113935000Y-103250000D03*
X113935000Y-102750000D03*
%TD*%
D17*
%TO.C,SW1*%
X118500000Y-107875000D03*
X114900000Y-107875000D03*
X118500000Y-106425000D03*
X114900000Y-106425000D03*
%TD*%
D18*
%TO.C,L1*%
X122049999Y-114075000D03*
X122049999Y-110425000D03*
%TD*%
D19*
%TO.C,R4*%
X121750000Y-120200000D03*
X123400000Y-120200000D03*
%TD*%
D20*
%TO.C,IC6*%
X109850000Y-125300000D03*
X109850000Y-125700000D03*
X109850000Y-126100000D03*
X109850000Y-126500000D03*
D21*
X110100000Y-127150000D03*
X110500000Y-127150000D03*
X110900000Y-127150000D03*
X111300000Y-127150000D03*
D20*
X111550000Y-126500000D03*
X111550000Y-126100000D03*
X111550000Y-125700000D03*
X111550000Y-125300000D03*
D21*
X111300000Y-124650000D03*
X110900000Y-124650000D03*
X110500000Y-124650000D03*
X110100000Y-124650000D03*
%TD*%
D22*
%TO.C,C9*%
X109100000Y-104400000D03*
X109100000Y-102850000D03*
%TD*%
D23*
%TO.C,R14*%
X112200000Y-122325000D03*
X112200000Y-120675000D03*
%TD*%
D24*
%TO.C,J2*%
X109375000Y-134535000D03*
X109875000Y-134535000D03*
X110375000Y-134535000D03*
X110875000Y-134535000D03*
X111375000Y-134535000D03*
X111875000Y-134535000D03*
X112875000Y-134535000D03*
X113375000Y-134535000D03*
X113875000Y-134535000D03*
X114375000Y-134535000D03*
X114875000Y-134535000D03*
X115375000Y-134535000D03*
D25*
X115475000Y-135835000D03*
D24*
X114625000Y-135835000D03*
X114125000Y-135835000D03*
X113625000Y-135835000D03*
X113125000Y-135835000D03*
X112625000Y-135835000D03*
X112125000Y-135835000D03*
X111625000Y-135835000D03*
X111125000Y-135835000D03*
X110625000Y-135835000D03*
X110125000Y-135835000D03*
D25*
X109275000Y-135835000D03*
%TD*%
D26*
%TO.C,R7*%
X103300000Y-128300000D03*
X101650000Y-128300000D03*
%TD*%
D23*
%TO.C,R13*%
X110700000Y-122925000D03*
X110700000Y-121275000D03*
%TD*%
D27*
%TO.C,C10*%
X104800000Y-126855000D03*
X104800000Y-128405000D03*
%TD*%
D23*
%TO.C,R19*%
X119500000Y-125325000D03*
X119500000Y-123675000D03*
%TD*%
D22*
%TO.C,C11*%
X109570000Y-110815000D03*
X109570000Y-109265000D03*
%TD*%
D28*
%TO.C,C4*%
X120925000Y-108250000D03*
X122825000Y-108250000D03*
%TD*%
D29*
%TO.C,R3*%
X121150000Y-121625000D03*
X121150000Y-123275000D03*
%TD*%
D27*
%TO.C,C14*%
X123450000Y-104500000D03*
X123450000Y-106050000D03*
%TD*%
D26*
%TO.C,R9*%
X106150000Y-130000000D03*
X104500000Y-130000000D03*
%TD*%
D30*
%TO.C,C7*%
X123350000Y-118450000D03*
X121800000Y-118450000D03*
%TD*%
D19*
%TO.C,R11*%
X110800000Y-115500000D03*
X112450000Y-115500000D03*
%TD*%
D26*
%TO.C,R6*%
X103300000Y-125100000D03*
X101650000Y-125100000D03*
%TD*%
D31*
%TO.C,U6*%
X118400000Y-110400000D03*
X117449999Y-110400000D03*
X116499998Y-110400000D03*
X116499998Y-113155900D03*
X118400000Y-113155900D03*
%TD*%
D26*
%TO.C,R5*%
X103300000Y-126700000D03*
X101650000Y-126700000D03*
%TD*%
D32*
%TO.C,C5*%
X118000000Y-115027950D03*
X118000000Y-116927950D03*
%TD*%
D33*
%TO.C,FB1*%
X123537500Y-116550000D03*
X121412500Y-116550000D03*
%TD*%
D34*
%TO.C,C8*%
X101605000Y-120300000D03*
X103155000Y-120300000D03*
%TD*%
D30*
%TO.C,C6*%
X123675000Y-125200000D03*
X122125000Y-125200000D03*
%TD*%
D35*
%TO.C,IC3*%
X121550000Y-129900000D03*
X120600000Y-129900000D03*
X119650000Y-129900000D03*
X119650000Y-132900000D03*
X120600000Y-132900000D03*
X121550000Y-132900000D03*
D36*
X120600000Y-131400000D03*
%TD*%
D37*
%TO.C,U1*%
X101811198Y-111910000D03*
X101811198Y-112560000D03*
X101811198Y-113502000D03*
X101811198Y-114152000D03*
X101811198Y-114802000D03*
X101811198Y-115452000D03*
X101811198Y-116102000D03*
X101811198Y-116752000D03*
X101811198Y-117402000D03*
X102461198Y-114477000D03*
X102461198Y-115127000D03*
X102461198Y-115777000D03*
X102461198Y-116427000D03*
X102701198Y-117590000D03*
X103351198Y-117590000D03*
X104001198Y-117590000D03*
X104651198Y-117590000D03*
X105301198Y-117590000D03*
X105951198Y-117590000D03*
X106601198Y-117590000D03*
X103026198Y-116940000D03*
X103676198Y-116940000D03*
X104326198Y-116940000D03*
X104976198Y-116940000D03*
X105626198Y-116940000D03*
X106276198Y-116940000D03*
X107491202Y-117402000D03*
X107491202Y-116752000D03*
X107491202Y-116102000D03*
X107491202Y-115452000D03*
X107491202Y-114802000D03*
X107491202Y-114152000D03*
X107491202Y-113502000D03*
X107491202Y-112560000D03*
X107491202Y-111910000D03*
X106841202Y-116427000D03*
X106841202Y-115777000D03*
X106841202Y-115127000D03*
X106841202Y-114477000D03*
X106601202Y-113315000D03*
X105951202Y-113315000D03*
X105301202Y-113315000D03*
X104651202Y-113315000D03*
X104001202Y-113315000D03*
X103351202Y-113315000D03*
X102701202Y-113315000D03*
X106276202Y-113965000D03*
X105626202Y-113965000D03*
X104976202Y-113965000D03*
X104326202Y-113965000D03*
X103676202Y-113965000D03*
X103026202Y-113965000D03*
D38*
X104131202Y-115002000D03*
X104131202Y-115902000D03*
X105171202Y-115902000D03*
X105171202Y-115002000D03*
%TD*%
D19*
%TO.C,R10*%
X107550000Y-129820000D03*
X109200000Y-129820000D03*
%TD*%
%TO.C,R8*%
X101375000Y-130000000D03*
X103025000Y-130000000D03*
%TD*%
%TO.C,R12*%
X110800000Y-117250000D03*
X112450000Y-117250000D03*
%TD*%
D39*
%TO.C,U5*%
X108100000Y-124500000D03*
X108100000Y-123850000D03*
X108100000Y-123200000D03*
X108100000Y-122550000D03*
X105825000Y-122550000D03*
X105825000Y-123200000D03*
X105825000Y-123850000D03*
X105825000Y-124500000D03*
%TD*%
D19*
%TO.C,R1*%
X120025000Y-128400000D03*
X121675000Y-128400000D03*
%TD*%
D40*
%TO.C,U2*%
X111749999Y-112155700D03*
X112250000Y-112155700D03*
X112750000Y-112155700D03*
X113250001Y-112155700D03*
D41*
X113414400Y-111499999D03*
X113414400Y-111000000D03*
X113414400Y-110500001D03*
D40*
X113250001Y-109844300D03*
X112750000Y-109844300D03*
X112250000Y-109844300D03*
X111749999Y-109844300D03*
D41*
X111585600Y-110500001D03*
X111585600Y-111000000D03*
X111585600Y-111499999D03*
%TD*%
D19*
%TO.C,R2*%
X120025000Y-126900000D03*
X121675000Y-126900000D03*
%TD*%
D34*
%TO.C,C12*%
X104475000Y-135300000D03*
X106025000Y-135300000D03*
%TD*%
D23*
%TO.C,R18*%
X119500000Y-122325000D03*
X119500000Y-120675000D03*
%TD*%
D32*
%TO.C,C2*%
X123450000Y-131650000D03*
X123450000Y-133550000D03*
%TD*%
D42*
%TO.C,S1*%
X123770000Y-121487500D03*
X123270000Y-121487500D03*
X122770000Y-121487500D03*
X122770000Y-123587500D03*
X123270000Y-123587500D03*
X123770000Y-123587500D03*
D43*
X123270000Y-122537500D03*
%TD*%
D44*
%TO.C,LED1*%
X103000000Y-122300000D03*
X103000000Y-123100000D03*
X102200000Y-123100000D03*
X102200000Y-122300000D03*
%TD*%
D45*
%TO.C,U3*%
X102226999Y-133510301D03*
X102726999Y-133510301D03*
D46*
X103250000Y-133249999D03*
X103250000Y-132750000D03*
X103250000Y-132250001D03*
D45*
X102726999Y-131989699D03*
X102226999Y-131989699D03*
D46*
X101703998Y-132250001D03*
X101703998Y-132750000D03*
X101703998Y-133249999D03*
%TD*%
M02*
